G04*
G04 #@! TF.GenerationSoftware,Altium Limited,Altium Designer,18.1.11 (251)*
G04*
G04 Layer_Color=8388736*
%FSLAX25Y25*%
%MOIN*%
G70*
G01*
G75*
%ADD15R,0.03543X0.06496*%
%ADD16R,0.06496X0.03543*%
%ADD17R,0.03937X0.03543*%
%ADD18R,0.03543X0.03937*%
%ADD19R,0.07284X0.02559*%
%ADD20C,0.27559*%
%ADD21C,0.06496*%
%ADD22R,0.06496X0.06496*%
%ADD23C,0.06299*%
%ADD24R,0.06299X0.06299*%
%ADD25R,0.06496X0.06496*%
%ADD26R,0.06299X0.06299*%
%ADD27C,0.07000*%
%ADD28C,0.06000*%
%ADD29C,0.17717*%
%ADD30C,0.11811*%
%ADD31C,0.12598*%
%ADD32C,0.07874*%
D15*
X415000Y250000D02*
D03*
X410000D02*
D03*
X704500Y228077D02*
D03*
X709500D02*
D03*
X699500D02*
D03*
X704500Y216288D02*
D03*
X709500D02*
D03*
X699500D02*
D03*
X704500Y204500D02*
D03*
X709500D02*
D03*
X699500D02*
D03*
X316500Y231640D02*
D03*
X321500D02*
D03*
X311500D02*
D03*
X316500Y219851D02*
D03*
X321500D02*
D03*
X311500D02*
D03*
X316500Y208063D02*
D03*
X321500D02*
D03*
X311500D02*
D03*
X415000Y260000D02*
D03*
X410000D02*
D03*
X415000Y240000D02*
D03*
X410000D02*
D03*
X415000Y188000D02*
D03*
X410000D02*
D03*
X415000Y218000D02*
D03*
X410000D02*
D03*
X415000Y198000D02*
D03*
X410000D02*
D03*
X415000Y208000D02*
D03*
X410000D02*
D03*
X415000Y178000D02*
D03*
X410000D02*
D03*
X415000Y168000D02*
D03*
X410000D02*
D03*
X889500Y487000D02*
D03*
X879500D02*
D03*
X884500D02*
D03*
X767912Y198500D02*
D03*
X757912D02*
D03*
X762912D02*
D03*
X211000Y384500D02*
D03*
X201000D02*
D03*
X206000D02*
D03*
Y197000D02*
D03*
X196000D02*
D03*
X201000D02*
D03*
X760500Y384500D02*
D03*
X750500D02*
D03*
X755500D02*
D03*
X728500Y108500D02*
D03*
X718500D02*
D03*
X723500D02*
D03*
X245500Y113000D02*
D03*
X235500D02*
D03*
X240500D02*
D03*
X84500Y493000D02*
D03*
X74500D02*
D03*
X79500D02*
D03*
X410000Y230000D02*
D03*
X415000D02*
D03*
D16*
X248000Y317000D02*
D03*
Y307000D02*
D03*
Y312000D02*
D03*
X712500Y313000D02*
D03*
Y303000D02*
D03*
Y308000D02*
D03*
D17*
X237500Y316500D02*
D03*
X230413D02*
D03*
X230457Y308500D02*
D03*
X237543D02*
D03*
X731043Y304000D02*
D03*
X723957D02*
D03*
Y313000D02*
D03*
X731043D02*
D03*
X394457Y240000D02*
D03*
X401543D02*
D03*
X394457Y178000D02*
D03*
X401543D02*
D03*
Y168000D02*
D03*
X394457D02*
D03*
X197545Y183500D02*
D03*
X204632D02*
D03*
X702543Y176500D02*
D03*
X695457D02*
D03*
X236457Y99000D02*
D03*
X243543D02*
D03*
X75957Y479000D02*
D03*
X83043D02*
D03*
X202545Y370500D02*
D03*
X209632D02*
D03*
X727043Y94500D02*
D03*
X719957D02*
D03*
X760043Y371000D02*
D03*
X752957D02*
D03*
X719957Y81293D02*
D03*
X727043D02*
D03*
X766043Y185000D02*
D03*
X758957D02*
D03*
X888543Y474000D02*
D03*
X881457D02*
D03*
X888543Y460707D02*
D03*
X881457D02*
D03*
X655043Y264000D02*
D03*
X647957D02*
D03*
X75957Y464707D02*
D03*
X83043D02*
D03*
X204632Y170617D02*
D03*
X197545D02*
D03*
X766043Y171117D02*
D03*
X758957D02*
D03*
X310457Y182500D02*
D03*
X317543D02*
D03*
X695457Y169500D02*
D03*
X702543D02*
D03*
X695457Y183500D02*
D03*
X702543D02*
D03*
X310457Y189000D02*
D03*
X317543D02*
D03*
X310457Y176000D02*
D03*
X317543D02*
D03*
X306043Y264000D02*
D03*
X298957D02*
D03*
X752957Y358095D02*
D03*
X760043D02*
D03*
X243543Y85793D02*
D03*
X236457D02*
D03*
X209632Y357000D02*
D03*
X202545D02*
D03*
X401543Y208000D02*
D03*
X394457D02*
D03*
X401543Y218000D02*
D03*
X394457D02*
D03*
X401543Y188000D02*
D03*
X394457D02*
D03*
X401543Y198000D02*
D03*
X394457D02*
D03*
X401543Y250000D02*
D03*
X394457D02*
D03*
X401543Y260000D02*
D03*
X394457D02*
D03*
X401543Y230000D02*
D03*
X394457D02*
D03*
D18*
X629500Y115543D02*
D03*
Y108457D02*
D03*
X649500Y115543D02*
D03*
Y108457D02*
D03*
X669500Y115543D02*
D03*
Y108457D02*
D03*
X384000Y106957D02*
D03*
Y114043D02*
D03*
X404000D02*
D03*
Y106957D02*
D03*
X424000Y114043D02*
D03*
Y106957D02*
D03*
X639500Y108457D02*
D03*
Y115543D02*
D03*
X679354Y108457D02*
D03*
Y115543D02*
D03*
X659500Y108457D02*
D03*
Y115543D02*
D03*
X414000Y106957D02*
D03*
Y114043D02*
D03*
X394000Y106957D02*
D03*
Y114043D02*
D03*
X373646Y106957D02*
D03*
Y114043D02*
D03*
D19*
X641594Y234500D02*
D03*
Y229500D02*
D03*
Y224500D02*
D03*
Y219500D02*
D03*
Y214500D02*
D03*
Y209500D02*
D03*
Y204500D02*
D03*
Y199500D02*
D03*
Y194500D02*
D03*
Y189500D02*
D03*
Y184500D02*
D03*
Y179500D02*
D03*
Y174500D02*
D03*
Y169500D02*
D03*
X678406D02*
D03*
Y174500D02*
D03*
Y179500D02*
D03*
Y184500D02*
D03*
Y189500D02*
D03*
Y194500D02*
D03*
Y199500D02*
D03*
Y204500D02*
D03*
Y209500D02*
D03*
Y214500D02*
D03*
Y219500D02*
D03*
Y224500D02*
D03*
Y229500D02*
D03*
Y234500D02*
D03*
X256594Y240819D02*
D03*
Y235819D02*
D03*
Y230819D02*
D03*
Y225819D02*
D03*
Y220819D02*
D03*
Y215819D02*
D03*
Y210819D02*
D03*
Y205819D02*
D03*
Y200819D02*
D03*
Y195819D02*
D03*
Y190819D02*
D03*
Y185819D02*
D03*
Y180819D02*
D03*
Y175819D02*
D03*
X293406D02*
D03*
Y180819D02*
D03*
Y185819D02*
D03*
Y190819D02*
D03*
Y195819D02*
D03*
Y200819D02*
D03*
Y205819D02*
D03*
Y210819D02*
D03*
Y215819D02*
D03*
Y220819D02*
D03*
Y225819D02*
D03*
Y230819D02*
D03*
Y235819D02*
D03*
Y240819D02*
D03*
D20*
X453500Y290252D02*
D03*
D21*
X629500Y73500D02*
D03*
Y83500D02*
D03*
X649500Y73500D02*
D03*
Y83500D02*
D03*
X659500Y73500D02*
D03*
Y83500D02*
D03*
X679500Y73500D02*
D03*
X669500Y83500D02*
D03*
Y73500D02*
D03*
X639500Y83500D02*
D03*
Y73500D02*
D03*
X374000D02*
D03*
Y83500D02*
D03*
X394000Y73500D02*
D03*
Y83500D02*
D03*
X404000Y73500D02*
D03*
Y83500D02*
D03*
X424000Y73500D02*
D03*
X414000Y83500D02*
D03*
Y73500D02*
D03*
X384000Y83500D02*
D03*
Y73500D02*
D03*
X484993Y172543D02*
D03*
X474993D02*
D03*
X484993Y182543D02*
D03*
X535500Y355500D02*
D03*
Y345500D02*
D03*
X525500Y355500D02*
D03*
X545500Y345500D02*
D03*
Y355500D02*
D03*
X555500Y345500D02*
D03*
Y355500D02*
D03*
X762912Y299421D02*
D03*
X752912D02*
D03*
X762912Y269421D02*
D03*
X752912D02*
D03*
X762912Y259421D02*
D03*
X752912Y279421D02*
D03*
X762912D02*
D03*
X752912Y289421D02*
D03*
X762912D02*
D03*
X201089Y265329D02*
D03*
X211089D02*
D03*
X201089Y295329D02*
D03*
X211089D02*
D03*
X201089Y305329D02*
D03*
X211089Y285329D02*
D03*
X201089D02*
D03*
X211089Y275329D02*
D03*
X201089D02*
D03*
X327000Y83500D02*
D03*
Y73500D02*
D03*
X317000Y83500D02*
D03*
X337000Y73500D02*
D03*
Y83500D02*
D03*
D22*
X679500D02*
D03*
X424000D02*
D03*
X525500Y345500D02*
D03*
X317000Y73500D02*
D03*
D23*
X495000Y122000D02*
D03*
X475000D02*
D03*
X485000D02*
D03*
X554212Y93821D02*
D03*
Y83821D02*
D03*
X542712Y93821D02*
D03*
Y83821D02*
D03*
X531212Y93821D02*
D03*
Y83821D02*
D03*
X433500Y348500D02*
D03*
Y362000D02*
D03*
X553000Y218000D02*
D03*
Y198000D02*
D03*
Y178000D02*
D03*
Y188000D02*
D03*
Y208000D02*
D03*
X537000Y300000D02*
D03*
Y280000D02*
D03*
Y260000D02*
D03*
Y240000D02*
D03*
Y250000D02*
D03*
Y270000D02*
D03*
Y290000D02*
D03*
X427000Y300000D02*
D03*
Y280000D02*
D03*
Y260000D02*
D03*
Y240000D02*
D03*
Y250000D02*
D03*
Y270000D02*
D03*
Y290000D02*
D03*
Y218000D02*
D03*
Y198000D02*
D03*
Y178000D02*
D03*
Y188000D02*
D03*
Y208000D02*
D03*
X537000Y218000D02*
D03*
Y198000D02*
D03*
Y178000D02*
D03*
Y188000D02*
D03*
Y208000D02*
D03*
X565212Y73799D02*
D03*
Y83799D02*
D03*
X295000Y73500D02*
D03*
X285000D02*
D03*
X306103Y275332D02*
D03*
X647897D02*
D03*
D24*
X465000Y122000D02*
D03*
X423500Y348500D02*
D03*
Y362000D02*
D03*
X275000Y73500D02*
D03*
X316103Y275332D02*
D03*
X657897D02*
D03*
D25*
X474993Y182543D02*
D03*
X752912Y259421D02*
D03*
X211089Y305329D02*
D03*
D26*
X554212Y73821D02*
D03*
X542712D02*
D03*
X531212D02*
D03*
X553000Y168000D02*
D03*
X537000Y230000D02*
D03*
X427000D02*
D03*
Y168000D02*
D03*
X537000D02*
D03*
X565212Y93799D02*
D03*
D27*
X763660Y85793D02*
D03*
X738069D02*
D03*
X763660Y103510D02*
D03*
X738069D02*
D03*
X225931Y85793D02*
D03*
X200340D02*
D03*
X225931Y103510D02*
D03*
X200340D02*
D03*
X802707Y176117D02*
D03*
X777116D02*
D03*
X802707Y193834D02*
D03*
X777116D02*
D03*
X186884Y176117D02*
D03*
X161294D02*
D03*
X186884Y193834D02*
D03*
X161294D02*
D03*
X798236Y362095D02*
D03*
X772646D02*
D03*
X798236Y379812D02*
D03*
X772646D02*
D03*
X191355Y362095D02*
D03*
X165764D02*
D03*
X191355Y379812D02*
D03*
X165764D02*
D03*
X927670Y464707D02*
D03*
X902079D02*
D03*
X927670Y482423D02*
D03*
X902079Y482423D02*
D03*
X61921Y464707D02*
D03*
X36330D02*
D03*
X61921Y482423D02*
D03*
X36330Y482423D02*
D03*
D28*
X750865Y84809D02*
D03*
Y104494D02*
D03*
X213136Y84809D02*
D03*
Y104494D02*
D03*
X789911Y175133D02*
D03*
Y194818D02*
D03*
X174089Y175133D02*
D03*
Y194818D02*
D03*
X785441Y361111D02*
D03*
Y380796D02*
D03*
X178559Y361111D02*
D03*
Y380796D02*
D03*
X914875Y463722D02*
D03*
Y483407D02*
D03*
X49126Y463722D02*
D03*
Y483407D02*
D03*
D29*
X697897Y275332D02*
D03*
X729393D02*
D03*
X234607D02*
D03*
X266103D02*
D03*
D30*
X757912Y330329D02*
D03*
X150971D02*
D03*
X206089Y234421D02*
D03*
X813030D02*
D03*
Y330329D02*
D03*
X206089D02*
D03*
X150971Y234421D02*
D03*
X757912D02*
D03*
D31*
X734859Y176815D02*
D03*
X816646Y452157D02*
D03*
X147354D02*
D03*
X229141Y176815D02*
D03*
X718221Y141134D02*
D03*
X844485Y479996D02*
D03*
X119516D02*
D03*
X245780Y141134D02*
D03*
D32*
X914875Y473565D02*
D03*
X213136Y94651D02*
D03*
X49126Y473565D02*
D03*
X750865Y94651D02*
D03*
X785441Y370954D02*
D03*
X174089Y184975D02*
D03*
X178559Y370954D02*
D03*
X789911Y184975D02*
D03*
M02*
