M48
;Layer_Color=9474304
;FILE_FORMAT=2:5
INCH,TZ
;TYPE=PLATED
T1F00S00C0.01181
T2F00S00C0.02800
T3F00S00C0.03150
T4F00S00C0.03937
T5F00S00C0.04331
T6F00S00C0.07874
T7F00S00C0.11811
T8F00S00C0.12598
T9F00S00C0.17717
%
T01
X268500Y85723
X280500Y103891
X277500Y107500
X274000Y111000
X271500Y114000
X252000Y113000
X284500Y100657
X287000Y97500
X291000Y119500
X333500
X364500Y104000
Y97563
X367621Y100657
X368000Y107500
X394000Y114000
X404000
X414000Y114043
X424000
X421000Y123000
X422000Y155187
X426000Y155000
X417500Y155187
X413022Y155500
X409000Y155520
X441042Y143000
X474993Y154500
X480000
X572000Y95661
X728547Y115000
X789911Y212000
X772299Y216288
X758500Y216252
X768000Y204500
X716903Y209500
X694381Y212842
X694420Y217622
X694500Y227720
X707956Y234187
X710500Y239000
X713000Y256810
X709000Y260000
X706094Y287500
X704546Y291000
X709000Y295329
X713000Y292056
X716500Y287500
X744500Y281549
X678000Y267000
Y259612
X667500Y261000
Y247500
X658500Y214595
X686000Y214500
X686500Y209500
X694638Y204557
X706052Y189350
X706094Y169500
X634500Y174319
X631571Y179500
X633000Y194500
X570358Y235000
X566500Y238000
X553610Y250000
X550000Y260000
X547000Y270000
X544000Y280000
X558774Y274500
X562187Y265000
X557500Y290000
X511966Y288000
X511980Y248000
X531000
X512000Y223342
X522860Y167000
X528020Y166980
X495000Y160500
X475000Y160709
X465000Y182543
X415000Y250000
Y266812
X333500Y255113
X316500Y226000
X316500Y214558
X315000Y200925
X311428Y201500
X306992Y207890
X307012Y219851
X300288Y225500
X300456Y230819
X300288Y235888
X300456Y241044
X306248Y231507
X281476Y232500
X278000Y232613
X279000Y226313
X270610Y226522
X268500Y230132
X265500Y233000
X286000Y223000
Y196500
X280500
X277500Y193500
X271630Y193834
X274000Y196500
X283500Y193252
X262000Y185819
X264500Y180819
X264231Y164000
X291500
X249000Y200819
X236500Y226500
X223500Y233165
X236441Y247970
X233000Y257000
X247000Y253318
X244071Y285313
X220456Y290105
X220500Y307821
X200500Y212000
X174089
X211977Y197000
X209605Y170500
X283000Y253318
X287000Y257000
X290500Y260500
X293353Y263500
X69776Y457838
X178559Y414000
X217000Y384467
X218151Y316423
X255500Y317000
X275500Y341500
X281000Y357000
X275507Y366000
X278000Y368716
X313000Y335000
X312944Y316000
X412500Y323500
X415000Y326500
X418500Y321000
X420698Y318000
X511992Y321687
X537000Y315000
X553500Y339000
X548038Y364500
X695642Y354500
X714842
X712313Y337500
X729000Y338000
X734000Y382000
X742500Y390500
X765585Y384500
X704500Y313000
X786000Y401000
Y432888
X894500Y487000
X90500Y493024
X69776Y493000
T02
X446332Y283084
X453500Y280114
X460669Y283084
X463638Y290252
X460669Y297421
X453500Y300390
X446332Y297421
X443362Y290252
T03
X213136Y84809
Y104494
X750865
Y84809
X789911Y175133
Y194818
X174089
Y175133
X49126Y463722
X178559Y380796
Y361111
X785441
Y380796
X914875Y463722
Y483407
X49126
T04
X200340Y85793
Y103510
X225931
Y85793
X738069
Y103510
X763660
Y85793
X802707Y176117
Y193834
X777116
Y176117
X186884
X186884Y193834
X161294
Y176117
X61921Y464707
X36330
X165764Y379812
Y362095
X191355
Y379812
X772646
Y362095
X798236
X798236Y379812
X902079Y464707
X927670
Y482423
X902079Y482423
X61921Y482423
X36330Y482423
T05
X275000Y73500
X285000
X295000
X317000
X327000
Y83500
X317000
X337000
Y73500
X374000
Y83500
X384000
X394000
Y73500
X404000
Y83500
X414000
X424000
Y73500
X414000
X384000
X465000Y122000
X475000
X485000
X495000
X531212Y93821
Y83821
Y73821
X542712
Y83821
Y93821
X554212
Y83821
Y73821
X565212Y73799
Y83799
Y93799
X629500Y83500
Y73500
X639500
X649500
Y83500
X659500
Y73500
X669500
X679500
Y83500
X669500
X639500
X647897Y275332
X657897
X752912Y279421
Y269421
X762912
Y259421
X752912
X762912Y279421
Y289421
Y299421
X752912
Y289421
X537000Y290000
Y300000
Y280000
Y270000
Y260000
Y250000
Y240000
Y230000
Y218000
Y208000
Y198000
Y188000
Y178000
Y168000
X553000
Y178000
Y188000
Y198000
Y208000
Y218000
X484993Y182543
Y172543
X474993
Y182543
X427000Y178000
Y168000
Y188000
Y198000
Y208000
Y218000
Y230000
Y240000
Y250000
Y260000
Y270000
Y280000
Y290000
Y300000
X316103Y275332
X306103
X211089Y275329
Y265329
X201089
Y275329
Y285329
Y295329
X211089
Y305329
X201089
X211089Y285329
X423500Y348500
X433500
Y362000
X423500
X525500Y355500
X535500
Y345500
X525500
X545500
Y355500
X555500
Y345500
T06
X213136Y94651
X750865
X789911Y184975
X174089
X178559Y370954
X785441
X914875Y473565
X49126
T07
X813030Y234421
X757912
X206089
X150971
Y330329
X206089
X757912
X813030
T08
X245780Y141134
X718221
X734859Y176815
X453500Y290252
X229141Y176815
X147354Y452157
X816646
X844485Y479996
X119516
T09
X697897Y275332
X729393
X266103
X234607
M30
