G04*
G04 #@! TF.GenerationSoftware,Altium Limited,Altium Designer,18.1.11 (251)*
G04*
G04 Layer_Color=32896*
%FSLAX25Y25*%
%MOIN*%
G70*
G01*
G75*
%ADD10C,0.01000*%
D10*
X763976Y114180D02*
X764632Y114836D01*
X765944D01*
X766600Y114180D01*
Y113524D01*
X765944Y112868D01*
X764632D01*
X763976Y112212D01*
Y111556D01*
X764632Y110900D01*
X765944D01*
X766600Y111556D01*
X762664Y114836D02*
Y110900D01*
X761352Y112212D01*
X760040Y110900D01*
Y114836D01*
X758729Y114180D02*
X758073Y114836D01*
X756761D01*
X756105Y114180D01*
Y113524D01*
X756761Y112868D01*
X756105Y112212D01*
Y111556D01*
X756761Y110900D01*
X758073D01*
X758729Y111556D01*
Y112212D01*
X758073Y112868D01*
X758729Y113524D01*
Y114180D01*
X758073Y112868D02*
X756761D01*
X226176Y114180D02*
X226832Y114836D01*
X228144D01*
X228800Y114180D01*
Y113524D01*
X228144Y112868D01*
X226832D01*
X226176Y112212D01*
Y111556D01*
X226832Y110900D01*
X228144D01*
X228800Y111556D01*
X224864Y114836D02*
Y110900D01*
X223552Y112212D01*
X222240Y110900D01*
Y114836D01*
X218961Y110900D02*
Y114836D01*
X220929Y112868D01*
X218305D01*
X802976Y204480D02*
X803632Y205136D01*
X804944D01*
X805600Y204480D01*
Y203824D01*
X804944Y203168D01*
X803632D01*
X802976Y202512D01*
Y201856D01*
X803632Y201200D01*
X804944D01*
X805600Y201856D01*
X801664Y205136D02*
Y201200D01*
X800352Y202512D01*
X799040Y201200D01*
Y205136D01*
X797728D02*
X795105D01*
Y204480D01*
X797728Y201856D01*
Y201200D01*
X187176Y204480D02*
X187832Y205136D01*
X189144D01*
X189800Y204480D01*
Y203824D01*
X189144Y203168D01*
X187832D01*
X187176Y202512D01*
Y201856D01*
X187832Y201200D01*
X189144D01*
X189800Y201856D01*
X185864Y205136D02*
Y201200D01*
X184552Y202512D01*
X183240Y201200D01*
Y205136D01*
X181929Y204480D02*
X181273Y205136D01*
X179961D01*
X179305Y204480D01*
Y203824D01*
X179961Y203168D01*
X180617D01*
X179961D01*
X179305Y202512D01*
Y201856D01*
X179961Y201200D01*
X181273D01*
X181929Y201856D01*
X798476Y390480D02*
X799132Y391136D01*
X800444D01*
X801100Y390480D01*
Y389824D01*
X800444Y389168D01*
X799132D01*
X798476Y388512D01*
Y387856D01*
X799132Y387200D01*
X800444D01*
X801100Y387856D01*
X797164Y391136D02*
Y387200D01*
X795852Y388512D01*
X794540Y387200D01*
Y391136D01*
X790605D02*
X791917Y390480D01*
X793228Y389168D01*
Y387856D01*
X792573Y387200D01*
X791261D01*
X790605Y387856D01*
Y388512D01*
X791261Y389168D01*
X793228D01*
X191676Y390480D02*
X192332Y391136D01*
X193644D01*
X194300Y390480D01*
Y389824D01*
X193644Y389168D01*
X192332D01*
X191676Y388512D01*
Y387856D01*
X192332Y387200D01*
X193644D01*
X194300Y387856D01*
X190364Y391136D02*
Y387200D01*
X189052Y388512D01*
X187740Y387200D01*
Y391136D01*
X183805Y387200D02*
X186428D01*
X183805Y389824D01*
Y390480D01*
X184461Y391136D01*
X185773D01*
X186428Y390480D01*
X927976Y493080D02*
X928632Y493736D01*
X929944D01*
X930600Y493080D01*
Y492424D01*
X929944Y491768D01*
X928632D01*
X927976Y491112D01*
Y490456D01*
X928632Y489800D01*
X929944D01*
X930600Y490456D01*
X926664Y493736D02*
Y489800D01*
X925352Y491112D01*
X924040Y489800D01*
Y493736D01*
X920105D02*
X922729D01*
Y491768D01*
X921417Y492424D01*
X920761D01*
X920105Y491768D01*
Y490456D01*
X920761Y489800D01*
X922073D01*
X922729Y490456D01*
X62176Y493080D02*
X62832Y493736D01*
X64144D01*
X64800Y493080D01*
Y492424D01*
X64144Y491768D01*
X62832D01*
X62176Y491112D01*
Y490456D01*
X62832Y489800D01*
X64144D01*
X64800Y490456D01*
X60864Y493736D02*
Y489800D01*
X59552Y491112D01*
X58240Y489800D01*
Y493736D01*
X56928Y489800D02*
X55617D01*
X56273D01*
Y493736D01*
X56928Y493080D01*
M02*
