G04*
G04 #@! TF.GenerationSoftware,Altium Limited,Altium Designer,18.1.11 (251)*
G04*
G04 Layer_Physical_Order=2*
G04 Layer_Color=16711680*
%FSLAX25Y25*%
%MOIN*%
G70*
G01*
G75*
%ADD10C,0.01000*%
%ADD20C,0.27559*%
%ADD21C,0.06496*%
%ADD22R,0.06496X0.06496*%
%ADD23C,0.06299*%
%ADD24R,0.06299X0.06299*%
%ADD25R,0.06496X0.06496*%
%ADD26R,0.06299X0.06299*%
%ADD27C,0.07000*%
%ADD28C,0.06000*%
%ADD29C,0.17717*%
%ADD30C,0.11811*%
%ADD31C,0.12598*%
%ADD32C,0.07874*%
%ADD33C,0.02000*%
%ADD34C,0.05000*%
%ADD35C,0.02520*%
%ADD36C,0.03000*%
G36*
X887378Y512303D02*
X897246Y511583D01*
X907062Y510343D01*
X916794Y508588D01*
X922194Y507253D01*
X927473Y505516D01*
X932607Y503387D01*
X937565Y500877D01*
X942320Y498001D01*
X946845Y494774D01*
X951106Y491224D01*
X953585Y488709D01*
X955738Y485923D01*
X957542Y482900D01*
X958969Y479681D01*
X960001Y476315D01*
X960621Y472850D01*
X960821Y469335D01*
X960598Y465821D01*
X959955Y462360D01*
X958901Y459001D01*
X957452Y455792D01*
X955629Y452780D01*
X953458Y450009D01*
X950970Y447518D01*
X948201Y445344D01*
X945191Y443517D01*
X941985Y442065D01*
X938626Y441007D01*
X935166Y440360D01*
X931652Y440133D01*
X928084Y440332D01*
X921308Y440812D01*
X921262Y440807D01*
X921216Y440815D01*
X914428Y440683D01*
X910709Y440689D01*
X907079Y441176D01*
X903545Y442137D01*
X900168Y443555D01*
X896956Y445434D01*
X892542Y448108D01*
X892493Y448126D01*
X892451Y448157D01*
X887783Y450374D01*
X887732Y450387D01*
X887688Y450414D01*
X882819Y452148D01*
X882772Y452154D01*
X882730Y452175D01*
X876083Y453873D01*
X876040Y453876D01*
X876000Y453891D01*
X869236Y455036D01*
X869181Y455034D01*
X869127Y455049D01*
X865755Y455250D01*
X865687Y455240D01*
X865618Y455249D01*
X862250Y454998D01*
X862183Y454980D01*
X862115Y454979D01*
X858809Y454282D01*
X858746Y454254D01*
X858678Y454245D01*
X855495Y453112D01*
X855436Y453077D01*
X855370Y453058D01*
X852367Y451511D01*
X852318Y451473D01*
X852261Y451448D01*
X846709Y447677D01*
X846670Y447638D01*
X846621Y447610D01*
X841508Y443262D01*
X841471Y443215D01*
X841422Y443180D01*
X838382Y439911D01*
X838348Y439855D01*
X838301Y439811D01*
X835695Y436187D01*
X835669Y436128D01*
X835627Y436079D01*
X833497Y432156D01*
X833484Y432114D01*
X833459Y432077D01*
X829250Y422432D01*
X829245Y422409D01*
X829232Y422388D01*
X825475Y412559D01*
X825468Y412517D01*
X825448Y412480D01*
X823666Y406376D01*
X823661Y406317D01*
X823640Y406261D01*
X822575Y399992D01*
X822576Y399958D01*
X822566Y399926D01*
X820022Y375414D01*
X820024Y375386D01*
X820017Y375358D01*
X819731Y369321D01*
X819739Y369271D01*
X819732Y369221D01*
X820039Y363185D01*
X820051Y363136D01*
X820049Y363086D01*
X820947Y357109D01*
X820962Y357067D01*
X820964Y357022D01*
X822386Y351121D01*
X822403Y351085D01*
X822408Y351045D01*
X824277Y345270D01*
X824297Y345236D01*
X824304Y345197D01*
X826611Y339582D01*
X826632Y339549D01*
X826643Y339511D01*
X829372Y334089D01*
X829397Y334058D01*
X829410Y334021D01*
X832546Y328823D01*
X832573Y328794D01*
X832589Y328758D01*
X836114Y323816D01*
X836143Y323789D01*
X836162Y323754D01*
X840032Y319123D01*
X840670Y318244D01*
X841078Y317318D01*
X841280Y316326D01*
X841267Y315314D01*
X841041Y314328D01*
X840611Y313412D01*
X839997Y312607D01*
X839226Y311951D01*
X838334Y311474D01*
X837360Y311195D01*
X836351Y311130D01*
X835350Y311279D01*
X834403Y311637D01*
X833486Y312232D01*
X830379Y314497D01*
X830330Y314519D01*
X830290Y314554D01*
X826942Y316500D01*
X826891Y316517D01*
X826848Y316548D01*
X823316Y318137D01*
X823264Y318149D01*
X823218Y318175D01*
X819541Y319390D01*
X819488Y319396D01*
X819439Y319418D01*
X815656Y320246D01*
X815602Y320247D01*
X815551Y320263D01*
X811703Y320696D01*
X811650Y320691D01*
X811598Y320702D01*
X807725Y320735D01*
X807673Y320725D01*
X807619Y320730D01*
X803764Y320362D01*
X803713Y320346D01*
X803660Y320346D01*
X799864Y319581D01*
X799814Y319561D01*
X799761Y319555D01*
X796064Y318402D01*
X796018Y318376D01*
X795965Y318365D01*
X792407Y316836D01*
X792364Y316806D01*
X792313Y316789D01*
X788932Y314900D01*
X788892Y314865D01*
X788843Y314844D01*
X785675Y312615D01*
X785639Y312576D01*
X785592Y312550D01*
X782673Y310006D01*
X782640Y309963D01*
X782597Y309932D01*
X779956Y307100D01*
X779928Y307054D01*
X779888Y307019D01*
X777554Y303929D01*
X777531Y303881D01*
X777495Y303841D01*
X775493Y300526D01*
X775475Y300476D01*
X775443Y300433D01*
X773795Y296929D01*
X773782Y296877D01*
X773755Y296831D01*
X772478Y293175D01*
X772470Y293122D01*
X772448Y293074D01*
X771556Y289305D01*
X771554Y289252D01*
X771537Y289201D01*
X771039Y285361D01*
X771043Y285307D01*
X771031Y285255D01*
X770933Y281384D01*
X770942Y281331D01*
X770936Y281278D01*
X771239Y277417D01*
X771253Y277366D01*
X771252Y277313D01*
X771953Y273504D01*
X771973Y273454D01*
X771977Y273401D01*
X773068Y269685D01*
X773093Y269638D01*
X773103Y269586D01*
X774572Y266002D01*
X774601Y265958D01*
X774617Y265907D01*
X776449Y262495D01*
X776482Y262454D01*
X776503Y262404D01*
X778678Y259200D01*
X778716Y259162D01*
X778742Y259116D01*
X781236Y256153D01*
X781278Y256120D01*
X781308Y256076D01*
X784095Y253388D01*
X784140Y253359D01*
X784175Y253318D01*
X787225Y250932D01*
X787273Y250908D01*
X787312Y250872D01*
X790593Y248814D01*
X790642Y248795D01*
X790685Y248763D01*
X794161Y247055D01*
X794212Y247041D01*
X794258Y247013D01*
X797892Y245675D01*
X797944Y245666D01*
X797993Y245643D01*
X801745Y244687D01*
X801799Y244685D01*
X801849Y244667D01*
X805681Y244104D01*
X805734Y244107D01*
X805786Y244094D01*
X809655Y243930D01*
X809708Y243939D01*
X809760Y243931D01*
X813626Y244169D01*
X813678Y244182D01*
X813731Y244181D01*
X817551Y244817D01*
X817601Y244835D01*
X817654Y244839D01*
X821346Y245855D01*
X823826Y246312D01*
X826272Y246083D01*
X828846Y245273D01*
X831303Y244082D01*
X833560Y242546D01*
X835569Y240696D01*
X837287Y238573D01*
X838676Y236222D01*
X839708Y233694D01*
X840359Y231042D01*
X840616Y228323D01*
X840474Y225596D01*
X839936Y222919D01*
X838992Y220291D01*
X836557Y214033D01*
X836549Y213985D01*
X836526Y213942D01*
X834690Y207469D01*
X834686Y207420D01*
X834668Y207375D01*
X833449Y200758D01*
X833449Y200746D01*
X833445Y200735D01*
X830628Y183213D01*
X826956Y165863D01*
X825123Y158158D01*
X822396Y147902D01*
X819150Y137812D01*
X815390Y127902D01*
X811130Y118202D01*
X788992Y75229D01*
X786860Y71518D01*
X784387Y68060D01*
X781582Y64864D01*
X778474Y61963D01*
X775094Y59384D01*
X771474Y57153D01*
X767651Y55293D01*
X763662Y53822D01*
X759546Y52753D01*
X755345Y52098D01*
X751100Y51864D01*
X746852Y52052D01*
X742644Y52660D01*
X738517Y53684D01*
X734512Y55111D01*
X730623Y56951D01*
X730617Y56953D01*
X730612Y56956D01*
X726217Y58972D01*
X726156Y58987D01*
X726100Y59017D01*
X721492Y60479D01*
X721429Y60487D01*
X721370Y60510D01*
X716617Y61396D01*
X716554Y61396D01*
X716493Y61412D01*
X711667Y61708D01*
X711635Y61704D01*
X711604Y61710D01*
X530668D01*
X527645Y61917D01*
X524712Y62527D01*
X521889Y63531D01*
X519229Y64911D01*
X516783Y66640D01*
X514594Y68686D01*
X512705Y71011D01*
X511150Y73572D01*
X509959Y76321D01*
X509154Y79207D01*
X508740Y82241D01*
X508322Y85440D01*
X508302Y85501D01*
X508298Y85566D01*
X507483Y88690D01*
X507455Y88748D01*
X507443Y88812D01*
X506244Y91810D01*
X506209Y91864D01*
X506189Y91925D01*
X504625Y94750D01*
X504584Y94799D01*
X504556Y94858D01*
X502651Y97465D01*
X502604Y97509D01*
X502570Y97563D01*
X500354Y99912D01*
X500301Y99949D01*
X500260Y99999D01*
X497768Y102052D01*
X497712Y102083D01*
X497665Y102127D01*
X494936Y103853D01*
X494875Y103876D01*
X494824Y103915D01*
X491900Y105286D01*
X491838Y105301D01*
X491781Y105333D01*
X488709Y106328D01*
X488645Y106335D01*
X488586Y106359D01*
X485413Y106963D01*
X485349Y106962D01*
X485287Y106979D01*
X482064Y107181D01*
X482000Y107172D01*
X481936Y107181D01*
X478714Y106979D01*
X478651Y106962D01*
X478587Y106963D01*
X475415Y106359D01*
X475355Y106335D01*
X475291Y106328D01*
X472219Y105333D01*
X472163Y105301D01*
X472100Y105286D01*
X469177Y103915D01*
X469125Y103876D01*
X469065Y103853D01*
X466335Y102127D01*
X466289Y102083D01*
X466232Y102052D01*
X463740Y99999D01*
X463699Y99949D01*
X463647Y99912D01*
X461431Y97563D01*
X461396Y97509D01*
X461349Y97465D01*
X459444Y94858D01*
X459417Y94799D01*
X459375Y94750D01*
X457811Y91925D01*
X457791Y91864D01*
X457756Y91810D01*
X456557Y88812D01*
X456545Y88748D01*
X456517Y88690D01*
X455702Y85566D01*
X455698Y85501D01*
X455678Y85440D01*
X455260Y82241D01*
X454846Y79207D01*
X454041Y76321D01*
X452850Y73572D01*
X451295Y71011D01*
X449406Y68686D01*
X447218Y66640D01*
X444771Y64911D01*
X442111Y63531D01*
X439289Y62527D01*
X436355Y61917D01*
X433332Y61710D01*
X252396D01*
X252365Y61704D01*
X252333Y61708D01*
X247508Y61412D01*
X247446Y61396D01*
X247383Y61396D01*
X242630Y60510D01*
X242571Y60487D01*
X242509Y60479D01*
X237900Y59017D01*
X237844Y58987D01*
X237783Y58972D01*
X233388Y56956D01*
X233383Y56953D01*
X233377Y56951D01*
X229488Y55111D01*
X225483Y53684D01*
X221356Y52660D01*
X217148Y52052D01*
X212901Y51864D01*
X208655Y52098D01*
X204454Y52753D01*
X200339Y53822D01*
X196350Y55293D01*
X192526Y57153D01*
X188907Y59384D01*
X185526Y61963D01*
X182418Y64864D01*
X179613Y68060D01*
X177140Y71518D01*
X175008Y75229D01*
X152871Y118202D01*
X148610Y127901D01*
X144851Y137812D01*
X141605Y147902D01*
X138877Y158158D01*
X137044Y165863D01*
X133373Y183213D01*
X130555Y200735D01*
X130551Y200746D01*
X130551Y200758D01*
X129333Y207375D01*
X129315Y207420D01*
X129311Y207469D01*
X127474Y213942D01*
X127452Y213985D01*
X127443Y214033D01*
X125009Y220291D01*
X124064Y222919D01*
X123526Y225596D01*
X123384Y228323D01*
X123641Y231042D01*
X124293Y233694D01*
X125324Y236222D01*
X126713Y238573D01*
X128431Y240696D01*
X130440Y242546D01*
X132697Y244082D01*
X135154Y245273D01*
X137728Y246083D01*
X140175Y246312D01*
X142655Y245855D01*
X146346Y244839D01*
X146399Y244835D01*
X146449Y244817D01*
X150269Y244181D01*
X150323Y244182D01*
X150374Y244169D01*
X154240Y243931D01*
X154293Y243939D01*
X154345Y243930D01*
X158214Y244094D01*
X158266Y244107D01*
X158320Y244104D01*
X162151Y244667D01*
X162201Y244685D01*
X162255Y244687D01*
X166008Y245643D01*
X166056Y245666D01*
X166108Y245675D01*
X169742Y247013D01*
X169788Y247041D01*
X169839Y247055D01*
X173315Y248763D01*
X173358Y248795D01*
X173407Y248814D01*
X176688Y250872D01*
X176727Y250908D01*
X176775Y250932D01*
X179825Y253318D01*
X179860Y253359D01*
X179905Y253388D01*
X182692Y256076D01*
X182722Y256120D01*
X182764Y256153D01*
X185258Y259116D01*
X185284Y259162D01*
X185322Y259200D01*
X187497Y262404D01*
X187518Y262454D01*
X187552Y262495D01*
X189383Y265907D01*
X189399Y265958D01*
X189428Y266002D01*
X190897Y269586D01*
X190908Y269638D01*
X190932Y269685D01*
X192023Y273401D01*
X192028Y273454D01*
X192047Y273504D01*
X192748Y277313D01*
X192747Y277366D01*
X192762Y277417D01*
X193064Y281278D01*
X193058Y281331D01*
X193067Y281384D01*
X192969Y285255D01*
X192957Y285307D01*
X192961Y285361D01*
X192463Y289201D01*
X192446Y289252D01*
X192444Y289305D01*
X191552Y293074D01*
X191530Y293122D01*
X191523Y293175D01*
X190245Y296831D01*
X190218Y296877D01*
X190205Y296929D01*
X188557Y300433D01*
X188525Y300476D01*
X188507Y300526D01*
X186505Y303841D01*
X186469Y303881D01*
X186446Y303929D01*
X184112Y307019D01*
X184072Y307054D01*
X184044Y307100D01*
X181403Y309932D01*
X181360Y309963D01*
X181327Y310006D01*
X178408Y312550D01*
X178361Y312576D01*
X178325Y312615D01*
X175157Y314844D01*
X175109Y314865D01*
X175068Y314900D01*
X171687Y316789D01*
X171637Y316806D01*
X171593Y316836D01*
X168035Y318365D01*
X167983Y318376D01*
X167936Y318402D01*
X164239Y319555D01*
X164186Y319561D01*
X164137Y319581D01*
X160340Y320346D01*
X160287Y320346D01*
X160236Y320362D01*
X156381Y320730D01*
X156328Y320725D01*
X156275Y320735D01*
X152403Y320702D01*
X152350Y320691D01*
X152297Y320696D01*
X148449Y320263D01*
X148398Y320247D01*
X148345Y320246D01*
X144562Y319418D01*
X144513Y319396D01*
X144460Y319390D01*
X140783Y318175D01*
X140736Y318149D01*
X140684Y318137D01*
X137152Y316548D01*
X137109Y316517D01*
X137058Y316500D01*
X133710Y314554D01*
X133670Y314519D01*
X133622Y314497D01*
X130515Y312232D01*
X129597Y311637D01*
X128650Y311279D01*
X127650Y311130D01*
X126640Y311195D01*
X125667Y311474D01*
X124775Y311951D01*
X124004Y312607D01*
X123389Y313412D01*
X122959Y314328D01*
X122733Y315314D01*
X122720Y316326D01*
X122923Y317318D01*
X123330Y318244D01*
X123968Y319123D01*
X127838Y323754D01*
X127857Y323789D01*
X127886Y323816D01*
X131411Y328758D01*
X131427Y328794D01*
X131454Y328823D01*
X134590Y334021D01*
X134604Y334058D01*
X134628Y334089D01*
X137357Y339511D01*
X137368Y339549D01*
X137390Y339582D01*
X139696Y345197D01*
X139704Y345236D01*
X139723Y345270D01*
X141593Y351045D01*
X141597Y351085D01*
X141614Y351121D01*
X143036Y357022D01*
X143038Y357067D01*
X143053Y357109D01*
X143951Y363086D01*
X143949Y363136D01*
X143961Y363185D01*
X144269Y369221D01*
X144261Y369271D01*
X144269Y369321D01*
X143983Y375358D01*
X143976Y375386D01*
X143979Y375414D01*
X141435Y399926D01*
X141425Y399958D01*
X141426Y399992D01*
X140360Y406261D01*
X140339Y406317D01*
X140334Y406376D01*
X138552Y412480D01*
X138533Y412517D01*
X138526Y412559D01*
X134768Y422388D01*
X134756Y422409D01*
X134750Y422432D01*
X130542Y432077D01*
X130516Y432114D01*
X130503Y432156D01*
X128373Y436079D01*
X128331Y436128D01*
X128305Y436187D01*
X125699Y439811D01*
X125652Y439856D01*
X125618Y439911D01*
X122579Y443180D01*
X122530Y443215D01*
X122492Y443262D01*
X117379Y447610D01*
X117331Y447638D01*
X117292Y447677D01*
X111739Y451448D01*
X111682Y451473D01*
X111633Y451511D01*
X108630Y453058D01*
X108564Y453077D01*
X108505Y453112D01*
X105322Y454245D01*
X105254Y454254D01*
X105191Y454282D01*
X101886Y454979D01*
X101817Y454980D01*
X101751Y454998D01*
X98382Y455249D01*
X98314Y455240D01*
X98246Y455250D01*
X94873Y455049D01*
X94820Y455034D01*
X94764Y455036D01*
X88000Y453891D01*
X87960Y453876D01*
X87918Y453873D01*
X81271Y452175D01*
X81228Y452154D01*
X81181Y452148D01*
X76313Y450414D01*
X76268Y450387D01*
X76217Y450374D01*
X71549Y448157D01*
X71507Y448126D01*
X71458Y448108D01*
X67045Y445435D01*
X63832Y443555D01*
X60455Y442137D01*
X56921Y441176D01*
X53291Y440689D01*
X49572Y440683D01*
X42784Y440815D01*
X42738Y440807D01*
X42692Y440812D01*
X35917Y440332D01*
X32348Y440133D01*
X28834Y440360D01*
X25374Y441007D01*
X22016Y442065D01*
X18809Y443517D01*
X15799Y445344D01*
X13030Y447518D01*
X10542Y450009D01*
X8371Y452780D01*
X6548Y455792D01*
X5099Y459001D01*
X4045Y462360D01*
X3403Y465821D01*
X3179Y469335D01*
X3379Y472850D01*
X4000Y476315D01*
X5031Y479681D01*
X6459Y482900D01*
X8262Y485923D01*
X10415Y488709D01*
X12895Y491224D01*
X17155Y494774D01*
X21680Y498001D01*
X26435Y500877D01*
X31394Y503387D01*
X36527Y505516D01*
X41806Y507253D01*
X47207Y508588D01*
X56938Y510343D01*
X66755Y511583D01*
X76623Y512303D01*
X86515Y512502D01*
X96401Y512180D01*
X102683Y511601D01*
X108911Y510608D01*
X115059Y509207D01*
X121101Y507404D01*
X127011Y505205D01*
X132763Y502621D01*
X138332Y499663D01*
X143693Y496345D01*
X149460Y492216D01*
X154932Y487703D01*
X160082Y482828D01*
X164889Y477612D01*
X169328Y472082D01*
X173380Y466261D01*
X177032Y460167D01*
X188998Y438055D01*
X189006Y438046D01*
X189010Y438034D01*
X192240Y432382D01*
X192262Y432356D01*
X192275Y432325D01*
X195868Y426896D01*
X195892Y426872D01*
X195906Y426841D01*
X199847Y421659D01*
X199872Y421636D01*
X199889Y421607D01*
X204160Y416694D01*
X204187Y416673D01*
X204206Y416645D01*
X208789Y412021D01*
X208817Y412002D01*
X208838Y411975D01*
X213714Y407662D01*
X213743Y407645D01*
X213766Y407619D01*
X218914Y403634D01*
X218944Y403619D01*
X218968Y403595D01*
X224366Y399955D01*
X224397Y399942D01*
X224422Y399920D01*
X230047Y396641D01*
X230079Y396630D01*
X230105Y396609D01*
X235932Y393706D01*
X235965Y393697D01*
X235993Y393678D01*
X241998Y391162D01*
X242025Y391156D01*
X242050Y391141D01*
X252035Y387588D01*
X252058Y387585D01*
X252078Y387574D01*
X262211Y384467D01*
X262234Y384465D01*
X262254Y384455D01*
X272515Y381800D01*
X272538Y381799D01*
X272559Y381790D01*
X282927Y379593D01*
X282950Y379593D01*
X282972Y379585D01*
X293427Y377851D01*
X293450Y377851D01*
X293472Y377844D01*
X303994Y376575D01*
X304013Y376576D01*
X304031Y376571D01*
X322902Y374982D01*
X322916Y374983D01*
X322930Y374980D01*
X341837Y373912D01*
X341851Y373914D01*
X341865Y373910D01*
X360795Y373365D01*
X360809Y373367D01*
X360823Y373364D01*
X379761Y373342D01*
X379762Y373342D01*
X379762Y373342D01*
X433436D01*
X436407Y373142D01*
X439291Y372553D01*
X442069Y371584D01*
X444694Y370251D01*
X447116Y368579D01*
X449292Y366598D01*
X451183Y364343D01*
X452756Y361855D01*
X453981Y359179D01*
X454837Y356363D01*
X455319Y353391D01*
X455839Y350125D01*
X455862Y350062D01*
X455868Y349997D01*
X456803Y346822D01*
X456834Y346763D01*
X456848Y346699D01*
X458182Y343670D01*
X458220Y343616D01*
X458243Y343553D01*
X459954Y340720D01*
X459998Y340671D01*
X460028Y340613D01*
X462088Y338022D01*
X462139Y337979D01*
X462176Y337925D01*
X464551Y335619D01*
X464606Y335583D01*
X464650Y335534D01*
X467301Y333552D01*
X467360Y333523D01*
X467410Y333480D01*
X470293Y331853D01*
X470356Y331833D01*
X470411Y331797D01*
X473478Y330552D01*
X473543Y330540D01*
X473602Y330511D01*
X476803Y329670D01*
X476869Y329666D01*
X476932Y329645D01*
X480215Y329221D01*
X480280Y329226D01*
X480345Y329213D01*
X483655D01*
X483720Y329226D01*
X483786Y329221D01*
X487068Y329645D01*
X487131Y329666D01*
X487197Y329670D01*
X490398Y330511D01*
X490457Y330540D01*
X490522Y330552D01*
X493589Y331797D01*
X493645Y331833D01*
X493707Y331853D01*
X496590Y333480D01*
X496640Y333523D01*
X496699Y333552D01*
X499350Y335534D01*
X499394Y335583D01*
X499450Y335619D01*
X501824Y337925D01*
X501862Y337979D01*
X501912Y338022D01*
X503972Y340613D01*
X504002Y340671D01*
X504047Y340720D01*
X505758Y343553D01*
X505780Y343616D01*
X505818Y343670D01*
X507152Y346699D01*
X507166Y346763D01*
X507197Y346822D01*
X508132Y349997D01*
X508138Y350062D01*
X508161Y350125D01*
X508681Y353392D01*
X509163Y356363D01*
X510019Y359179D01*
X511244Y361855D01*
X512817Y364343D01*
X514708Y366598D01*
X516885Y368579D01*
X519307Y370251D01*
X521931Y371584D01*
X524710Y372553D01*
X527593Y373142D01*
X530564Y373342D01*
X584238D01*
X584239Y373342D01*
X584239Y373342D01*
X603177Y373364D01*
X603191Y373367D01*
X603205Y373365D01*
X622135Y373910D01*
X622149Y373914D01*
X622163Y373912D01*
X641071Y374980D01*
X641084Y374983D01*
X641099Y374982D01*
X659970Y376571D01*
X659987Y376576D01*
X660006Y376575D01*
X670528Y377844D01*
X670550Y377851D01*
X670573Y377851D01*
X681028Y379585D01*
X681050Y379593D01*
X681073Y379593D01*
X691441Y381790D01*
X691462Y381799D01*
X691485Y381800D01*
X701746Y384455D01*
X701767Y384465D01*
X701790Y384467D01*
X711922Y387574D01*
X711943Y387585D01*
X711965Y387588D01*
X721950Y391141D01*
X721975Y391156D01*
X722003Y391162D01*
X728007Y393678D01*
X728035Y393697D01*
X728068Y393706D01*
X733895Y396609D01*
X733922Y396630D01*
X733954Y396641D01*
X739578Y399920D01*
X739603Y399942D01*
X739635Y399955D01*
X745032Y403595D01*
X745056Y403619D01*
X745086Y403634D01*
X750235Y407619D01*
X750257Y407645D01*
X750286Y407662D01*
X755162Y411975D01*
X755183Y412002D01*
X755211Y412021D01*
X759795Y416645D01*
X759813Y416673D01*
X759840Y416694D01*
X764111Y421607D01*
X764128Y421636D01*
X764153Y421659D01*
X768094Y426841D01*
X768109Y426872D01*
X768132Y426896D01*
X771725Y432325D01*
X771738Y432356D01*
X771760Y432382D01*
X774990Y438034D01*
X774994Y438046D01*
X775002Y438055D01*
X786968Y460166D01*
X790620Y466261D01*
X794672Y472082D01*
X799111Y477612D01*
X803918Y482828D01*
X809068Y487703D01*
X814540Y492216D01*
X820307Y496345D01*
X825668Y499663D01*
X831237Y502621D01*
X836989Y505205D01*
X842899Y507404D01*
X848942Y509207D01*
X855090Y510608D01*
X861317Y511601D01*
X867600Y512180D01*
X877485Y512502D01*
X887378Y512303D01*
D02*
G37*
%LPC*%
G36*
X914875Y486938D02*
X913961Y486817D01*
X913109Y486465D01*
X912378Y485904D01*
X911817Y485173D01*
X911465Y484321D01*
X911344Y483407D01*
X911465Y482494D01*
X911817Y481642D01*
X912378Y480911D01*
X913109Y480350D01*
X913961Y479997D01*
X914875Y479877D01*
X915788Y479997D01*
X916640Y480350D01*
X917371Y480911D01*
X917932Y481642D01*
X918285Y482494D01*
X918405Y483407D01*
X918285Y484321D01*
X917932Y485173D01*
X917371Y485904D01*
X916640Y486465D01*
X915788Y486817D01*
X914875Y486938D01*
D02*
G37*
G36*
X49126D02*
X48212Y486817D01*
X47361Y486465D01*
X46629Y485904D01*
X46068Y485173D01*
X45716Y484321D01*
X45595Y483407D01*
X45716Y482494D01*
X46068Y481642D01*
X46629Y480911D01*
X47361Y480350D01*
X48212Y479997D01*
X49126Y479877D01*
X50039Y479997D01*
X50891Y480350D01*
X51622Y480911D01*
X52183Y481642D01*
X52535Y482494D01*
X52656Y483407D01*
X52535Y484321D01*
X52183Y485173D01*
X51622Y485904D01*
X50891Y486465D01*
X50039Y486817D01*
X49126Y486938D01*
D02*
G37*
G36*
X902079Y486458D02*
X901035Y486320D01*
X900062Y485917D01*
X899227Y485276D01*
X898585Y484441D01*
X898182Y483467D01*
X898045Y482423D01*
X898182Y481379D01*
X898585Y480406D01*
X899227Y479570D01*
X900062Y478929D01*
X901035Y478526D01*
X902079Y478389D01*
X903124Y478526D01*
X904097Y478929D01*
X904932Y479570D01*
X905573Y480406D01*
X905976Y481379D01*
X906114Y482423D01*
X905976Y483467D01*
X905573Y484441D01*
X904932Y485276D01*
X904097Y485917D01*
X903124Y486320D01*
X902079Y486458D01*
D02*
G37*
G36*
X36330D02*
X35286Y486320D01*
X34313Y485917D01*
X33478Y485276D01*
X32836Y484441D01*
X32433Y483467D01*
X32296Y482423D01*
X32433Y481379D01*
X32836Y480406D01*
X33478Y479570D01*
X34313Y478929D01*
X35286Y478526D01*
X36330Y478389D01*
X37375Y478526D01*
X38348Y478929D01*
X39183Y479570D01*
X39824Y480406D01*
X40227Y481379D01*
X40365Y482423D01*
X40227Y483467D01*
X39824Y484441D01*
X39183Y485276D01*
X38348Y485917D01*
X37375Y486320D01*
X36330Y486458D01*
D02*
G37*
G36*
X927670Y486457D02*
X926626Y486320D01*
X925653Y485917D01*
X924817Y485276D01*
X924176Y484440D01*
X923773Y483467D01*
X923635Y482423D01*
X923773Y481379D01*
X924176Y480406D01*
X924817Y479570D01*
X925653Y478929D01*
X926626Y478526D01*
X927670Y478389D01*
X928714Y478526D01*
X929687Y478929D01*
X930523Y479570D01*
X931164Y480406D01*
X931567Y481379D01*
X931705Y482423D01*
X931567Y483467D01*
X931164Y484440D01*
X930523Y485276D01*
X929687Y485917D01*
X928714Y486320D01*
X927670Y486457D01*
D02*
G37*
G36*
X61921D02*
X60877Y486320D01*
X59904Y485917D01*
X59068Y485276D01*
X58427Y484440D01*
X58024Y483467D01*
X57886Y482423D01*
X58024Y481379D01*
X58427Y480406D01*
X59068Y479570D01*
X59904Y478929D01*
X60877Y478526D01*
X61921Y478389D01*
X62965Y478526D01*
X63938Y478929D01*
X64774Y479570D01*
X65415Y480406D01*
X65818Y481379D01*
X65955Y482423D01*
X65818Y483467D01*
X65415Y484440D01*
X64774Y485276D01*
X63938Y485917D01*
X62965Y486320D01*
X61921Y486457D01*
D02*
G37*
G36*
X844485Y486829D02*
X843152Y486697D01*
X841870Y486308D01*
X840689Y485677D01*
X839654Y484827D01*
X838804Y483792D01*
X838173Y482611D01*
X837784Y481329D01*
X837652Y479996D01*
X837784Y478663D01*
X838173Y477382D01*
X838804Y476201D01*
X839654Y475165D01*
X840689Y474316D01*
X841870Y473684D01*
X843152Y473296D01*
X844485Y473164D01*
X845817Y473296D01*
X847099Y473684D01*
X848280Y474316D01*
X849316Y475165D01*
X850165Y476201D01*
X850797Y477382D01*
X851185Y478663D01*
X851317Y479996D01*
X851185Y481329D01*
X850797Y482611D01*
X850165Y483792D01*
X849316Y484827D01*
X848280Y485677D01*
X847099Y486308D01*
X845817Y486697D01*
X844485Y486829D01*
D02*
G37*
G36*
X119516D02*
X118183Y486697D01*
X116901Y486308D01*
X115720Y485677D01*
X114685Y484827D01*
X113835Y483792D01*
X113204Y482611D01*
X112815Y481329D01*
X112683Y479996D01*
X112815Y478663D01*
X113204Y477382D01*
X113835Y476201D01*
X114685Y475165D01*
X115720Y474316D01*
X116901Y473684D01*
X118183Y473296D01*
X119516Y473164D01*
X120849Y473296D01*
X122130Y473684D01*
X123311Y474316D01*
X124347Y475165D01*
X125196Y476201D01*
X125828Y477382D01*
X126216Y478663D01*
X126348Y479996D01*
X126216Y481329D01*
X125828Y482611D01*
X125196Y483792D01*
X124347Y484827D01*
X123311Y485677D01*
X122130Y486308D01*
X120849Y486697D01*
X119516Y486829D01*
D02*
G37*
G36*
X914875Y478040D02*
X913716Y477888D01*
X912637Y477441D01*
X911710Y476729D01*
X910999Y475803D01*
X910552Y474723D01*
X910399Y473565D01*
X910552Y472406D01*
X910999Y471327D01*
X911710Y470400D01*
X912637Y469689D01*
X913716Y469242D01*
X914875Y469090D01*
X916033Y469242D01*
X917112Y469689D01*
X918039Y470400D01*
X918750Y471327D01*
X919197Y472406D01*
X919350Y473565D01*
X919197Y474723D01*
X918750Y475803D01*
X918039Y476729D01*
X917112Y477441D01*
X916033Y477888D01*
X914875Y478040D01*
D02*
G37*
G36*
X49126D02*
X47967Y477888D01*
X46888Y477441D01*
X45961Y476729D01*
X45250Y475803D01*
X44803Y474723D01*
X44650Y473565D01*
X44803Y472406D01*
X45250Y471327D01*
X45961Y470400D01*
X46888Y469689D01*
X47967Y469242D01*
X49126Y469090D01*
X50284Y469242D01*
X51363Y469689D01*
X52290Y470400D01*
X53001Y471327D01*
X53448Y472406D01*
X53601Y473565D01*
X53448Y474723D01*
X53001Y475803D01*
X52290Y476729D01*
X51363Y477441D01*
X50284Y477888D01*
X49126Y478040D01*
D02*
G37*
G36*
X927670Y468741D02*
X926626Y468604D01*
X925653Y468201D01*
X924817Y467559D01*
X924176Y466724D01*
X923773Y465751D01*
X923635Y464707D01*
X923773Y463662D01*
X924176Y462689D01*
X924817Y461854D01*
X925653Y461213D01*
X926626Y460810D01*
X927670Y460672D01*
X928714Y460810D01*
X929687Y461213D01*
X930523Y461854D01*
X931164Y462689D01*
X931567Y463662D01*
X931705Y464707D01*
X931567Y465751D01*
X931164Y466724D01*
X930523Y467559D01*
X929687Y468201D01*
X928714Y468604D01*
X927670Y468741D01*
D02*
G37*
G36*
X902079D02*
X901035Y468604D01*
X900062Y468201D01*
X899227Y467559D01*
X898585Y466724D01*
X898182Y465751D01*
X898045Y464707D01*
X898182Y463662D01*
X898585Y462689D01*
X899227Y461854D01*
X900062Y461213D01*
X901035Y460810D01*
X902079Y460672D01*
X903124Y460810D01*
X904097Y461213D01*
X904932Y461854D01*
X905573Y462689D01*
X905976Y463662D01*
X906114Y464707D01*
X905976Y465751D01*
X905573Y466724D01*
X904932Y467559D01*
X904097Y468201D01*
X903124Y468604D01*
X902079Y468741D01*
D02*
G37*
G36*
X61921D02*
X60877Y468604D01*
X59904Y468201D01*
X59068Y467559D01*
X58427Y466724D01*
X58024Y465751D01*
X57886Y464707D01*
X58024Y463662D01*
X58427Y462689D01*
X59068Y461854D01*
X59904Y461213D01*
X60877Y460810D01*
X61921Y460672D01*
X62965Y460810D01*
X63938Y461213D01*
X64774Y461854D01*
X65415Y462689D01*
X65818Y463662D01*
X65956Y464707D01*
X65818Y465751D01*
X65415Y466724D01*
X64774Y467559D01*
X63938Y468201D01*
X62965Y468604D01*
X61921Y468741D01*
D02*
G37*
G36*
X36330D02*
X35286Y468604D01*
X34313Y468201D01*
X33478Y467559D01*
X32836Y466724D01*
X32433Y465751D01*
X32296Y464707D01*
X32433Y463662D01*
X32836Y462689D01*
X33478Y461854D01*
X34313Y461213D01*
X35286Y460810D01*
X36330Y460672D01*
X37375Y460810D01*
X38348Y461213D01*
X39183Y461854D01*
X39824Y462689D01*
X40227Y463662D01*
X40365Y464707D01*
X40227Y465751D01*
X39824Y466724D01*
X39183Y467559D01*
X38348Y468201D01*
X37375Y468604D01*
X36330Y468741D01*
D02*
G37*
G36*
X914875Y467252D02*
X913961Y467132D01*
X913109Y466779D01*
X912378Y466218D01*
X911817Y465487D01*
X911465Y464636D01*
X911344Y463722D01*
X911465Y462809D01*
X911817Y461957D01*
X912378Y461226D01*
X913109Y460665D01*
X913961Y460312D01*
X914875Y460192D01*
X915788Y460312D01*
X916640Y460665D01*
X917371Y461226D01*
X917932Y461957D01*
X918285Y462809D01*
X918405Y463722D01*
X918285Y464636D01*
X917932Y465487D01*
X917371Y466218D01*
X916640Y466779D01*
X915788Y467132D01*
X914875Y467252D01*
D02*
G37*
G36*
X49126D02*
X48212Y467132D01*
X47361Y466779D01*
X46629Y466218D01*
X46068Y465487D01*
X45716Y464636D01*
X45595Y463722D01*
X45716Y462809D01*
X46068Y461957D01*
X46629Y461226D01*
X47361Y460665D01*
X48212Y460312D01*
X49126Y460192D01*
X50039Y460312D01*
X50891Y460665D01*
X51622Y461226D01*
X52183Y461957D01*
X52535Y462809D01*
X52656Y463722D01*
X52535Y464636D01*
X52183Y465487D01*
X51622Y466218D01*
X50891Y466779D01*
X50039Y467132D01*
X49126Y467252D01*
D02*
G37*
G36*
X69776Y494794D02*
X69090Y494658D01*
X68508Y494269D01*
X68119Y493687D01*
X67982Y493000D01*
X68119Y492313D01*
X68508Y491731D01*
X68757Y491565D01*
Y459273D01*
X68508Y459107D01*
X68119Y458525D01*
X67982Y457838D01*
X68119Y457151D01*
X68508Y456569D01*
X69090Y456180D01*
X69776Y456044D01*
X70463Y456180D01*
X71045Y456569D01*
X71434Y457151D01*
X71571Y457838D01*
X71434Y458525D01*
X71045Y459107D01*
X70796Y459273D01*
Y491565D01*
X71045Y491731D01*
X71434Y492313D01*
X71571Y493000D01*
X71434Y493687D01*
X71045Y494269D01*
X70463Y494658D01*
X69776Y494794D01*
D02*
G37*
G36*
X816646Y458989D02*
X815313Y458858D01*
X814031Y458469D01*
X812850Y457838D01*
X811815Y456988D01*
X810965Y455953D01*
X810334Y454772D01*
X809945Y453490D01*
X809814Y452157D01*
X809945Y450824D01*
X810334Y449543D01*
X810965Y448362D01*
X811815Y447326D01*
X812850Y446477D01*
X814031Y445845D01*
X815313Y445457D01*
X816646Y445325D01*
X817979Y445457D01*
X819260Y445845D01*
X820442Y446477D01*
X821477Y447326D01*
X822326Y448362D01*
X822958Y449543D01*
X823347Y450824D01*
X823478Y452157D01*
X823347Y453490D01*
X822958Y454772D01*
X822326Y455953D01*
X821477Y456988D01*
X820442Y457838D01*
X819260Y458469D01*
X817979Y458858D01*
X816646Y458989D01*
D02*
G37*
G36*
X147354D02*
X146021Y458858D01*
X144740Y458469D01*
X143559Y457838D01*
X142523Y456988D01*
X141674Y455953D01*
X141042Y454772D01*
X140654Y453490D01*
X140522Y452157D01*
X140654Y450824D01*
X141042Y449543D01*
X141674Y448362D01*
X142523Y447326D01*
X143559Y446477D01*
X144740Y445845D01*
X146021Y445457D01*
X147354Y445325D01*
X148687Y445457D01*
X149969Y445845D01*
X151150Y446477D01*
X152185Y447326D01*
X153035Y448362D01*
X153666Y449543D01*
X154055Y450824D01*
X154186Y452157D01*
X154055Y453490D01*
X153666Y454772D01*
X153035Y455953D01*
X152185Y456988D01*
X151150Y457838D01*
X149969Y458469D01*
X148687Y458858D01*
X147354Y458989D01*
D02*
G37*
G36*
X742500Y392294D02*
X741813Y392158D01*
X741231Y391769D01*
X740842Y391187D01*
X740706Y390500D01*
X740764Y390206D01*
X734294Y383736D01*
X734000Y383794D01*
X733313Y383658D01*
X732731Y383269D01*
X732342Y382687D01*
X732206Y382000D01*
X732342Y381313D01*
X732731Y380731D01*
X733313Y380342D01*
X734000Y380206D01*
X734687Y380342D01*
X735269Y380731D01*
X735658Y381313D01*
X735794Y382000D01*
X735736Y382294D01*
X742206Y388764D01*
X742500Y388706D01*
X743187Y388842D01*
X743769Y389231D01*
X744158Y389813D01*
X744294Y390500D01*
X744158Y391187D01*
X743769Y391769D01*
X743187Y392158D01*
X742500Y392294D01*
D02*
G37*
G36*
X786000Y434682D02*
X785313Y434545D01*
X784731Y434156D01*
X784342Y433574D01*
X784206Y432888D01*
X784342Y432201D01*
X784471Y432009D01*
Y401879D01*
X784342Y401687D01*
X784206Y401000D01*
X784342Y400313D01*
X784471Y400121D01*
Y384183D01*
X783676Y383853D01*
X782945Y383292D01*
X782384Y382561D01*
X782031Y381710D01*
X781911Y380796D01*
X782031Y379883D01*
X782384Y379031D01*
X782945Y378300D01*
X783676Y377739D01*
X784527Y377386D01*
X785441Y377266D01*
X786354Y377386D01*
X787206Y377739D01*
X787937Y378300D01*
X788498Y379031D01*
X788851Y379883D01*
X788971Y380796D01*
X788851Y381710D01*
X788498Y382561D01*
X787937Y383292D01*
X787529Y383605D01*
Y400121D01*
X787658Y400313D01*
X787794Y401000D01*
X787658Y401687D01*
X787529Y401879D01*
Y432009D01*
X787658Y432201D01*
X787794Y432888D01*
X787658Y433574D01*
X787269Y434156D01*
X786687Y434545D01*
X786000Y434682D01*
D02*
G37*
G36*
X178559Y415794D02*
X177873Y415658D01*
X177291Y415269D01*
X176902Y414687D01*
X176765Y414000D01*
X176902Y413313D01*
X177030Y413121D01*
Y383951D01*
X176794Y383853D01*
X176063Y383292D01*
X175502Y382561D01*
X175150Y381710D01*
X175029Y380796D01*
X175150Y379883D01*
X175502Y379031D01*
X176063Y378300D01*
X176794Y377739D01*
X177646Y377386D01*
X178559Y377266D01*
X179473Y377386D01*
X180324Y377739D01*
X181056Y378300D01*
X181617Y379031D01*
X181969Y379883D01*
X182090Y380796D01*
X181969Y381710D01*
X181617Y382561D01*
X181056Y383292D01*
X180324Y383853D01*
X180089Y383951D01*
Y413121D01*
X180217Y413313D01*
X180354Y414000D01*
X180217Y414687D01*
X179828Y415269D01*
X179246Y415658D01*
X178559Y415794D01*
D02*
G37*
G36*
X798236Y383846D02*
X797192Y383709D01*
X796219Y383306D01*
X795383Y382665D01*
X794742Y381829D01*
X794339Y380856D01*
X794202Y379812D01*
X794339Y378768D01*
X794742Y377795D01*
X795383Y376959D01*
X796219Y376318D01*
X797192Y375915D01*
X798236Y375778D01*
X799280Y375915D01*
X800253Y376318D01*
X801089Y376959D01*
X801730Y377795D01*
X802133Y378768D01*
X802271Y379812D01*
X802133Y380856D01*
X801730Y381829D01*
X801089Y382665D01*
X800253Y383306D01*
X799280Y383709D01*
X798236Y383846D01*
D02*
G37*
G36*
X772646D02*
X771601Y383709D01*
X770628Y383306D01*
X769793Y382665D01*
X769152Y381829D01*
X768749Y380856D01*
X768611Y379812D01*
X768749Y378768D01*
X769152Y377795D01*
X769793Y376959D01*
X770628Y376318D01*
X771601Y375915D01*
X772646Y375778D01*
X773690Y375915D01*
X774663Y376318D01*
X775498Y376959D01*
X776140Y377795D01*
X776543Y378768D01*
X776680Y379812D01*
X776543Y380856D01*
X776140Y381829D01*
X775498Y382665D01*
X774663Y383306D01*
X773690Y383709D01*
X772646Y383846D01*
D02*
G37*
G36*
X191355D02*
X190311Y383709D01*
X189338Y383306D01*
X188502Y382665D01*
X187861Y381829D01*
X187458Y380856D01*
X187320Y379812D01*
X187458Y378768D01*
X187861Y377795D01*
X188502Y376959D01*
X189338Y376318D01*
X190311Y375915D01*
X191355Y375778D01*
X192399Y375915D01*
X193372Y376318D01*
X194208Y376959D01*
X194849Y377795D01*
X195252Y378768D01*
X195389Y379812D01*
X195252Y380856D01*
X194849Y381829D01*
X194208Y382665D01*
X193372Y383306D01*
X192399Y383709D01*
X191355Y383846D01*
D02*
G37*
G36*
X165764D02*
X164720Y383709D01*
X163747Y383306D01*
X162911Y382665D01*
X162270Y381829D01*
X161867Y380856D01*
X161730Y379812D01*
X161867Y378768D01*
X162270Y377795D01*
X162911Y376959D01*
X163747Y376318D01*
X164720Y375915D01*
X165764Y375778D01*
X166808Y375915D01*
X167781Y376318D01*
X168617Y376959D01*
X169258Y377795D01*
X169661Y378768D01*
X169799Y379812D01*
X169661Y380856D01*
X169258Y381829D01*
X168617Y382665D01*
X167781Y383306D01*
X166808Y383709D01*
X165764Y383846D01*
D02*
G37*
G36*
X544621Y369613D02*
Y369599D01*
X527416D01*
Y369613D01*
X525690Y369477D01*
X524006Y369073D01*
X522406Y368410D01*
X520930Y367506D01*
X519614Y366381D01*
X519624Y366371D01*
X515208Y361955D01*
X515198Y361965D01*
X514073Y360649D01*
X513169Y359173D01*
X512506Y357573D01*
X512102Y355889D01*
X511966Y354163D01*
X511980D01*
Y345567D01*
X511966D01*
X512102Y343841D01*
X512506Y342157D01*
X513169Y340558D01*
X514073Y339081D01*
X515198Y337765D01*
X515208Y337775D01*
X519210Y333773D01*
X519247Y333748D01*
X520338Y332419D01*
X521169Y330864D01*
X521680Y329177D01*
X521849Y327466D01*
X521840Y327423D01*
Y168435D01*
X521591Y168269D01*
X521202Y167687D01*
X521066Y167000D01*
X521202Y166313D01*
X521591Y165731D01*
X522173Y165342D01*
X522860Y165206D01*
X523547Y165342D01*
X524129Y165731D01*
X524518Y166313D01*
X524654Y167000D01*
X524518Y167687D01*
X524129Y168269D01*
X523880Y168435D01*
Y327423D01*
X523894D01*
X523758Y329149D01*
X523354Y330832D01*
X522691Y332432D01*
X521787Y333908D01*
X520662Y335225D01*
X520652Y335215D01*
X516650Y339217D01*
X516613Y339241D01*
X515522Y340570D01*
X514691Y342125D01*
X514180Y343812D01*
X514011Y345524D01*
X514020Y345567D01*
Y354163D01*
X514011Y354206D01*
X514180Y355918D01*
X514691Y357605D01*
X515522Y359160D01*
X516613Y360489D01*
X516650Y360513D01*
X521066Y364929D01*
X521090Y364966D01*
X522419Y366056D01*
X523974Y366888D01*
X525661Y367399D01*
X527372Y367568D01*
X527416Y367559D01*
X544621D01*
X544664Y367568D01*
X546375Y367399D01*
X547880Y366943D01*
X547992Y366775D01*
X547749Y366237D01*
X547478Y366183D01*
X546770Y366561D01*
X545617Y366911D01*
X544417Y367030D01*
Y367020D01*
X528802D01*
Y367034D01*
X527075Y366898D01*
X525392Y366494D01*
X523792Y365831D01*
X522316Y364927D01*
X520999Y363802D01*
X521010Y363792D01*
X518208Y360990D01*
X518198Y361001D01*
X517073Y359684D01*
X516169Y358208D01*
X515506Y356608D01*
X515102Y354925D01*
X514966Y353198D01*
X514980D01*
Y346329D01*
X514966D01*
X515102Y344603D01*
X515506Y342919D01*
X516169Y341319D01*
X517073Y339843D01*
X518198Y338527D01*
X518208Y338537D01*
X524370Y332375D01*
X524406Y332350D01*
X525497Y331021D01*
X526328Y329467D01*
X526840Y327779D01*
X527009Y326068D01*
X527000Y326025D01*
Y168416D01*
X526751Y168249D01*
X526362Y167667D01*
X526225Y166980D01*
X526362Y166294D01*
X526751Y165712D01*
X527333Y165323D01*
X528020Y165186D01*
X528706Y165323D01*
X529288Y165712D01*
X529677Y166294D01*
X529814Y166980D01*
X529677Y167667D01*
X529288Y168249D01*
X529039Y168416D01*
Y246358D01*
X529539Y246618D01*
X529660Y246533D01*
X529953Y245567D01*
X530541Y244467D01*
X531332Y243503D01*
X531332Y243503D01*
X531686Y243151D01*
X533573Y241264D01*
X533444Y240953D01*
X533319Y240000D01*
X533444Y239047D01*
X533812Y238159D01*
X534397Y237397D01*
X535159Y236812D01*
X536047Y236444D01*
X537000Y236319D01*
X537953Y236444D01*
X538840Y236812D01*
X539603Y237397D01*
X540188Y238159D01*
X540556Y239047D01*
X540681Y240000D01*
X540556Y240953D01*
X540188Y241841D01*
X539603Y242603D01*
X538840Y243188D01*
X537953Y243556D01*
X537000Y243681D01*
X536047Y243556D01*
X535736Y243427D01*
X533496Y245667D01*
X533476Y245680D01*
X532965Y246347D01*
X532634Y247144D01*
X532620Y247256D01*
X532658Y247313D01*
X532794Y248000D01*
X532658Y248687D01*
X532269Y249269D01*
X531687Y249658D01*
X531000Y249794D01*
X530313Y249658D01*
X529731Y249269D01*
X529539Y248981D01*
X529039Y249133D01*
Y326025D01*
X529054D01*
X528918Y327751D01*
X528514Y329435D01*
X527851Y331034D01*
X526946Y332511D01*
X525822Y333827D01*
X525812Y333817D01*
X519650Y339979D01*
X519613Y340003D01*
X518522Y341332D01*
X517691Y342887D01*
X517179Y344574D01*
X517011Y346285D01*
X517020Y346329D01*
Y353198D01*
X517011Y353242D01*
X517179Y354953D01*
X517691Y356640D01*
X518522Y358195D01*
X519613Y359524D01*
X519650Y359548D01*
X522451Y362350D01*
X522476Y362387D01*
X523805Y363478D01*
X525360Y364309D01*
X527047Y364821D01*
X528758Y364989D01*
X528802Y364980D01*
X544417D01*
X544431Y364983D01*
X545479Y364845D01*
X546249Y364527D01*
X546244Y364500D01*
X546380Y363813D01*
X546724Y363299D01*
X546636Y363042D01*
X546484Y362826D01*
X546000Y362890D01*
Y362890D01*
X546000Y362890D01*
X545516Y362851D01*
X544271Y362753D01*
X542587Y362349D01*
X540988Y361686D01*
X539511Y360782D01*
X538195Y359657D01*
X538205Y359647D01*
X537349Y358791D01*
X536478Y359152D01*
X535500Y359280D01*
X534522Y359152D01*
X533610Y358774D01*
X532827Y358173D01*
X532226Y357390D01*
X531848Y356478D01*
X531720Y355500D01*
X531848Y354522D01*
X532226Y353610D01*
X532827Y352827D01*
X533610Y352226D01*
X534522Y351848D01*
X535500Y351720D01*
X536478Y351848D01*
X537390Y352226D01*
X538173Y352827D01*
X538774Y353610D01*
X539152Y354522D01*
X539280Y355500D01*
X539152Y356478D01*
X538791Y357349D01*
X539647Y358205D01*
X539671Y358242D01*
X541001Y359332D01*
X542555Y360164D01*
X544242Y360675D01*
X545954Y360844D01*
X545997Y360835D01*
X546000D01*
X546022Y360840D01*
X546777Y360689D01*
X547417Y360262D01*
X547429Y360243D01*
X547452Y360220D01*
X547489Y360196D01*
X548294Y359147D01*
X548573Y358474D01*
X548173Y358173D01*
X547390Y358774D01*
X546478Y359152D01*
X545500Y359280D01*
X544522Y359152D01*
X543610Y358774D01*
X542827Y358173D01*
X542226Y357390D01*
X541848Y356478D01*
X541720Y355500D01*
X541848Y354522D01*
X542226Y353610D01*
X542227Y353609D01*
X541573Y352843D01*
X540669Y351367D01*
X540006Y349768D01*
X539602Y348084D01*
X539510Y346919D01*
X539002Y346839D01*
X538774Y347390D01*
X538173Y348173D01*
X537390Y348774D01*
X536478Y349152D01*
X535500Y349280D01*
X534522Y349152D01*
X533610Y348774D01*
X532827Y348173D01*
X532226Y347390D01*
X531848Y346478D01*
X531720Y345500D01*
X531848Y344522D01*
X532226Y343610D01*
X532827Y342827D01*
X533610Y342226D01*
X534522Y341848D01*
X535500Y341720D01*
X536478Y341848D01*
X537390Y342226D01*
X538173Y342827D01*
X538774Y343610D01*
X538980Y344108D01*
X539480Y344009D01*
Y342489D01*
X539474D01*
X539576Y341719D01*
X539873Y341001D01*
X540346Y340385D01*
X540346Y340385D01*
X540670Y340019D01*
X541478Y339035D01*
X542309Y337480D01*
X542821Y335793D01*
X542989Y334082D01*
X542980Y334039D01*
Y281435D01*
X542731Y281269D01*
X542342Y280687D01*
X542206Y280000D01*
X542342Y279313D01*
X542731Y278731D01*
X543313Y278342D01*
X544000Y278206D01*
X544687Y278342D01*
X545269Y278731D01*
X545480Y279048D01*
X545980Y278896D01*
Y271435D01*
X545731Y271269D01*
X545342Y270687D01*
X545206Y270000D01*
X545342Y269313D01*
X545731Y268731D01*
X546313Y268342D01*
X547000Y268206D01*
X547687Y268342D01*
X548269Y268731D01*
X548480Y269048D01*
X548980Y268896D01*
Y261435D01*
X548731Y261269D01*
X548342Y260687D01*
X548206Y260000D01*
X548342Y259313D01*
X548731Y258731D01*
X549313Y258342D01*
X550000Y258206D01*
X550687Y258342D01*
X551269Y258731D01*
X551658Y259313D01*
X551794Y260000D01*
X551658Y260687D01*
X551269Y261269D01*
X551020Y261435D01*
Y356531D01*
X551035D01*
X550895Y357950D01*
X550482Y359314D01*
X549809Y360571D01*
X549200Y361314D01*
X549192Y361324D01*
X549191Y361325D01*
X548905Y361673D01*
Y361673D01*
X548882Y361696D01*
D01*
X548191Y362226D01*
X548287Y362755D01*
X548725Y362842D01*
X549307Y363231D01*
X549696Y363813D01*
X549832Y364500D01*
X549696Y365187D01*
X549461Y365538D01*
X549836Y365877D01*
X550946Y364966D01*
X550971Y364929D01*
X551850Y364050D01*
X551887Y364025D01*
X552978Y362696D01*
X553809Y361141D01*
X554320Y359454D01*
X554357Y359083D01*
X553610Y358774D01*
X552827Y358173D01*
X552226Y357390D01*
X551848Y356478D01*
X551720Y355500D01*
X551848Y354522D01*
X552226Y353610D01*
X552827Y352827D01*
X553610Y352226D01*
X554522Y351848D01*
X555500Y351720D01*
X556478Y351848D01*
X557390Y352226D01*
X558173Y352827D01*
X558774Y353610D01*
X559152Y354522D01*
X559280Y355500D01*
X559152Y356478D01*
X558774Y357390D01*
X558173Y358173D01*
X557390Y358774D01*
X556478Y359152D01*
X556419Y359159D01*
X556398Y359426D01*
X555994Y361109D01*
X555331Y362709D01*
X554427Y364185D01*
X553302Y365502D01*
X553292Y365492D01*
X552413Y366371D01*
X552423Y366381D01*
X551106Y367506D01*
X549630Y368410D01*
X548030Y369073D01*
X546347Y369477D01*
X544621Y369613D01*
D02*
G37*
G36*
X278000Y370511D02*
X277313Y370374D01*
X276731Y369985D01*
X276342Y369403D01*
X276206Y368716D01*
X276323Y368127D01*
X276113Y367835D01*
X275958Y367705D01*
X275507Y367794D01*
X274820Y367658D01*
X274238Y367269D01*
X273849Y366687D01*
X273712Y366000D01*
X273849Y365313D01*
X274238Y364731D01*
X274480Y364569D01*
Y342935D01*
X274231Y342769D01*
X273842Y342187D01*
X273706Y341500D01*
X273842Y340813D01*
X274231Y340231D01*
X274813Y339842D01*
X275500Y339706D01*
X276187Y339842D01*
X276480Y340038D01*
X276980Y339771D01*
Y234048D01*
X276731Y233882D01*
X276342Y233300D01*
X276206Y232613D01*
X276342Y231926D01*
X276731Y231344D01*
X277313Y230955D01*
X278000Y230819D01*
X278687Y230955D01*
X279269Y231344D01*
X279402Y231543D01*
X280001Y231540D01*
X280208Y231231D01*
X280790Y230842D01*
X281476Y230706D01*
X282163Y230842D01*
X282745Y231231D01*
X283134Y231813D01*
X283271Y232500D01*
X283134Y233187D01*
X282745Y233769D01*
X282163Y234158D01*
X281561Y234277D01*
X281218Y234724D01*
X281228Y234734D01*
X281087Y234944D01*
X281037Y235192D01*
X281020D01*
Y252215D01*
X281520Y252366D01*
X281731Y252050D01*
X281980Y251883D01*
Y246931D01*
X281966D01*
X282102Y245204D01*
X282506Y243521D01*
X283169Y241921D01*
X284073Y240445D01*
X285198Y239128D01*
X285208Y239139D01*
X298552Y225794D01*
X298494Y225500D01*
X298631Y224813D01*
X299020Y224231D01*
X299602Y223842D01*
X300288Y223706D01*
X300975Y223842D01*
X301557Y224231D01*
X301946Y224813D01*
X302083Y225500D01*
X301946Y226187D01*
X301557Y226769D01*
X300975Y227158D01*
X300288Y227294D01*
X299994Y227236D01*
X286650Y240580D01*
X286613Y240605D01*
X285522Y241934D01*
X284691Y243489D01*
X284179Y245176D01*
X284011Y246887D01*
X284020Y246931D01*
Y251883D01*
X284269Y252050D01*
X284658Y252632D01*
X284794Y253318D01*
X284658Y254005D01*
X284269Y254587D01*
X283687Y254976D01*
X283000Y255113D01*
X282313Y254976D01*
X281731Y254587D01*
X281520Y254270D01*
X281020Y254422D01*
Y350293D01*
X281037D01*
X281088Y350549D01*
X281233Y350767D01*
X281224Y350776D01*
X281658Y351342D01*
X281930Y352000D01*
X282023Y352707D01*
X282020D01*
Y355565D01*
X282269Y355731D01*
X282658Y356313D01*
X282794Y357000D01*
X282658Y357687D01*
X282269Y358269D01*
X281687Y358658D01*
X281000Y358794D01*
X280313Y358658D01*
X279731Y358269D01*
X279520Y357952D01*
X279020Y358104D01*
Y367281D01*
X279269Y367447D01*
X279658Y368029D01*
X279794Y368716D01*
X279658Y369403D01*
X279269Y369985D01*
X278687Y370374D01*
X278000Y370511D01*
D02*
G37*
G36*
X785441Y375429D02*
X784282Y375277D01*
X783203Y374830D01*
X782276Y374118D01*
X781565Y373191D01*
X781118Y372112D01*
X780966Y370954D01*
X781118Y369795D01*
X781565Y368716D01*
X782276Y367789D01*
X783203Y367078D01*
X784282Y366631D01*
X785441Y366478D01*
X786599Y366631D01*
X787678Y367078D01*
X788605Y367789D01*
X789317Y368716D01*
X789764Y369795D01*
X789916Y370954D01*
X789764Y372112D01*
X789317Y373191D01*
X788605Y374118D01*
X787678Y374830D01*
X786599Y375277D01*
X785441Y375429D01*
D02*
G37*
G36*
X178559D02*
X177401Y375277D01*
X176322Y374830D01*
X175395Y374118D01*
X174684Y373191D01*
X174237Y372112D01*
X174084Y370954D01*
X174237Y369795D01*
X174684Y368716D01*
X175395Y367789D01*
X176322Y367078D01*
X177401Y366631D01*
X178559Y366478D01*
X179718Y366631D01*
X180797Y367078D01*
X181724Y367789D01*
X182435Y368716D01*
X182882Y369795D01*
X183035Y370954D01*
X182882Y372112D01*
X182435Y373191D01*
X181724Y374118D01*
X180797Y374830D01*
X179718Y375277D01*
X178559Y375429D01*
D02*
G37*
G36*
X433500Y365681D02*
X432547Y365556D01*
X431660Y365188D01*
X430897Y364603D01*
X430312Y363841D01*
X429944Y362953D01*
X429819Y362000D01*
X429944Y361047D01*
X430312Y360159D01*
X430897Y359397D01*
X431660Y358812D01*
X432547Y358444D01*
X433500Y358319D01*
X434453Y358444D01*
X435340Y358812D01*
X436103Y359397D01*
X436688Y360159D01*
X437056Y361047D01*
X437181Y362000D01*
X437056Y362953D01*
X436688Y363841D01*
X436103Y364603D01*
X435340Y365188D01*
X434453Y365556D01*
X433500Y365681D01*
D02*
G37*
G36*
X798236Y366130D02*
X797192Y365992D01*
X796219Y365589D01*
X795383Y364948D01*
X794742Y364113D01*
X794339Y363140D01*
X794202Y362095D01*
X794339Y361051D01*
X794742Y360078D01*
X795383Y359243D01*
X796219Y358601D01*
X797192Y358198D01*
X798236Y358061D01*
X799280Y358198D01*
X800253Y358601D01*
X801089Y359243D01*
X801730Y360078D01*
X802133Y361051D01*
X802271Y362095D01*
X802133Y363140D01*
X801730Y364113D01*
X801089Y364948D01*
X800253Y365589D01*
X799280Y365992D01*
X798236Y366130D01*
D02*
G37*
G36*
X772646D02*
X771601Y365992D01*
X770628Y365589D01*
X769793Y364948D01*
X769152Y364113D01*
X768749Y363140D01*
X768611Y362095D01*
X768749Y361051D01*
X769152Y360078D01*
X769793Y359243D01*
X770628Y358601D01*
X771601Y358198D01*
X772646Y358061D01*
X773690Y358198D01*
X774663Y358601D01*
X775498Y359243D01*
X776140Y360078D01*
X776543Y361051D01*
X776680Y362095D01*
X776543Y363140D01*
X776140Y364113D01*
X775498Y364948D01*
X774663Y365589D01*
X773690Y365992D01*
X772646Y366130D01*
D02*
G37*
G36*
X191355D02*
X190311Y365992D01*
X189338Y365589D01*
X188502Y364948D01*
X187861Y364113D01*
X187458Y363140D01*
X187320Y362095D01*
X187458Y361051D01*
X187861Y360078D01*
X188502Y359243D01*
X189338Y358601D01*
X190311Y358198D01*
X191355Y358061D01*
X192399Y358198D01*
X193372Y358601D01*
X194208Y359243D01*
X194849Y360078D01*
X195252Y361051D01*
X195389Y362095D01*
X195252Y363140D01*
X194849Y364113D01*
X194208Y364948D01*
X193372Y365589D01*
X192399Y365992D01*
X191355Y366130D01*
D02*
G37*
G36*
X165764D02*
X164720Y365992D01*
X163747Y365589D01*
X162911Y364948D01*
X162270Y364113D01*
X161867Y363140D01*
X161730Y362095D01*
X161867Y361051D01*
X162270Y360078D01*
X162911Y359243D01*
X163747Y358601D01*
X164720Y358198D01*
X165764Y358061D01*
X166808Y358198D01*
X167781Y358601D01*
X168617Y359243D01*
X169258Y360078D01*
X169661Y361051D01*
X169799Y362095D01*
X169661Y363140D01*
X169258Y364113D01*
X168617Y364948D01*
X167781Y365589D01*
X166808Y365992D01*
X165764Y366130D01*
D02*
G37*
G36*
X785441Y364641D02*
X784527Y364521D01*
X783676Y364168D01*
X782945Y363607D01*
X782384Y362876D01*
X782031Y362025D01*
X781911Y361111D01*
X782031Y360197D01*
X782384Y359346D01*
X782945Y358615D01*
X783676Y358054D01*
X784527Y357701D01*
X785441Y357581D01*
X786354Y357701D01*
X787206Y358054D01*
X787937Y358615D01*
X788498Y359346D01*
X788851Y360197D01*
X788971Y361111D01*
X788851Y362025D01*
X788498Y362876D01*
X787937Y363607D01*
X787206Y364168D01*
X786354Y364521D01*
X785441Y364641D01*
D02*
G37*
G36*
X178559D02*
X177646Y364521D01*
X176794Y364168D01*
X176063Y363607D01*
X175502Y362876D01*
X175150Y362025D01*
X175029Y361111D01*
X175150Y360197D01*
X175502Y359346D01*
X176063Y358615D01*
X176794Y358054D01*
X177646Y357701D01*
X178559Y357581D01*
X179473Y357701D01*
X180324Y358054D01*
X181056Y358615D01*
X181617Y359346D01*
X181969Y360197D01*
X182090Y361111D01*
X181969Y362025D01*
X181617Y362876D01*
X181056Y363607D01*
X180324Y364168D01*
X179473Y364521D01*
X178559Y364641D01*
D02*
G37*
G36*
X714842Y356294D02*
X714156Y356158D01*
X713964Y356029D01*
X696521D01*
X696329Y356158D01*
X695642Y356294D01*
X694956Y356158D01*
X694374Y355769D01*
X693985Y355187D01*
X693848Y354500D01*
X693985Y353813D01*
X694374Y353231D01*
X694956Y352842D01*
X695642Y352706D01*
X696329Y352842D01*
X696521Y352971D01*
X713964D01*
X714156Y352842D01*
X714842Y352706D01*
X715529Y352842D01*
X716111Y353231D01*
X716500Y353813D01*
X716637Y354500D01*
X716500Y355187D01*
X716111Y355769D01*
X715529Y356158D01*
X714842Y356294D01*
D02*
G37*
G36*
X525500Y359280D02*
X524522Y359152D01*
X523610Y358774D01*
X522827Y358173D01*
X522226Y357390D01*
X521848Y356478D01*
X521720Y355500D01*
X521848Y354522D01*
X522226Y353610D01*
X522827Y352827D01*
X523610Y352226D01*
X524522Y351848D01*
X525500Y351720D01*
X526478Y351848D01*
X527390Y352226D01*
X528173Y352827D01*
X528774Y353610D01*
X529152Y354522D01*
X529280Y355500D01*
X529152Y356478D01*
X528774Y357390D01*
X528173Y358173D01*
X527390Y358774D01*
X526478Y359152D01*
X525500Y359280D01*
D02*
G37*
G36*
X433500Y352181D02*
X432547Y352056D01*
X431660Y351688D01*
X430897Y351103D01*
X430312Y350341D01*
X429944Y349453D01*
X429819Y348500D01*
X429944Y347547D01*
X430284Y346726D01*
X429208Y345650D01*
X429198Y345660D01*
X428073Y344343D01*
X427169Y342867D01*
X426506Y341268D01*
X426102Y339584D01*
X425966Y337858D01*
X425980D01*
Y321398D01*
X425921Y321378D01*
X425428Y321313D01*
X425153Y321724D01*
X425153Y321724D01*
X424877Y322110D01*
X424673Y322415D01*
X424514Y323215D01*
X424520Y323243D01*
Y344850D01*
X427150D01*
Y352150D01*
X419850D01*
Y344850D01*
X422480D01*
Y323243D01*
X422464D01*
X422607Y322154D01*
X423028Y321139D01*
X423241Y320861D01*
X423439Y320593D01*
X423639Y320211D01*
X423782Y320044D01*
X423954Y319841D01*
X424093Y319633D01*
X424204Y319075D01*
X424207D01*
Y307669D01*
X424214Y307634D01*
X424045Y306788D01*
X423814Y306441D01*
X423527Y306060D01*
X423527Y306060D01*
X422684Y305032D01*
X422217Y304159D01*
X421717Y304285D01*
Y316565D01*
X421967Y316731D01*
X422356Y317313D01*
X422492Y318000D01*
X422356Y318687D01*
X421967Y319269D01*
X421384Y319658D01*
X420698Y319794D01*
X420368Y319729D01*
X420068Y320179D01*
X420158Y320313D01*
X420294Y321000D01*
X420158Y321687D01*
X419769Y322269D01*
X419187Y322658D01*
X418500Y322794D01*
X417813Y322658D01*
X417231Y322269D01*
X416842Y321687D01*
X416706Y321000D01*
X416842Y320313D01*
X417231Y319731D01*
X417418Y319606D01*
Y317064D01*
X417480Y316752D01*
Y282642D01*
X417466D01*
X417602Y280916D01*
X418006Y279232D01*
X418669Y277633D01*
X419573Y276156D01*
X420698Y274840D01*
X420708Y274850D01*
X423784Y271774D01*
X423444Y270953D01*
X423319Y270000D01*
X423444Y269047D01*
X423812Y268160D01*
X424397Y267397D01*
X425160Y266812D01*
X426047Y266444D01*
X427000Y266319D01*
X427953Y266444D01*
X428840Y266812D01*
X429603Y267397D01*
X430188Y268160D01*
X430556Y269047D01*
X430681Y270000D01*
X430556Y270953D01*
X430188Y271841D01*
X429603Y272603D01*
X428840Y273188D01*
X427953Y273556D01*
X427000Y273681D01*
X426047Y273556D01*
X425226Y273216D01*
X422150Y276292D01*
X422113Y276317D01*
X421022Y277646D01*
X420191Y279201D01*
X419679Y280888D01*
X419511Y282599D01*
X419520Y282642D01*
Y287743D01*
X420020Y287802D01*
X420204Y287035D01*
X420866Y285435D01*
X421771Y283959D01*
X422896Y282642D01*
X422906Y282652D01*
X423784Y281774D01*
X423444Y280953D01*
X423319Y280000D01*
X423444Y279047D01*
X423812Y278159D01*
X424397Y277397D01*
X425160Y276812D01*
X426047Y276444D01*
X427000Y276319D01*
X427953Y276444D01*
X428840Y276812D01*
X429603Y277397D01*
X430188Y278159D01*
X430556Y279047D01*
X430681Y280000D01*
X430556Y280953D01*
X430188Y281840D01*
X429603Y282603D01*
X428840Y283188D01*
X427953Y283556D01*
X427000Y283681D01*
X426047Y283556D01*
X425226Y283216D01*
X424348Y284094D01*
X424311Y284119D01*
X423220Y285448D01*
X422389Y287003D01*
X421877Y288690D01*
X421709Y290401D01*
X421717Y290444D01*
Y294726D01*
X422217Y294826D01*
X422742Y293560D01*
X423647Y292083D01*
X423832Y291866D01*
X423812Y291841D01*
X423444Y290953D01*
X423319Y290000D01*
X423444Y289047D01*
X423812Y288159D01*
X424397Y287397D01*
X425160Y286812D01*
X426047Y286444D01*
X427000Y286319D01*
X427953Y286444D01*
X428840Y286812D01*
X429603Y287397D01*
X430188Y288159D01*
X430556Y289047D01*
X430681Y290000D01*
X430556Y290953D01*
X430188Y291841D01*
X429603Y292603D01*
X428840Y293188D01*
X427953Y293556D01*
X427000Y293681D01*
X426047Y293556D01*
X425347Y293266D01*
X425096Y293572D01*
X424265Y295127D01*
X423753Y296814D01*
X423685Y297504D01*
X424168Y297695D01*
X424397Y297397D01*
X425160Y296812D01*
X426047Y296444D01*
X427000Y296319D01*
X427953Y296444D01*
X428840Y296812D01*
X429603Y297397D01*
X430188Y298160D01*
X430556Y299047D01*
X430681Y300000D01*
X430556Y300953D01*
X430188Y301840D01*
X429603Y302603D01*
X428840Y303188D01*
X428020Y303528D01*
Y337858D01*
X428011Y337901D01*
X428180Y339612D01*
X428691Y341299D01*
X429522Y342854D01*
X430613Y344183D01*
X430650Y344208D01*
X431726Y345284D01*
X432547Y344944D01*
X433500Y344819D01*
X434453Y344944D01*
X435340Y345312D01*
X436103Y345897D01*
X436688Y346659D01*
X437056Y347547D01*
X437181Y348500D01*
X437056Y349453D01*
X436688Y350341D01*
X436103Y351103D01*
X435340Y351688D01*
X434453Y352056D01*
X433500Y352181D01*
D02*
G37*
G36*
X555500Y349280D02*
X554522Y349152D01*
X553610Y348774D01*
X552827Y348173D01*
X552226Y347390D01*
X551848Y346478D01*
X551720Y345500D01*
X551848Y344522D01*
X552226Y343610D01*
X552827Y342827D01*
X553610Y342226D01*
X554522Y341848D01*
X555500Y341720D01*
X556478Y341848D01*
X557390Y342226D01*
X558173Y342827D01*
X558774Y343610D01*
X559152Y344522D01*
X559280Y345500D01*
X559152Y346478D01*
X558774Y347390D01*
X558173Y348173D01*
X557390Y348774D01*
X556478Y349152D01*
X555500Y349280D01*
D02*
G37*
G36*
X729000Y339794D02*
X728313Y339658D01*
X728121Y339529D01*
X713520D01*
X712935Y339413D01*
X712656Y339226D01*
X712313Y339294D01*
X711627Y339158D01*
X711045Y338769D01*
X710656Y338187D01*
X710519Y337500D01*
X710656Y336813D01*
X711045Y336231D01*
X711627Y335842D01*
X712313Y335706D01*
X713000Y335842D01*
X713582Y336231D01*
X713742Y336471D01*
X728121D01*
X728313Y336342D01*
X729000Y336206D01*
X729687Y336342D01*
X730269Y336731D01*
X730658Y337313D01*
X730794Y338000D01*
X730658Y338687D01*
X730269Y339269D01*
X729687Y339658D01*
X729000Y339794D01*
D02*
G37*
G36*
X415000Y328294D02*
X414313Y328158D01*
X413731Y327769D01*
X413342Y327187D01*
X413206Y326500D01*
X413342Y325813D01*
X413533Y325528D01*
X413208Y325180D01*
X413178Y325160D01*
X412500Y325294D01*
X411813Y325158D01*
X411231Y324769D01*
X410842Y324187D01*
X410706Y323500D01*
X410842Y322813D01*
X411231Y322231D01*
X411480Y322065D01*
Y255000D01*
X411466D01*
X411602Y253621D01*
X412004Y252295D01*
X412657Y251072D01*
X413270Y250325D01*
X413206Y250000D01*
X413342Y249313D01*
X413731Y248731D01*
X414313Y248342D01*
X415000Y248206D01*
X415687Y248342D01*
X416269Y248731D01*
X416658Y249313D01*
X416794Y250000D01*
X416658Y250687D01*
X416269Y251269D01*
X415687Y251658D01*
X415000Y251794D01*
X414749Y251745D01*
X414181Y252486D01*
X413678Y253698D01*
X413512Y254962D01*
X413520Y255000D01*
Y265083D01*
X414020Y265351D01*
X414313Y265154D01*
X415000Y265018D01*
X415687Y265154D01*
X416269Y265543D01*
X416658Y266125D01*
X416794Y266812D01*
X416658Y267499D01*
X416269Y268081D01*
X416020Y268247D01*
Y325065D01*
X416269Y325231D01*
X416658Y325813D01*
X416794Y326500D01*
X416658Y327187D01*
X416269Y327769D01*
X415687Y328158D01*
X415000Y328294D01*
D02*
G37*
G36*
X813030Y336766D02*
X811774Y336642D01*
X810567Y336276D01*
X809454Y335681D01*
X808478Y334881D01*
X807678Y333905D01*
X807083Y332792D01*
X806717Y331585D01*
X806593Y330329D01*
X806717Y329074D01*
X807083Y327866D01*
X807678Y326753D01*
X808478Y325778D01*
X809454Y324978D01*
X810567Y324383D01*
X811774Y324017D01*
X813030Y323893D01*
X814285Y324017D01*
X815493Y324383D01*
X816605Y324978D01*
X817581Y325778D01*
X818381Y326753D01*
X818976Y327866D01*
X819342Y329074D01*
X819466Y330329D01*
X819342Y331585D01*
X818976Y332792D01*
X818381Y333905D01*
X817581Y334881D01*
X816605Y335681D01*
X815493Y336276D01*
X814285Y336642D01*
X813030Y336766D01*
D02*
G37*
G36*
X757912D02*
X756656Y336642D01*
X755448Y336276D01*
X754336Y335681D01*
X753360Y334881D01*
X752560Y333905D01*
X751965Y332792D01*
X751599Y331585D01*
X751475Y330329D01*
X751599Y329074D01*
X751965Y327866D01*
X752560Y326753D01*
X753360Y325778D01*
X754336Y324978D01*
X755448Y324383D01*
X756656Y324017D01*
X757912Y323893D01*
X759167Y324017D01*
X760375Y324383D01*
X761487Y324978D01*
X762463Y325778D01*
X763263Y326753D01*
X763858Y327866D01*
X764224Y329074D01*
X764348Y330329D01*
X764224Y331585D01*
X763858Y332792D01*
X763263Y333905D01*
X762463Y334881D01*
X761487Y335681D01*
X760375Y336276D01*
X759167Y336642D01*
X757912Y336766D01*
D02*
G37*
G36*
X206089D02*
X204833Y336642D01*
X203626Y336276D01*
X202513Y335681D01*
X201537Y334881D01*
X200737Y333905D01*
X200142Y332792D01*
X199776Y331585D01*
X199652Y330329D01*
X199776Y329074D01*
X200142Y327866D01*
X200737Y326753D01*
X201537Y325778D01*
X202513Y324978D01*
X203626Y324383D01*
X204833Y324017D01*
X206089Y323893D01*
X207345Y324017D01*
X208552Y324383D01*
X209665Y324978D01*
X210640Y325778D01*
X211440Y326753D01*
X212035Y327866D01*
X212402Y329074D01*
X212525Y330329D01*
X212402Y331585D01*
X212035Y332792D01*
X211440Y333905D01*
X210640Y334881D01*
X209665Y335681D01*
X208552Y336276D01*
X207345Y336642D01*
X206089Y336766D01*
D02*
G37*
G36*
X150971D02*
X149715Y336642D01*
X148507Y336276D01*
X147395Y335681D01*
X146419Y334881D01*
X145619Y333905D01*
X145024Y332792D01*
X144658Y331585D01*
X144534Y330329D01*
X144658Y329074D01*
X145024Y327866D01*
X145619Y326753D01*
X146419Y325778D01*
X147395Y324978D01*
X148507Y324383D01*
X149715Y324017D01*
X150971Y323893D01*
X152226Y324017D01*
X153434Y324383D01*
X154546Y324978D01*
X155522Y325778D01*
X156322Y326753D01*
X156917Y327866D01*
X157283Y329074D01*
X157407Y330329D01*
X157283Y331585D01*
X156917Y332792D01*
X156322Y333905D01*
X155522Y334881D01*
X154546Y335681D01*
X153434Y336276D01*
X152226Y336642D01*
X150971Y336766D01*
D02*
G37*
G36*
X652858Y319034D02*
Y319020D01*
X587642D01*
Y319034D01*
X585916Y318898D01*
X584232Y318494D01*
X582633Y317831D01*
X581156Y316927D01*
X579840Y315802D01*
X579850Y315792D01*
X568708Y304650D01*
X568698Y304660D01*
X567573Y303344D01*
X566669Y301867D01*
X566006Y300268D01*
X565602Y298584D01*
X565466Y296858D01*
X565480D01*
Y239435D01*
X565231Y239269D01*
X564842Y238687D01*
X564706Y238000D01*
X564842Y237313D01*
X565231Y236731D01*
X565813Y236342D01*
X566500Y236206D01*
X567187Y236342D01*
X567769Y236731D01*
X568158Y237313D01*
X568294Y238000D01*
X568158Y238687D01*
X567769Y239269D01*
X567520Y239435D01*
Y296858D01*
X567511Y296901D01*
X567680Y298612D01*
X568191Y300299D01*
X569022Y301854D01*
X570113Y303183D01*
X570150Y303208D01*
X581292Y314350D01*
X581317Y314387D01*
X582646Y315478D01*
X584201Y316309D01*
X585888Y316821D01*
X587599Y316989D01*
X587642Y316980D01*
X587795D01*
X587854Y316480D01*
X586606Y316181D01*
X585006Y315518D01*
X583530Y314613D01*
X582213Y313489D01*
X582223Y313479D01*
X572566Y303821D01*
X572556Y303831D01*
X571431Y302515D01*
X570527Y301038D01*
X569864Y299439D01*
X569460Y297755D01*
X569324Y296029D01*
X569338D01*
Y236435D01*
X569089Y236269D01*
X568700Y235687D01*
X568564Y235000D01*
X568700Y234313D01*
X569089Y233731D01*
X569671Y233342D01*
X570358Y233206D01*
X571044Y233342D01*
X571627Y233731D01*
X572016Y234313D01*
X572152Y235000D01*
X572016Y235687D01*
X571627Y236269D01*
X571378Y236435D01*
Y296029D01*
X571369Y296072D01*
X571537Y297784D01*
X572049Y299471D01*
X572880Y301026D01*
X573971Y302355D01*
X574008Y302379D01*
X583665Y312037D01*
X583690Y312073D01*
X585019Y313164D01*
X586574Y313995D01*
X588261Y314507D01*
X589972Y314676D01*
X590016Y314667D01*
X650856D01*
X650899Y314676D01*
X652611Y314507D01*
X654298Y313995D01*
X655853Y313164D01*
X657182Y312073D01*
X657206Y312037D01*
X679535Y289708D01*
X679525Y289698D01*
X680841Y288573D01*
X682318Y287669D01*
X683917Y287006D01*
X685601Y286602D01*
X687327Y286466D01*
Y286480D01*
X704658D01*
X704825Y286231D01*
X705407Y285842D01*
X706094Y285706D01*
X706780Y285842D01*
X707362Y286231D01*
X707480Y286408D01*
X707980Y286256D01*
Y261435D01*
X707731Y261269D01*
X707342Y260687D01*
X707206Y260000D01*
X707342Y259313D01*
X707731Y258731D01*
X708313Y258342D01*
X709000Y258206D01*
X709687Y258342D01*
X710269Y258731D01*
X710658Y259313D01*
X710794Y260000D01*
X710658Y260687D01*
X710269Y261269D01*
X710020Y261435D01*
Y293894D01*
X710269Y294061D01*
X710658Y294643D01*
X710794Y295329D01*
X710658Y296016D01*
X710269Y296598D01*
X709687Y296987D01*
X709000Y297124D01*
X708313Y296987D01*
X707731Y296598D01*
X707342Y296016D01*
X707206Y295329D01*
X707342Y294643D01*
X707731Y294061D01*
X707980Y293894D01*
Y288744D01*
X707480Y288592D01*
X707362Y288769D01*
X706780Y289158D01*
X706094Y289294D01*
X706048Y289285D01*
X705851Y289663D01*
X705829Y289751D01*
X706204Y290313D01*
X706341Y291000D01*
X706204Y291687D01*
X705815Y292269D01*
X705233Y292658D01*
X704546Y292794D01*
X703860Y292658D01*
X703278Y292269D01*
X702889Y291687D01*
X702816Y291320D01*
X688841D01*
X688798Y291312D01*
X687087Y291480D01*
X685400Y291992D01*
X683845Y292823D01*
X682516Y293914D01*
X682491Y293951D01*
X660650Y315792D01*
X660660Y315802D01*
X659343Y316927D01*
X657867Y317831D01*
X656268Y318494D01*
X654584Y318898D01*
X652858Y319034D01*
D02*
G37*
G36*
X313000Y336794D02*
X312313Y336658D01*
X311731Y336269D01*
X311342Y335687D01*
X311206Y335000D01*
X311342Y334313D01*
X311471Y334121D01*
Y316962D01*
X311287Y316687D01*
X311150Y316000D01*
X311287Y315313D01*
X311676Y314731D01*
X312258Y314342D01*
X312944Y314206D01*
X313631Y314342D01*
X314213Y314731D01*
X314602Y315313D01*
X314739Y316000D01*
X314602Y316687D01*
X314529Y316795D01*
Y334121D01*
X314658Y334313D01*
X314794Y335000D01*
X314658Y335687D01*
X314269Y336269D01*
X313687Y336658D01*
X313000Y336794D01*
D02*
G37*
G36*
X364285Y313825D02*
X361047D01*
X360983Y313812D01*
X360919Y313817D01*
X357706Y313411D01*
X357645Y313391D01*
X357580Y313387D01*
X354444Y312582D01*
X354385Y312554D01*
X354322Y312542D01*
X351311Y311350D01*
X351257Y311315D01*
X351195Y311296D01*
X348357Y309735D01*
X348308Y309694D01*
X348249Y309667D01*
X345629Y307763D01*
X345585Y307716D01*
X345531Y307682D01*
X343170Y305465D01*
X343132Y305412D01*
X343082Y305371D01*
X341018Y302876D01*
X340987Y302819D01*
X340943Y302773D01*
X339207Y300038D01*
X339184Y299978D01*
X339146Y299926D01*
X337767Y296996D01*
X337751Y296933D01*
X337720Y296877D01*
X336719Y293797D01*
X336711Y293733D01*
X336687Y293673D01*
X336080Y290492D01*
X336081Y290427D01*
X336064Y290365D01*
X335861Y287133D01*
X335865Y287101D01*
X335859Y287069D01*
Y149274D01*
X335865Y149242D01*
X335861Y149210D01*
X336064Y145977D01*
X336081Y145915D01*
X336080Y145851D01*
X336687Y142669D01*
X336711Y142610D01*
X336719Y142545D01*
X337720Y139465D01*
X337751Y139409D01*
X337767Y139347D01*
X339146Y136416D01*
X339184Y136364D01*
X339207Y136304D01*
X340943Y133570D01*
X340987Y133523D01*
X341018Y133466D01*
X343082Y130971D01*
X343132Y130930D01*
X343170Y130878D01*
X345530Y128661D01*
X345585Y128627D01*
X345629Y128579D01*
X348249Y126676D01*
X348308Y126649D01*
X348357Y126607D01*
X351195Y125047D01*
X351257Y125028D01*
X351311Y124993D01*
X354322Y123800D01*
X354385Y123789D01*
X354444Y123761D01*
X357580Y122955D01*
X357645Y122952D01*
X357706Y122931D01*
X360919Y122526D01*
X360983Y122530D01*
X361047Y122518D01*
X364285D01*
X364349Y122530D01*
X364413Y122526D01*
X367626Y122931D01*
X367687Y122952D01*
X367752Y122955D01*
X370888Y123761D01*
X370946Y123789D01*
X371010Y123800D01*
X374021Y124993D01*
X374075Y125028D01*
X374137Y125047D01*
X376975Y126607D01*
X377024Y126649D01*
X377083Y126676D01*
X379703Y128579D01*
X379747Y128627D01*
X379801Y128661D01*
X382162Y130878D01*
X382200Y130930D01*
X382250Y130971D01*
X384314Y133466D01*
X384345Y133523D01*
X384389Y133570D01*
X386124Y136304D01*
X386148Y136364D01*
X386186Y136416D01*
X387565Y139347D01*
X387581Y139409D01*
X387612Y139465D01*
X388613Y142545D01*
X388620Y142610D01*
X388645Y142669D01*
X389251Y145851D01*
X389251Y145915D01*
X389267Y145977D01*
X389471Y149209D01*
X389467Y149242D01*
X389473Y149274D01*
Y287069D01*
X389467Y287101D01*
X389471Y287133D01*
X389267Y290365D01*
X389251Y290427D01*
X389251Y290492D01*
X388645Y293673D01*
X388620Y293733D01*
X388613Y293797D01*
X387612Y296877D01*
X387581Y296933D01*
X387565Y296996D01*
X386186Y299926D01*
X386148Y299978D01*
X386124Y300038D01*
X384389Y302773D01*
X384345Y302819D01*
X384314Y302876D01*
X382250Y305371D01*
X382200Y305412D01*
X382162Y305465D01*
X379801Y307682D01*
X379747Y307716D01*
X379703Y307763D01*
X377083Y309667D01*
X377024Y309694D01*
X376975Y309735D01*
X374137Y311296D01*
X374075Y311315D01*
X374021Y311350D01*
X371010Y312542D01*
X370946Y312554D01*
X370888Y312582D01*
X367752Y313387D01*
X367687Y313391D01*
X367626Y313411D01*
X364413Y313817D01*
X364349Y313812D01*
X364285Y313825D01*
D02*
G37*
G36*
X218151Y318217D02*
X217465Y318080D01*
X216882Y317692D01*
X216494Y317109D01*
X216357Y316423D01*
X216494Y315736D01*
X216882Y315154D01*
X217077Y315024D01*
Y303497D01*
X217066D01*
X216990Y303111D01*
X216771Y302784D01*
X216399Y302477D01*
X215894Y302089D01*
X215337Y301858D01*
X214837Y302192D01*
Y309077D01*
X207341D01*
Y301581D01*
X208763D01*
X208837Y301081D01*
X208828Y301079D01*
X207807Y300533D01*
X207288Y300107D01*
X206912Y299798D01*
X206918Y299792D01*
X205847Y298721D01*
X205833Y298735D01*
X205088Y297765D01*
X204883Y297270D01*
X204504Y297233D01*
X204335Y297255D01*
X203762Y298003D01*
X202979Y298603D01*
X202067Y298981D01*
X201089Y299110D01*
X200110Y298981D01*
X199199Y298603D01*
X198416Y298003D01*
X197815Y297220D01*
X197437Y296308D01*
X197308Y295329D01*
X197437Y294351D01*
X197815Y293439D01*
X198416Y292656D01*
X198703Y292436D01*
X198578Y291901D01*
X198101Y291806D01*
X197257Y291243D01*
X197266Y291234D01*
X196288Y290042D01*
X195561Y288682D01*
X195113Y287206D01*
X194962Y285672D01*
X194980D01*
Y274560D01*
X194966D01*
X195102Y272834D01*
X195506Y271151D01*
X196169Y269551D01*
X197073Y268075D01*
X197811Y267211D01*
X197437Y266308D01*
X197308Y265329D01*
X197437Y264351D01*
X197815Y263439D01*
X198416Y262656D01*
X199199Y262055D01*
X200110Y261678D01*
X201089Y261549D01*
X202067Y261678D01*
X202979Y262055D01*
X203762Y262656D01*
X204363Y263439D01*
X204740Y264351D01*
X204869Y265329D01*
X204740Y266308D01*
X204363Y267220D01*
X203762Y268003D01*
X202979Y268603D01*
X202067Y268981D01*
X201089Y269110D01*
X200110Y268981D01*
X199282Y268638D01*
X198522Y269564D01*
X197691Y271119D01*
X197179Y272806D01*
X197068Y273935D01*
X197559Y274058D01*
X197815Y273439D01*
X198416Y272656D01*
X199199Y272056D01*
X200110Y271678D01*
X201089Y271549D01*
X202067Y271678D01*
X202979Y272056D01*
X203762Y272656D01*
X204363Y273439D01*
X204500Y273770D01*
X205013Y273702D01*
X205141Y272732D01*
X205692Y271402D01*
X206568Y270259D01*
X206585Y270276D01*
X207150Y269843D01*
X207809Y269570D01*
X208516Y269477D01*
Y269480D01*
X210073D01*
X210110Y268981D01*
X209199Y268603D01*
X208416Y268003D01*
X207815Y267220D01*
X207437Y266308D01*
X207308Y265329D01*
X207437Y264351D01*
X207815Y263439D01*
X208416Y262656D01*
X209199Y262055D01*
X210110Y261678D01*
X211089Y261549D01*
X212067Y261678D01*
X212979Y262055D01*
X213762Y262656D01*
X214363Y263439D01*
X214740Y264351D01*
X214869Y265329D01*
X214740Y266308D01*
X214363Y267220D01*
X213762Y268003D01*
X212979Y268603D01*
X212067Y268981D01*
X212177Y269451D01*
X213502Y269321D01*
X215189Y268809D01*
X216743Y267978D01*
X218073Y266887D01*
X218097Y266850D01*
X226115Y258832D01*
X226115Y258832D01*
X226095Y258813D01*
X227575Y257599D01*
X229263Y256696D01*
X231095Y256141D01*
X231483Y256102D01*
X231731Y255731D01*
X232313Y255342D01*
X233000Y255206D01*
X233687Y255342D01*
X234269Y255731D01*
X234658Y256313D01*
X234794Y257000D01*
X234658Y257687D01*
X234269Y258269D01*
X233687Y258658D01*
X233000Y258794D01*
X232313Y258658D01*
X231731Y258269D01*
X231649Y258146D01*
X231497Y258161D01*
X230052Y258599D01*
X228719Y259311D01*
X227927Y259962D01*
X227557Y260274D01*
X227210Y260621D01*
X219539Y268292D01*
X219549Y268302D01*
X218233Y269427D01*
X216756Y270331D01*
X215157Y270994D01*
X213473Y271398D01*
X212822Y271449D01*
X212742Y271957D01*
X212979Y272056D01*
X213762Y272656D01*
X214363Y273439D01*
X214740Y274351D01*
X214869Y275329D01*
X214740Y276308D01*
X214363Y277220D01*
X213762Y278003D01*
X212979Y278603D01*
X212067Y278981D01*
X211089Y279110D01*
X210110Y278981D01*
X209199Y278603D01*
X208416Y278003D01*
X207815Y277220D01*
X207520Y276507D01*
X207020Y276606D01*
Y284053D01*
X207520Y284152D01*
X207815Y283439D01*
X208416Y282656D01*
X209199Y282055D01*
X210110Y281678D01*
X211089Y281549D01*
X212067Y281678D01*
X212979Y282055D01*
X213762Y282656D01*
X214363Y283439D01*
X214740Y284351D01*
X214869Y285329D01*
X214740Y286308D01*
X214363Y287220D01*
X213762Y288002D01*
X212979Y288603D01*
X212067Y288981D01*
X211089Y289110D01*
X210110Y288981D01*
X209199Y288603D01*
X208416Y288002D01*
X207815Y287220D01*
X207559Y286601D01*
X207068Y286724D01*
X207179Y287853D01*
X207691Y289540D01*
X208522Y291095D01*
X209282Y292021D01*
X210110Y291678D01*
X211089Y291549D01*
X212067Y291678D01*
X212979Y292056D01*
X213762Y292656D01*
X214363Y293439D01*
X214740Y294351D01*
X214869Y295329D01*
X214740Y296308D01*
X214363Y297220D01*
X213762Y298003D01*
X212979Y298603D01*
X212067Y298981D01*
X212104Y299480D01*
X213745D01*
Y299469D01*
X214982Y299591D01*
X216171Y299952D01*
X217268Y300538D01*
X218229Y301327D01*
X218226Y301330D01*
X218713Y301965D01*
X218980Y302611D01*
X219480Y302512D01*
Y291570D01*
X219188Y291374D01*
X218799Y290792D01*
X218662Y290105D01*
X218799Y289419D01*
X219188Y288837D01*
X219770Y288448D01*
X220456Y288311D01*
X221143Y288448D01*
X221725Y288837D01*
X222114Y289419D01*
X222251Y290105D01*
X222114Y290792D01*
X221725Y291374D01*
X221520Y291512D01*
Y306385D01*
X221769Y306552D01*
X222158Y307134D01*
X222294Y307821D01*
X222158Y308507D01*
X221769Y309090D01*
X221187Y309478D01*
X220500Y309615D01*
X219813Y309478D01*
X219617Y309347D01*
X219117Y309614D01*
Y314951D01*
X219420Y315154D01*
X219809Y315736D01*
X219946Y316423D01*
X219809Y317109D01*
X219420Y317692D01*
X218838Y318080D01*
X218151Y318217D01*
D02*
G37*
G36*
X201089Y309110D02*
X200110Y308981D01*
X199199Y308603D01*
X198416Y308002D01*
X197815Y307220D01*
X197437Y306308D01*
X197308Y305329D01*
X197437Y304351D01*
X197815Y303439D01*
X198416Y302656D01*
X199199Y302056D01*
X200110Y301678D01*
X201089Y301549D01*
X202067Y301678D01*
X202979Y302056D01*
X203762Y302656D01*
X204363Y303439D01*
X204740Y304351D01*
X204869Y305329D01*
X204740Y306308D01*
X204363Y307220D01*
X203762Y308002D01*
X202979Y308603D01*
X202067Y308981D01*
X201089Y309110D01*
D02*
G37*
G36*
X537000Y316794D02*
X536313Y316658D01*
X535731Y316269D01*
X535342Y315687D01*
X535206Y315000D01*
X535342Y314313D01*
X535731Y313731D01*
X535980Y313565D01*
Y303528D01*
X535159Y303188D01*
X534397Y302603D01*
X533812Y301840D01*
X533444Y300953D01*
X533319Y300000D01*
X533444Y299047D01*
X533812Y298160D01*
X534397Y297397D01*
X535159Y296812D01*
X536047Y296444D01*
X537000Y296319D01*
X537953Y296444D01*
X538840Y296812D01*
X539603Y297397D01*
X540188Y298160D01*
X540556Y299047D01*
X540681Y300000D01*
X540556Y300953D01*
X540188Y301840D01*
X539603Y302603D01*
X538840Y303188D01*
X538020Y303528D01*
Y313565D01*
X538269Y313731D01*
X538658Y314313D01*
X538794Y315000D01*
X538658Y315687D01*
X538269Y316269D01*
X537687Y316658D01*
X537000Y316794D01*
D02*
G37*
G36*
X762912Y303201D02*
X761933Y303072D01*
X761021Y302695D01*
X760239Y302094D01*
X759638Y301311D01*
X759260Y300399D01*
X759131Y299421D01*
X759260Y298442D01*
X759638Y297531D01*
X760239Y296748D01*
X761021Y296147D01*
X761933Y295769D01*
X762912Y295640D01*
X763890Y295769D01*
X764802Y296147D01*
X765585Y296748D01*
X766186Y297531D01*
X766563Y298442D01*
X766692Y299421D01*
X766563Y300399D01*
X766186Y301311D01*
X765585Y302094D01*
X764802Y302695D01*
X763890Y303072D01*
X762912Y303201D01*
D02*
G37*
G36*
X752912D02*
X751933Y303072D01*
X751021Y302695D01*
X750239Y302094D01*
X749638Y301311D01*
X749260Y300399D01*
X749131Y299421D01*
X749260Y298442D01*
X749638Y297531D01*
X750239Y296748D01*
X751021Y296147D01*
X751933Y295769D01*
X752912Y295640D01*
X753890Y295769D01*
X754802Y296147D01*
X755585Y296748D01*
X756185Y297531D01*
X756563Y298442D01*
X756692Y299421D01*
X756563Y300399D01*
X756185Y301311D01*
X755585Y302094D01*
X754802Y302695D01*
X753890Y303072D01*
X752912Y303201D01*
D02*
G37*
G36*
X537000Y293681D02*
X536047Y293556D01*
X535159Y293188D01*
X534397Y292603D01*
X533812Y291841D01*
X533444Y290953D01*
X533319Y290000D01*
X533444Y289047D01*
X533812Y288159D01*
X534397Y287397D01*
X535159Y286812D01*
X536047Y286444D01*
X537000Y286319D01*
X537953Y286444D01*
X538840Y286812D01*
X539603Y287397D01*
X540188Y288159D01*
X540556Y289047D01*
X540681Y290000D01*
X540556Y290953D01*
X540188Y291841D01*
X539603Y292603D01*
X538840Y293188D01*
X537953Y293556D01*
X537000Y293681D01*
D02*
G37*
G36*
X762912Y293201D02*
X761933Y293072D01*
X761021Y292695D01*
X760239Y292094D01*
X759638Y291311D01*
X759260Y290399D01*
X759131Y289421D01*
X759260Y288442D01*
X759638Y287531D01*
X760239Y286748D01*
X761021Y286147D01*
X761933Y285769D01*
X762912Y285640D01*
X763890Y285769D01*
X764802Y286147D01*
X765585Y286748D01*
X766186Y287531D01*
X766563Y288442D01*
X766692Y289421D01*
X766563Y290399D01*
X766186Y291311D01*
X765585Y292094D01*
X764802Y292695D01*
X763890Y293072D01*
X762912Y293201D01*
D02*
G37*
G36*
X752912D02*
X751933Y293072D01*
X751021Y292695D01*
X750239Y292094D01*
X749638Y291311D01*
X749260Y290399D01*
X749131Y289421D01*
X749260Y288442D01*
X749638Y287531D01*
X750239Y286748D01*
X751021Y286147D01*
X751933Y285769D01*
X752912Y285640D01*
X753890Y285769D01*
X754802Y286147D01*
X755585Y286748D01*
X756185Y287531D01*
X756563Y288442D01*
X756692Y289421D01*
X756563Y290399D01*
X756185Y291311D01*
X755585Y292094D01*
X754802Y292695D01*
X753890Y293072D01*
X752912Y293201D01*
D02*
G37*
G36*
X716500Y289294D02*
X715813Y289158D01*
X715231Y288769D01*
X714842Y288187D01*
X714706Y287500D01*
X714842Y286813D01*
X715231Y286231D01*
X715813Y285842D01*
X716500Y285706D01*
X717187Y285842D01*
X717769Y286231D01*
X717935Y286480D01*
X738358D01*
X738401Y286489D01*
X740112Y286320D01*
X741799Y285809D01*
X743354Y284978D01*
X744683Y283887D01*
X744708Y283850D01*
X744756Y283802D01*
X744510Y283342D01*
X744500Y283343D01*
X743813Y283207D01*
X743231Y282818D01*
X742842Y282236D01*
X742706Y281549D01*
X742842Y280862D01*
X743231Y280280D01*
X743541Y280073D01*
X743568Y279870D01*
X743833Y279230D01*
X744254Y278680D01*
X744254Y278680D01*
X744566Y278309D01*
X745115Y277641D01*
X745751Y276451D01*
X746143Y275159D01*
X746274Y273825D01*
X746272Y273816D01*
Y268648D01*
X746248D01*
X746424Y267310D01*
X746940Y266063D01*
X747762Y264993D01*
X747772Y265003D01*
X748502Y264442D01*
X749353Y264090D01*
X750265Y263970D01*
Y263980D01*
X753190D01*
X753234Y263989D01*
X754945Y263821D01*
X755445Y263669D01*
X755371Y263169D01*
X749164D01*
Y255673D01*
X756660D01*
Y262727D01*
X757160Y263027D01*
X758187Y262478D01*
X759516Y261387D01*
X759540Y261350D01*
X759621Y261270D01*
X759260Y260399D01*
X759131Y259421D01*
X759260Y258442D01*
X759638Y257531D01*
X760239Y256748D01*
X761021Y256147D01*
X761933Y255769D01*
X762912Y255640D01*
X763890Y255769D01*
X764802Y256147D01*
X765585Y256748D01*
X766186Y257531D01*
X766563Y258442D01*
X766692Y259421D01*
X766563Y260399D01*
X766186Y261311D01*
X765585Y262094D01*
X764802Y262695D01*
X763890Y263072D01*
X762912Y263201D01*
X761933Y263072D01*
X761461Y262877D01*
X760992Y262802D01*
X759676Y263927D01*
X758200Y264831D01*
X756600Y265494D01*
X755208Y265828D01*
X755093Y266370D01*
X755585Y266748D01*
X756185Y267531D01*
X756563Y268442D01*
X756692Y269421D01*
X756563Y270399D01*
X756185Y271311D01*
X755585Y272094D01*
X754802Y272695D01*
X754636Y272763D01*
X754759Y273254D01*
X755594Y273171D01*
X757281Y272660D01*
X758836Y271829D01*
X759594Y271206D01*
X759260Y270399D01*
X759131Y269421D01*
X759260Y268442D01*
X759638Y267531D01*
X760239Y266748D01*
X761021Y266147D01*
X761933Y265769D01*
X762912Y265640D01*
X763890Y265769D01*
X764802Y266147D01*
X765585Y266748D01*
X766186Y267531D01*
X766563Y268442D01*
X766692Y269421D01*
X766563Y270399D01*
X766186Y271311D01*
X765585Y272094D01*
X764802Y272695D01*
X763890Y273072D01*
X762912Y273201D01*
X761933Y273072D01*
X761021Y272695D01*
X761014Y272689D01*
X760325Y273278D01*
X758849Y274182D01*
X757249Y274845D01*
X755565Y275249D01*
X754200Y275357D01*
X754120Y275864D01*
X754802Y276147D01*
X755585Y276748D01*
X756185Y277531D01*
X756563Y278442D01*
X756692Y279421D01*
X756563Y280399D01*
X756185Y281311D01*
X755585Y282094D01*
X754802Y282695D01*
X753890Y283072D01*
X752912Y283201D01*
X751933Y283072D01*
X751021Y282695D01*
X750239Y282094D01*
X749655Y281334D01*
X749457Y281312D01*
X749135Y281328D01*
X749080Y281509D01*
X748324Y282924D01*
X747306Y284164D01*
X747292Y284150D01*
X746150Y285292D01*
X746160Y285302D01*
X744843Y286427D01*
X743367Y287331D01*
X741768Y287994D01*
X740084Y288398D01*
X738358Y288534D01*
Y288520D01*
X717935D01*
X717769Y288769D01*
X717187Y289158D01*
X716500Y289294D01*
D02*
G37*
G36*
X537000Y283681D02*
X536047Y283556D01*
X535159Y283188D01*
X534397Y282603D01*
X533812Y281840D01*
X533444Y280953D01*
X533319Y280000D01*
X533444Y279047D01*
X533812Y278159D01*
X534397Y277397D01*
X535159Y276812D01*
X536047Y276444D01*
X537000Y276319D01*
X537953Y276444D01*
X538840Y276812D01*
X539603Y277397D01*
X540188Y278159D01*
X540556Y279047D01*
X540681Y280000D01*
X540556Y280953D01*
X540188Y281840D01*
X539603Y282603D01*
X538840Y283188D01*
X537953Y283556D01*
X537000Y283681D01*
D02*
G37*
G36*
X453500Y304576D02*
X451259Y304399D01*
X449074Y303875D01*
X446997Y303014D01*
X445081Y301840D01*
X443372Y300380D01*
X441912Y298671D01*
X440737Y296755D01*
X439877Y294678D01*
X439353Y292493D01*
X439176Y290252D01*
X439353Y288011D01*
X439877Y285826D01*
X440737Y283749D01*
X441912Y281833D01*
X443372Y280124D01*
X445081Y278664D01*
X446997Y277489D01*
X449074Y276629D01*
X451259Y276105D01*
X453500Y275928D01*
X455741Y276105D01*
X457926Y276629D01*
X460003Y277489D01*
X461919Y278664D01*
X463628Y280124D01*
X465088Y281833D01*
X466262Y283749D01*
X467123Y285826D01*
X467647Y288011D01*
X467824Y290252D01*
X467647Y292493D01*
X467123Y294678D01*
X466262Y296755D01*
X465088Y298671D01*
X463628Y300380D01*
X461919Y301840D01*
X460003Y303014D01*
X457926Y303875D01*
X455741Y304399D01*
X453500Y304576D01*
D02*
G37*
G36*
X762912Y283201D02*
X761933Y283072D01*
X761021Y282695D01*
X760239Y282094D01*
X759638Y281311D01*
X759260Y280399D01*
X759131Y279421D01*
X759260Y278442D01*
X759638Y277531D01*
X760239Y276748D01*
X761021Y276147D01*
X761933Y275769D01*
X762912Y275640D01*
X763890Y275769D01*
X764802Y276147D01*
X765585Y276748D01*
X766186Y277531D01*
X766563Y278442D01*
X766692Y279421D01*
X766563Y280399D01*
X766186Y281311D01*
X765585Y282094D01*
X764802Y282695D01*
X763890Y283072D01*
X762912Y283201D01*
D02*
G37*
G36*
X661547Y278982D02*
X654248D01*
Y271682D01*
X661547D01*
Y278982D01*
D02*
G37*
G36*
X319753D02*
X312454D01*
Y271682D01*
X319753D01*
Y278982D01*
D02*
G37*
G36*
X647897Y279013D02*
X646945Y278888D01*
X646057Y278520D01*
X645294Y277935D01*
X644709Y277172D01*
X644342Y276285D01*
X644216Y275332D01*
X644342Y274379D01*
X644709Y273492D01*
X645294Y272729D01*
X646057Y272144D01*
X646945Y271776D01*
X647897Y271651D01*
X648850Y271776D01*
X649738Y272144D01*
X650500Y272729D01*
X651085Y273492D01*
X651453Y274379D01*
X651578Y275332D01*
X651453Y276285D01*
X651085Y277172D01*
X650500Y277935D01*
X649738Y278520D01*
X648850Y278888D01*
X647897Y279013D01*
D02*
G37*
G36*
X306103D02*
X305151Y278888D01*
X304263Y278520D01*
X303500Y277935D01*
X302915Y277172D01*
X302548Y276285D01*
X302422Y275332D01*
X302548Y274379D01*
X302915Y273492D01*
X303500Y272729D01*
X304263Y272144D01*
X305151Y271776D01*
X306103Y271651D01*
X307056Y271776D01*
X307944Y272144D01*
X308706Y272729D01*
X309291Y273492D01*
X309659Y274379D01*
X309784Y275332D01*
X309659Y276285D01*
X309291Y277172D01*
X308706Y277935D01*
X307944Y278520D01*
X307056Y278888D01*
X306103Y279013D01*
D02*
G37*
G36*
X537000Y273681D02*
X536047Y273556D01*
X535159Y273188D01*
X534397Y272603D01*
X533812Y271841D01*
X533444Y270953D01*
X533319Y270000D01*
X533444Y269047D01*
X533812Y268160D01*
X534397Y267397D01*
X535159Y266812D01*
X536047Y266444D01*
X537000Y266319D01*
X537953Y266444D01*
X538840Y266812D01*
X539603Y267397D01*
X540188Y268160D01*
X540556Y269047D01*
X540681Y270000D01*
X540556Y270953D01*
X540188Y271841D01*
X539603Y272603D01*
X538840Y273188D01*
X537953Y273556D01*
X537000Y273681D01*
D02*
G37*
G36*
X729393Y284736D02*
X727559Y284555D01*
X725795Y284020D01*
X724169Y283151D01*
X722744Y281981D01*
X721574Y280556D01*
X720706Y278931D01*
X720170Y277167D01*
X719990Y275332D01*
X720170Y273498D01*
X720706Y271733D01*
X721574Y270108D01*
X722744Y268683D01*
X724169Y267513D01*
X725795Y266644D01*
X727559Y266109D01*
X729393Y265929D01*
X731228Y266109D01*
X732992Y266644D01*
X734618Y267513D01*
X736042Y268683D01*
X737212Y270108D01*
X738081Y271733D01*
X738616Y273498D01*
X738797Y275332D01*
X738616Y277167D01*
X738081Y278931D01*
X737212Y280556D01*
X736042Y281981D01*
X734618Y283151D01*
X732992Y284020D01*
X731228Y284555D01*
X729393Y284736D01*
D02*
G37*
G36*
X697897D02*
X696063Y284555D01*
X694299Y284020D01*
X692673Y283151D01*
X691248Y281981D01*
X690078Y280556D01*
X689210Y278931D01*
X688674Y277167D01*
X688494Y275332D01*
X688674Y273498D01*
X689210Y271733D01*
X690078Y270108D01*
X691248Y268683D01*
X692673Y267513D01*
X694299Y266644D01*
X696063Y266109D01*
X697897Y265929D01*
X699732Y266109D01*
X701496Y266644D01*
X703122Y267513D01*
X704546Y268683D01*
X705716Y270108D01*
X706585Y271733D01*
X707120Y273498D01*
X707301Y275332D01*
X707120Y277167D01*
X706585Y278931D01*
X705716Y280556D01*
X704546Y281981D01*
X703122Y283151D01*
X701496Y284020D01*
X699732Y284555D01*
X697897Y284736D01*
D02*
G37*
G36*
X266103D02*
X264269Y284555D01*
X262505Y284020D01*
X260879Y283151D01*
X259454Y281981D01*
X258284Y280556D01*
X257416Y278931D01*
X256880Y277167D01*
X256700Y275332D01*
X256880Y273498D01*
X257416Y271733D01*
X258284Y270108D01*
X259454Y268683D01*
X260879Y267513D01*
X262505Y266644D01*
X264269Y266109D01*
X266103Y265929D01*
X267938Y266109D01*
X269702Y266644D01*
X271327Y267513D01*
X272752Y268683D01*
X273922Y270108D01*
X274791Y271733D01*
X275326Y273498D01*
X275507Y275332D01*
X275326Y277167D01*
X274791Y278931D01*
X273922Y280556D01*
X272752Y281981D01*
X271327Y283151D01*
X269702Y284020D01*
X267938Y284555D01*
X266103Y284736D01*
D02*
G37*
G36*
X234607D02*
X232772Y284555D01*
X231008Y284020D01*
X229383Y283151D01*
X227958Y281981D01*
X226788Y280556D01*
X225919Y278931D01*
X225384Y277167D01*
X225203Y275332D01*
X225384Y273498D01*
X225919Y271733D01*
X226788Y270108D01*
X227958Y268683D01*
X229383Y267513D01*
X231008Y266644D01*
X232772Y266109D01*
X234607Y265929D01*
X236441Y266109D01*
X238206Y266644D01*
X239831Y267513D01*
X241256Y268683D01*
X242426Y270108D01*
X243295Y271733D01*
X243830Y273498D01*
X244011Y275332D01*
X243830Y277167D01*
X243295Y278931D01*
X242426Y280556D01*
X241256Y281981D01*
X239831Y283151D01*
X238206Y284020D01*
X236441Y284555D01*
X234607Y284736D01*
D02*
G37*
G36*
X293353Y265294D02*
X292667Y265158D01*
X292085Y264769D01*
X291695Y264187D01*
X291559Y263500D01*
X291695Y262813D01*
X292085Y262231D01*
X292316Y262076D01*
X292297Y261878D01*
X291783Y261748D01*
X291769Y261769D01*
X291187Y262158D01*
X290500Y262294D01*
X289813Y262158D01*
X289231Y261769D01*
X288842Y261187D01*
X288706Y260500D01*
X288842Y259813D01*
X289231Y259231D01*
X289480Y259065D01*
Y249819D01*
X289466D01*
X289602Y248093D01*
X290006Y246409D01*
X290669Y244809D01*
X291573Y243333D01*
X292698Y242016D01*
X292708Y242027D01*
X298552Y236182D01*
X298494Y235888D01*
X298631Y235202D01*
X299020Y234619D01*
X299602Y234230D01*
X300288Y234094D01*
X300975Y234230D01*
X301557Y234619D01*
X301946Y235202D01*
X302083Y235888D01*
X301946Y236575D01*
X301557Y237157D01*
X300975Y237546D01*
X300288Y237683D01*
X299994Y237624D01*
X294150Y243468D01*
X294113Y243493D01*
X293022Y244822D01*
X292191Y246377D01*
X291680Y248064D01*
X291511Y249775D01*
X291520Y249819D01*
Y259065D01*
X291769Y259231D01*
X291980Y259548D01*
X292480Y259396D01*
Y252142D01*
X292466D01*
X292602Y250416D01*
X293006Y248732D01*
X293669Y247133D01*
X294573Y245656D01*
X295698Y244340D01*
X295708Y244350D01*
X298720Y241338D01*
X298661Y241044D01*
X298798Y240358D01*
X299187Y239775D01*
X299769Y239387D01*
X300456Y239250D01*
X301142Y239387D01*
X301725Y239775D01*
X302114Y240358D01*
X302250Y241044D01*
X302114Y241731D01*
X301725Y242313D01*
X301142Y242702D01*
X300456Y242839D01*
X300162Y242780D01*
X297150Y245792D01*
X297113Y245817D01*
X296022Y247146D01*
X295191Y248701D01*
X294679Y250388D01*
X294511Y252099D01*
X294520Y252142D01*
Y262163D01*
X294622Y262231D01*
X295011Y262813D01*
X295148Y263500D01*
X295011Y264187D01*
X294622Y264769D01*
X294040Y265158D01*
X293353Y265294D01*
D02*
G37*
G36*
X678000Y268794D02*
X677313Y268658D01*
X676731Y268269D01*
X676342Y267687D01*
X676206Y267000D01*
X676342Y266313D01*
X676731Y265731D01*
X676980Y265565D01*
Y261047D01*
X676731Y260881D01*
X676342Y260299D01*
X676206Y259612D01*
X676342Y258926D01*
X676731Y258343D01*
X677313Y257954D01*
X678000Y257818D01*
X678687Y257954D01*
X679269Y258343D01*
X679658Y258926D01*
X679794Y259612D01*
X679658Y260299D01*
X679269Y260881D01*
X679020Y261047D01*
Y265565D01*
X679269Y265731D01*
X679658Y266313D01*
X679794Y267000D01*
X679658Y267687D01*
X679269Y268269D01*
X678687Y268658D01*
X678000Y268794D01*
D02*
G37*
G36*
X537000Y263681D02*
X536047Y263556D01*
X535159Y263188D01*
X534397Y262603D01*
X533812Y261841D01*
X533444Y260953D01*
X533319Y260000D01*
X533444Y259047D01*
X533812Y258159D01*
X534397Y257397D01*
X535159Y256812D01*
X536047Y256444D01*
X537000Y256319D01*
X537953Y256444D01*
X538840Y256812D01*
X539603Y257397D01*
X540188Y258159D01*
X540556Y259047D01*
X540681Y260000D01*
X540556Y260953D01*
X540188Y261841D01*
X539603Y262603D01*
X538840Y263188D01*
X537953Y263556D01*
X537000Y263681D01*
D02*
G37*
G36*
X427000D02*
X426047Y263556D01*
X425160Y263188D01*
X424397Y262603D01*
X423812Y261841D01*
X423444Y260953D01*
X423319Y260000D01*
X423444Y259047D01*
X423812Y258159D01*
X424397Y257397D01*
X425160Y256812D01*
X426047Y256444D01*
X427000Y256319D01*
X427953Y256444D01*
X428840Y256812D01*
X429603Y257397D01*
X430188Y258159D01*
X430556Y259047D01*
X430681Y260000D01*
X430556Y260953D01*
X430188Y261841D01*
X429603Y262603D01*
X428840Y263188D01*
X427953Y263556D01*
X427000Y263681D01*
D02*
G37*
G36*
X713000Y293850D02*
X712313Y293713D01*
X711731Y293324D01*
X711342Y292742D01*
X711206Y292056D01*
X711342Y291369D01*
X711731Y290787D01*
X711980Y290620D01*
Y258245D01*
X711731Y258079D01*
X711342Y257497D01*
X711206Y256810D01*
X711342Y256123D01*
X711731Y255541D01*
X712313Y255152D01*
X713000Y255016D01*
X713687Y255152D01*
X714269Y255541D01*
X714658Y256123D01*
X714794Y256810D01*
X714658Y257497D01*
X714269Y258079D01*
X714020Y258245D01*
Y290620D01*
X714269Y290787D01*
X714658Y291369D01*
X714794Y292056D01*
X714658Y292742D01*
X714269Y293324D01*
X713687Y293713D01*
X713000Y293850D01*
D02*
G37*
G36*
X244071Y287107D02*
X243384Y286970D01*
X242802Y286581D01*
X242413Y285999D01*
X242277Y285313D01*
X242413Y284626D01*
X242802Y284044D01*
X243384Y283655D01*
X244071Y283518D01*
X244223Y283549D01*
X244478Y283238D01*
X245309Y281683D01*
X245820Y279996D01*
X245989Y278285D01*
X245980Y278242D01*
Y254754D01*
X245731Y254587D01*
X245342Y254005D01*
X245206Y253318D01*
X245342Y252632D01*
X245731Y252050D01*
X246313Y251661D01*
X247000Y251524D01*
X247687Y251661D01*
X248269Y252050D01*
X248658Y252632D01*
X248794Y253318D01*
X248658Y254005D01*
X248269Y254587D01*
X248020Y254754D01*
Y278242D01*
X248034D01*
X247898Y279968D01*
X247494Y281651D01*
X246831Y283251D01*
X245927Y284727D01*
X245782Y284896D01*
X245865Y285313D01*
X245729Y285999D01*
X245340Y286581D01*
X244758Y286970D01*
X244071Y287107D01*
D02*
G37*
G36*
X537000Y253681D02*
X536047Y253556D01*
X535159Y253188D01*
X534397Y252603D01*
X533812Y251840D01*
X533444Y250953D01*
X533319Y250000D01*
X533444Y249047D01*
X533812Y248160D01*
X534397Y247397D01*
X535159Y246812D01*
X536047Y246444D01*
X537000Y246319D01*
X537953Y246444D01*
X538840Y246812D01*
X539603Y247397D01*
X540188Y248160D01*
X540556Y249047D01*
X540681Y250000D01*
X540556Y250953D01*
X540188Y251840D01*
X539603Y252603D01*
X538840Y253188D01*
X537953Y253556D01*
X537000Y253681D01*
D02*
G37*
G36*
X427000D02*
X426047Y253556D01*
X425160Y253188D01*
X424397Y252603D01*
X423812Y251840D01*
X423444Y250953D01*
X423319Y250000D01*
X423444Y249047D01*
X423812Y248160D01*
X424397Y247397D01*
X425160Y246812D01*
X426047Y246444D01*
X427000Y246319D01*
X427953Y246444D01*
X428840Y246812D01*
X429603Y247397D01*
X430188Y248160D01*
X430556Y249047D01*
X430681Y250000D01*
X430556Y250953D01*
X430188Y251840D01*
X429603Y252603D01*
X428840Y253188D01*
X427953Y253556D01*
X427000Y253681D01*
D02*
G37*
G36*
X667500Y262794D02*
X666813Y262658D01*
X666231Y262269D01*
X665842Y261687D01*
X665706Y261000D01*
X665842Y260313D01*
X666231Y259731D01*
X666480Y259565D01*
Y248935D01*
X666231Y248769D01*
X665842Y248187D01*
X665706Y247500D01*
X665842Y246813D01*
X666231Y246231D01*
X666813Y245842D01*
X667500Y245706D01*
X668187Y245842D01*
X668769Y246231D01*
X669158Y246813D01*
X669294Y247500D01*
X669158Y248187D01*
X668769Y248769D01*
X668520Y248935D01*
Y259565D01*
X668769Y259731D01*
X669158Y260313D01*
X669294Y261000D01*
X669158Y261687D01*
X668769Y262269D01*
X668187Y262658D01*
X667500Y262794D01*
D02*
G37*
G36*
X710500Y240794D02*
X709999Y240695D01*
X709813Y240658D01*
X709813Y240657D01*
X709565Y240536D01*
Y240536D01*
X707761Y240393D01*
X706001Y239971D01*
X704328Y239278D01*
X702785Y238333D01*
X701408Y237157D01*
X701413Y237153D01*
X693419Y229158D01*
X693366Y229079D01*
X693231Y228989D01*
X692842Y228407D01*
X692706Y227720D01*
X692842Y227034D01*
X692971Y226842D01*
Y218620D01*
X692763Y218308D01*
X692626Y217622D01*
X692763Y216935D01*
X693151Y216353D01*
X693734Y215964D01*
X694420Y215827D01*
X695107Y215964D01*
X695689Y216353D01*
X696078Y216935D01*
X696214Y217622D01*
X696078Y218308D01*
X696029Y218381D01*
Y226842D01*
X696158Y227034D01*
X696291Y227705D01*
X703576Y234990D01*
X703614Y235047D01*
X704848Y236060D01*
X706316Y236845D01*
X707909Y237328D01*
X709497Y237484D01*
X709565Y237471D01*
X709621D01*
X709813Y237342D01*
X710500Y237206D01*
X711187Y237342D01*
X711769Y237731D01*
X712158Y238313D01*
X712294Y239000D01*
X712158Y239687D01*
X711769Y240269D01*
X711187Y240658D01*
X710500Y240794D01*
D02*
G37*
G36*
X427000Y243681D02*
X426047Y243556D01*
X425160Y243188D01*
X424397Y242603D01*
X423812Y241841D01*
X423444Y240953D01*
X423319Y240000D01*
X423444Y239047D01*
X423812Y238159D01*
X424397Y237397D01*
X425160Y236812D01*
X426047Y236444D01*
X427000Y236319D01*
X427953Y236444D01*
X428840Y236812D01*
X429603Y237397D01*
X430188Y238159D01*
X430556Y239047D01*
X430681Y240000D01*
X430556Y240953D01*
X430188Y241841D01*
X429603Y242603D01*
X428840Y243188D01*
X427953Y243556D01*
X427000Y243681D01*
D02*
G37*
G36*
X287000Y258794D02*
X286313Y258658D01*
X285731Y258269D01*
X285342Y257687D01*
X285206Y257000D01*
X285342Y256313D01*
X285731Y255731D01*
X285980Y255565D01*
Y248098D01*
X285966D01*
X286102Y246372D01*
X286506Y244688D01*
X287169Y243089D01*
X288073Y241612D01*
X289198Y240296D01*
X289208Y240306D01*
X298667Y230847D01*
X298661Y230819D01*
X298798Y230132D01*
X299187Y229550D01*
X299769Y229161D01*
X300456Y229025D01*
X301142Y229161D01*
X301725Y229550D01*
X302114Y230132D01*
X302250Y230819D01*
X302114Y231505D01*
X301725Y232088D01*
X301142Y232476D01*
X300456Y232613D01*
X299896Y232502D01*
X290650Y241748D01*
X290613Y241772D01*
X289522Y243102D01*
X288691Y244656D01*
X288179Y246343D01*
X288011Y248055D01*
X288020Y248098D01*
Y255565D01*
X288269Y255731D01*
X288658Y256313D01*
X288794Y257000D01*
X288658Y257687D01*
X288269Y258269D01*
X287687Y258658D01*
X287000Y258794D01*
D02*
G37*
G36*
X265500Y234794D02*
X264813Y234658D01*
X264231Y234269D01*
X263842Y233687D01*
X263706Y233000D01*
X263764Y232706D01*
X261279Y230221D01*
X261058Y229890D01*
X260980Y229500D01*
Y187254D01*
X260731Y187088D01*
X260342Y186505D01*
X260206Y185819D01*
X260342Y185132D01*
X260731Y184550D01*
X261313Y184161D01*
X262000Y184025D01*
X262687Y184161D01*
X262980Y184357D01*
X263480Y184090D01*
Y182254D01*
X263231Y182088D01*
X262842Y181506D01*
X262706Y180819D01*
X262842Y180132D01*
X263231Y179550D01*
X263813Y179161D01*
X264500Y179025D01*
X265187Y179161D01*
X265769Y179550D01*
X266158Y180132D01*
X266294Y180819D01*
X266158Y181506D01*
X265769Y182088D01*
X265520Y182254D01*
Y225710D01*
X268206Y228396D01*
X268500Y228338D01*
X269187Y228474D01*
X269769Y228863D01*
X270158Y229446D01*
X270294Y230132D01*
X270158Y230819D01*
X269769Y231401D01*
X269187Y231790D01*
X268500Y231926D01*
X267813Y231790D01*
X267231Y231401D01*
X266842Y230819D01*
X266706Y230132D01*
X266764Y229838D01*
X263779Y226853D01*
X263558Y226522D01*
X263520Y226329D01*
X263020Y226378D01*
Y229078D01*
X265206Y231264D01*
X265500Y231206D01*
X266187Y231342D01*
X266769Y231731D01*
X267158Y232313D01*
X267294Y233000D01*
X267158Y233687D01*
X266769Y234269D01*
X266187Y234658D01*
X265500Y234794D01*
D02*
G37*
G36*
X813030Y240857D02*
X811774Y240734D01*
X810567Y240367D01*
X809454Y239773D01*
X808478Y238972D01*
X807678Y237997D01*
X807083Y236884D01*
X806717Y235677D01*
X806593Y234421D01*
X806717Y233165D01*
X807083Y231958D01*
X807678Y230845D01*
X808478Y229870D01*
X809454Y229069D01*
X810567Y228474D01*
X811774Y228108D01*
X813030Y227984D01*
X814285Y228108D01*
X815493Y228474D01*
X816605Y229069D01*
X817581Y229870D01*
X818381Y230845D01*
X818976Y231958D01*
X819342Y233165D01*
X819466Y234421D01*
X819342Y235677D01*
X818976Y236884D01*
X818381Y237997D01*
X817581Y238972D01*
X816605Y239773D01*
X815493Y240367D01*
X814285Y240734D01*
X813030Y240857D01*
D02*
G37*
G36*
X757912D02*
X756656Y240734D01*
X755448Y240367D01*
X754336Y239773D01*
X753360Y238972D01*
X752560Y237997D01*
X751965Y236884D01*
X751599Y235677D01*
X751475Y234421D01*
X751599Y233165D01*
X751965Y231958D01*
X752560Y230845D01*
X753360Y229870D01*
X754336Y229069D01*
X755448Y228474D01*
X756656Y228108D01*
X757912Y227984D01*
X759167Y228108D01*
X760375Y228474D01*
X761487Y229069D01*
X762463Y229870D01*
X763263Y230845D01*
X763858Y231958D01*
X764224Y233165D01*
X764348Y234421D01*
X764224Y235677D01*
X763858Y236884D01*
X763263Y237997D01*
X762463Y238972D01*
X761487Y239773D01*
X760375Y240367D01*
X759167Y240734D01*
X757912Y240857D01*
D02*
G37*
G36*
X206089D02*
X204833Y240734D01*
X203626Y240367D01*
X202513Y239773D01*
X201537Y238972D01*
X200737Y237997D01*
X200142Y236884D01*
X199776Y235677D01*
X199652Y234421D01*
X199776Y233165D01*
X200142Y231958D01*
X200737Y230845D01*
X201537Y229870D01*
X202513Y229069D01*
X203626Y228474D01*
X204833Y228108D01*
X206089Y227984D01*
X207345Y228108D01*
X208552Y228474D01*
X209665Y229069D01*
X210640Y229870D01*
X211440Y230845D01*
X212035Y231958D01*
X212402Y233165D01*
X212525Y234421D01*
X212402Y235677D01*
X212035Y236884D01*
X211440Y237997D01*
X210640Y238972D01*
X209665Y239773D01*
X208552Y240367D01*
X207345Y240734D01*
X206089Y240857D01*
D02*
G37*
G36*
X150971D02*
X149715Y240734D01*
X148507Y240367D01*
X147395Y239773D01*
X146419Y238972D01*
X145619Y237997D01*
X145024Y236884D01*
X144658Y235677D01*
X144534Y234421D01*
X144658Y233165D01*
X145024Y231958D01*
X145619Y230845D01*
X146419Y229870D01*
X147395Y229069D01*
X148507Y228474D01*
X149715Y228108D01*
X150971Y227984D01*
X152226Y228108D01*
X153434Y228474D01*
X154546Y229069D01*
X155522Y229870D01*
X156322Y230845D01*
X156917Y231958D01*
X157283Y233165D01*
X157407Y234421D01*
X157283Y235677D01*
X156917Y236884D01*
X156322Y237997D01*
X155522Y238972D01*
X154546Y239773D01*
X153434Y240367D01*
X152226Y240734D01*
X150971Y240857D01*
D02*
G37*
G36*
X430650Y233650D02*
X423350D01*
Y226350D01*
X430650D01*
Y233650D01*
D02*
G37*
G36*
X236441Y249764D02*
X235755Y249628D01*
X235173Y249239D01*
X234784Y248657D01*
X234647Y247970D01*
X234784Y247284D01*
X234971Y247004D01*
Y227379D01*
X234842Y227187D01*
X234706Y226500D01*
X234842Y225813D01*
X235231Y225231D01*
X235813Y224842D01*
X236500Y224706D01*
X237187Y224842D01*
X237769Y225231D01*
X238158Y225813D01*
X238294Y226500D01*
X238158Y227187D01*
X238029Y227379D01*
Y247179D01*
X238099Y247284D01*
X238236Y247970D01*
X238099Y248657D01*
X237710Y249239D01*
X237128Y249628D01*
X236441Y249764D01*
D02*
G37*
G36*
X316500Y227794D02*
X315813Y227658D01*
X315231Y227269D01*
X314842Y226687D01*
X314706Y226000D01*
X314764Y225706D01*
X313636Y224578D01*
X313626Y224588D01*
X312502Y223272D01*
X311597Y221796D01*
X310934Y220196D01*
X310530Y218512D01*
X310394Y216786D01*
X310409D01*
Y202935D01*
X310160Y202769D01*
X309771Y202187D01*
X309634Y201500D01*
X309771Y200813D01*
X310160Y200231D01*
X310742Y199842D01*
X311428Y199706D01*
X312115Y199842D01*
X312697Y200231D01*
X312803Y200389D01*
X313333Y200283D01*
X313342Y200238D01*
X313731Y199656D01*
X314313Y199267D01*
X315000Y199131D01*
X315687Y199267D01*
X316269Y199656D01*
X316658Y200238D01*
X316794Y200925D01*
X316658Y201612D01*
X316269Y202194D01*
X316020Y202360D01*
Y210937D01*
X316022D01*
X316135Y211794D01*
X316465Y212592D01*
X316614Y212787D01*
X317187Y212900D01*
X317769Y213289D01*
X318158Y213871D01*
X318294Y214558D01*
X318158Y215245D01*
X317769Y215827D01*
X317187Y216216D01*
X316500Y216352D01*
X315813Y216216D01*
X315231Y215827D01*
X314842Y215245D01*
X314706Y214558D01*
X314842Y213871D01*
X314852Y213857D01*
X314674Y213626D01*
X314137Y212329D01*
X313954Y210937D01*
X313980D01*
Y202360D01*
X313731Y202194D01*
X313626Y202036D01*
X313095Y202142D01*
X313086Y202187D01*
X312697Y202769D01*
X312448Y202935D01*
Y216786D01*
X312439Y216830D01*
X312608Y218541D01*
X313120Y220228D01*
X313951Y221783D01*
X315042Y223112D01*
X315078Y223136D01*
X316206Y224264D01*
X316500Y224206D01*
X317187Y224342D01*
X317769Y224731D01*
X318158Y225313D01*
X318294Y226000D01*
X318158Y226687D01*
X317769Y227269D01*
X317187Y227658D01*
X316500Y227794D01*
D02*
G37*
G36*
X270610Y228317D02*
X269923Y228180D01*
X269341Y227791D01*
X268952Y227209D01*
X268816Y226522D01*
X268952Y225836D01*
X269341Y225254D01*
X269923Y224865D01*
X270610Y224728D01*
X271297Y224865D01*
X271879Y225254D01*
X271905Y225293D01*
X277565D01*
X277731Y225044D01*
X278313Y224655D01*
X279000Y224518D01*
X279687Y224655D01*
X280269Y225044D01*
X280658Y225626D01*
X280794Y226313D01*
X280658Y226999D01*
X280269Y227582D01*
X279687Y227971D01*
X279000Y228107D01*
X278313Y227971D01*
X277731Y227582D01*
X277565Y227332D01*
X272185D01*
X271879Y227791D01*
X271297Y228180D01*
X270610Y228317D01*
D02*
G37*
G36*
X511992Y323481D02*
X511305Y323344D01*
X510723Y322955D01*
X510334Y322373D01*
X510197Y321687D01*
X510334Y321000D01*
X510437Y320847D01*
Y288879D01*
X510308Y288687D01*
X510172Y288000D01*
X510308Y287313D01*
X510451Y287100D01*
Y248879D01*
X510323Y248687D01*
X510186Y248000D01*
X510323Y247313D01*
X510451Y247121D01*
Y224192D01*
X510342Y224029D01*
X510206Y223342D01*
X510342Y222656D01*
X510731Y222074D01*
X511313Y221685D01*
X512000Y221548D01*
X512687Y221685D01*
X513269Y222074D01*
X513658Y222656D01*
X513794Y223342D01*
X513658Y224029D01*
X513510Y224251D01*
Y247121D01*
X513638Y247313D01*
X513775Y248000D01*
X513638Y248687D01*
X513510Y248879D01*
Y287143D01*
X513624Y287313D01*
X513760Y288000D01*
X513624Y288687D01*
X513495Y288879D01*
Y320769D01*
X513650Y321000D01*
X513786Y321687D01*
X513650Y322373D01*
X513261Y322955D01*
X512678Y323344D01*
X511992Y323481D01*
D02*
G37*
G36*
X286000Y224794D02*
X285313Y224658D01*
X284731Y224269D01*
X284342Y223687D01*
X284206Y223000D01*
X284264Y222706D01*
X270708Y209150D01*
X270698Y209160D01*
X269573Y207843D01*
X268669Y206367D01*
X268006Y204768D01*
X267602Y203084D01*
X267466Y201358D01*
X267480D01*
Y87158D01*
X267231Y86992D01*
X266842Y86409D01*
X266706Y85723D01*
X266842Y85036D01*
X267231Y84454D01*
X267813Y84065D01*
X268500Y83928D01*
X269187Y84065D01*
X269769Y84454D01*
X270158Y85036D01*
X270294Y85723D01*
X270158Y86409D01*
X269769Y86992D01*
X269520Y87158D01*
Y112896D01*
X270020Y113048D01*
X270231Y112731D01*
X270813Y112342D01*
X271500Y112206D01*
X272178Y112340D01*
X272208Y112320D01*
X272533Y111972D01*
X272342Y111687D01*
X272206Y111000D01*
X272342Y110313D01*
X272731Y109731D01*
X273313Y109342D01*
X274000Y109206D01*
X274687Y109342D01*
X275269Y109731D01*
X275658Y110313D01*
X275794Y111000D01*
X275658Y111687D01*
X275269Y112269D01*
X275020Y112435D01*
Y195065D01*
X275269Y195231D01*
X275658Y195813D01*
X275794Y196500D01*
X275658Y197187D01*
X275269Y197769D01*
X274687Y198158D01*
X274000Y198294D01*
X273313Y198158D01*
X272731Y197769D01*
X272342Y197187D01*
X272206Y196500D01*
X272304Y196003D01*
X271992Y195612D01*
X271920Y195570D01*
X271630Y195628D01*
X270943Y195491D01*
X270361Y195102D01*
X270020Y194592D01*
X269724Y194605D01*
X269520Y194675D01*
Y201358D01*
X269511Y201401D01*
X269679Y203112D01*
X270191Y204800D01*
X271022Y206354D01*
X272113Y207683D01*
X272150Y207708D01*
X285706Y221264D01*
X286000Y221206D01*
X286687Y221342D01*
X287269Y221731D01*
X287658Y222313D01*
X287794Y223000D01*
X287658Y223687D01*
X287269Y224269D01*
X286687Y224658D01*
X286000Y224794D01*
D02*
G37*
G36*
X427000Y221681D02*
X426047Y221556D01*
X425160Y221188D01*
X424397Y220603D01*
X423812Y219841D01*
X423472Y219020D01*
X412207D01*
Y219023D01*
X411500Y218930D01*
X410842Y218657D01*
X410276Y218224D01*
X410266Y218234D01*
X409288Y217042D01*
X408561Y215682D01*
X408113Y214206D01*
X407962Y212672D01*
X407980D01*
Y156955D01*
X407731Y156788D01*
X407342Y156206D01*
X407206Y155520D01*
X407342Y154833D01*
X407731Y154251D01*
X408313Y153862D01*
X409000Y153725D01*
X409687Y153862D01*
X410269Y154251D01*
X410658Y154833D01*
X410733Y155213D01*
X410754Y155317D01*
X411264D01*
X411285Y155210D01*
X411364Y154813D01*
X411753Y154231D01*
X412335Y153842D01*
X413022Y153706D01*
X413708Y153842D01*
X414290Y154231D01*
X414679Y154813D01*
X414816Y155500D01*
X414679Y156187D01*
X414290Y156769D01*
X414041Y156935D01*
Y203931D01*
X414039Y203943D01*
X414175Y204974D01*
X414577Y205947D01*
X414922Y206396D01*
X415233Y206767D01*
X415451Y206912D01*
X415707Y206963D01*
Y206980D01*
X423472D01*
X423812Y206159D01*
X424397Y205397D01*
X425160Y204812D01*
X426047Y204444D01*
X427000Y204319D01*
X427953Y204444D01*
X428840Y204812D01*
X429603Y205397D01*
X430188Y206159D01*
X430556Y207047D01*
X430681Y208000D01*
X430556Y208953D01*
X430188Y209840D01*
X429603Y210603D01*
X428840Y211188D01*
X427953Y211556D01*
X427000Y211681D01*
X426047Y211556D01*
X425160Y211188D01*
X424397Y210603D01*
X423812Y209840D01*
X423472Y209020D01*
X415707D01*
Y209023D01*
X415000Y208930D01*
X414342Y208658D01*
X413776Y208224D01*
X413772Y208228D01*
X413017Y207307D01*
X412455Y206256D01*
X412109Y205116D01*
X411992Y203931D01*
X412002D01*
Y156935D01*
X411753Y156769D01*
X411364Y156187D01*
X411288Y155806D01*
X411268Y155703D01*
X410758D01*
X410737Y155809D01*
X410658Y156206D01*
X410269Y156788D01*
X410020Y156955D01*
Y212672D01*
X410008Y212730D01*
X410199Y214180D01*
X410781Y215586D01*
X411407Y216402D01*
X411733Y216767D01*
X411951Y216912D01*
X412207Y216963D01*
Y216980D01*
X423472D01*
X423812Y216160D01*
X424397Y215397D01*
X425160Y214812D01*
X426047Y214444D01*
X427000Y214319D01*
X427953Y214444D01*
X428840Y214812D01*
X429603Y215397D01*
X430188Y216160D01*
X430556Y217047D01*
X430681Y218000D01*
X430556Y218953D01*
X430188Y219841D01*
X429603Y220603D01*
X428840Y221188D01*
X427953Y221556D01*
X427000Y221681D01*
D02*
G37*
G36*
X772299Y218083D02*
X771613Y217946D01*
X771366Y217782D01*
X759379D01*
X759187Y217910D01*
X758500Y218047D01*
X757813Y217910D01*
X757231Y217521D01*
X756842Y216939D01*
X756706Y216252D01*
X756842Y215566D01*
X757231Y214984D01*
X757813Y214595D01*
X758500Y214458D01*
X759187Y214595D01*
X759379Y214723D01*
X771475D01*
X771613Y214631D01*
X772299Y214494D01*
X772986Y214631D01*
X773568Y215020D01*
X773957Y215602D01*
X774093Y216288D01*
X773957Y216975D01*
X773568Y217557D01*
X772986Y217946D01*
X772299Y218083D01*
D02*
G37*
G36*
X553000Y221681D02*
X552047Y221556D01*
X551159Y221188D01*
X550397Y220603D01*
X549812Y219841D01*
X549444Y218953D01*
X549319Y218000D01*
X549444Y217047D01*
X549812Y216160D01*
X550397Y215397D01*
X551159Y214812D01*
X552047Y214444D01*
X553000Y214319D01*
X553953Y214444D01*
X554841Y214812D01*
X555603Y215397D01*
X556188Y216160D01*
X556556Y217047D01*
X556681Y218000D01*
X556556Y218953D01*
X556188Y219841D01*
X555603Y220603D01*
X554841Y221188D01*
X553953Y221556D01*
X553000Y221681D01*
D02*
G37*
G36*
X537000D02*
X536047Y221556D01*
X535159Y221188D01*
X534397Y220603D01*
X533812Y219841D01*
X533444Y218953D01*
X533319Y218000D01*
X533444Y217047D01*
X533812Y216160D01*
X534397Y215397D01*
X535159Y214812D01*
X536047Y214444D01*
X537000Y214319D01*
X537953Y214444D01*
X538840Y214812D01*
X539603Y215397D01*
X540188Y216160D01*
X540556Y217047D01*
X540681Y218000D01*
X540556Y218953D01*
X540188Y219841D01*
X539603Y220603D01*
X538840Y221188D01*
X537953Y221556D01*
X537000Y221681D01*
D02*
G37*
G36*
X200500Y213794D02*
X199813Y213658D01*
X199621Y213529D01*
X174968D01*
X174776Y213658D01*
X174089Y213794D01*
X173402Y213658D01*
X172820Y213269D01*
X172431Y212687D01*
X172294Y212000D01*
X172431Y211313D01*
X172559Y211121D01*
Y197973D01*
X172324Y197875D01*
X171593Y197314D01*
X171032Y196583D01*
X170679Y195731D01*
X170559Y194818D01*
X170679Y193904D01*
X171032Y193053D01*
X171593Y192322D01*
X172324Y191761D01*
X173175Y191408D01*
X174089Y191288D01*
X175003Y191408D01*
X175854Y191761D01*
X176585Y192322D01*
X177146Y193053D01*
X177499Y193904D01*
X177619Y194818D01*
X177499Y195731D01*
X177146Y196583D01*
X176585Y197314D01*
X175854Y197875D01*
X175618Y197973D01*
Y210471D01*
X199621D01*
X199813Y210342D01*
X200500Y210206D01*
X201187Y210342D01*
X201769Y210731D01*
X202158Y211313D01*
X202294Y212000D01*
X202158Y212687D01*
X201769Y213269D01*
X201187Y213658D01*
X200500Y213794D01*
D02*
G37*
G36*
X658500Y216389D02*
X657813Y216252D01*
X657231Y215863D01*
X656842Y215281D01*
X656706Y214595D01*
X656842Y213908D01*
X657231Y213326D01*
X657813Y212937D01*
X658500Y212800D01*
X659187Y212937D01*
X659769Y213326D01*
X659935Y213575D01*
X684502D01*
X684731Y213231D01*
X685313Y212842D01*
X686000Y212706D01*
X686687Y212842D01*
X687269Y213231D01*
X687658Y213813D01*
X687794Y214500D01*
X687658Y215187D01*
X687269Y215769D01*
X686687Y216158D01*
X686000Y216294D01*
X685313Y216158D01*
X684731Y215769D01*
X684628Y215614D01*
X659935D01*
X659769Y215863D01*
X659187Y216252D01*
X658500Y216389D01*
D02*
G37*
G36*
X694000Y214020D02*
X693909Y214001D01*
X693610Y213942D01*
X693279Y213721D01*
X693058Y213390D01*
X692980Y213000D01*
X693058Y212610D01*
X693279Y212279D01*
X693272Y212272D01*
X693781Y211931D01*
X694381Y211812D01*
Y211823D01*
X694771Y211900D01*
X695102Y212121D01*
X695323Y212452D01*
X695400Y212842D01*
X695323Y213232D01*
X695102Y213563D01*
X695101Y213563D01*
X694771Y213784D01*
X694579Y213858D01*
X694390Y213942D01*
X694000Y214019D01*
X694000Y214020D01*
D02*
G37*
G36*
X716903Y211294D02*
X716216Y211158D01*
X715634Y210769D01*
X715468Y210520D01*
X687935D01*
X687769Y210769D01*
X687187Y211158D01*
X686500Y211294D01*
X685813Y211158D01*
X685231Y210769D01*
X684842Y210187D01*
X684706Y209500D01*
X684842Y208813D01*
X685231Y208231D01*
X685813Y207842D01*
X686500Y207706D01*
X687187Y207842D01*
X687769Y208231D01*
X687935Y208480D01*
X715468D01*
X715634Y208231D01*
X716216Y207842D01*
X716903Y207706D01*
X717589Y207842D01*
X718172Y208231D01*
X718561Y208813D01*
X718697Y209500D01*
X718561Y210187D01*
X718172Y210769D01*
X717589Y211158D01*
X716903Y211294D01*
D02*
G37*
G36*
X553000Y211681D02*
X552047Y211556D01*
X551159Y211188D01*
X550397Y210603D01*
X549812Y209840D01*
X549444Y208953D01*
X549319Y208000D01*
X549444Y207047D01*
X549812Y206159D01*
X550397Y205397D01*
X551159Y204812D01*
X552047Y204444D01*
X553000Y204319D01*
X553953Y204444D01*
X554841Y204812D01*
X555603Y205397D01*
X556188Y206159D01*
X556556Y207047D01*
X556681Y208000D01*
X556556Y208953D01*
X556188Y209840D01*
X555603Y210603D01*
X554841Y211188D01*
X553953Y211556D01*
X553000Y211681D01*
D02*
G37*
G36*
X537000D02*
X536047Y211556D01*
X535159Y211188D01*
X534397Y210603D01*
X533812Y209840D01*
X533444Y208953D01*
X533319Y208000D01*
X533444Y207047D01*
X533812Y206159D01*
X534397Y205397D01*
X535159Y204812D01*
X536047Y204444D01*
X537000Y204319D01*
X537953Y204444D01*
X538840Y204812D01*
X539603Y205397D01*
X540188Y206159D01*
X540556Y207047D01*
X540681Y208000D01*
X540556Y208953D01*
X540188Y209840D01*
X539603Y210603D01*
X538840Y211188D01*
X537953Y211556D01*
X537000Y211681D01*
D02*
G37*
G36*
X694638Y205581D02*
X694172Y205488D01*
X693776Y205224D01*
X693779Y205221D01*
X693558Y204890D01*
X693480Y204500D01*
X693558Y204110D01*
X693779Y203779D01*
X694024Y203615D01*
X694110Y203558D01*
X694242Y203530D01*
X694638Y203437D01*
Y203437D01*
X694965Y203572D01*
X695292Y203708D01*
X695292Y203708D01*
X695507Y204054D01*
X695580Y204167D01*
X695600Y204268D01*
X695658Y204557D01*
X695580Y204947D01*
X695359Y205278D01*
X695029Y205499D01*
X694638Y205577D01*
Y205581D01*
D02*
G37*
G36*
X427000Y201681D02*
X426047Y201556D01*
X425160Y201188D01*
X424397Y200603D01*
X423812Y199840D01*
X423472Y199020D01*
X422121D01*
Y199030D01*
X420921Y198911D01*
X419768Y198561D01*
X418704Y197993D01*
X417772Y197228D01*
X417766Y197234D01*
X417058Y196312D01*
X416614Y195238D01*
X416462Y194086D01*
X416480D01*
Y156622D01*
X416231Y156455D01*
X415842Y155873D01*
X415706Y155187D01*
X415842Y154500D01*
X416231Y153918D01*
X416813Y153529D01*
X417500Y153392D01*
X418187Y153529D01*
X418769Y153918D01*
X419158Y154500D01*
X419294Y155187D01*
X419158Y155873D01*
X418769Y156455D01*
X418520Y156622D01*
Y159869D01*
X419020Y159894D01*
X419123Y158839D01*
X419611Y157231D01*
X420341Y155866D01*
X420206Y155187D01*
X420342Y154500D01*
X420731Y153918D01*
X421313Y153529D01*
X422000Y153392D01*
X422687Y153529D01*
X423269Y153918D01*
X423597Y154409D01*
X423658Y154500D01*
X423751Y154846D01*
X423751D01*
D01*
X424236D01*
X424342Y154313D01*
X424731Y153731D01*
X425313Y153342D01*
X426000Y153206D01*
X426687Y153342D01*
X427269Y153731D01*
X427658Y154313D01*
X427794Y155000D01*
X427658Y155687D01*
X427269Y156269D01*
X426864Y156539D01*
X426536Y157619D01*
X425935Y158744D01*
X425126Y159729D01*
X425126D01*
X425111Y159730D01*
X424339Y160670D01*
X423761Y161753D01*
X423404Y162928D01*
X423312Y163866D01*
X423700Y164350D01*
X423701Y164350D01*
X430650D01*
Y171650D01*
X424098D01*
X423800Y172051D01*
X423955Y172564D01*
X424787Y174118D01*
X425306Y174751D01*
X426047Y174444D01*
X427000Y174319D01*
X427953Y174444D01*
X428840Y174812D01*
X429603Y175397D01*
X430188Y176160D01*
X430556Y177047D01*
X430681Y178000D01*
X430556Y178953D01*
X430188Y179841D01*
X429603Y180603D01*
X428840Y181188D01*
X427953Y181556D01*
X427000Y181681D01*
X426047Y181556D01*
X425160Y181188D01*
X424397Y180603D01*
X423812Y179841D01*
X423444Y178953D01*
X423319Y178000D01*
X423444Y177047D01*
X423811Y176162D01*
X423337Y175608D01*
X422433Y174131D01*
X421770Y172532D01*
X421520Y171488D01*
X421020Y171547D01*
Y184032D01*
X421011Y184076D01*
X421192Y184984D01*
X421706Y185754D01*
X421743Y185779D01*
X421751Y185791D01*
X422590Y186435D01*
X423209Y186691D01*
X423671Y186500D01*
X423812Y186160D01*
X424397Y185397D01*
X425160Y184812D01*
X426047Y184444D01*
X427000Y184319D01*
X427953Y184444D01*
X428840Y184812D01*
X429603Y185397D01*
X430188Y186160D01*
X430556Y187047D01*
X430681Y188000D01*
X430556Y188953D01*
X430188Y189840D01*
X429603Y190603D01*
X428840Y191188D01*
X427953Y191556D01*
X427000Y191681D01*
X426047Y191556D01*
X425160Y191188D01*
X424397Y190603D01*
X423812Y189840D01*
X423444Y188953D01*
X423439Y188910D01*
X422290Y188561D01*
X421226Y187993D01*
X420294Y187228D01*
X420288Y187234D01*
X419568Y186296D01*
X419116Y185204D01*
X419020Y184475D01*
X418520Y184508D01*
Y194086D01*
X418512Y194126D01*
X418687Y195008D01*
X419187Y195756D01*
X419221Y195779D01*
X419229Y195791D01*
X420068Y196435D01*
X421059Y196845D01*
X422107Y196983D01*
X422121Y196980D01*
X423472D01*
X423812Y196160D01*
X424397Y195397D01*
X425160Y194812D01*
X426047Y194444D01*
X427000Y194319D01*
X427953Y194444D01*
X428840Y194812D01*
X429603Y195397D01*
X430188Y196160D01*
X430556Y197047D01*
X430681Y198000D01*
X430556Y198953D01*
X430188Y199840D01*
X429603Y200603D01*
X428840Y201188D01*
X427953Y201556D01*
X427000Y201681D01*
D02*
G37*
G36*
X286000Y198294D02*
X285313Y198158D01*
X284731Y197769D01*
X284342Y197187D01*
X284206Y196500D01*
X284342Y195813D01*
X284641Y195366D01*
X284628Y195216D01*
X284324Y195005D01*
X284100Y194927D01*
X283500Y195046D01*
X282813Y194910D01*
X282231Y194521D01*
X282020Y194204D01*
X281520Y194356D01*
Y195065D01*
X281769Y195231D01*
X282158Y195813D01*
X282294Y196500D01*
X282158Y197187D01*
X281769Y197769D01*
X281187Y198158D01*
X280500Y198294D01*
X279813Y198158D01*
X279231Y197769D01*
X278842Y197187D01*
X278706Y196500D01*
X278842Y195813D01*
X279231Y195231D01*
X279475Y195069D01*
X279461Y194598D01*
X278980Y194452D01*
X278769Y194769D01*
X278187Y195158D01*
X277500Y195294D01*
X276813Y195158D01*
X276231Y194769D01*
X275842Y194187D01*
X275706Y193500D01*
X275842Y192813D01*
X276231Y192231D01*
X276480Y192065D01*
Y108935D01*
X276231Y108769D01*
X275842Y108187D01*
X275706Y107500D01*
X275842Y106813D01*
X276231Y106231D01*
X276813Y105842D01*
X277500Y105706D01*
X278187Y105842D01*
X278769Y106231D01*
X278980Y106548D01*
X279480Y106396D01*
Y105326D01*
X279231Y105159D01*
X278842Y104577D01*
X278706Y103891D01*
X278842Y103204D01*
X279231Y102622D01*
X279813Y102233D01*
X280500Y102096D01*
X281187Y102233D01*
X281769Y102622D01*
X282158Y103204D01*
X282294Y103891D01*
X282158Y104577D01*
X281769Y105159D01*
X281520Y105326D01*
Y192148D01*
X282020Y192300D01*
X282231Y191983D01*
X282480Y191817D01*
Y132085D01*
X282477D01*
X282570Y131378D01*
X282842Y130719D01*
X283276Y130154D01*
X283267Y130144D01*
X283412Y129927D01*
X283463Y129671D01*
X283480D01*
Y102092D01*
X283231Y101926D01*
X282842Y101344D01*
X282706Y100657D01*
X282842Y99970D01*
X283231Y99388D01*
X283813Y98999D01*
X284500Y98863D01*
X285187Y98999D01*
X285445Y99172D01*
X285731Y98769D01*
X285342Y98187D01*
X285206Y97500D01*
X285342Y96813D01*
X285731Y96231D01*
X286313Y95842D01*
X287000Y95706D01*
X287687Y95842D01*
X288269Y96231D01*
X288658Y96813D01*
X288794Y97500D01*
X288658Y98187D01*
X288269Y98769D01*
X288020Y98935D01*
Y131661D01*
X288023D01*
X287930Y132368D01*
X287657Y133027D01*
X287224Y133592D01*
X287231Y133600D01*
X287131Y133749D01*
X286987Y134190D01*
X287023Y134614D01*
X287020D01*
X287020Y134676D01*
Y195065D01*
X287269Y195231D01*
X287658Y195813D01*
X287794Y196500D01*
X287658Y197187D01*
X287269Y197769D01*
X286687Y198158D01*
X286000Y198294D01*
D02*
G37*
G36*
X553000Y201681D02*
X552047Y201556D01*
X551159Y201188D01*
X550397Y200603D01*
X549812Y199840D01*
X549444Y198953D01*
X549319Y198000D01*
X549444Y197047D01*
X549812Y196160D01*
X550397Y195397D01*
X551159Y194812D01*
X552047Y194444D01*
X553000Y194319D01*
X553953Y194444D01*
X554841Y194812D01*
X555603Y195397D01*
X556188Y196160D01*
X556556Y197047D01*
X556681Y198000D01*
X556556Y198953D01*
X556188Y199840D01*
X555603Y200603D01*
X554841Y201188D01*
X553953Y201556D01*
X553000Y201681D01*
D02*
G37*
G36*
X537000D02*
X536047Y201556D01*
X535159Y201188D01*
X534397Y200603D01*
X533812Y199840D01*
X533444Y198953D01*
X533319Y198000D01*
X533444Y197047D01*
X533812Y196160D01*
X534397Y195397D01*
X535159Y194812D01*
X536047Y194444D01*
X537000Y194319D01*
X537953Y194444D01*
X538840Y194812D01*
X539603Y195397D01*
X540188Y196160D01*
X540556Y197047D01*
X540681Y198000D01*
X540556Y198953D01*
X540188Y199840D01*
X539603Y200603D01*
X538840Y201188D01*
X537953Y201556D01*
X537000Y201681D01*
D02*
G37*
G36*
X789911Y214039D02*
X789131Y213884D01*
X788470Y213442D01*
X788027Y212780D01*
X787872Y212000D01*
Y197665D01*
X787415Y197314D01*
X786854Y196583D01*
X786502Y195731D01*
X786381Y194818D01*
X786502Y193904D01*
X786854Y193053D01*
X787415Y192322D01*
X788146Y191761D01*
X788998Y191408D01*
X789911Y191288D01*
X790825Y191408D01*
X791677Y191761D01*
X792408Y192322D01*
X792969Y193053D01*
X793321Y193904D01*
X793442Y194818D01*
X793321Y195731D01*
X792969Y196583D01*
X792408Y197314D01*
X791951Y197665D01*
Y212000D01*
X791795Y212780D01*
X791353Y213442D01*
X790692Y213884D01*
X789911Y214039D01*
D02*
G37*
G36*
X802707Y197868D02*
X801663Y197731D01*
X800690Y197328D01*
X799854Y196686D01*
X799213Y195851D01*
X798810Y194878D01*
X798672Y193834D01*
X798810Y192789D01*
X799213Y191816D01*
X799854Y190981D01*
X800690Y190340D01*
X801663Y189937D01*
X802707Y189799D01*
X803751Y189937D01*
X804724Y190340D01*
X805560Y190981D01*
X806201Y191816D01*
X806604Y192789D01*
X806741Y193834D01*
X806604Y194878D01*
X806201Y195851D01*
X805560Y196686D01*
X804724Y197328D01*
X803751Y197731D01*
X802707Y197868D01*
D02*
G37*
G36*
X777116D02*
X776072Y197731D01*
X775099Y197328D01*
X774263Y196686D01*
X773622Y195851D01*
X773219Y194878D01*
X773082Y193834D01*
X773219Y192789D01*
X773622Y191816D01*
X774263Y190981D01*
X775099Y190340D01*
X776072Y189937D01*
X777116Y189799D01*
X778160Y189937D01*
X779134Y190340D01*
X779969Y190981D01*
X780610Y191816D01*
X781013Y192789D01*
X781151Y193834D01*
X781013Y194878D01*
X780610Y195851D01*
X779969Y196686D01*
X779134Y197328D01*
X778160Y197731D01*
X777116Y197868D01*
D02*
G37*
G36*
X186884D02*
X185840Y197731D01*
X184867Y197328D01*
X184031Y196686D01*
X183390Y195851D01*
X182987Y194878D01*
X182850Y193834D01*
X182987Y192789D01*
X183390Y191816D01*
X184031Y190981D01*
X184867Y190340D01*
X185840Y189937D01*
X186884Y189799D01*
X187928Y189937D01*
X188901Y190340D01*
X189737Y190981D01*
X190378Y191816D01*
X190781Y192789D01*
X190919Y193834D01*
X190781Y194878D01*
X190378Y195851D01*
X189737Y196686D01*
X188901Y197328D01*
X187928Y197731D01*
X186884Y197868D01*
D02*
G37*
G36*
X161294D02*
X160249Y197731D01*
X159276Y197328D01*
X158441Y196686D01*
X157800Y195851D01*
X157397Y194878D01*
X157259Y193834D01*
X157397Y192789D01*
X157800Y191816D01*
X158441Y190981D01*
X159276Y190340D01*
X160249Y189937D01*
X161294Y189799D01*
X162338Y189937D01*
X163311Y190340D01*
X164146Y190981D01*
X164788Y191816D01*
X165191Y192789D01*
X165328Y193834D01*
X165191Y194878D01*
X164788Y195851D01*
X164146Y196686D01*
X163311Y197328D01*
X162338Y197731D01*
X161294Y197868D01*
D02*
G37*
G36*
X553000Y191681D02*
X552047Y191556D01*
X551159Y191188D01*
X550397Y190603D01*
X549812Y189840D01*
X549444Y188953D01*
X549319Y188000D01*
X549444Y187047D01*
X549812Y186160D01*
X550397Y185397D01*
X551159Y184812D01*
X552047Y184444D01*
X553000Y184319D01*
X553953Y184444D01*
X554841Y184812D01*
X555603Y185397D01*
X556188Y186160D01*
X556556Y187047D01*
X556681Y188000D01*
X556556Y188953D01*
X556188Y189840D01*
X555603Y190603D01*
X554841Y191188D01*
X553953Y191556D01*
X553000Y191681D01*
D02*
G37*
G36*
X537000D02*
X536047Y191556D01*
X535159Y191188D01*
X534397Y190603D01*
X533812Y189840D01*
X533444Y188953D01*
X533319Y188000D01*
X533444Y187047D01*
X533812Y186160D01*
X534397Y185397D01*
X535159Y184812D01*
X536047Y184444D01*
X537000Y184319D01*
X537953Y184444D01*
X538840Y184812D01*
X539603Y185397D01*
X540188Y186160D01*
X540556Y187047D01*
X540681Y188000D01*
X540556Y188953D01*
X540188Y189840D01*
X539603Y190603D01*
X538840Y191188D01*
X537953Y191556D01*
X537000Y191681D01*
D02*
G37*
G36*
X223500Y234959D02*
X222813Y234823D01*
X222231Y234434D01*
X221842Y233852D01*
X221706Y233165D01*
X221842Y232478D01*
X222231Y231896D01*
X222480Y231730D01*
Y188537D01*
X222489Y188493D01*
X222321Y186782D01*
X221809Y185095D01*
X220978Y183540D01*
X219887Y182211D01*
X219850Y182187D01*
X209899Y172236D01*
X209605Y172294D01*
X208919Y172158D01*
X208337Y171769D01*
X207948Y171187D01*
X207811Y170500D01*
X207948Y169813D01*
X208337Y169231D01*
X208919Y168842D01*
X209605Y168706D01*
X210292Y168842D01*
X210874Y169231D01*
X211263Y169813D01*
X211400Y170500D01*
X211341Y170794D01*
X221292Y180745D01*
X221302Y180735D01*
X222427Y182051D01*
X223331Y183527D01*
X223994Y185127D01*
X224398Y186811D01*
X224534Y188537D01*
X224520D01*
Y231730D01*
X224769Y231896D01*
X225158Y232478D01*
X225294Y233165D01*
X225158Y233852D01*
X224769Y234434D01*
X224187Y234823D01*
X223500Y234959D01*
D02*
G37*
G36*
X789911Y189451D02*
X788753Y189298D01*
X787674Y188851D01*
X786747Y188140D01*
X786036Y187213D01*
X785589Y186134D01*
X785436Y184975D01*
X785589Y183817D01*
X786036Y182738D01*
X786747Y181811D01*
X787674Y181099D01*
X788753Y180652D01*
X789911Y180500D01*
X791070Y180652D01*
X792149Y181099D01*
X793076Y181811D01*
X793787Y182738D01*
X794234Y183817D01*
X794387Y184975D01*
X794234Y186134D01*
X793787Y187213D01*
X793076Y188140D01*
X792149Y188851D01*
X791070Y189298D01*
X789911Y189451D01*
D02*
G37*
G36*
X174089D02*
X172931Y189298D01*
X171851Y188851D01*
X170924Y188140D01*
X170213Y187213D01*
X169766Y186134D01*
X169614Y184975D01*
X169766Y183817D01*
X170213Y182738D01*
X170924Y181811D01*
X171851Y181099D01*
X172931Y180652D01*
X174089Y180500D01*
X175247Y180652D01*
X176326Y181099D01*
X177253Y181811D01*
X177964Y182738D01*
X178412Y183817D01*
X178564Y184975D01*
X178412Y186134D01*
X177964Y187213D01*
X177253Y188140D01*
X176326Y188851D01*
X175247Y189298D01*
X174089Y189451D01*
D02*
G37*
G36*
X478741Y186291D02*
X471245D01*
Y178795D01*
X478741D01*
Y186291D01*
D02*
G37*
G36*
X484993Y186324D02*
X484014Y186195D01*
X483103Y185817D01*
X482320Y185216D01*
X481719Y184433D01*
X481341Y183522D01*
X481212Y182543D01*
X481341Y181565D01*
X481702Y180694D01*
X479279Y178271D01*
X479058Y177941D01*
X478980Y177550D01*
Y174017D01*
X478480Y173917D01*
X478267Y174433D01*
X477666Y175216D01*
X476883Y175817D01*
X475971Y176195D01*
X474993Y176324D01*
X474014Y176195D01*
X473103Y175817D01*
X472320Y175216D01*
X471719Y174433D01*
X471341Y173522D01*
X471212Y172543D01*
X471341Y171565D01*
X471719Y170653D01*
X472320Y169870D01*
X473103Y169269D01*
X473980Y168906D01*
Y162144D01*
X473731Y161978D01*
X473342Y161396D01*
X473206Y160709D01*
X473342Y160022D01*
X473731Y159440D01*
X474313Y159051D01*
X475000Y158915D01*
X475687Y159051D01*
X476269Y159440D01*
X476658Y160022D01*
X476794Y160709D01*
X476658Y161396D01*
X476269Y161978D01*
X476020Y162144D01*
Y168912D01*
X476883Y169269D01*
X477666Y169870D01*
X478267Y170653D01*
X478480Y171169D01*
X478980Y171070D01*
Y155935D01*
X478731Y155769D01*
X478342Y155187D01*
X478206Y154500D01*
X478342Y153813D01*
X478731Y153231D01*
X479313Y152842D01*
X480000Y152706D01*
X480687Y152842D01*
X481269Y153231D01*
X481658Y153813D01*
X481794Y154500D01*
X481658Y155187D01*
X481269Y155769D01*
X481020Y155935D01*
Y171035D01*
X481520Y171134D01*
X481719Y170653D01*
X482320Y169870D01*
X483103Y169269D01*
X483980Y168906D01*
Y125528D01*
X483159Y125188D01*
X482397Y124603D01*
X481812Y123840D01*
X481444Y122953D01*
X481319Y122000D01*
X481444Y121047D01*
X481812Y120159D01*
X482397Y119397D01*
X483159Y118812D01*
X484047Y118444D01*
X485000Y118319D01*
X485953Y118444D01*
X486840Y118812D01*
X487603Y119397D01*
X488188Y120159D01*
X488556Y121047D01*
X488681Y122000D01*
X488556Y122953D01*
X488188Y123840D01*
X487603Y124603D01*
X486840Y125188D01*
X486020Y125528D01*
Y168912D01*
X486883Y169269D01*
X487666Y169870D01*
X488267Y170653D01*
X488644Y171565D01*
X488773Y172543D01*
X488644Y173522D01*
X488267Y174433D01*
X487666Y175216D01*
X486883Y175817D01*
X485971Y176195D01*
X484993Y176324D01*
X484014Y176195D01*
X483103Y175817D01*
X482320Y175216D01*
X481719Y174433D01*
X481520Y173952D01*
X481020Y174052D01*
Y177128D01*
X483144Y179252D01*
X484014Y178892D01*
X484993Y178763D01*
X485971Y178892D01*
X486883Y179269D01*
X487666Y179870D01*
X488267Y180653D01*
X488644Y181565D01*
X488773Y182543D01*
X488644Y183522D01*
X488267Y184433D01*
X487666Y185216D01*
X486883Y185817D01*
X485971Y186195D01*
X484993Y186324D01*
D02*
G37*
G36*
X553000Y181681D02*
X552047Y181556D01*
X551159Y181188D01*
X550397Y180603D01*
X549812Y179841D01*
X549444Y178953D01*
X549319Y178000D01*
X549444Y177047D01*
X549812Y176160D01*
X550397Y175397D01*
X551159Y174812D01*
X552047Y174444D01*
X553000Y174319D01*
X553953Y174444D01*
X554841Y174812D01*
X555603Y175397D01*
X556188Y176160D01*
X556556Y177047D01*
X556681Y178000D01*
X556556Y178953D01*
X556188Y179841D01*
X555603Y180603D01*
X554841Y181188D01*
X553953Y181556D01*
X553000Y181681D01*
D02*
G37*
G36*
X537000D02*
X536047Y181556D01*
X535159Y181188D01*
X534397Y180603D01*
X533812Y179841D01*
X533444Y178953D01*
X533319Y178000D01*
X533444Y177047D01*
X533812Y176160D01*
X534397Y175397D01*
X535159Y174812D01*
X536047Y174444D01*
X537000Y174319D01*
X537953Y174444D01*
X538840Y174812D01*
X539603Y175397D01*
X540188Y176160D01*
X540556Y177047D01*
X540681Y178000D01*
X540556Y178953D01*
X540188Y179841D01*
X539603Y180603D01*
X538840Y181188D01*
X537953Y181556D01*
X537000Y181681D01*
D02*
G37*
G36*
X802707Y180151D02*
X801663Y180014D01*
X800690Y179611D01*
X799854Y178970D01*
X799213Y178134D01*
X798810Y177161D01*
X798672Y176117D01*
X798810Y175073D01*
X799213Y174100D01*
X799854Y173264D01*
X800690Y172623D01*
X801663Y172220D01*
X802707Y172082D01*
X803751Y172220D01*
X804724Y172623D01*
X805560Y173264D01*
X806201Y174100D01*
X806604Y175073D01*
X806741Y176117D01*
X806604Y177161D01*
X806201Y178134D01*
X805560Y178970D01*
X804724Y179611D01*
X803751Y180014D01*
X802707Y180151D01*
D02*
G37*
G36*
X777116D02*
X776072Y180014D01*
X775099Y179611D01*
X774263Y178970D01*
X773622Y178134D01*
X773219Y177161D01*
X773082Y176117D01*
X773219Y175073D01*
X773622Y174100D01*
X774263Y173264D01*
X775099Y172623D01*
X776072Y172220D01*
X777116Y172082D01*
X778160Y172220D01*
X779134Y172623D01*
X779969Y173264D01*
X780610Y174100D01*
X781013Y175073D01*
X781151Y176117D01*
X781013Y177161D01*
X780610Y178134D01*
X779969Y178970D01*
X779134Y179611D01*
X778160Y180014D01*
X777116Y180151D01*
D02*
G37*
G36*
X186884D02*
X185840Y180014D01*
X184867Y179611D01*
X184031Y178970D01*
X183390Y178134D01*
X182987Y177161D01*
X182850Y176117D01*
X182987Y175073D01*
X183390Y174100D01*
X184031Y173264D01*
X184867Y172623D01*
X185840Y172220D01*
X186884Y172082D01*
X187928Y172220D01*
X188901Y172623D01*
X189737Y173264D01*
X190378Y174100D01*
X190781Y175073D01*
X190919Y176117D01*
X190781Y177161D01*
X190378Y178134D01*
X189737Y178970D01*
X188901Y179611D01*
X187928Y180014D01*
X186884Y180151D01*
D02*
G37*
G36*
X161294D02*
X160249Y180014D01*
X159276Y179611D01*
X158441Y178970D01*
X157800Y178134D01*
X157397Y177161D01*
X157259Y176117D01*
X157397Y175073D01*
X157800Y174100D01*
X158441Y173264D01*
X159276Y172623D01*
X160249Y172220D01*
X161294Y172082D01*
X162338Y172220D01*
X163311Y172623D01*
X164146Y173264D01*
X164788Y174100D01*
X165191Y175073D01*
X165328Y176117D01*
X165191Y177161D01*
X164788Y178134D01*
X164146Y178970D01*
X163311Y179611D01*
X162338Y180014D01*
X161294Y180151D01*
D02*
G37*
G36*
X789911Y178663D02*
X788998Y178543D01*
X788146Y178190D01*
X787415Y177629D01*
X786854Y176898D01*
X786502Y176047D01*
X786381Y175133D01*
X786502Y174219D01*
X786854Y173368D01*
X787415Y172637D01*
X788146Y172076D01*
X788998Y171723D01*
X789911Y171603D01*
X790825Y171723D01*
X791677Y172076D01*
X792408Y172637D01*
X792969Y173368D01*
X793321Y174219D01*
X793442Y175133D01*
X793321Y176047D01*
X792969Y176898D01*
X792408Y177629D01*
X791677Y178190D01*
X790825Y178543D01*
X789911Y178663D01*
D02*
G37*
G36*
X174089D02*
X173175Y178543D01*
X172324Y178190D01*
X171593Y177629D01*
X171032Y176898D01*
X170679Y176047D01*
X170559Y175133D01*
X170679Y174219D01*
X171032Y173368D01*
X171593Y172637D01*
X172324Y172076D01*
X173175Y171723D01*
X174089Y171603D01*
X175003Y171723D01*
X175854Y172076D01*
X176585Y172637D01*
X177146Y173368D01*
X177499Y174219D01*
X177619Y175133D01*
X177499Y176047D01*
X177146Y176898D01*
X176585Y177629D01*
X175854Y178190D01*
X175003Y178543D01*
X174089Y178663D01*
D02*
G37*
G36*
X734859Y183647D02*
X733526Y183516D01*
X732245Y183127D01*
X731064Y182496D01*
X730028Y181646D01*
X729178Y180611D01*
X728547Y179430D01*
X728158Y178148D01*
X728027Y176815D01*
X728158Y175482D01*
X728547Y174201D01*
X729178Y173020D01*
X730028Y171984D01*
X731064Y171134D01*
X732245Y170503D01*
X733526Y170114D01*
X734859Y169983D01*
X736192Y170114D01*
X737474Y170503D01*
X738655Y171134D01*
X739690Y171984D01*
X740540Y173020D01*
X741171Y174201D01*
X741560Y175482D01*
X741691Y176815D01*
X741560Y178148D01*
X741171Y179430D01*
X740540Y180611D01*
X739690Y181646D01*
X738655Y182496D01*
X737474Y183127D01*
X736192Y183516D01*
X734859Y183647D01*
D02*
G37*
G36*
X229141D02*
X227808Y183516D01*
X226527Y183127D01*
X225345Y182496D01*
X224310Y181646D01*
X223461Y180611D01*
X222829Y179430D01*
X222440Y178148D01*
X222309Y176815D01*
X222440Y175482D01*
X222829Y174201D01*
X223461Y173020D01*
X224310Y171984D01*
X225345Y171134D01*
X226527Y170503D01*
X227808Y170114D01*
X229141Y169983D01*
X230474Y170114D01*
X231756Y170503D01*
X232937Y171134D01*
X233972Y171984D01*
X234822Y173020D01*
X235453Y174201D01*
X235842Y175482D01*
X235973Y176815D01*
X235842Y178148D01*
X235453Y179430D01*
X234822Y180611D01*
X233972Y181646D01*
X232937Y182496D01*
X231756Y183127D01*
X230474Y183516D01*
X229141Y183647D01*
D02*
G37*
G36*
X706052Y191144D02*
X705365Y191008D01*
X704783Y190619D01*
X704394Y190037D01*
X704258Y189350D01*
X704394Y188663D01*
X704783Y188081D01*
X704980Y187950D01*
Y170873D01*
X704825Y170769D01*
X704436Y170187D01*
X704299Y169500D01*
X704436Y168813D01*
X704825Y168231D01*
X705407Y167842D01*
X706094Y167706D01*
X706780Y167842D01*
X707362Y168231D01*
X707751Y168813D01*
X707888Y169500D01*
X707751Y170187D01*
X707362Y170769D01*
X707020Y170998D01*
Y187880D01*
X707321Y188081D01*
X707710Y188663D01*
X707846Y189350D01*
X707710Y190037D01*
X707321Y190619D01*
X706739Y191008D01*
X706052Y191144D01*
D02*
G37*
G36*
X556650Y171650D02*
X549350D01*
Y164350D01*
X556650D01*
Y171650D01*
D02*
G37*
G36*
X540650D02*
X533350D01*
Y164350D01*
X540650D01*
Y171650D01*
D02*
G37*
G36*
X264500Y165020D02*
X264231D01*
X263841Y164942D01*
X263510Y164721D01*
X263289Y164390D01*
X263212Y164000D01*
X263289Y163610D01*
X263510Y163279D01*
X263841Y163058D01*
X264231Y162980D01*
X264500D01*
X264890Y163058D01*
X265221Y163279D01*
X265442Y163610D01*
X265520Y164000D01*
X265442Y164390D01*
X265221Y164721D01*
X264890Y164942D01*
X264500Y165020D01*
D02*
G37*
G36*
X718221Y147966D02*
X716888Y147835D01*
X715606Y147446D01*
X714425Y146815D01*
X713390Y145965D01*
X712540Y144930D01*
X711909Y143748D01*
X711520Y142467D01*
X711388Y141134D01*
X711520Y139801D01*
X711909Y138519D01*
X712540Y137338D01*
X713390Y136303D01*
X714425Y135453D01*
X715606Y134822D01*
X716888Y134433D01*
X718221Y134302D01*
X719554Y134433D01*
X720835Y134822D01*
X722016Y135453D01*
X723052Y136303D01*
X723901Y137338D01*
X724533Y138519D01*
X724921Y139801D01*
X725053Y141134D01*
X724921Y142467D01*
X724533Y143748D01*
X723901Y144930D01*
X723052Y145965D01*
X722016Y146815D01*
X720835Y147446D01*
X719554Y147835D01*
X718221Y147966D01*
D02*
G37*
G36*
X245780D02*
X244447Y147835D01*
X243165Y147446D01*
X241984Y146815D01*
X240949Y145965D01*
X240099Y144930D01*
X239468Y143748D01*
X239079Y142467D01*
X238948Y141134D01*
X239079Y139801D01*
X239468Y138519D01*
X240099Y137338D01*
X240949Y136303D01*
X241984Y135453D01*
X243165Y134822D01*
X244447Y134433D01*
X245780Y134302D01*
X247112Y134433D01*
X248394Y134822D01*
X249575Y135453D01*
X250611Y136303D01*
X251460Y137338D01*
X252092Y138519D01*
X252480Y139801D01*
X252612Y141134D01*
X252480Y142467D01*
X252092Y143748D01*
X251460Y144930D01*
X250611Y145965D01*
X249575Y146815D01*
X248394Y147446D01*
X247112Y147835D01*
X245780Y147966D01*
D02*
G37*
G36*
X553500Y340794D02*
X552813Y340658D01*
X552231Y340269D01*
X551842Y339687D01*
X551706Y339000D01*
X551842Y338313D01*
X552231Y337731D01*
X552590Y337491D01*
Y251435D01*
X552341Y251269D01*
X551952Y250687D01*
X551816Y250000D01*
X551952Y249313D01*
X552341Y248731D01*
X552923Y248342D01*
X553610Y248206D01*
X554296Y248342D01*
X554879Y248731D01*
X555036Y248967D01*
X555536Y248815D01*
Y229926D01*
X555518D01*
X555668Y228407D01*
X556111Y226947D01*
X556830Y225601D01*
X557798Y224421D01*
X557811Y224434D01*
X558350Y223895D01*
X558387Y223870D01*
X559478Y222541D01*
X560309Y220986D01*
X560820Y219299D01*
X560989Y217588D01*
X560980Y217545D01*
Y143244D01*
X560966D01*
X561102Y141518D01*
X561506Y139834D01*
X562169Y138235D01*
X563073Y136758D01*
X564198Y135442D01*
X564208Y135452D01*
X568350Y131310D01*
X568387Y131285D01*
X569478Y129956D01*
X570309Y128401D01*
X570821Y126714D01*
X570989Y125003D01*
X570980Y124960D01*
Y97097D01*
X570731Y96930D01*
X570342Y96348D01*
X570206Y95661D01*
X570342Y94975D01*
X570731Y94393D01*
X571313Y94004D01*
X572000Y93867D01*
X572687Y94004D01*
X573269Y94393D01*
X573658Y94975D01*
X573794Y95661D01*
X573658Y96348D01*
X573269Y96930D01*
X573020Y97097D01*
Y124960D01*
X573034D01*
X572898Y126686D01*
X572494Y128369D01*
X571831Y129969D01*
X570927Y131445D01*
X569802Y132762D01*
X569792Y132752D01*
X565650Y136894D01*
X565613Y136918D01*
X564522Y138248D01*
X563691Y139802D01*
X563179Y141490D01*
X563011Y143201D01*
X563020Y143244D01*
Y144810D01*
X563520Y144830D01*
X563602Y143784D01*
X564006Y142101D01*
X564669Y140501D01*
X565573Y139025D01*
X566698Y137708D01*
X566708Y137719D01*
X582719Y121708D01*
X582708Y121698D01*
X584025Y120573D01*
X585501Y119669D01*
X587101Y119006D01*
X588785Y118602D01*
X590511Y118466D01*
Y118480D01*
X613858D01*
Y118466D01*
X615584Y118602D01*
X617268Y119006D01*
X618867Y119669D01*
X620343Y120573D01*
X621660Y121698D01*
X621650Y121708D01*
X632292Y132350D01*
X632302Y132340D01*
X633427Y133657D01*
X634331Y135133D01*
X634994Y136732D01*
X635398Y138416D01*
X635534Y140142D01*
X635520D01*
Y172884D01*
X635769Y173050D01*
X636158Y173632D01*
X636294Y174319D01*
X636158Y175006D01*
X635769Y175588D01*
X635187Y175977D01*
X634500Y176113D01*
X633813Y175977D01*
X633231Y175588D01*
X633091Y175377D01*
X632591Y175529D01*
Y178065D01*
X632840Y178231D01*
X633229Y178813D01*
X633365Y179500D01*
X633229Y180187D01*
X632840Y180769D01*
X632258Y181158D01*
X631571Y181294D01*
X630884Y181158D01*
X630302Y180769D01*
X629913Y180187D01*
X629777Y179500D01*
X629913Y178813D01*
X630302Y178231D01*
X630551Y178065D01*
Y140500D01*
X630554Y140485D01*
X630416Y139083D01*
X630003Y137721D01*
X629332Y136465D01*
X628439Y135376D01*
X628426Y135367D01*
X617278Y124220D01*
X617270Y124208D01*
X616432Y123565D01*
X615442Y123155D01*
X614393Y123017D01*
X614379Y123020D01*
X608665D01*
X608602Y123516D01*
X609557Y123761D01*
X609615Y123789D01*
X609678Y123800D01*
X612689Y124993D01*
X612744Y125028D01*
X612805Y125047D01*
X615643Y126607D01*
X615693Y126649D01*
X615751Y126676D01*
X618371Y128579D01*
X618415Y128627D01*
X618470Y128661D01*
X620830Y130878D01*
X620868Y130930D01*
X620918Y130971D01*
X622982Y133466D01*
X623013Y133523D01*
X623058Y133570D01*
X624793Y136304D01*
X624816Y136364D01*
X624855Y136416D01*
X626233Y139347D01*
X626249Y139409D01*
X626280Y139465D01*
X627281Y142545D01*
X627289Y142610D01*
X627313Y142669D01*
X627920Y145851D01*
X627919Y145915D01*
X627936Y145977D01*
X628139Y149210D01*
X628135Y149242D01*
X628141Y149274D01*
Y287069D01*
X628135Y287101D01*
X628139Y287133D01*
X627936Y290365D01*
X627919Y290427D01*
X627920Y290492D01*
X627313Y293673D01*
X627289Y293733D01*
X627281Y293797D01*
X626280Y296877D01*
X626249Y296933D01*
X626233Y296996D01*
X624855Y299926D01*
X624816Y299978D01*
X624793Y300038D01*
X623058Y302773D01*
X623013Y302819D01*
X622982Y302876D01*
X620918Y305371D01*
X620868Y305412D01*
X620830Y305465D01*
X618470Y307682D01*
X618415Y307716D01*
X618371Y307763D01*
X615751Y309667D01*
X615693Y309694D01*
X615643Y309735D01*
X612805Y311296D01*
X612744Y311315D01*
X612689Y311350D01*
X609678Y312542D01*
X609615Y312554D01*
X609557Y312582D01*
X606420Y313387D01*
X606355Y313391D01*
X606294Y313411D01*
X603081Y313817D01*
X603017Y313812D01*
X602953Y313825D01*
X599715D01*
X599652Y313812D01*
X599587Y313817D01*
X596374Y313411D01*
X596313Y313391D01*
X596249Y313387D01*
X593112Y312582D01*
X593054Y312554D01*
X592990Y312542D01*
X589979Y311350D01*
X589925Y311315D01*
X589863Y311296D01*
X587026Y309735D01*
X586976Y309694D01*
X586917Y309667D01*
X584298Y307763D01*
X584254Y307716D01*
X584199Y307682D01*
X581838Y305465D01*
X581801Y305412D01*
X581750Y305371D01*
X579686Y302876D01*
X579656Y302819D01*
X579611Y302773D01*
X577876Y300038D01*
X577852Y299978D01*
X577814Y299926D01*
X576435Y296996D01*
X576420Y296933D01*
X576388Y296877D01*
X575387Y293797D01*
X575380Y293733D01*
X575356Y293673D01*
X574749Y290492D01*
X574749Y290427D01*
X574733Y290365D01*
X574529Y287133D01*
X574534Y287101D01*
X574527Y287069D01*
Y149274D01*
X574534Y149242D01*
X574529Y149209D01*
X574733Y145977D01*
X574749Y145915D01*
X574749Y145851D01*
X575356Y142669D01*
X575380Y142610D01*
X575387Y142545D01*
X576388Y139465D01*
X576420Y139409D01*
X576435Y139347D01*
X577814Y136416D01*
X577852Y136364D01*
X577876Y136304D01*
X579611Y133570D01*
X579656Y133523D01*
X579686Y133466D01*
X581750Y130971D01*
X581801Y130930D01*
X581838Y130878D01*
X584199Y128661D01*
X584254Y128627D01*
X584298Y128579D01*
X586917Y126676D01*
X586976Y126649D01*
X587026Y126607D01*
X589863Y125047D01*
X589925Y125028D01*
X589979Y124993D01*
X592990Y123800D01*
X593054Y123789D01*
X593112Y123761D01*
X594067Y123516D01*
X594004Y123020D01*
X591000D01*
X590974Y123014D01*
X589449Y123164D01*
X587958Y123617D01*
X586584Y124351D01*
X585755Y125031D01*
X585385Y125345D01*
X585039Y125692D01*
X571079Y139652D01*
X571042Y139676D01*
X569951Y141006D01*
X569120Y142560D01*
X568608Y144247D01*
X568440Y145958D01*
X568448Y146002D01*
Y221429D01*
X568463D01*
X568327Y223155D01*
X567923Y224839D01*
X567260Y226438D01*
X566356Y227915D01*
X565231Y229231D01*
X565231Y229231D01*
X564900Y229594D01*
X564323Y230297D01*
X563710Y231444D01*
X563332Y232689D01*
X563205Y233979D01*
X563206Y233984D01*
Y263565D01*
X563455Y263731D01*
X563844Y264313D01*
X563981Y265000D01*
X563844Y265687D01*
X563455Y266269D01*
X562873Y266658D01*
X562187Y266794D01*
X561500Y266658D01*
X560918Y266269D01*
X560529Y265687D01*
X560392Y265000D01*
X560529Y264313D01*
X560918Y263731D01*
X561167Y263565D01*
Y233984D01*
X561145D01*
X561312Y232288D01*
X561807Y230656D01*
X562611Y229152D01*
X563692Y227834D01*
X563692Y227834D01*
X564042Y227479D01*
X564907Y226425D01*
X565738Y224870D01*
X566249Y223183D01*
X566418Y221472D01*
X566409Y221429D01*
Y146002D01*
X566395D01*
X566531Y144276D01*
X566935Y142592D01*
X567598Y140993D01*
X568194Y140020D01*
X567904Y139535D01*
X567822Y139540D01*
X567022Y140514D01*
X566191Y142069D01*
X565680Y143756D01*
X565511Y145467D01*
X565520Y145511D01*
Y220000D01*
X565533D01*
X565401Y221672D01*
X565010Y223303D01*
X564368Y224853D01*
X563491Y226283D01*
X562402Y227559D01*
X562393Y227549D01*
X562393Y227549D01*
X561650Y228292D01*
X561650Y228292D01*
X560862Y229252D01*
X560276Y230348D01*
X559915Y231537D01*
X559793Y232773D01*
X559794Y232774D01*
Y273065D01*
X560043Y273231D01*
X560432Y273813D01*
X560568Y274500D01*
X560432Y275187D01*
X560043Y275769D01*
X559461Y276158D01*
X558774Y276294D01*
X558087Y276158D01*
X557505Y275769D01*
X557116Y275187D01*
X556623Y275268D01*
Y285420D01*
X556613Y285470D01*
X556793Y286837D01*
X557339Y288157D01*
X557393Y288227D01*
X557500Y288206D01*
X558187Y288342D01*
X558769Y288731D01*
X559158Y289313D01*
X559294Y290000D01*
X559158Y290687D01*
X558769Y291269D01*
X558187Y291658D01*
X557500Y291794D01*
X556813Y291658D01*
X556231Y291269D01*
X555842Y290687D01*
X555706Y290000D01*
X555799Y289531D01*
X555139Y288295D01*
X555129Y288265D01*
X554629Y288339D01*
Y337638D01*
X554769Y337731D01*
X555158Y338313D01*
X555294Y339000D01*
X555158Y339687D01*
X554769Y340269D01*
X554187Y340658D01*
X553500Y340794D01*
D02*
G37*
G36*
X441042Y144794D02*
X440355Y144658D01*
X439773Y144269D01*
X439384Y143687D01*
X439339Y143460D01*
X420592Y124713D01*
X420313Y124658D01*
X419731Y124269D01*
X419342Y123687D01*
X419206Y123000D01*
X419342Y122313D01*
X419731Y121731D01*
X420313Y121342D01*
X421000Y121206D01*
X421687Y121342D01*
X422269Y121731D01*
X422658Y122313D01*
X422692Y122488D01*
X441502Y141297D01*
X441728Y141342D01*
X442310Y141731D01*
X442699Y142313D01*
X442836Y143000D01*
X442699Y143687D01*
X442310Y144269D01*
X441728Y144658D01*
X441042Y144794D01*
D02*
G37*
G36*
X465000Y184337D02*
X464313Y184201D01*
X463731Y183812D01*
X463342Y183230D01*
X463206Y182543D01*
X463342Y181857D01*
X463731Y181274D01*
X463980Y181108D01*
Y125650D01*
X461350D01*
Y118350D01*
X468650D01*
Y125650D01*
X466020D01*
Y181108D01*
X466269Y181274D01*
X466658Y181857D01*
X466794Y182543D01*
X466658Y183230D01*
X466269Y183812D01*
X465687Y184201D01*
X465000Y184337D01*
D02*
G37*
G36*
X495000Y162294D02*
X494313Y162158D01*
X493731Y161769D01*
X493342Y161187D01*
X493206Y160500D01*
X493342Y159813D01*
X493731Y159231D01*
X493980Y159065D01*
Y125528D01*
X493159Y125188D01*
X492397Y124603D01*
X491812Y123840D01*
X491444Y122953D01*
X491319Y122000D01*
X491444Y121047D01*
X491812Y120159D01*
X492397Y119397D01*
X493159Y118812D01*
X494047Y118444D01*
X495000Y118319D01*
X495953Y118444D01*
X496840Y118812D01*
X497603Y119397D01*
X498188Y120159D01*
X498556Y121047D01*
X498681Y122000D01*
X498556Y122953D01*
X498188Y123840D01*
X497603Y124603D01*
X496840Y125188D01*
X496020Y125528D01*
Y159065D01*
X496269Y159231D01*
X496658Y159813D01*
X496794Y160500D01*
X496658Y161187D01*
X496269Y161769D01*
X495687Y162158D01*
X495000Y162294D01*
D02*
G37*
G36*
X474993Y156294D02*
X474306Y156158D01*
X473724Y155769D01*
X473335Y155187D01*
X473199Y154500D01*
X473335Y153813D01*
X473724Y153231D01*
X473980Y153060D01*
Y125528D01*
X473160Y125188D01*
X472397Y124603D01*
X471812Y123840D01*
X471444Y122953D01*
X471319Y122000D01*
X471444Y121047D01*
X471812Y120159D01*
X472397Y119397D01*
X473160Y118812D01*
X474047Y118444D01*
X475000Y118319D01*
X475953Y118444D01*
X476840Y118812D01*
X477603Y119397D01*
X478188Y120159D01*
X478556Y121047D01*
X478681Y122000D01*
X478556Y122953D01*
X478188Y123840D01*
X477603Y124603D01*
X476840Y125188D01*
X476020Y125528D01*
Y153069D01*
X476262Y153231D01*
X476650Y153813D01*
X476787Y154500D01*
X476650Y155187D01*
X476262Y155769D01*
X475679Y156158D01*
X474993Y156294D01*
D02*
G37*
G36*
X333500Y256907D02*
X332813Y256770D01*
X332231Y256381D01*
X331842Y255799D01*
X331706Y255113D01*
X331842Y254426D01*
X332231Y253844D01*
X332480Y253677D01*
Y120935D01*
X332231Y120769D01*
X331842Y120187D01*
X331706Y119500D01*
X331842Y118813D01*
X332231Y118231D01*
X332813Y117842D01*
X333500Y117706D01*
X334187Y117842D01*
X334769Y118231D01*
X335158Y118813D01*
X335294Y119500D01*
X335158Y120187D01*
X334769Y120769D01*
X334520Y120935D01*
Y253677D01*
X334769Y253844D01*
X335158Y254426D01*
X335294Y255113D01*
X335158Y255799D01*
X334769Y256381D01*
X334187Y256770D01*
X333500Y256907D01*
D02*
G37*
G36*
X424000Y115838D02*
X423313Y115701D01*
X422731Y115312D01*
X422342Y114730D01*
X422206Y114043D01*
X422264Y113750D01*
X409728Y101213D01*
X409703Y101176D01*
X408374Y100086D01*
X406819Y99255D01*
X405132Y98743D01*
X403421Y98574D01*
X403378Y98583D01*
X368582D01*
X368433Y99083D01*
X368890Y99388D01*
X368952Y99480D01*
X396358D01*
Y99466D01*
X398084Y99602D01*
X399768Y100006D01*
X401367Y100669D01*
X402844Y101573D01*
X404160Y102698D01*
X404150Y102708D01*
X413742Y112300D01*
X414000Y112249D01*
X414687Y112386D01*
X415269Y112775D01*
X415658Y113357D01*
X415794Y114043D01*
X415658Y114730D01*
X415269Y115312D01*
X414687Y115701D01*
X414000Y115838D01*
X413313Y115701D01*
X412731Y115312D01*
X412342Y114730D01*
X412206Y114043D01*
X412271Y113713D01*
X402708Y104150D01*
X402683Y104113D01*
X401354Y103022D01*
X399799Y102191D01*
X398112Y101680D01*
X396401Y101511D01*
X396358Y101520D01*
X369161D01*
X368890Y101926D01*
X368308Y102315D01*
X367621Y102451D01*
X366934Y102315D01*
X366352Y101926D01*
X365963Y101344D01*
X365827Y100657D01*
X365963Y99970D01*
X366352Y99388D01*
X366809Y99083D01*
X366660Y98583D01*
X365935D01*
X365769Y98832D01*
X365187Y99221D01*
X364500Y99357D01*
X363813Y99221D01*
X363231Y98832D01*
X362842Y98250D01*
X362706Y97563D01*
X362842Y96877D01*
X363231Y96294D01*
X363813Y95906D01*
X364500Y95769D01*
X365187Y95906D01*
X365769Y96294D01*
X365935Y96544D01*
X403378D01*
Y96529D01*
X405104Y96665D01*
X406787Y97069D01*
X408387Y97732D01*
X409863Y98637D01*
X411180Y99761D01*
X411170Y99771D01*
X423706Y112308D01*
X424000Y112249D01*
X424687Y112386D01*
X425269Y112775D01*
X425658Y113357D01*
X425794Y114043D01*
X425658Y114730D01*
X425269Y115312D01*
X424687Y115701D01*
X424000Y115838D01*
D02*
G37*
G36*
X404000Y115794D02*
X403313Y115658D01*
X402731Y115269D01*
X402342Y114687D01*
X402206Y114000D01*
X402264Y113706D01*
X396208Y107650D01*
X396183Y107613D01*
X394854Y106522D01*
X393299Y105691D01*
X391612Y105180D01*
X389901Y105011D01*
X389858Y105020D01*
X365935D01*
X365769Y105269D01*
X365187Y105658D01*
X364500Y105794D01*
X363813Y105658D01*
X363231Y105269D01*
X362842Y104687D01*
X362706Y104000D01*
X362842Y103313D01*
X363231Y102731D01*
X363813Y102342D01*
X364500Y102206D01*
X365187Y102342D01*
X365769Y102731D01*
X365935Y102980D01*
X389858D01*
Y102966D01*
X391584Y103102D01*
X393268Y103506D01*
X394867Y104169D01*
X396343Y105073D01*
X397660Y106198D01*
X397650Y106208D01*
X403706Y112264D01*
X404000Y112206D01*
X404687Y112342D01*
X405269Y112731D01*
X405658Y113313D01*
X405794Y114000D01*
X405658Y114687D01*
X405269Y115269D01*
X404687Y115658D01*
X404000Y115794D01*
D02*
G37*
G36*
X394000D02*
X393313Y115658D01*
X392731Y115269D01*
X392342Y114687D01*
X392206Y114000D01*
X392264Y113706D01*
X389708Y111150D01*
X389683Y111113D01*
X388354Y110022D01*
X386799Y109191D01*
X385112Y108679D01*
X383401Y108511D01*
X383358Y108520D01*
X369435D01*
X369269Y108769D01*
X368687Y109158D01*
X368000Y109294D01*
X367313Y109158D01*
X366731Y108769D01*
X366342Y108187D01*
X366206Y107500D01*
X366342Y106813D01*
X366731Y106231D01*
X367313Y105842D01*
X368000Y105706D01*
X368687Y105842D01*
X369269Y106231D01*
X369435Y106480D01*
X383358D01*
Y106466D01*
X385084Y106602D01*
X386768Y107006D01*
X388367Y107669D01*
X389844Y108573D01*
X391160Y109698D01*
X391150Y109708D01*
X393706Y112264D01*
X394000Y112206D01*
X394687Y112342D01*
X395269Y112731D01*
X395658Y113313D01*
X395794Y114000D01*
X395658Y114687D01*
X395269Y115269D01*
X394687Y115658D01*
X394000Y115794D01*
D02*
G37*
G36*
X750865Y108024D02*
X749951Y107904D01*
X749100Y107551D01*
X748369Y106990D01*
X747808Y106259D01*
X747455Y105408D01*
X747335Y104494D01*
X747455Y103580D01*
X747808Y102729D01*
X748369Y101998D01*
X749100Y101437D01*
X749951Y101084D01*
X750865Y100964D01*
X751779Y101084D01*
X752630Y101437D01*
X753361Y101998D01*
X753922Y102729D01*
X754275Y103580D01*
X754395Y104494D01*
X754275Y105408D01*
X753922Y106259D01*
X753361Y106990D01*
X752630Y107551D01*
X751779Y107904D01*
X750865Y108024D01*
D02*
G37*
G36*
X213136D02*
X212222Y107904D01*
X211370Y107551D01*
X210639Y106990D01*
X210078Y106259D01*
X209726Y105408D01*
X209605Y104494D01*
X209726Y103580D01*
X210078Y102729D01*
X210639Y101998D01*
X211370Y101437D01*
X212222Y101084D01*
X213136Y100964D01*
X214049Y101084D01*
X214901Y101437D01*
X215632Y101998D01*
X216193Y102729D01*
X216546Y103580D01*
X216666Y104494D01*
X216546Y105408D01*
X216193Y106259D01*
X215632Y106990D01*
X214901Y107551D01*
X214049Y107904D01*
X213136Y108024D01*
D02*
G37*
G36*
X763660Y107544D02*
X762616Y107407D01*
X761643Y107004D01*
X760807Y106363D01*
X760166Y105527D01*
X759763Y104554D01*
X759625Y103510D01*
X759763Y102466D01*
X760166Y101493D01*
X760807Y100657D01*
X761643Y100016D01*
X762616Y99613D01*
X763660Y99475D01*
X764704Y99613D01*
X765677Y100016D01*
X766513Y100657D01*
X767154Y101493D01*
X767557Y102466D01*
X767695Y103510D01*
X767557Y104554D01*
X767154Y105527D01*
X766513Y106363D01*
X765677Y107004D01*
X764704Y107407D01*
X763660Y107544D01*
D02*
G37*
G36*
X738069D02*
X737025Y107407D01*
X736052Y107004D01*
X735217Y106363D01*
X734575Y105527D01*
X734172Y104554D01*
X734035Y103510D01*
X734172Y102466D01*
X734575Y101493D01*
X735217Y100657D01*
X736052Y100016D01*
X737025Y99613D01*
X738069Y99475D01*
X739114Y99613D01*
X740087Y100016D01*
X740922Y100657D01*
X741563Y101493D01*
X741966Y102466D01*
X742104Y103510D01*
X741966Y104554D01*
X741563Y105527D01*
X740922Y106363D01*
X740087Y107004D01*
X739114Y107407D01*
X738069Y107544D01*
D02*
G37*
G36*
X225931D02*
X224887Y107407D01*
X223914Y107004D01*
X223078Y106363D01*
X222437Y105527D01*
X222034Y104554D01*
X221896Y103510D01*
X222034Y102466D01*
X222437Y101493D01*
X223078Y100657D01*
X223914Y100016D01*
X224887Y99613D01*
X225931Y99475D01*
X226975Y99613D01*
X227948Y100016D01*
X228784Y100657D01*
X229425Y101493D01*
X229828Y102466D01*
X229965Y103510D01*
X229828Y104554D01*
X229425Y105527D01*
X228784Y106363D01*
X227948Y107004D01*
X226975Y107407D01*
X225931Y107544D01*
D02*
G37*
G36*
X200340D02*
X199296Y107407D01*
X198323Y107004D01*
X197487Y106363D01*
X196846Y105527D01*
X196443Y104554D01*
X196306Y103510D01*
X196443Y102466D01*
X196846Y101493D01*
X197487Y100657D01*
X198323Y100016D01*
X199296Y99613D01*
X200340Y99475D01*
X201384Y99613D01*
X202358Y100016D01*
X203193Y100657D01*
X203834Y101493D01*
X204237Y102466D01*
X204375Y103510D01*
X204237Y104554D01*
X203834Y105527D01*
X203193Y106363D01*
X202358Y107004D01*
X201384Y107407D01*
X200340Y107544D01*
D02*
G37*
G36*
X750865Y99127D02*
X749707Y98974D01*
X748627Y98527D01*
X747700Y97816D01*
X746989Y96889D01*
X746542Y95810D01*
X746389Y94651D01*
X746542Y93493D01*
X746989Y92414D01*
X747700Y91487D01*
X748627Y90776D01*
X749707Y90329D01*
X750865Y90176D01*
X752023Y90329D01*
X753102Y90776D01*
X754029Y91487D01*
X754740Y92414D01*
X755188Y93493D01*
X755340Y94651D01*
X755188Y95810D01*
X754740Y96889D01*
X754029Y97816D01*
X753102Y98527D01*
X752023Y98974D01*
X750865Y99127D01*
D02*
G37*
G36*
X213136D02*
X211977Y98974D01*
X210898Y98527D01*
X209971Y97816D01*
X209260Y96889D01*
X208813Y95810D01*
X208660Y94651D01*
X208813Y93493D01*
X209260Y92414D01*
X209971Y91487D01*
X210898Y90776D01*
X211977Y90329D01*
X213136Y90176D01*
X214294Y90329D01*
X215373Y90776D01*
X216300Y91487D01*
X217011Y92414D01*
X217458Y93493D01*
X217611Y94651D01*
X217458Y95810D01*
X217011Y96889D01*
X216300Y97816D01*
X215373Y98527D01*
X214294Y98974D01*
X213136Y99127D01*
D02*
G37*
G36*
X291000Y121294D02*
X290313Y121158D01*
X289731Y120769D01*
X289342Y120187D01*
X289206Y119500D01*
X289342Y118813D01*
X289731Y118231D01*
X289980Y118065D01*
Y92000D01*
X289983Y91989D01*
X289849Y90631D01*
X289450Y89315D01*
X288802Y88102D01*
X287936Y87048D01*
X287927Y87042D01*
X287208Y86323D01*
X287198Y86333D01*
X286073Y85017D01*
X285169Y83540D01*
X284506Y81941D01*
X284102Y80257D01*
X283966Y78531D01*
X283980D01*
Y77028D01*
X283159Y76688D01*
X282397Y76103D01*
X281812Y75340D01*
X281444Y74453D01*
X281319Y73500D01*
X281444Y72547D01*
X281812Y71659D01*
X282397Y70897D01*
X283159Y70312D01*
X284047Y69944D01*
X285000Y69819D01*
X285953Y69944D01*
X286841Y70312D01*
X287603Y70897D01*
X288188Y71659D01*
X288556Y72547D01*
X288681Y73500D01*
X288556Y74453D01*
X288188Y75340D01*
X287603Y76103D01*
X286841Y76688D01*
X286020Y77028D01*
Y78531D01*
X286011Y78574D01*
X286179Y80286D01*
X286691Y81973D01*
X287522Y83527D01*
X288613Y84856D01*
X288650Y84881D01*
X289369Y85600D01*
X289386Y85583D01*
X290514Y86958D01*
X291353Y88527D01*
X291869Y90229D01*
X292044Y92000D01*
X292020D01*
Y118065D01*
X292269Y118231D01*
X292658Y118813D01*
X292794Y119500D01*
X292658Y120187D01*
X292269Y120769D01*
X291687Y121158D01*
X291000Y121294D01*
D02*
G37*
G36*
X763660Y89828D02*
X762616Y89690D01*
X761643Y89287D01*
X760807Y88646D01*
X760166Y87810D01*
X759763Y86837D01*
X759625Y85793D01*
X759763Y84749D01*
X760166Y83776D01*
X760807Y82940D01*
X761643Y82299D01*
X762616Y81896D01*
X763660Y81759D01*
X764704Y81896D01*
X765677Y82299D01*
X766513Y82940D01*
X767154Y83776D01*
X767557Y84749D01*
X767695Y85793D01*
X767557Y86837D01*
X767154Y87810D01*
X766513Y88646D01*
X765677Y89287D01*
X764704Y89690D01*
X763660Y89828D01*
D02*
G37*
G36*
X738069D02*
X737025Y89690D01*
X736052Y89287D01*
X735217Y88646D01*
X734575Y87810D01*
X734172Y86837D01*
X734035Y85793D01*
X734172Y84749D01*
X734575Y83776D01*
X735217Y82940D01*
X736052Y82299D01*
X737025Y81896D01*
X738069Y81759D01*
X739114Y81896D01*
X740087Y82299D01*
X740922Y82940D01*
X741563Y83776D01*
X741966Y84749D01*
X742104Y85793D01*
X741966Y86837D01*
X741563Y87810D01*
X740922Y88646D01*
X740087Y89287D01*
X739114Y89690D01*
X738069Y89828D01*
D02*
G37*
G36*
X225931D02*
X224887Y89690D01*
X223914Y89287D01*
X223078Y88646D01*
X222437Y87810D01*
X222034Y86837D01*
X221896Y85793D01*
X222034Y84749D01*
X222437Y83776D01*
X223078Y82940D01*
X223914Y82299D01*
X224887Y81896D01*
X225931Y81759D01*
X226975Y81896D01*
X227948Y82299D01*
X228784Y82940D01*
X229425Y83776D01*
X229828Y84749D01*
X229965Y85793D01*
X229828Y86837D01*
X229425Y87810D01*
X228784Y88646D01*
X227948Y89287D01*
X226975Y89690D01*
X225931Y89828D01*
D02*
G37*
G36*
X200340D02*
X199296Y89690D01*
X198323Y89287D01*
X197487Y88646D01*
X196846Y87810D01*
X196443Y86837D01*
X196306Y85793D01*
X196443Y84749D01*
X196846Y83776D01*
X197487Y82940D01*
X198323Y82299D01*
X199296Y81896D01*
X200340Y81759D01*
X201384Y81896D01*
X202358Y82299D01*
X203193Y82940D01*
X203834Y83776D01*
X204237Y84749D01*
X204375Y85793D01*
X204237Y86837D01*
X203834Y87810D01*
X203193Y88646D01*
X202358Y89287D01*
X201384Y89690D01*
X200340Y89828D01*
D02*
G37*
G36*
X750865Y88339D02*
X749951Y88219D01*
X749100Y87866D01*
X748369Y87305D01*
X747808Y86574D01*
X747455Y85723D01*
X747335Y84809D01*
X747455Y83895D01*
X747808Y83044D01*
X748369Y82313D01*
X749100Y81752D01*
X749951Y81399D01*
X750865Y81279D01*
X751779Y81399D01*
X752630Y81752D01*
X753361Y82313D01*
X753922Y83044D01*
X754275Y83895D01*
X754395Y84809D01*
X754275Y85723D01*
X753922Y86574D01*
X753361Y87305D01*
X752630Y87866D01*
X751779Y88219D01*
X750865Y88339D01*
D02*
G37*
G36*
X213136D02*
X212222Y88219D01*
X211370Y87866D01*
X210639Y87305D01*
X210078Y86574D01*
X209726Y85723D01*
X209605Y84809D01*
X209726Y83895D01*
X210078Y83044D01*
X210639Y82313D01*
X211370Y81752D01*
X212222Y81399D01*
X213136Y81279D01*
X214049Y81399D01*
X214901Y81752D01*
X215632Y82313D01*
X216193Y83044D01*
X216546Y83895D01*
X216666Y84809D01*
X216546Y85723D01*
X216193Y86574D01*
X215632Y87305D01*
X214901Y87866D01*
X214049Y88219D01*
X213136Y88339D01*
D02*
G37*
G36*
X554212Y87502D02*
X553259Y87376D01*
X552371Y87009D01*
X551609Y86424D01*
X551024Y85661D01*
X550656Y84774D01*
X550530Y83821D01*
X550656Y82868D01*
X551024Y81980D01*
X551609Y81218D01*
X552371Y80633D01*
X553259Y80265D01*
X554212Y80140D01*
X555164Y80265D01*
X556052Y80633D01*
X556814Y81218D01*
X557400Y81980D01*
X557767Y82868D01*
X557893Y83821D01*
X557767Y84774D01*
X557400Y85661D01*
X556814Y86424D01*
X556052Y87009D01*
X555164Y87376D01*
X554212Y87502D01*
D02*
G37*
G36*
X542712D02*
X541759Y87376D01*
X540871Y87009D01*
X540109Y86424D01*
X539524Y85661D01*
X539156Y84774D01*
X539031Y83821D01*
X539156Y82868D01*
X539524Y81980D01*
X540109Y81218D01*
X540871Y80633D01*
X541759Y80265D01*
X542712Y80140D01*
X543664Y80265D01*
X544552Y80633D01*
X545315Y81218D01*
X545899Y81980D01*
X546267Y82868D01*
X546393Y83821D01*
X546267Y84774D01*
X545899Y85661D01*
X545315Y86424D01*
X544552Y87009D01*
X543664Y87376D01*
X542712Y87502D01*
D02*
G37*
G36*
X531212D02*
X530259Y87376D01*
X529371Y87009D01*
X528609Y86424D01*
X528024Y85661D01*
X527656Y84774D01*
X527530Y83821D01*
X527656Y82868D01*
X528024Y81980D01*
X528609Y81218D01*
X529371Y80633D01*
X530259Y80265D01*
X531212Y80140D01*
X532164Y80265D01*
X533052Y80633D01*
X533814Y81218D01*
X534400Y81980D01*
X534767Y82868D01*
X534893Y83821D01*
X534767Y84774D01*
X534400Y85661D01*
X533814Y86424D01*
X533052Y87009D01*
X532164Y87376D01*
X531212Y87502D01*
D02*
G37*
G36*
X565212Y87480D02*
X564259Y87355D01*
X563371Y86987D01*
X562609Y86402D01*
X562024Y85640D01*
X561656Y84752D01*
X561530Y83799D01*
X561656Y82847D01*
X562024Y81959D01*
X562609Y81196D01*
X563371Y80611D01*
X564259Y80244D01*
X565212Y80118D01*
X566164Y80244D01*
X567052Y80611D01*
X567814Y81196D01*
X568399Y81959D01*
X568767Y82847D01*
X568893Y83799D01*
X568767Y84752D01*
X568399Y85640D01*
X567814Y86402D01*
X567052Y86987D01*
X566164Y87355D01*
X565212Y87480D01*
D02*
G37*
G36*
X683248Y87248D02*
X675752D01*
Y79752D01*
X683248D01*
Y87248D01*
D02*
G37*
G36*
X427748D02*
X420252D01*
Y79752D01*
X427748D01*
Y87248D01*
D02*
G37*
G36*
X669500Y87280D02*
X668522Y87152D01*
X667610Y86774D01*
X666827Y86173D01*
X666226Y85390D01*
X665848Y84478D01*
X665720Y83500D01*
X665848Y82522D01*
X666226Y81610D01*
X666827Y80827D01*
X667610Y80226D01*
X668522Y79848D01*
X669500Y79720D01*
X670478Y79848D01*
X671390Y80226D01*
X672173Y80827D01*
X672774Y81610D01*
X673152Y82522D01*
X673280Y83500D01*
X673152Y84478D01*
X672774Y85390D01*
X672173Y86173D01*
X671390Y86774D01*
X670478Y87152D01*
X669500Y87280D01*
D02*
G37*
G36*
X659500D02*
X658522Y87152D01*
X657610Y86774D01*
X656827Y86173D01*
X656226Y85390D01*
X655848Y84478D01*
X655720Y83500D01*
X655848Y82522D01*
X656226Y81610D01*
X656827Y80827D01*
X657610Y80226D01*
X658522Y79848D01*
X659500Y79720D01*
X660478Y79848D01*
X661390Y80226D01*
X662173Y80827D01*
X662774Y81610D01*
X663152Y82522D01*
X663280Y83500D01*
X663152Y84478D01*
X662774Y85390D01*
X662173Y86173D01*
X661390Y86774D01*
X660478Y87152D01*
X659500Y87280D01*
D02*
G37*
G36*
X649500D02*
X648522Y87152D01*
X647610Y86774D01*
X646827Y86173D01*
X646226Y85390D01*
X645848Y84478D01*
X645720Y83500D01*
X645848Y82522D01*
X646226Y81610D01*
X646827Y80827D01*
X647610Y80226D01*
X648522Y79848D01*
X649500Y79720D01*
X650478Y79848D01*
X651390Y80226D01*
X652173Y80827D01*
X652774Y81610D01*
X653152Y82522D01*
X653280Y83500D01*
X653152Y84478D01*
X652774Y85390D01*
X652173Y86173D01*
X651390Y86774D01*
X650478Y87152D01*
X649500Y87280D01*
D02*
G37*
G36*
X639500D02*
X638522Y87152D01*
X637610Y86774D01*
X636827Y86173D01*
X636226Y85390D01*
X635848Y84478D01*
X635720Y83500D01*
X635848Y82522D01*
X636226Y81610D01*
X636827Y80827D01*
X637610Y80226D01*
X638522Y79848D01*
X639500Y79720D01*
X640478Y79848D01*
X641390Y80226D01*
X642173Y80827D01*
X642774Y81610D01*
X643152Y82522D01*
X643280Y83500D01*
X643152Y84478D01*
X642774Y85390D01*
X642173Y86173D01*
X641390Y86774D01*
X640478Y87152D01*
X639500Y87280D01*
D02*
G37*
G36*
X629500D02*
X628522Y87152D01*
X627610Y86774D01*
X626827Y86173D01*
X626226Y85390D01*
X625848Y84478D01*
X625720Y83500D01*
X625848Y82522D01*
X626226Y81610D01*
X626827Y80827D01*
X627610Y80226D01*
X628522Y79848D01*
X629500Y79720D01*
X630478Y79848D01*
X631390Y80226D01*
X632173Y80827D01*
X632774Y81610D01*
X633152Y82522D01*
X633280Y83500D01*
X633152Y84478D01*
X632774Y85390D01*
X632173Y86173D01*
X631390Y86774D01*
X630478Y87152D01*
X629500Y87280D01*
D02*
G37*
G36*
X414000D02*
X413022Y87152D01*
X412110Y86774D01*
X411327Y86173D01*
X410726Y85390D01*
X410348Y84478D01*
X410220Y83500D01*
X410348Y82522D01*
X410726Y81610D01*
X411327Y80827D01*
X412110Y80226D01*
X413022Y79848D01*
X414000Y79720D01*
X414978Y79848D01*
X415890Y80226D01*
X416673Y80827D01*
X417274Y81610D01*
X417652Y82522D01*
X417780Y83500D01*
X417652Y84478D01*
X417274Y85390D01*
X416673Y86173D01*
X415890Y86774D01*
X414978Y87152D01*
X414000Y87280D01*
D02*
G37*
G36*
X404000D02*
X403022Y87152D01*
X402110Y86774D01*
X401327Y86173D01*
X400726Y85390D01*
X400348Y84478D01*
X400220Y83500D01*
X400348Y82522D01*
X400726Y81610D01*
X401327Y80827D01*
X402110Y80226D01*
X403022Y79848D01*
X404000Y79720D01*
X404978Y79848D01*
X405890Y80226D01*
X406673Y80827D01*
X407274Y81610D01*
X407652Y82522D01*
X407780Y83500D01*
X407652Y84478D01*
X407274Y85390D01*
X406673Y86173D01*
X405890Y86774D01*
X404978Y87152D01*
X404000Y87280D01*
D02*
G37*
G36*
X394000D02*
X393022Y87152D01*
X392110Y86774D01*
X391327Y86173D01*
X390726Y85390D01*
X390348Y84478D01*
X390220Y83500D01*
X390348Y82522D01*
X390726Y81610D01*
X391327Y80827D01*
X392110Y80226D01*
X393022Y79848D01*
X394000Y79720D01*
X394978Y79848D01*
X395890Y80226D01*
X396673Y80827D01*
X397274Y81610D01*
X397652Y82522D01*
X397780Y83500D01*
X397652Y84478D01*
X397274Y85390D01*
X396673Y86173D01*
X395890Y86774D01*
X394978Y87152D01*
X394000Y87280D01*
D02*
G37*
G36*
X384000D02*
X383022Y87152D01*
X382110Y86774D01*
X381327Y86173D01*
X380726Y85390D01*
X380348Y84478D01*
X380220Y83500D01*
X380348Y82522D01*
X380726Y81610D01*
X381327Y80827D01*
X382110Y80226D01*
X383022Y79848D01*
X384000Y79720D01*
X384978Y79848D01*
X385890Y80226D01*
X386673Y80827D01*
X387274Y81610D01*
X387652Y82522D01*
X387780Y83500D01*
X387652Y84478D01*
X387274Y85390D01*
X386673Y86173D01*
X385890Y86774D01*
X384978Y87152D01*
X384000Y87280D01*
D02*
G37*
G36*
X374000D02*
X373022Y87152D01*
X372110Y86774D01*
X371327Y86173D01*
X370726Y85390D01*
X370348Y84478D01*
X370220Y83500D01*
X370348Y82522D01*
X370726Y81610D01*
X371327Y80827D01*
X372110Y80226D01*
X373022Y79848D01*
X374000Y79720D01*
X374978Y79848D01*
X375890Y80226D01*
X376673Y80827D01*
X377274Y81610D01*
X377652Y82522D01*
X377780Y83500D01*
X377652Y84478D01*
X377274Y85390D01*
X376673Y86173D01*
X375890Y86774D01*
X374978Y87152D01*
X374000Y87280D01*
D02*
G37*
G36*
X337000D02*
X336022Y87152D01*
X335110Y86774D01*
X334327Y86173D01*
X333726Y85390D01*
X333348Y84478D01*
X333220Y83500D01*
X333348Y82522D01*
X333726Y81610D01*
X334327Y80827D01*
X335110Y80226D01*
X336022Y79848D01*
X337000Y79720D01*
X337978Y79848D01*
X338890Y80226D01*
X339673Y80827D01*
X340274Y81610D01*
X340652Y82522D01*
X340780Y83500D01*
X340652Y84478D01*
X340274Y85390D01*
X339673Y86173D01*
X338890Y86774D01*
X337978Y87152D01*
X337000Y87280D01*
D02*
G37*
G36*
X327000D02*
X326022Y87152D01*
X325110Y86774D01*
X324327Y86173D01*
X323726Y85390D01*
X323348Y84478D01*
X323220Y83500D01*
X323348Y82522D01*
X323726Y81610D01*
X324327Y80827D01*
X325110Y80226D01*
X326022Y79848D01*
X327000Y79720D01*
X327978Y79848D01*
X328890Y80226D01*
X329673Y80827D01*
X330274Y81610D01*
X330652Y82522D01*
X330780Y83500D01*
X330652Y84478D01*
X330274Y85390D01*
X329673Y86173D01*
X328890Y86774D01*
X327978Y87152D01*
X327000Y87280D01*
D02*
G37*
G36*
X317000D02*
X316022Y87152D01*
X315110Y86774D01*
X314327Y86173D01*
X313726Y85390D01*
X313348Y84478D01*
X313220Y83500D01*
X313348Y82522D01*
X313726Y81610D01*
X314327Y80827D01*
X315110Y80226D01*
X316022Y79848D01*
X317000Y79720D01*
X317978Y79848D01*
X318890Y80226D01*
X319673Y80827D01*
X320274Y81610D01*
X320652Y82522D01*
X320780Y83500D01*
X320652Y84478D01*
X320274Y85390D01*
X319673Y86173D01*
X318890Y86774D01*
X317978Y87152D01*
X317000Y87280D01*
D02*
G37*
G36*
X557861Y77470D02*
X550562D01*
Y70171D01*
X557861D01*
Y77470D01*
D02*
G37*
G36*
X546361D02*
X539062D01*
Y70171D01*
X546361D01*
Y77470D01*
D02*
G37*
G36*
X534861D02*
X527562D01*
Y70171D01*
X534861D01*
Y77470D01*
D02*
G37*
G36*
X565212Y77480D02*
X564259Y77355D01*
X563371Y76987D01*
X562609Y76402D01*
X562024Y75640D01*
X561656Y74752D01*
X561530Y73799D01*
X561656Y72847D01*
X562024Y71959D01*
X562609Y71196D01*
X563371Y70611D01*
X564259Y70244D01*
X565212Y70118D01*
X566164Y70244D01*
X567052Y70611D01*
X567814Y71196D01*
X568399Y71959D01*
X568767Y72847D01*
X568893Y73799D01*
X568767Y74752D01*
X568399Y75640D01*
X567814Y76402D01*
X567052Y76987D01*
X566164Y77355D01*
X565212Y77480D01*
D02*
G37*
G36*
X295000Y77181D02*
X294047Y77056D01*
X293160Y76688D01*
X292397Y76103D01*
X291812Y75340D01*
X291444Y74453D01*
X291319Y73500D01*
X291444Y72547D01*
X291812Y71659D01*
X292397Y70897D01*
X293160Y70312D01*
X294047Y69944D01*
X295000Y69819D01*
X295953Y69944D01*
X296841Y70312D01*
X297603Y70897D01*
X298188Y71659D01*
X298556Y72547D01*
X298681Y73500D01*
X298556Y74453D01*
X298188Y75340D01*
X297603Y76103D01*
X296841Y76688D01*
X295953Y77056D01*
X295000Y77181D01*
D02*
G37*
G36*
X679500Y77280D02*
X678522Y77152D01*
X677610Y76774D01*
X676827Y76173D01*
X676226Y75390D01*
X675848Y74478D01*
X675720Y73500D01*
X675848Y72522D01*
X676226Y71610D01*
X676827Y70827D01*
X677610Y70226D01*
X678522Y69848D01*
X679500Y69720D01*
X680478Y69848D01*
X681390Y70226D01*
X682173Y70827D01*
X682774Y71610D01*
X683152Y72522D01*
X683280Y73500D01*
X683152Y74478D01*
X682774Y75390D01*
X682173Y76173D01*
X681390Y76774D01*
X680478Y77152D01*
X679500Y77280D01*
D02*
G37*
G36*
X669500D02*
X668522Y77152D01*
X667610Y76774D01*
X666827Y76173D01*
X666226Y75390D01*
X665848Y74478D01*
X665720Y73500D01*
X665848Y72522D01*
X666226Y71610D01*
X666827Y70827D01*
X667610Y70226D01*
X668522Y69848D01*
X669500Y69720D01*
X670478Y69848D01*
X671390Y70226D01*
X672173Y70827D01*
X672774Y71610D01*
X673152Y72522D01*
X673280Y73500D01*
X673152Y74478D01*
X672774Y75390D01*
X672173Y76173D01*
X671390Y76774D01*
X670478Y77152D01*
X669500Y77280D01*
D02*
G37*
G36*
X659500D02*
X658522Y77152D01*
X657610Y76774D01*
X656827Y76173D01*
X656226Y75390D01*
X655848Y74478D01*
X655720Y73500D01*
X655848Y72522D01*
X656226Y71610D01*
X656827Y70827D01*
X657610Y70226D01*
X658522Y69848D01*
X659500Y69720D01*
X660478Y69848D01*
X661390Y70226D01*
X662173Y70827D01*
X662774Y71610D01*
X663152Y72522D01*
X663280Y73500D01*
X663152Y74478D01*
X662774Y75390D01*
X662173Y76173D01*
X661390Y76774D01*
X660478Y77152D01*
X659500Y77280D01*
D02*
G37*
G36*
X649500D02*
X648522Y77152D01*
X647610Y76774D01*
X646827Y76173D01*
X646226Y75390D01*
X645848Y74478D01*
X645720Y73500D01*
X645848Y72522D01*
X646226Y71610D01*
X646827Y70827D01*
X647610Y70226D01*
X648522Y69848D01*
X649500Y69720D01*
X650478Y69848D01*
X651390Y70226D01*
X652173Y70827D01*
X652774Y71610D01*
X653152Y72522D01*
X653280Y73500D01*
X653152Y74478D01*
X652774Y75390D01*
X652173Y76173D01*
X651390Y76774D01*
X650478Y77152D01*
X649500Y77280D01*
D02*
G37*
G36*
X639500D02*
X638522Y77152D01*
X637610Y76774D01*
X636827Y76173D01*
X636226Y75390D01*
X635848Y74478D01*
X635720Y73500D01*
X635848Y72522D01*
X636226Y71610D01*
X636827Y70827D01*
X637610Y70226D01*
X638522Y69848D01*
X639500Y69720D01*
X640478Y69848D01*
X641390Y70226D01*
X642173Y70827D01*
X642774Y71610D01*
X643152Y72522D01*
X643280Y73500D01*
X643152Y74478D01*
X642774Y75390D01*
X642173Y76173D01*
X641390Y76774D01*
X640478Y77152D01*
X639500Y77280D01*
D02*
G37*
G36*
X629500D02*
X628522Y77152D01*
X627610Y76774D01*
X626827Y76173D01*
X626226Y75390D01*
X625848Y74478D01*
X625720Y73500D01*
X625848Y72522D01*
X626226Y71610D01*
X626827Y70827D01*
X627610Y70226D01*
X628522Y69848D01*
X629500Y69720D01*
X630478Y69848D01*
X631390Y70226D01*
X632173Y70827D01*
X632774Y71610D01*
X633152Y72522D01*
X633280Y73500D01*
X633152Y74478D01*
X632774Y75390D01*
X632173Y76173D01*
X631390Y76774D01*
X630478Y77152D01*
X629500Y77280D01*
D02*
G37*
G36*
X424000D02*
X423022Y77152D01*
X422110Y76774D01*
X421327Y76173D01*
X420726Y75390D01*
X420348Y74478D01*
X420220Y73500D01*
X420348Y72522D01*
X420726Y71610D01*
X421327Y70827D01*
X422110Y70226D01*
X423022Y69848D01*
X424000Y69720D01*
X424978Y69848D01*
X425890Y70226D01*
X426673Y70827D01*
X427274Y71610D01*
X427652Y72522D01*
X427780Y73500D01*
X427652Y74478D01*
X427274Y75390D01*
X426673Y76173D01*
X425890Y76774D01*
X424978Y77152D01*
X424000Y77280D01*
D02*
G37*
G36*
X414000D02*
X413022Y77152D01*
X412110Y76774D01*
X411327Y76173D01*
X410726Y75390D01*
X410348Y74478D01*
X410220Y73500D01*
X410348Y72522D01*
X410726Y71610D01*
X411327Y70827D01*
X412110Y70226D01*
X413022Y69848D01*
X414000Y69720D01*
X414978Y69848D01*
X415890Y70226D01*
X416673Y70827D01*
X417274Y71610D01*
X417652Y72522D01*
X417780Y73500D01*
X417652Y74478D01*
X417274Y75390D01*
X416673Y76173D01*
X415890Y76774D01*
X414978Y77152D01*
X414000Y77280D01*
D02*
G37*
G36*
X404000D02*
X403022Y77152D01*
X402110Y76774D01*
X401327Y76173D01*
X400726Y75390D01*
X400348Y74478D01*
X400220Y73500D01*
X400348Y72522D01*
X400726Y71610D01*
X401327Y70827D01*
X402110Y70226D01*
X403022Y69848D01*
X404000Y69720D01*
X404978Y69848D01*
X405890Y70226D01*
X406673Y70827D01*
X407274Y71610D01*
X407652Y72522D01*
X407780Y73500D01*
X407652Y74478D01*
X407274Y75390D01*
X406673Y76173D01*
X405890Y76774D01*
X404978Y77152D01*
X404000Y77280D01*
D02*
G37*
G36*
X394000D02*
X393022Y77152D01*
X392110Y76774D01*
X391327Y76173D01*
X390726Y75390D01*
X390348Y74478D01*
X390220Y73500D01*
X390348Y72522D01*
X390726Y71610D01*
X391327Y70827D01*
X392110Y70226D01*
X393022Y69848D01*
X394000Y69720D01*
X394978Y69848D01*
X395890Y70226D01*
X396673Y70827D01*
X397274Y71610D01*
X397652Y72522D01*
X397780Y73500D01*
X397652Y74478D01*
X397274Y75390D01*
X396673Y76173D01*
X395890Y76774D01*
X394978Y77152D01*
X394000Y77280D01*
D02*
G37*
G36*
X384000D02*
X383022Y77152D01*
X382110Y76774D01*
X381327Y76173D01*
X380726Y75390D01*
X380348Y74478D01*
X380220Y73500D01*
X380348Y72522D01*
X380726Y71610D01*
X381327Y70827D01*
X382110Y70226D01*
X383022Y69848D01*
X384000Y69720D01*
X384978Y69848D01*
X385890Y70226D01*
X386673Y70827D01*
X387274Y71610D01*
X387652Y72522D01*
X387780Y73500D01*
X387652Y74478D01*
X387274Y75390D01*
X386673Y76173D01*
X385890Y76774D01*
X384978Y77152D01*
X384000Y77280D01*
D02*
G37*
G36*
X374000D02*
X373022Y77152D01*
X372110Y76774D01*
X371327Y76173D01*
X370726Y75390D01*
X370348Y74478D01*
X370220Y73500D01*
X370348Y72522D01*
X370726Y71610D01*
X371327Y70827D01*
X372110Y70226D01*
X373022Y69848D01*
X374000Y69720D01*
X374978Y69848D01*
X375890Y70226D01*
X376673Y70827D01*
X377274Y71610D01*
X377652Y72522D01*
X377780Y73500D01*
X377652Y74478D01*
X377274Y75390D01*
X376673Y76173D01*
X375890Y76774D01*
X374978Y77152D01*
X374000Y77280D01*
D02*
G37*
%LPD*%
G36*
X542226Y343610D02*
X542827Y342827D01*
X543610Y342226D01*
X544522Y341848D01*
X545500Y341720D01*
X545605Y341733D01*
X545980Y341404D01*
Y281104D01*
X545480Y280952D01*
X545269Y281269D01*
X545020Y281435D01*
Y334039D01*
X545034D01*
X544898Y335765D01*
X544494Y337449D01*
X543831Y339048D01*
X542927Y340525D01*
X541802Y341841D01*
X541580Y342249D01*
X541532Y342489D01*
X541520D01*
Y344009D01*
X542020Y344108D01*
X542226Y343610D01*
D02*
G37*
G36*
X548980Y343058D02*
Y271104D01*
X548480Y270952D01*
X548269Y271269D01*
X548020Y271435D01*
Y341879D01*
X548030D01*
X547953Y342658D01*
X548173Y342827D01*
X548480Y343227D01*
X548980Y343058D01*
D02*
G37*
G36*
X654612Y316821D02*
X656299Y316309D01*
X657854Y315478D01*
X659183Y314387D01*
X659208Y314350D01*
X681049Y292509D01*
X681039Y292499D01*
X682356Y291374D01*
X683832Y290470D01*
X685432Y289807D01*
X687115Y289403D01*
X688841Y289267D01*
Y289281D01*
X702859D01*
Y289272D01*
X703743Y289388D01*
X703773Y289400D01*
X703860Y289342D01*
X704289Y289257D01*
X704561Y288746D01*
X704561Y288732D01*
X704483Y288583D01*
X704406Y288520D01*
X687327D01*
X687284Y288511D01*
X685572Y288680D01*
X683885Y289191D01*
X682331Y290022D01*
X681002Y291113D01*
X680977Y291150D01*
X658648Y313479D01*
X658658Y313489D01*
X657342Y314613D01*
X655865Y315518D01*
X654266Y316181D01*
X653054Y316472D01*
X653137Y316966D01*
X654612Y316821D01*
D02*
G37*
G36*
X197815Y283439D02*
X198416Y282656D01*
X199199Y282055D01*
X200110Y281678D01*
X201089Y281549D01*
X202067Y281678D01*
X202979Y282055D01*
X203762Y282656D01*
X204363Y283439D01*
X204480Y283723D01*
X204980Y283624D01*
Y277035D01*
X204480Y276935D01*
X204363Y277220D01*
X203762Y278003D01*
X202979Y278603D01*
X202067Y278981D01*
X201089Y279110D01*
X200110Y278981D01*
X199199Y278603D01*
X198416Y278003D01*
X197815Y277220D01*
X197520Y276507D01*
X197020Y276606D01*
Y284053D01*
X197520Y284152D01*
X197815Y283439D01*
D02*
G37*
G36*
X270361Y192565D02*
X270610Y192398D01*
Y115522D01*
X270231Y115269D01*
X270020Y114952D01*
X269520Y115104D01*
Y192992D01*
X269724Y193062D01*
X270020Y193076D01*
X270361Y192565D01*
D02*
G37*
G36*
X279480Y192396D02*
Y108604D01*
X278980Y108452D01*
X278769Y108769D01*
X278520Y108935D01*
Y192065D01*
X278769Y192231D01*
X278980Y192548D01*
X279480Y192396D01*
D02*
G37*
G36*
X633231Y173050D02*
X633480Y172884D01*
Y140142D01*
X633489Y140099D01*
X633321Y138388D01*
X632809Y136700D01*
X631978Y135146D01*
X630887Y133817D01*
X630850Y133792D01*
X620208Y123150D01*
X620183Y123113D01*
X618854Y122022D01*
X618133Y121637D01*
X617854Y122055D01*
X618352Y122463D01*
X618352Y122463D01*
X618580Y122651D01*
X618727Y122771D01*
X618728Y122772D01*
X618721Y122779D01*
X629867Y133925D01*
X629885Y133908D01*
X631045Y135320D01*
X631906Y136932D01*
X632437Y138681D01*
X632616Y140500D01*
X632591D01*
Y173109D01*
X633091Y173260D01*
X633231Y173050D01*
D02*
G37*
D10*
X747292Y268648D02*
X747433Y267580D01*
X747845Y266585D01*
X748500Y265731D01*
X744500Y280557D02*
X744978Y279403D01*
X747292Y273816D02*
X747224Y274847D01*
X747023Y275861D01*
X746691Y276840D01*
X746233Y277767D01*
X745659Y278626D01*
X744978Y279403D01*
X760910Y271422D02*
X760183Y272081D01*
X759395Y272666D01*
X758553Y273170D01*
X757666Y273590D01*
X756742Y273920D01*
X755790Y274159D01*
X754819Y274303D01*
X753839Y274351D01*
X748664Y278264D02*
X748753Y277356D01*
X749018Y276483D01*
X749448Y275679D01*
X750026Y274974D01*
X750716Y274513D01*
X751530Y274351D01*
X748664Y278377D02*
X748602Y279310D01*
X748420Y280226D01*
X748120Y281111D01*
X747706Y281949D01*
X747187Y282726D01*
X746571Y283429D01*
X760261Y262071D02*
X759534Y262730D01*
X758746Y263315D01*
X757904Y263819D01*
X757017Y264239D01*
X756093Y264569D01*
X755141Y264808D01*
X754170Y264952D01*
X753190Y265000D01*
X748500Y265731D02*
X749310Y265190D01*
X750265Y265000D01*
X694638Y204557D02*
X694500Y204500D01*
X694000Y213000D02*
X694381Y212842D01*
X314357Y223857D02*
X313698Y223130D01*
X313114Y222342D01*
X312609Y221500D01*
X312190Y220613D01*
X311859Y219689D01*
X311621Y218737D01*
X311477Y217766D01*
X311428Y216786D01*
X316269Y214000D02*
X316500Y214558D01*
X316269Y214000D02*
X315580Y213103D01*
X315148Y212058D01*
X315000Y210937D01*
X528802Y366000D02*
X527821Y365952D01*
X526851Y365808D01*
X525899Y365569D01*
X524975Y365239D01*
X524088Y364819D01*
X523246Y364315D01*
X522458Y363730D01*
X521731Y363071D01*
X548038Y364500D02*
X547262Y365137D01*
X546377Y365610D01*
X545416Y365902D01*
X544417Y366000D01*
X518929Y360269D02*
X518270Y359542D01*
X517685Y358754D01*
X517181Y357912D01*
X516761Y357025D01*
X516431Y356101D01*
X516192Y355149D01*
X516048Y354179D01*
X516000Y353198D01*
Y346329D02*
X516048Y345349D01*
X516192Y344378D01*
X516431Y343426D01*
X516761Y342502D01*
X517181Y341615D01*
X517685Y340773D01*
X518270Y339985D01*
X518929Y339258D01*
X528020Y326025D02*
X527971Y327005D01*
X527827Y327976D01*
X527589Y328928D01*
X527258Y329852D01*
X526839Y330739D01*
X526334Y331581D01*
X525750Y332369D01*
X525091Y333096D01*
X713520Y338000D02*
X712313Y337500D01*
X555500Y357699D02*
X555452Y358680D01*
X555308Y359650D01*
X555069Y360602D01*
X554739Y361526D01*
X554319Y362414D01*
X553815Y363255D01*
X553230Y364043D01*
X552571Y364771D01*
X551692Y365650D02*
X550965Y366309D01*
X550176Y366894D01*
X549335Y367398D01*
X548448Y367818D01*
X547523Y368148D01*
X546572Y368387D01*
X545601Y368531D01*
X544621Y368579D01*
X527416D02*
X526436Y368531D01*
X525465Y368387D01*
X524513Y368148D01*
X523589Y367818D01*
X522702Y367398D01*
X521860Y366894D01*
X521072Y366309D01*
X520345Y365650D01*
X515929Y361234D02*
X515270Y360507D01*
X514685Y359719D01*
X514181Y358877D01*
X513761Y357990D01*
X513431Y357066D01*
X513192Y356114D01*
X513048Y355143D01*
X513000Y354163D01*
Y345567D02*
X513048Y344587D01*
X513192Y343616D01*
X513431Y342664D01*
X513761Y341740D01*
X514181Y340853D01*
X514685Y340011D01*
X515270Y339223D01*
X515929Y338496D01*
X522860Y327423D02*
X522812Y328403D01*
X522668Y329374D01*
X522429Y330326D01*
X522099Y331249D01*
X521679Y332137D01*
X521175Y332978D01*
X520590Y333767D01*
X519931Y334494D01*
X702859Y290301D02*
X703772Y290483D01*
X704546Y291000D01*
X659929Y315071D02*
X659202Y315730D01*
X658414Y316315D01*
X657572Y316819D01*
X656685Y317239D01*
X655761Y317569D01*
X654809Y317808D01*
X653838Y317952D01*
X652858Y318000D01*
X681770Y293230D02*
X682497Y292571D01*
X683286Y291986D01*
X684127Y291482D01*
X685014Y291062D01*
X685938Y290732D01*
X686890Y290493D01*
X687861Y290349D01*
X688841Y290301D01*
X587642Y318000D02*
X586662Y317952D01*
X585691Y317808D01*
X584739Y317569D01*
X583815Y317239D01*
X582928Y316819D01*
X582086Y316315D01*
X581298Y315730D01*
X580571Y315071D01*
X569429Y303929D02*
X568770Y303202D01*
X568185Y302414D01*
X567681Y301572D01*
X567261Y300685D01*
X566931Y299761D01*
X566692Y298809D01*
X566548Y297838D01*
X566500Y296858D01*
X657927Y312758D02*
X657200Y313417D01*
X656412Y314001D01*
X655570Y314506D01*
X654683Y314926D01*
X653759Y315256D01*
X652807Y315494D01*
X651836Y315638D01*
X650856Y315687D01*
X680256Y290429D02*
X680983Y289770D01*
X681771Y289185D01*
X682613Y288681D01*
X683500Y288261D01*
X684424Y287931D01*
X685376Y287692D01*
X686347Y287548D01*
X687327Y287500D01*
X745429Y284571D02*
X744702Y285230D01*
X743914Y285815D01*
X743072Y286319D01*
X742185Y286739D01*
X741261Y287069D01*
X740309Y287308D01*
X739338Y287452D01*
X738358Y287500D01*
X590016Y315687D02*
X589035Y315638D01*
X588065Y315494D01*
X587113Y315256D01*
X586189Y314926D01*
X585301Y314506D01*
X584460Y314001D01*
X583672Y313417D01*
X582944Y312758D01*
X573287Y303100D02*
X572628Y302373D01*
X572043Y301585D01*
X571539Y300743D01*
X571119Y299856D01*
X570788Y298932D01*
X570550Y297980D01*
X570406Y297009D01*
X570358Y296029D01*
X685500Y214500D02*
X685272Y214595D01*
X557500Y290000D02*
X556840Y289227D01*
X556309Y288361D01*
X555920Y287422D01*
X555683Y286433D01*
X555603Y285420D01*
X562000Y217545D02*
X561952Y218525D01*
X561808Y219495D01*
X561569Y220447D01*
X561239Y221371D01*
X560819Y222258D01*
X560315Y223100D01*
X559730Y223888D01*
X559071Y224616D01*
X555603Y272641D02*
X556000Y271682D01*
X556556Y270341D02*
X556000Y271682D01*
X556556Y229926D02*
X556639Y228870D01*
X556886Y227841D01*
X557291Y226863D01*
X557844Y225960D01*
X558532Y225155D01*
X567429Y221429D02*
X567381Y222409D01*
X567237Y223380D01*
X566998Y224332D01*
X566668Y225256D01*
X566248Y226143D01*
X565744Y226985D01*
X565159Y227773D01*
X564500Y228500D01*
X562187Y233984D02*
X562252Y232985D01*
X562448Y232003D01*
X562769Y231055D01*
X563212Y230157D01*
X563769Y229324D01*
X564429Y228571D01*
X564500Y220000D02*
X564454Y220947D01*
X564315Y221884D01*
X564084Y222803D01*
X563765Y223695D01*
X563360Y224552D01*
X562873Y225365D01*
X562308Y226126D01*
X561672Y226828D01*
X558774Y232774D02*
X558837Y231813D01*
X559025Y230870D01*
X559334Y229958D01*
X559760Y229095D01*
X560294Y228295D01*
X560929Y227571D01*
X617999Y123499D02*
X618000Y123500D01*
X567429Y146002D02*
X567477Y145022D01*
X567621Y144051D01*
X567860Y143099D01*
X568190Y142175D01*
X568610Y141288D01*
X569114Y140446D01*
X569699Y139658D01*
X570358Y138931D01*
X614379Y122000D02*
X615378Y122098D01*
X616338Y122390D01*
X617223Y122863D01*
X617999Y123499D01*
X584664Y124624D02*
X585414Y123955D01*
X586233Y123373D01*
X587113Y122887D01*
X588041Y122503D01*
X589006Y122225D01*
X589997Y122056D01*
X591000Y122000D01*
X418500Y282642D02*
X418548Y281662D01*
X418692Y280691D01*
X418931Y279739D01*
X419261Y278815D01*
X419681Y277928D01*
X420185Y277086D01*
X420770Y276298D01*
X421429Y275571D01*
X572000Y124960D02*
X571952Y125940D01*
X571808Y126911D01*
X571569Y127863D01*
X571239Y128787D01*
X570819Y129674D01*
X570315Y130515D01*
X569730Y131304D01*
X569071Y132031D01*
X562000Y143244D02*
X562048Y142264D01*
X562192Y141293D01*
X562431Y140341D01*
X562761Y139417D01*
X563181Y138530D01*
X563685Y137688D01*
X564270Y136900D01*
X564929Y136173D01*
X429929Y344929D02*
X429270Y344202D01*
X428685Y343414D01*
X428181Y342572D01*
X427761Y341685D01*
X427431Y340761D01*
X427192Y339809D01*
X427048Y338838D01*
X427000Y337858D01*
X424257Y305329D02*
X424783Y306015D01*
X425114Y306812D01*
X425226Y307669D01*
X422573Y298569D02*
X422621Y297589D01*
X422765Y296618D01*
X423004Y295666D01*
X423335Y294742D01*
X423754Y293855D01*
X424259Y293013D01*
X424843Y292225D01*
X425502Y291498D01*
X424257Y305329D02*
X423671Y304643D01*
X423200Y303874D01*
X422855Y303041D01*
X422644Y302163D01*
X422573Y301264D01*
X420698Y290444D02*
X420746Y289464D01*
X420890Y288493D01*
X421128Y287542D01*
X421459Y286617D01*
X421879Y285730D01*
X422383Y284889D01*
X422968Y284100D01*
X423627Y283373D01*
X631571Y133071D02*
X632230Y133798D01*
X632815Y134586D01*
X633319Y135428D01*
X633739Y136315D01*
X634069Y137239D01*
X634308Y138191D01*
X634452Y139162D01*
X634500Y140142D01*
X613858Y119500D02*
X614838Y119548D01*
X615809Y119692D01*
X616761Y119931D01*
X617685Y120261D01*
X618572Y120681D01*
X619414Y121185D01*
X620202Y121770D01*
X620929Y122429D01*
X564500Y145511D02*
X564548Y144530D01*
X564692Y143560D01*
X564931Y142608D01*
X565261Y141684D01*
X565681Y140797D01*
X566185Y139955D01*
X566770Y139167D01*
X567429Y138440D01*
X583440Y122429D02*
X584167Y121770D01*
X584955Y121185D01*
X585797Y120681D01*
X586684Y120261D01*
X587608Y119931D01*
X588560Y119692D01*
X589531Y119548D01*
X590511Y119500D01*
X424500Y320828D02*
X424429Y321000D01*
X423500Y323243D02*
X423741Y322029D01*
X424429Y321000D01*
X425226Y319075D02*
X425038Y320024D01*
X424500Y320828D01*
X422264Y164149D02*
X422327Y163199D01*
X422512Y162265D01*
X422819Y161363D01*
X423240Y160508D01*
X423769Y159716D01*
X424397Y159000D01*
X425193Y176193D02*
X424534Y175466D01*
X423949Y174678D01*
X423445Y173836D01*
X423025Y172949D01*
X422695Y172025D01*
X422456Y171073D01*
X422312Y170102D01*
X422264Y169122D01*
X426000Y155130D02*
X425895Y156198D01*
X425583Y157225D01*
X425078Y158171D01*
X424397Y159000D01*
X424644Y188000D02*
X423644Y187902D01*
X422684Y187610D01*
X421798Y187137D01*
X421022Y186500D01*
X420468Y185777D01*
X420119Y184935D01*
X420000Y184032D01*
Y160512D02*
X420064Y159529D01*
X420257Y158563D01*
X420573Y157630D01*
X421009Y156746D01*
X421556Y155927D01*
X422206Y155187D01*
X422121Y198000D02*
X421122Y197902D01*
X420161Y197610D01*
X419276Y197137D01*
X418500Y196500D01*
X417957Y195793D01*
X417616Y194969D01*
X417500Y194086D01*
X415707Y208000D02*
X414500Y207500D01*
X413872Y206735D01*
X413406Y205862D01*
X413119Y204915D01*
X413022Y203931D01*
X412207Y218000D02*
X411000Y217500D01*
X410304Y216685D01*
X409744Y215772D01*
X409334Y214782D01*
X409084Y213740D01*
X409000Y212672D01*
X629146Y134646D02*
X629765Y135339D01*
X630302Y136096D01*
X630751Y136908D01*
X631107Y137766D01*
X631363Y138658D01*
X631519Y139573D01*
X631571Y140500D01*
X550000Y356531D02*
X549923Y357507D01*
X549695Y358458D01*
X549320Y359363D01*
X548809Y360197D01*
X548173Y360941D01*
X548150Y360964D02*
X547164Y361623D01*
X546000Y361855D01*
X545997D02*
X545017Y361807D01*
X544046Y361663D01*
X543094Y361424D01*
X542170Y361094D01*
X541283Y360674D01*
X540441Y360170D01*
X539653Y359585D01*
X538926Y358926D01*
X547000Y341879D02*
X546902Y342878D01*
X546610Y343839D01*
X546137Y344724D01*
X545500Y345500D01*
X543429Y353429D02*
X542770Y352702D01*
X542185Y351914D01*
X541681Y351072D01*
X541261Y350185D01*
X540931Y349261D01*
X540692Y348309D01*
X540548Y347338D01*
X540500Y346358D01*
X544000Y334039D02*
X543952Y335019D01*
X543808Y335990D01*
X543569Y336942D01*
X543239Y337866D01*
X542819Y338753D01*
X542315Y339595D01*
X541730Y340383D01*
X541071Y341110D01*
X540500Y342489D02*
X540648Y341743D01*
X541071Y341110D01*
X412500Y255000D02*
X412574Y254056D01*
X412795Y253135D01*
X413158Y252260D01*
X413653Y251452D01*
X414268Y250732D01*
X288648Y86321D02*
X289340Y87111D01*
X289924Y87984D01*
X290389Y88926D01*
X290726Y89921D01*
X290931Y90952D01*
X291000Y92000D01*
X287929Y85602D02*
X287270Y84875D01*
X286685Y84087D01*
X286181Y83245D01*
X285761Y82358D01*
X285431Y81434D01*
X285192Y80482D01*
X285048Y79511D01*
X285000Y78531D01*
X271429Y208429D02*
X270770Y207702D01*
X270185Y206914D01*
X269681Y206072D01*
X269261Y205185D01*
X268931Y204261D01*
X268692Y203309D01*
X268548Y202338D01*
X268500Y201358D01*
X220571Y181466D02*
X221230Y182193D01*
X221815Y182981D01*
X222319Y183823D01*
X222739Y184710D01*
X223069Y185634D01*
X223308Y186586D01*
X223452Y187557D01*
X223500Y188537D01*
X270943Y226500D02*
X271395Y226313D01*
X280500Y351500D02*
X281000Y352707D01*
X280500Y351500D02*
X280000Y350293D01*
Y235192D02*
X280494Y234000D01*
X281034Y232696D02*
X280494Y234000D01*
X403378Y97563D02*
X404358Y97611D01*
X405329Y97755D01*
X406281Y97994D01*
X407204Y98324D01*
X408092Y98744D01*
X408933Y99248D01*
X409722Y99833D01*
X410449Y100492D01*
X287000Y131661D02*
X286500Y132869D01*
X285953Y134190D02*
X286500Y132869D01*
X285953Y134500D02*
X286000Y134614D01*
X396358Y100500D02*
X397338Y100548D01*
X398309Y100692D01*
X399261Y100931D01*
X400185Y101261D01*
X401072Y101681D01*
X401914Y102185D01*
X402702Y102770D01*
X403429Y103429D01*
X368000Y100500D02*
X367621Y100657D01*
X284500Y129671D02*
X284000Y130878D01*
X283500Y132085D02*
X284000Y130878D01*
X389858Y104000D02*
X390838Y104048D01*
X391809Y104192D01*
X392761Y104431D01*
X393685Y104761D01*
X394572Y105181D01*
X395414Y105685D01*
X396202Y106270D01*
X396929Y106929D01*
X383358Y107500D02*
X384338Y107548D01*
X385309Y107692D01*
X386261Y107931D01*
X387185Y108261D01*
X388072Y108681D01*
X388914Y109185D01*
X389702Y109770D01*
X390429Y110429D01*
X271500Y114000D02*
X271630Y114313D01*
X213745Y300500D02*
X214781Y300602D01*
X215777Y300904D01*
X216695Y301395D01*
X217500Y302056D01*
X207640Y299072D02*
X207639Y299071D01*
X211089Y300500D02*
X210137Y300406D01*
X209222Y300129D01*
X208379Y299678D01*
X207640Y299072D01*
X206568Y298000D02*
X205989Y297245D01*
X205624Y296365D01*
X205500Y295422D01*
X203552Y290954D02*
X204869Y291500D01*
X199097Y290954D02*
X198000Y290500D01*
X197304Y289685D01*
X196744Y288772D01*
X196334Y287782D01*
X196084Y286740D01*
X196000Y285672D01*
Y274560D02*
X196048Y273580D01*
X196192Y272609D01*
X196431Y271657D01*
X196761Y270733D01*
X197181Y269846D01*
X197685Y269005D01*
X198270Y268216D01*
X198929Y267489D01*
X217500Y302056D02*
X217942Y302717D01*
X218097Y303497D01*
X204869Y291500D02*
X205336Y292199D01*
X205500Y293023D01*
X220500Y290000D02*
X220456Y290105D01*
X706052Y189350D02*
X706000Y189224D01*
X283000Y246931D02*
X283048Y245950D01*
X283192Y244980D01*
X283431Y244028D01*
X283761Y243104D01*
X284181Y242216D01*
X284685Y241375D01*
X285270Y240587D01*
X285929Y239859D01*
X247000Y278242D02*
X246952Y279222D01*
X246808Y280192D01*
X246569Y281144D01*
X246239Y282068D01*
X245819Y282956D01*
X245315Y283797D01*
X244730Y284586D01*
X244071Y285313D01*
X287000Y248098D02*
X287048Y247118D01*
X287192Y246147D01*
X287431Y245195D01*
X287761Y244271D01*
X288181Y243384D01*
X288685Y242542D01*
X289270Y241754D01*
X289929Y241027D01*
X208929Y293169D02*
X208270Y292442D01*
X207685Y291654D01*
X207181Y290812D01*
X206761Y289925D01*
X206431Y289001D01*
X206192Y288049D01*
X206048Y287079D01*
X206000Y286099D01*
X226836Y259553D02*
X227565Y258902D01*
X228362Y258336D01*
X229218Y257863D01*
X230121Y257489D01*
X231060Y257219D01*
X232024Y257055D01*
X233000Y257000D01*
X206000Y274159D02*
X206086Y273287D01*
X206340Y272449D01*
X206753Y271677D01*
X207308Y271000D01*
X218818Y267571D02*
X218091Y268230D01*
X217303Y268815D01*
X216461Y269319D01*
X215574Y269739D01*
X214650Y270069D01*
X213698Y270308D01*
X212727Y270452D01*
X211747Y270500D01*
X207308Y271000D02*
X208516Y270500D01*
X290500Y249819D02*
X290548Y248838D01*
X290692Y247868D01*
X290931Y246916D01*
X291261Y245992D01*
X291681Y245105D01*
X292185Y244263D01*
X292770Y243475D01*
X293429Y242748D01*
X293500Y252142D02*
X293548Y251162D01*
X293692Y250191D01*
X293931Y249239D01*
X294261Y248315D01*
X294681Y247428D01*
X295185Y246586D01*
X295770Y245798D01*
X296429Y245071D01*
X293500Y263439D02*
X293353Y263500D01*
X423627Y283373D02*
X427000Y280000D01*
X744500Y280557D02*
Y281549D01*
X747292Y268648D02*
Y273816D01*
X760910Y271422D02*
X762912Y269421D01*
X751530Y274351D02*
X753839D01*
X748664Y278264D02*
Y278377D01*
X745429Y284571D02*
X746571Y283429D01*
X760261Y262071D02*
X762912Y259421D01*
X750265Y265000D02*
X753190D01*
X314357Y223857D02*
X316500Y226000D01*
X311428Y201500D02*
Y216786D01*
X315000Y200925D02*
Y210937D01*
X528802Y366000D02*
X544417D01*
X518929Y360269D02*
X521731Y363071D01*
X516000Y346329D02*
Y353198D01*
X518929Y339258D02*
X525091Y333096D01*
X264231Y164000D02*
X264500D01*
X528020Y166980D02*
Y326025D01*
X551692Y365650D02*
X552571Y364771D01*
X555500Y355500D02*
Y357699D01*
X527416Y368579D02*
X544621D01*
X515929Y361234D02*
X520345Y365650D01*
X513000Y345567D02*
Y354163D01*
X515929Y338496D02*
X519931Y334494D01*
X522860Y167000D02*
Y327423D01*
X587642Y318000D02*
X652858D01*
X659929Y315071D02*
X681770Y293230D01*
X688841Y290301D02*
X702859D01*
X569429Y303929D02*
X580571Y315071D01*
X566500Y238000D02*
Y296858D01*
X716500Y287500D02*
X738358D01*
X657927Y312758D02*
X680256Y290429D01*
X687327Y287500D02*
X706094D01*
X590016Y315687D02*
X650856D01*
X573287Y303100D02*
X582944Y312758D01*
X570358Y235000D02*
Y296029D01*
X667500Y247500D02*
Y261000D01*
X678000Y259612D02*
Y267000D01*
X686500Y209500D02*
X716903D01*
X685500Y214500D02*
X686000D01*
X658500Y214595D02*
X685272D01*
X558532Y225155D02*
X559071Y224616D01*
X555603Y272641D02*
Y285420D01*
X556556Y229926D02*
Y270341D01*
X564429Y228571D02*
X564500Y228500D01*
X560929Y227571D02*
X561672Y226828D01*
X618000Y123500D02*
X629146Y134646D01*
X617999Y123499D02*
X618000Y123500D01*
X570358Y138931D02*
X584664Y124624D01*
X567429Y146002D02*
Y221429D01*
X591000Y122000D02*
X614379D01*
X421429Y275571D02*
X427000Y270000D01*
X418500Y282642D02*
Y317002D01*
X558774Y232774D02*
Y274500D01*
X562187Y233984D02*
Y265000D01*
X564929Y136173D02*
X569071Y132031D01*
X572000Y95661D02*
Y124960D01*
X562000Y143244D02*
Y217545D01*
X429929Y344929D02*
X433500Y348500D01*
X427000Y300000D02*
Y337858D01*
X425502Y291498D02*
X427000Y290000D01*
X422573Y298569D02*
Y301264D01*
X420698Y290444D02*
Y318000D01*
X620929Y122429D02*
X631571Y133071D01*
X567429Y138440D02*
X583440Y122429D01*
X564500Y145511D02*
Y220000D01*
X590511Y119500D02*
X613858D01*
X418438Y317064D02*
Y320938D01*
X418500Y321000D01*
X418438Y317064D02*
X418500Y317002D01*
X425226Y307669D02*
Y319075D01*
X423500Y323243D02*
Y348500D01*
X425193Y176193D02*
X427000Y178000D01*
X422264Y164149D02*
Y169122D01*
X426000Y155000D02*
Y155130D01*
X424644Y188000D02*
X427000D01*
X420000Y160512D02*
Y184032D01*
X422000Y155187D02*
X422206D01*
X422121Y198000D02*
X427000D01*
X417500Y155187D02*
Y194086D01*
X415707Y208000D02*
X427000D01*
X413022Y155500D02*
Y203931D01*
X412207Y218000D02*
X427000D01*
X409000Y155520D02*
Y212672D01*
X631571Y140500D02*
Y179500D01*
X634500Y140142D02*
Y174319D01*
X553610Y250000D02*
Y339000D01*
X553500D02*
X553610D01*
X548150Y360964D02*
X548173Y360941D01*
X545997Y361855D02*
X546000D01*
X535500Y355500D02*
X538926Y358926D01*
X550000Y260000D02*
Y356531D01*
X547000Y270000D02*
Y341879D01*
X543429Y353429D02*
X545500Y355500D01*
X540500Y342489D02*
Y346358D01*
X544000Y280000D02*
Y334039D01*
X270610Y226522D02*
X270921D01*
X270943Y226500D01*
X414268Y250732D02*
X415000Y250000D01*
X537000Y300000D02*
Y315000D01*
X287929Y85602D02*
X288648Y86321D01*
X285000Y73500D02*
Y78531D01*
X333500Y119500D02*
Y255113D01*
X291000Y92000D02*
Y119500D01*
X271429Y208429D02*
X286000Y223000D01*
X268500Y85723D02*
Y201358D01*
X264500Y180819D02*
Y226132D01*
X268500Y230132D01*
X262000Y185819D02*
Y229500D01*
X265500Y233000D01*
X209605Y170500D02*
X220571Y181466D01*
X223500Y188537D02*
Y233165D01*
X271395Y226313D02*
X279000D01*
X280000Y235192D02*
Y350293D01*
X281034Y232500D02*
Y232696D01*
Y232500D02*
X281476D01*
X281000Y352707D02*
Y357000D01*
X278000Y232613D02*
Y368716D01*
X275500Y365993D02*
X275507Y366000D01*
X275500Y341500D02*
Y365993D01*
X713000Y256810D02*
Y292056D01*
X709000Y260000D02*
Y295329D01*
X734000Y382000D02*
X742500Y390500D01*
X410449Y100492D02*
X424000Y114043D01*
X364500Y97563D02*
X403378D01*
X287000Y97500D02*
Y131661D01*
X285953Y134190D02*
Y134500D01*
X286000Y134614D02*
Y196500D01*
X403429Y103429D02*
X414000Y114000D01*
X368000Y100500D02*
X396358D01*
X284500Y100657D02*
Y129671D01*
X414000Y114000D02*
Y114043D01*
X283500Y132085D02*
Y193252D01*
X396929Y106929D02*
X404000Y114000D01*
X364500Y104000D02*
X389858D01*
X280500Y103891D02*
Y196500D01*
Y103500D02*
Y103891D01*
X390429Y110429D02*
X394000Y114000D01*
X368000Y107500D02*
X383358D01*
X277500D02*
Y193500D01*
X274000Y111000D02*
Y196500D01*
X271630Y114313D02*
Y193834D01*
X218097Y303497D02*
Y316423D01*
X211089Y300500D02*
X213745D01*
X207639Y299071D02*
X207640Y299072D01*
X206568Y298000D02*
X207639Y299071D01*
X205500Y293023D02*
Y295422D01*
X199097Y290954D02*
X203552D01*
X196000Y274560D02*
Y285672D01*
X198929Y267489D02*
X201089Y265329D01*
X218097Y316423D02*
X218151D01*
X220500Y290000D02*
Y307821D01*
X412500Y255000D02*
Y323500D01*
X706000Y169500D02*
Y189224D01*
Y169500D02*
X706094D01*
X415000Y266812D02*
Y326500D01*
X285929Y239859D02*
X300288Y225500D01*
X283000Y246931D02*
Y253318D01*
X247000D02*
Y278242D01*
X287000Y248098D02*
Y257000D01*
X289929Y241027D02*
X300456Y230500D01*
X208929Y293169D02*
X211089Y295329D01*
X206000Y274159D02*
Y286099D01*
X218818Y267571D02*
X226836Y259553D01*
X208516Y270500D02*
X211747D01*
X300456Y230500D02*
Y230819D01*
X293429Y242748D02*
X300288Y235888D01*
X290500Y249819D02*
Y260500D01*
X296429Y245071D02*
X300456Y241044D01*
X293500Y252142D02*
Y263439D01*
X69776Y457838D02*
Y493000D01*
X475000Y122000D02*
Y154500D01*
X480000Y177550D02*
X484993Y182543D01*
X480000Y154500D02*
Y177550D01*
X474993Y154500D02*
X475000D01*
X484993Y172543D02*
X485000Y172536D01*
Y122000D02*
Y172536D01*
X474993Y172543D02*
X475000Y172536D01*
Y160709D02*
Y172536D01*
X495000Y122000D02*
Y160500D01*
X465000Y122000D02*
Y182543D01*
D20*
X453500Y290252D02*
D03*
D21*
X629500Y73500D02*
D03*
Y83500D02*
D03*
X649500Y73500D02*
D03*
Y83500D02*
D03*
X659500Y73500D02*
D03*
Y83500D02*
D03*
X679500Y73500D02*
D03*
X669500Y83500D02*
D03*
Y73500D02*
D03*
X639500Y83500D02*
D03*
Y73500D02*
D03*
X374000D02*
D03*
Y83500D02*
D03*
X394000Y73500D02*
D03*
Y83500D02*
D03*
X404000Y73500D02*
D03*
Y83500D02*
D03*
X424000Y73500D02*
D03*
X414000Y83500D02*
D03*
Y73500D02*
D03*
X384000Y83500D02*
D03*
Y73500D02*
D03*
X484993Y172543D02*
D03*
X474993D02*
D03*
X484993Y182543D02*
D03*
X535500Y355500D02*
D03*
Y345500D02*
D03*
X525500Y355500D02*
D03*
X545500Y345500D02*
D03*
Y355500D02*
D03*
X555500Y345500D02*
D03*
Y355500D02*
D03*
X762912Y299421D02*
D03*
X752912D02*
D03*
X762912Y269421D02*
D03*
X752912D02*
D03*
X762912Y259421D02*
D03*
X752912Y279421D02*
D03*
X762912D02*
D03*
X752912Y289421D02*
D03*
X762912D02*
D03*
X201089Y265329D02*
D03*
X211089D02*
D03*
X201089Y295329D02*
D03*
X211089D02*
D03*
X201089Y305329D02*
D03*
X211089Y285329D02*
D03*
X201089D02*
D03*
X211089Y275329D02*
D03*
X201089D02*
D03*
X327000Y83500D02*
D03*
Y73500D02*
D03*
X317000Y83500D02*
D03*
X337000Y73500D02*
D03*
Y83500D02*
D03*
D22*
X679500D02*
D03*
X424000D02*
D03*
X525500Y345500D02*
D03*
X317000Y73500D02*
D03*
D23*
X495000Y122000D02*
D03*
X475000D02*
D03*
X485000D02*
D03*
X554212Y93821D02*
D03*
Y83821D02*
D03*
X542712Y93821D02*
D03*
Y83821D02*
D03*
X531212Y93821D02*
D03*
Y83821D02*
D03*
X433500Y348500D02*
D03*
Y362000D02*
D03*
X553000Y218000D02*
D03*
Y198000D02*
D03*
Y178000D02*
D03*
Y188000D02*
D03*
Y208000D02*
D03*
X537000Y300000D02*
D03*
Y280000D02*
D03*
Y260000D02*
D03*
Y240000D02*
D03*
Y250000D02*
D03*
Y270000D02*
D03*
Y290000D02*
D03*
X427000Y300000D02*
D03*
Y280000D02*
D03*
Y260000D02*
D03*
Y240000D02*
D03*
Y250000D02*
D03*
Y270000D02*
D03*
Y290000D02*
D03*
Y218000D02*
D03*
Y198000D02*
D03*
Y178000D02*
D03*
Y188000D02*
D03*
Y208000D02*
D03*
X537000Y218000D02*
D03*
Y198000D02*
D03*
Y178000D02*
D03*
Y188000D02*
D03*
Y208000D02*
D03*
X565212Y73799D02*
D03*
Y83799D02*
D03*
X295000Y73500D02*
D03*
X285000D02*
D03*
X306103Y275332D02*
D03*
X647897D02*
D03*
D24*
X465000Y122000D02*
D03*
X423500Y348500D02*
D03*
Y362000D02*
D03*
X275000Y73500D02*
D03*
X316103Y275332D02*
D03*
X657897D02*
D03*
D25*
X474993Y182543D02*
D03*
X752912Y259421D02*
D03*
X211089Y305329D02*
D03*
D26*
X554212Y73821D02*
D03*
X542712D02*
D03*
X531212D02*
D03*
X553000Y168000D02*
D03*
X537000Y230000D02*
D03*
X427000D02*
D03*
Y168000D02*
D03*
X537000D02*
D03*
X565212Y93799D02*
D03*
D27*
X763660Y85793D02*
D03*
X738069D02*
D03*
X763660Y103510D02*
D03*
X738069D02*
D03*
X225931Y85793D02*
D03*
X200340D02*
D03*
X225931Y103510D02*
D03*
X200340D02*
D03*
X802707Y176117D02*
D03*
X777116D02*
D03*
X802707Y193834D02*
D03*
X777116D02*
D03*
X186884Y176117D02*
D03*
X161294D02*
D03*
X186884Y193834D02*
D03*
X161294D02*
D03*
X798236Y362095D02*
D03*
X772646D02*
D03*
X798236Y379812D02*
D03*
X772646D02*
D03*
X191355Y362095D02*
D03*
X165764D02*
D03*
X191355Y379812D02*
D03*
X165764D02*
D03*
X927670Y464707D02*
D03*
X902079D02*
D03*
X927670Y482423D02*
D03*
X902079Y482423D02*
D03*
X61921Y464707D02*
D03*
X36330D02*
D03*
X61921Y482423D02*
D03*
X36330Y482423D02*
D03*
D28*
X750865Y84809D02*
D03*
Y104494D02*
D03*
X213136Y84809D02*
D03*
Y104494D02*
D03*
X789911Y175133D02*
D03*
Y194818D02*
D03*
X174089Y175133D02*
D03*
Y194818D02*
D03*
X785441Y361111D02*
D03*
Y380796D02*
D03*
X178559Y361111D02*
D03*
Y380796D02*
D03*
X914875Y463722D02*
D03*
Y483407D02*
D03*
X49126Y463722D02*
D03*
Y483407D02*
D03*
D29*
X697897Y275332D02*
D03*
X729393D02*
D03*
X234607D02*
D03*
X266103D02*
D03*
D30*
X757912Y330329D02*
D03*
X150971D02*
D03*
X206089Y234421D02*
D03*
X813030D02*
D03*
Y330329D02*
D03*
X206089D02*
D03*
X150971Y234421D02*
D03*
X757912D02*
D03*
D31*
X734859Y176815D02*
D03*
X816646Y452157D02*
D03*
X147354D02*
D03*
X229141Y176815D02*
D03*
X718221Y141134D02*
D03*
X844485Y479996D02*
D03*
X119516D02*
D03*
X245780Y141134D02*
D03*
D32*
X914875Y473565D02*
D03*
X213136Y94651D02*
D03*
X49126Y473565D02*
D03*
X750865Y94651D02*
D03*
X785441Y370954D02*
D03*
X174089Y184975D02*
D03*
X178559Y370954D02*
D03*
X789911Y184975D02*
D03*
D33*
X694299Y217500D02*
X694500Y217986D01*
X785441Y380796D02*
X786000Y382146D01*
X312944Y316000D02*
X313000Y316134D01*
X236500Y247829D02*
X236441Y247970D01*
X772299Y216158D02*
X772071Y216252D01*
X709565Y239000D02*
X708585Y238952D01*
X707614Y238808D01*
X706663Y238569D01*
X705738Y238239D01*
X704851Y237819D01*
X704010Y237315D01*
X703221Y236730D01*
X702494Y236071D01*
X531000Y248000D02*
X531093Y247058D01*
X531367Y246152D01*
X531814Y245318D01*
X532414Y244586D01*
X694299Y217500D02*
X694420Y217622D01*
X694500Y217986D02*
Y228077D01*
X786000Y401000D02*
Y432888D01*
Y382146D02*
Y401000D01*
X313000Y316134D02*
Y335000D01*
X236500Y226500D02*
Y247829D01*
X178559Y380796D02*
Y414000D01*
X511966Y321661D02*
X511992Y321687D01*
X511966Y288000D02*
Y321661D01*
X511980Y223323D02*
Y248000D01*
X511966Y288000D02*
X511980Y287986D01*
Y248000D02*
Y287986D01*
X174089Y212000D02*
X200500D01*
X174089Y194818D02*
Y212000D01*
X421000Y123000D02*
X421042D01*
X441042Y143000D01*
X772299Y216158D02*
Y216288D01*
X758500Y216252D02*
X772071D01*
X694500Y228077D02*
X702494Y236071D01*
X709565Y239000D02*
X710500D01*
X511980Y223323D02*
X512000Y223342D01*
X713520Y338000D02*
X729000D01*
X695642Y354500D02*
X714842D01*
X532414Y244586D02*
X537000Y240000D01*
D34*
X453500Y300390D02*
D03*
Y280114D02*
D03*
X443362Y290252D02*
D03*
X463638D02*
D03*
X446332Y283084D02*
D03*
X460669D02*
D03*
Y297421D02*
D03*
X446332D02*
D03*
D35*
X694638Y204557D02*
D03*
X694381Y212842D02*
D03*
X707956Y234187D02*
D03*
X694500Y227720D02*
D03*
X694420Y217622D02*
D03*
X316500Y226000D02*
D03*
X311428Y201500D02*
D03*
X316500Y214558D02*
D03*
X306992Y207890D02*
D03*
X307012Y219851D02*
D03*
X306248Y231507D02*
D03*
X786000Y432888D02*
D03*
Y401000D02*
D03*
X312944Y316000D02*
D03*
X313000Y335000D02*
D03*
X236441Y247970D02*
D03*
X236500Y226500D02*
D03*
X315000Y200925D02*
D03*
X178559Y414000D02*
D03*
X511992Y321687D02*
D03*
X511966Y288000D02*
D03*
X200500Y212000D02*
D03*
X174089D02*
D03*
X421000Y123000D02*
D03*
X441042Y143000D02*
D03*
X772299Y216288D02*
D03*
X758500Y216252D02*
D03*
X710500Y239000D02*
D03*
X512000Y223342D02*
D03*
X511980Y248000D02*
D03*
X789911Y212000D02*
D03*
X729000Y338000D02*
D03*
X712313Y337500D02*
D03*
X714842Y354500D02*
D03*
X695642D02*
D03*
X531000Y248000D02*
D03*
X291500Y164000D02*
D03*
X264231D02*
D03*
X548038Y364500D02*
D03*
X528020Y166980D02*
D03*
X522860Y167000D02*
D03*
X744500Y281549D02*
D03*
X704546Y291000D02*
D03*
X566500Y238000D02*
D03*
X570358Y235000D02*
D03*
X716500Y287500D02*
D03*
X706094D02*
D03*
X667500Y261000D02*
D03*
Y247500D02*
D03*
X678000Y267000D02*
D03*
Y259612D02*
D03*
X686500Y209500D02*
D03*
X716903D02*
D03*
X686000Y214500D02*
D03*
X658500Y214595D02*
D03*
X557500Y290000D02*
D03*
X558774Y274500D02*
D03*
X562187Y265000D02*
D03*
X572000Y95661D02*
D03*
X420698Y318000D02*
D03*
X426000Y155000D02*
D03*
X422000Y155187D02*
D03*
X417500D02*
D03*
X413022Y155500D02*
D03*
X409000Y155520D02*
D03*
X631571Y179500D02*
D03*
X634500Y174319D02*
D03*
X553500Y339000D02*
D03*
X553610Y250000D02*
D03*
X550000Y260000D02*
D03*
X547000Y270000D02*
D03*
X544000Y280000D02*
D03*
X270610Y226522D02*
D03*
X537000Y315000D02*
D03*
X333500Y255113D02*
D03*
Y119500D02*
D03*
X291000D02*
D03*
X268500Y85723D02*
D03*
X286000Y223000D02*
D03*
X264500Y180819D02*
D03*
X262000Y185819D02*
D03*
X209605Y170500D02*
D03*
X223500Y233165D02*
D03*
X279000Y226313D02*
D03*
X281476Y232500D02*
D03*
X281000Y357000D02*
D03*
X278000Y232613D02*
D03*
X275507Y366000D02*
D03*
X275500Y341500D02*
D03*
X713000Y256810D02*
D03*
Y292056D02*
D03*
X709000Y295329D02*
D03*
Y260000D02*
D03*
X734000Y382000D02*
D03*
X742500Y390500D02*
D03*
X278000Y368716D02*
D03*
X424000Y114043D02*
D03*
X364500Y97563D02*
D03*
X287000Y97500D02*
D03*
X286000Y196500D02*
D03*
X414000Y114043D02*
D03*
X367621Y100657D02*
D03*
X284500D02*
D03*
X283500Y193252D02*
D03*
X404000Y114000D02*
D03*
X364500Y104000D02*
D03*
X280500Y103891D02*
D03*
Y196500D02*
D03*
X394000Y114000D02*
D03*
X368000Y107500D02*
D03*
X277500D02*
D03*
Y193500D02*
D03*
X274000Y111000D02*
D03*
Y196500D02*
D03*
X271500Y114000D02*
D03*
X271630Y193834D02*
D03*
X268500Y230132D02*
D03*
X418500Y321000D02*
D03*
X265500Y233000D02*
D03*
X218151Y316423D02*
D03*
X220500Y307821D02*
D03*
X220456Y290105D02*
D03*
X412500Y323500D02*
D03*
X706094Y169500D02*
D03*
X706052Y189350D02*
D03*
X415000Y250000D02*
D03*
Y266812D02*
D03*
Y326500D02*
D03*
X300288Y225500D02*
D03*
X283000Y253318D02*
D03*
X247000D02*
D03*
X244071Y285313D02*
D03*
X300456Y230819D02*
D03*
X287000Y257000D02*
D03*
X233000D02*
D03*
X300288Y235888D02*
D03*
X290500Y260500D02*
D03*
X300456Y241044D02*
D03*
X293353Y263500D02*
D03*
X69776Y457838D02*
D03*
Y493000D02*
D03*
X480000Y154500D02*
D03*
X474993D02*
D03*
X475000Y160709D02*
D03*
X495000Y160500D02*
D03*
X465000Y182543D02*
D03*
X211977Y197000D02*
D03*
X249000Y200819D02*
D03*
X894500Y487000D02*
D03*
X765585Y384500D02*
D03*
X704500Y313000D02*
D03*
X633000Y194500D02*
D03*
X768000Y204500D02*
D03*
X728547Y115000D02*
D03*
X252000Y113000D02*
D03*
X255500Y317000D02*
D03*
X217000Y384467D02*
D03*
X90500Y493024D02*
D03*
D36*
X789911Y194818D02*
Y212000D01*
M02*
