G04*
G04 #@! TF.GenerationSoftware,Altium Limited,Altium Designer,18.1.11 (251)*
G04*
G04 Layer_Color=8421504*
%FSLAX25Y25*%
%MOIN*%
G70*
G01*
G75*
%ADD15R,0.03543X0.06496*%
%ADD16R,0.06496X0.03543*%
%ADD17R,0.03937X0.03543*%
%ADD18R,0.03543X0.03937*%
%ADD19R,0.07284X0.02559*%
D15*
X415000Y250000D02*
D03*
X410000D02*
D03*
X704500Y228077D02*
D03*
X709500D02*
D03*
X699500D02*
D03*
X704500Y216288D02*
D03*
X709500D02*
D03*
X699500D02*
D03*
X704500Y204500D02*
D03*
X709500D02*
D03*
X699500D02*
D03*
X316500Y231640D02*
D03*
X321500D02*
D03*
X311500D02*
D03*
X316500Y219851D02*
D03*
X321500D02*
D03*
X311500D02*
D03*
X316500Y208063D02*
D03*
X321500D02*
D03*
X311500D02*
D03*
X415000Y260000D02*
D03*
X410000D02*
D03*
X415000Y240000D02*
D03*
X410000D02*
D03*
X415000Y188000D02*
D03*
X410000D02*
D03*
X415000Y218000D02*
D03*
X410000D02*
D03*
X415000Y198000D02*
D03*
X410000D02*
D03*
X415000Y208000D02*
D03*
X410000D02*
D03*
X415000Y178000D02*
D03*
X410000D02*
D03*
X415000Y168000D02*
D03*
X410000D02*
D03*
X889500Y487000D02*
D03*
X879500D02*
D03*
X884500D02*
D03*
X767912Y198500D02*
D03*
X757912D02*
D03*
X762912D02*
D03*
X211000Y384500D02*
D03*
X201000D02*
D03*
X206000D02*
D03*
Y197000D02*
D03*
X196000D02*
D03*
X201000D02*
D03*
X760500Y384500D02*
D03*
X750500D02*
D03*
X755500D02*
D03*
X728500Y108500D02*
D03*
X718500D02*
D03*
X723500D02*
D03*
X245500Y113000D02*
D03*
X235500D02*
D03*
X240500D02*
D03*
X84500Y493000D02*
D03*
X74500D02*
D03*
X79500D02*
D03*
X410000Y230000D02*
D03*
X415000D02*
D03*
D16*
X248000Y317000D02*
D03*
Y307000D02*
D03*
Y312000D02*
D03*
X712500Y313000D02*
D03*
Y303000D02*
D03*
Y308000D02*
D03*
D17*
X237500Y316500D02*
D03*
X230413D02*
D03*
X230457Y308500D02*
D03*
X237543D02*
D03*
X731043Y304000D02*
D03*
X723957D02*
D03*
Y313000D02*
D03*
X731043D02*
D03*
X394457Y240000D02*
D03*
X401543D02*
D03*
X394457Y178000D02*
D03*
X401543D02*
D03*
Y168000D02*
D03*
X394457D02*
D03*
X197545Y183500D02*
D03*
X204632D02*
D03*
X702543Y176500D02*
D03*
X695457D02*
D03*
X236457Y99000D02*
D03*
X243543D02*
D03*
X75957Y479000D02*
D03*
X83043D02*
D03*
X202545Y370500D02*
D03*
X209632D02*
D03*
X727043Y94500D02*
D03*
X719957D02*
D03*
X760043Y371000D02*
D03*
X752957D02*
D03*
X719957Y81293D02*
D03*
X727043D02*
D03*
X766043Y185000D02*
D03*
X758957D02*
D03*
X888543Y474000D02*
D03*
X881457D02*
D03*
X888543Y460707D02*
D03*
X881457D02*
D03*
X655043Y264000D02*
D03*
X647957D02*
D03*
X75957Y464707D02*
D03*
X83043D02*
D03*
X204632Y170617D02*
D03*
X197545D02*
D03*
X766043Y171117D02*
D03*
X758957D02*
D03*
X310457Y182500D02*
D03*
X317543D02*
D03*
X695457Y169500D02*
D03*
X702543D02*
D03*
X695457Y183500D02*
D03*
X702543D02*
D03*
X310457Y189000D02*
D03*
X317543D02*
D03*
X310457Y176000D02*
D03*
X317543D02*
D03*
X306043Y264000D02*
D03*
X298957D02*
D03*
X752957Y358095D02*
D03*
X760043D02*
D03*
X243543Y85793D02*
D03*
X236457D02*
D03*
X209632Y357000D02*
D03*
X202545D02*
D03*
X401543Y208000D02*
D03*
X394457D02*
D03*
X401543Y218000D02*
D03*
X394457D02*
D03*
X401543Y188000D02*
D03*
X394457D02*
D03*
X401543Y198000D02*
D03*
X394457D02*
D03*
X401543Y250000D02*
D03*
X394457D02*
D03*
X401543Y260000D02*
D03*
X394457D02*
D03*
X401543Y230000D02*
D03*
X394457D02*
D03*
D18*
X629500Y115543D02*
D03*
Y108457D02*
D03*
X649500Y115543D02*
D03*
Y108457D02*
D03*
X669500Y115543D02*
D03*
Y108457D02*
D03*
X384000Y106957D02*
D03*
Y114043D02*
D03*
X404000D02*
D03*
Y106957D02*
D03*
X424000Y114043D02*
D03*
Y106957D02*
D03*
X639500Y108457D02*
D03*
Y115543D02*
D03*
X679354Y108457D02*
D03*
Y115543D02*
D03*
X659500Y108457D02*
D03*
Y115543D02*
D03*
X414000Y106957D02*
D03*
Y114043D02*
D03*
X394000Y106957D02*
D03*
Y114043D02*
D03*
X373646Y106957D02*
D03*
Y114043D02*
D03*
D19*
X641594Y234500D02*
D03*
Y229500D02*
D03*
Y224500D02*
D03*
Y219500D02*
D03*
Y214500D02*
D03*
Y209500D02*
D03*
Y204500D02*
D03*
Y199500D02*
D03*
Y194500D02*
D03*
Y189500D02*
D03*
Y184500D02*
D03*
Y179500D02*
D03*
Y174500D02*
D03*
Y169500D02*
D03*
X678406D02*
D03*
Y174500D02*
D03*
Y179500D02*
D03*
Y184500D02*
D03*
Y189500D02*
D03*
Y194500D02*
D03*
Y199500D02*
D03*
Y204500D02*
D03*
Y209500D02*
D03*
Y214500D02*
D03*
Y219500D02*
D03*
Y224500D02*
D03*
Y229500D02*
D03*
Y234500D02*
D03*
X256594Y240819D02*
D03*
Y235819D02*
D03*
Y230819D02*
D03*
Y225819D02*
D03*
Y220819D02*
D03*
Y215819D02*
D03*
Y210819D02*
D03*
Y205819D02*
D03*
Y200819D02*
D03*
Y195819D02*
D03*
Y190819D02*
D03*
Y185819D02*
D03*
Y180819D02*
D03*
Y175819D02*
D03*
X293406D02*
D03*
Y180819D02*
D03*
Y185819D02*
D03*
Y190819D02*
D03*
Y195819D02*
D03*
Y200819D02*
D03*
Y205819D02*
D03*
Y210819D02*
D03*
Y215819D02*
D03*
Y220819D02*
D03*
Y225819D02*
D03*
Y230819D02*
D03*
Y235819D02*
D03*
Y240819D02*
D03*
M02*
