G04*
G04 #@! TF.GenerationSoftware,Altium Limited,Altium Designer,18.1.11 (251)*
G04*
G04 Layer_Color=65535*
%FSLAX25Y25*%
%MOIN*%
G70*
G01*
G75*
%ADD10C,0.01000*%
%ADD11C,0.00787*%
%ADD12C,0.00591*%
%ADD13C,0.00600*%
%ADD14C,0.00700*%
D10*
X497000Y246500D02*
X496378Y247260D01*
X495604Y247866D01*
X494718Y248289D01*
X493760Y248509D01*
X492777Y248514D01*
X491817Y248304D01*
X490926Y247890D01*
X490147Y247292D01*
X489517Y246538D01*
X478483Y246462D02*
X477861Y247222D01*
X477088Y247828D01*
X476201Y248251D01*
X475243Y248470D01*
X474261Y248475D01*
X473301Y248266D01*
X472409Y247852D01*
X471630Y247254D01*
X471000Y246500D01*
X576500Y359692D02*
Y358693D01*
X575500D01*
X577499D01*
X576500D01*
Y355694D01*
X577499Y354694D01*
X580498Y358693D02*
Y355694D01*
X581498Y354694D01*
X584497D01*
Y358693D01*
X586496D02*
Y354694D01*
Y356693D01*
X587496Y357693D01*
X588496Y358693D01*
X589496D01*
X592494Y354694D02*
Y358693D01*
X595494D01*
X596493Y357693D01*
Y354694D01*
X598493D02*
Y360692D01*
X601492D01*
X602491Y359692D01*
Y357693D01*
X601492Y356693D01*
X598493D01*
X600492D02*
X602491Y354694D01*
X605490Y358693D02*
X607490D01*
X608489Y357693D01*
Y354694D01*
X605490D01*
X604491Y355694D01*
X605490Y356693D01*
X608489D01*
X614487Y358693D02*
X611488D01*
X610489Y357693D01*
Y355694D01*
X611488Y354694D01*
X614487D01*
X616487D02*
X618486D01*
X617486D01*
Y358693D01*
X616487D01*
X621485Y354694D02*
Y358693D01*
X624484D01*
X625484Y357693D01*
Y354694D01*
X629483Y352695D02*
X630482D01*
X631482Y353694D01*
Y358693D01*
X628483D01*
X627483Y357693D01*
Y355694D01*
X628483Y354694D01*
X631482D01*
X637480Y359692D02*
X636480Y360692D01*
X634481D01*
X633481Y359692D01*
Y355694D01*
X634481Y354694D01*
X636480D01*
X637480Y355694D01*
Y357693D01*
X635481D01*
X639479Y360692D02*
X643478D01*
X641479D01*
Y354694D01*
X645477D02*
Y360692D01*
X647477Y358693D01*
X649476Y360692D01*
Y354694D01*
X652475Y358693D02*
X654474D01*
X655474Y357693D01*
Y354694D01*
X652475D01*
X651475Y355694D01*
X652475Y356693D01*
X655474D01*
X657474Y354694D02*
X659473D01*
X658473D01*
Y358693D01*
X657474D01*
X662472Y354694D02*
Y358693D01*
X665471D01*
X666471Y357693D01*
Y354694D01*
X668470D02*
Y360692D01*
X671469D01*
X672469Y359692D01*
Y357693D01*
X671469Y356693D01*
X668470D01*
X678467Y359692D02*
X677467Y360692D01*
X675468D01*
X674468Y359692D01*
Y355694D01*
X675468Y354694D01*
X677467D01*
X678467Y355694D01*
X680466Y360692D02*
Y354694D01*
X683465D01*
X684465Y355694D01*
Y356693D01*
X683465Y357693D01*
X680466D01*
X683465D01*
X684465Y358693D01*
Y359692D01*
X683465Y360692D01*
X680466D01*
X575500Y349095D02*
Y343097D01*
X578499D01*
X579499Y344097D01*
Y345096D01*
Y346096D01*
X578499Y347096D01*
X575500D01*
X581498D02*
Y344097D01*
X582498Y343097D01*
X585497D01*
Y342097D01*
X584497Y341098D01*
X583497D01*
X585497Y343097D02*
Y347096D01*
X597493Y349095D02*
X593494D01*
Y343097D01*
X597493D01*
X593494Y346096D02*
X595494D01*
X599492Y347096D02*
Y343097D01*
Y345096D01*
X600492Y346096D01*
X601492Y347096D01*
X602491D01*
X605490Y343097D02*
X607490D01*
X606490D01*
Y347096D01*
X605490D01*
X614487D02*
X611488D01*
X610489Y346096D01*
Y344097D01*
X611488Y343097D01*
X614487D01*
X626483Y348095D02*
X625484Y349095D01*
X623485D01*
X622485Y348095D01*
Y344097D01*
X623485Y343097D01*
X625484D01*
X626483Y344097D01*
Y346096D01*
X624484D01*
X629483Y343097D02*
X631482D01*
X632482Y344097D01*
Y346096D01*
X631482Y347096D01*
X629483D01*
X628483Y346096D01*
Y344097D01*
X629483Y343097D01*
X634481Y347096D02*
Y343097D01*
Y345096D01*
X635481Y346096D01*
X636480Y347096D01*
X637480D01*
X640479Y343097D02*
Y349095D01*
Y345096D02*
X643478Y347096D01*
X640479Y345096D02*
X643478Y343097D01*
X647477D02*
X649476D01*
X650476Y344097D01*
Y346096D01*
X649476Y347096D01*
X647477D01*
X646477Y346096D01*
Y344097D01*
X647477Y343097D01*
X652475Y347096D02*
Y344097D01*
X653475Y343097D01*
X654474Y344097D01*
X655474Y343097D01*
X656474Y344097D01*
Y347096D01*
X575500Y335499D02*
X577499Y331500D01*
X579499Y335499D01*
X584497Y331500D02*
X582498D01*
X581498Y332500D01*
Y334499D01*
X582498Y335499D01*
X584497D01*
X585497Y334499D01*
Y333499D01*
X581498D01*
X587496Y335499D02*
Y331500D01*
Y333499D01*
X588496Y334499D01*
X589496Y335499D01*
X590495D01*
X599492Y331500D02*
X601492D01*
X600492D01*
Y337498D01*
X599492Y336498D01*
X604491Y331500D02*
Y332500D01*
X605490D01*
Y331500D01*
X604491D01*
X609489Y336498D02*
X610489Y337498D01*
X612488D01*
X613488Y336498D01*
Y332500D01*
X612488Y331500D01*
X610489D01*
X609489Y332500D01*
Y336498D01*
X440700Y307000D02*
Y310936D01*
X442012Y309624D01*
X443324Y310936D01*
Y307000D01*
X444636D02*
X445948D01*
X445292D01*
Y310936D01*
X444636Y310280D01*
X461000Y133156D02*
Y129876D01*
X461656Y129220D01*
X462968D01*
X463624Y129876D01*
Y133156D01*
X467560Y132500D02*
X466904Y133156D01*
X465592D01*
X464936Y132500D01*
Y131844D01*
X465592Y131188D01*
X466904D01*
X467560Y130532D01*
Y129876D01*
X466904Y129220D01*
X465592D01*
X464936Y129876D01*
X468871Y133156D02*
Y129220D01*
X470839D01*
X471495Y129876D01*
Y130532D01*
X470839Y131188D01*
X468871D01*
X470839D01*
X471495Y131844D01*
Y132500D01*
X470839Y133156D01*
X468871D01*
X473463Y129220D02*
X474775D01*
X475431Y129876D01*
Y131188D01*
X474775Y131844D01*
X473463D01*
X472807Y131188D01*
Y129876D01*
X473463Y129220D01*
X476743Y131844D02*
Y129876D01*
X477399Y129220D01*
X479367D01*
Y131844D01*
X481335Y132500D02*
Y131844D01*
X480679D01*
X481991D01*
X481335D01*
Y129876D01*
X481991Y129220D01*
X470600Y200536D02*
Y197256D01*
X471256Y196600D01*
X472568D01*
X473224Y197256D01*
Y200536D01*
X477160Y199880D02*
X476504Y200536D01*
X475192D01*
X474536Y199880D01*
Y199224D01*
X475192Y198568D01*
X476504D01*
X477160Y197912D01*
Y197256D01*
X476504Y196600D01*
X475192D01*
X474536Y197256D01*
X478472Y200536D02*
Y196600D01*
X480439D01*
X481095Y197256D01*
Y197912D01*
X480439Y198568D01*
X478472D01*
X480439D01*
X481095Y199224D01*
Y199880D01*
X480439Y200536D01*
X478472D01*
X482407Y196600D02*
X483719D01*
X483063D01*
Y199224D01*
X482407D01*
X485687Y196600D02*
Y199224D01*
X487655D01*
X488311Y198568D01*
Y196600D01*
X539468Y365500D02*
X538156D01*
X537500Y366156D01*
Y367468D01*
X538156Y368124D01*
X539468D01*
X540124Y367468D01*
Y366812D01*
X537500D01*
X541436Y368124D02*
X544060Y365500D01*
X542748Y366812D01*
X544060Y368124D01*
X541436Y365500D01*
X546027Y368780D02*
Y368124D01*
X545371D01*
X546683D01*
X546027D01*
Y366156D01*
X546683Y365500D01*
X548651Y369436D02*
Y365500D01*
X550619D01*
X551275Y366156D01*
Y368780D01*
X550619Y369436D01*
X548651D01*
X552587Y365500D02*
X553899D01*
X553243D01*
Y368124D01*
X552587D01*
X555867Y365500D02*
X557835D01*
X558491Y366156D01*
X557835Y366812D01*
X556523D01*
X555867Y367468D01*
X556523Y368124D01*
X558491D01*
X559802Y364188D02*
Y368124D01*
X561770D01*
X562426Y367468D01*
Y366156D01*
X561770Y365500D01*
X559802D01*
X306900Y91900D02*
Y95836D01*
X308868D01*
X309524Y95180D01*
Y93868D01*
X308868Y93212D01*
X306900D01*
X311492Y91900D02*
X312804D01*
X313460Y92556D01*
Y93868D01*
X312804Y94524D01*
X311492D01*
X310836Y93868D01*
Y92556D01*
X311492Y91900D01*
X314772Y94524D02*
Y92556D01*
X315427Y91900D01*
X316083Y92556D01*
X316739Y91900D01*
X317395Y92556D01*
Y94524D01*
X320675Y91900D02*
X319363D01*
X318707Y92556D01*
Y93868D01*
X319363Y94524D01*
X320675D01*
X321331Y93868D01*
Y93212D01*
X318707D01*
X322643Y94524D02*
Y91900D01*
Y93212D01*
X323299Y93868D01*
X323955Y94524D01*
X324611D01*
X650478Y66936D02*
Y63000D01*
X652446D01*
X653102Y63656D01*
Y64312D01*
X652446Y64968D01*
X650478D01*
X652446D01*
X653102Y65624D01*
Y66280D01*
X652446Y66936D01*
X650478D01*
X654414D02*
X657038D01*
X655726D01*
Y63000D01*
X660974D02*
X658350D01*
X660974Y65624D01*
Y66280D01*
X660318Y66936D01*
X659006D01*
X658350Y66280D01*
X394000Y66936D02*
Y63000D01*
X395968D01*
X396624Y63656D01*
Y64312D01*
X395968Y64968D01*
X394000D01*
X395968D01*
X396624Y65624D01*
Y66280D01*
X395968Y66936D01*
X394000D01*
X397936D02*
X400560D01*
X399248D01*
Y63000D01*
X401871D02*
X403183D01*
X402527D01*
Y66936D01*
X401871Y66280D01*
X646124Y286980D02*
X645468Y287636D01*
X644156D01*
X643500Y286980D01*
Y286324D01*
X644156Y285668D01*
X645468D01*
X646124Y285012D01*
Y284356D01*
X645468Y283700D01*
X644156D01*
X643500Y284356D01*
X647436Y287636D02*
Y283700D01*
Y285668D01*
X648092Y286324D01*
X649404D01*
X650060Y285668D01*
Y283700D01*
X651371D02*
X652683D01*
X652027D01*
Y286324D01*
X651371D01*
X655307Y283700D02*
Y286980D01*
Y285668D01*
X654651D01*
X655963D01*
X655307D01*
Y286980D01*
X655963Y287636D01*
X658587Y286980D02*
Y286324D01*
X657931D01*
X659243D01*
X658587D01*
Y284356D01*
X659243Y283700D01*
X663835D02*
X661211D01*
X663835Y286324D01*
Y286980D01*
X663179Y287636D01*
X661867D01*
X661211Y286980D01*
X304324D02*
X303668Y287636D01*
X302356D01*
X301700Y286980D01*
Y286324D01*
X302356Y285668D01*
X303668D01*
X304324Y285012D01*
Y284356D01*
X303668Y283700D01*
X302356D01*
X301700Y284356D01*
X305636Y287636D02*
Y283700D01*
Y285668D01*
X306292Y286324D01*
X307604D01*
X308260Y285668D01*
Y283700D01*
X309572D02*
X310883D01*
X310227D01*
Y286324D01*
X309572D01*
X313507Y283700D02*
Y286980D01*
Y285668D01*
X312851D01*
X314163D01*
X313507D01*
Y286980D01*
X314163Y287636D01*
X316787Y286980D02*
Y286324D01*
X316131D01*
X317443D01*
X316787D01*
Y284356D01*
X317443Y283700D01*
X319411D02*
X320723D01*
X320067D01*
Y287636D01*
X319411Y286980D01*
X399500Y347000D02*
Y350936D01*
X401468D01*
X402124Y350280D01*
Y348968D01*
X401468Y348312D01*
X399500D01*
X400812D02*
X402124Y347000D01*
X403436Y349624D02*
X406060Y347000D01*
X404748Y348312D01*
X406060Y349624D01*
X403436Y347000D01*
X407372Y350936D02*
X409995D01*
X408683D01*
Y347000D01*
X411307Y349624D02*
X413931Y347000D01*
X412619Y348312D01*
X413931Y349624D01*
X411307Y347000D01*
X707500Y167500D02*
Y171436D01*
X709468D01*
X710124Y170780D01*
Y169468D01*
X709468Y168812D01*
X707500D01*
X708812D02*
X710124Y167500D01*
X714060Y171436D02*
X711436D01*
Y169468D01*
X712748Y170124D01*
X713404D01*
X714060Y169468D01*
Y168156D01*
X713404Y167500D01*
X712092D01*
X711436Y168156D01*
X715372Y170780D02*
X716027Y171436D01*
X717339D01*
X717995Y170780D01*
Y168156D01*
X717339Y167500D01*
X716027D01*
X715372Y168156D01*
Y170780D01*
X322457Y174000D02*
Y177936D01*
X324425D01*
X325080Y177280D01*
Y175968D01*
X324425Y175312D01*
X322457D01*
X323769D02*
X325080Y174000D01*
X328360D02*
Y177936D01*
X326392Y175968D01*
X329016D01*
X330328Y174656D02*
X330984Y174000D01*
X332296D01*
X332952Y174656D01*
Y177280D01*
X332296Y177936D01*
X330984D01*
X330328Y177280D01*
Y176624D01*
X330984Y175968D01*
X332952D01*
X707500Y174500D02*
Y178436D01*
X709468D01*
X710124Y177780D01*
Y176468D01*
X709468Y175812D01*
X707500D01*
X708812D02*
X710124Y174500D01*
X713404D02*
Y178436D01*
X711436Y176468D01*
X714060D01*
X715372Y177780D02*
X716027Y178436D01*
X717339D01*
X717995Y177780D01*
Y177124D01*
X717339Y176468D01*
X717995Y175812D01*
Y175156D01*
X717339Y174500D01*
X716027D01*
X715372Y175156D01*
Y175812D01*
X716027Y176468D01*
X715372Y177124D01*
Y177780D01*
X716027Y176468D02*
X717339D01*
X322500Y180500D02*
Y184436D01*
X324468D01*
X325124Y183780D01*
Y182468D01*
X324468Y181812D01*
X322500D01*
X323812D02*
X325124Y180500D01*
X328404D02*
Y184436D01*
X326436Y182468D01*
X329060D01*
X330371Y184436D02*
X332995D01*
Y183780D01*
X330371Y181156D01*
Y180500D01*
X707500Y181500D02*
Y185436D01*
X709468D01*
X710124Y184780D01*
Y183468D01*
X709468Y182812D01*
X707500D01*
X708812D02*
X710124Y181500D01*
X713404D02*
Y185436D01*
X711436Y183468D01*
X714060D01*
X717995Y185436D02*
X716683Y184780D01*
X715372Y183468D01*
Y182156D01*
X716027Y181500D01*
X717339D01*
X717995Y182156D01*
Y182812D01*
X717339Y183468D01*
X715372D01*
X322500Y187000D02*
Y190936D01*
X324468D01*
X325124Y190280D01*
Y188968D01*
X324468Y188312D01*
X322500D01*
X323812D02*
X325124Y187000D01*
X328404D02*
Y190936D01*
X326436Y188968D01*
X329060D01*
X332995Y190936D02*
X330371D01*
Y188968D01*
X331683Y189624D01*
X332339D01*
X332995Y188968D01*
Y187656D01*
X332339Y187000D01*
X331027D01*
X330371Y187656D01*
X722299Y317814D02*
Y321750D01*
X724267D01*
X724923Y321094D01*
Y319782D01*
X724267Y319126D01*
X722299D01*
X723611D02*
X724923Y317814D01*
X728202D02*
Y321750D01*
X726235Y319782D01*
X728858D01*
X732138Y317814D02*
Y321750D01*
X730170Y319782D01*
X732794D01*
X722299Y324000D02*
Y327936D01*
X724267D01*
X724923Y327280D01*
Y325968D01*
X724267Y325312D01*
X722299D01*
X723611D02*
X724923Y324000D01*
X728202D02*
Y327936D01*
X726235Y325968D01*
X728858D01*
X730170Y327280D02*
X730826Y327936D01*
X732138D01*
X732794Y327280D01*
Y326624D01*
X732138Y325968D01*
X731482D01*
X732138D01*
X732794Y325312D01*
Y324656D01*
X732138Y324000D01*
X730826D01*
X730170Y324656D01*
X229141Y294000D02*
Y297936D01*
X231109D01*
X231765Y297280D01*
Y295968D01*
X231109Y295312D01*
X229141D01*
X230453D02*
X231765Y294000D01*
X235045D02*
Y297936D01*
X233077Y295968D01*
X235701D01*
X239636Y294000D02*
X237013D01*
X239636Y296624D01*
Y297280D01*
X238981Y297936D01*
X237669D01*
X237013Y297280D01*
X229141Y299999D02*
Y303935D01*
X231109D01*
X231765Y303279D01*
Y301967D01*
X231109Y301311D01*
X229141D01*
X230453D02*
X231765Y299999D01*
X235045D02*
Y303935D01*
X233077Y301967D01*
X235701D01*
X237013Y299999D02*
X238325D01*
X237669D01*
Y303935D01*
X237013Y303279D01*
X631000Y92500D02*
X627064D01*
Y94468D01*
X627720Y95124D01*
X629032D01*
X629688Y94468D01*
Y92500D01*
Y93812D02*
X631000Y95124D01*
Y98404D02*
X627064D01*
X629032Y96436D01*
Y99060D01*
X627720Y100372D02*
X627064Y101028D01*
Y102339D01*
X627720Y102995D01*
X630344D01*
X631000Y102339D01*
Y101028D01*
X630344Y100372D01*
X627720D01*
X74000Y470206D02*
Y474142D01*
X75968D01*
X76624Y473486D01*
Y472174D01*
X75968Y471518D01*
X74000D01*
X75312D02*
X76624Y470206D01*
X77936Y473486D02*
X78592Y474142D01*
X79904D01*
X80560Y473486D01*
Y472830D01*
X79904Y472174D01*
X79248D01*
X79904D01*
X80560Y471518D01*
Y470862D01*
X79904Y470206D01*
X78592D01*
X77936Y470862D01*
X81871D02*
X82527Y470206D01*
X83839D01*
X84495Y470862D01*
Y473486D01*
X83839Y474142D01*
X82527D01*
X81871Y473486D01*
Y472830D01*
X82527Y472174D01*
X84495D01*
X661000Y262000D02*
Y265936D01*
X662968D01*
X663624Y265280D01*
Y263968D01*
X662968Y263312D01*
X661000D01*
X662312D02*
X663624Y262000D01*
X664936Y265280D02*
X665592Y265936D01*
X666904D01*
X667560Y265280D01*
Y264624D01*
X666904Y263968D01*
X666248D01*
X666904D01*
X667560Y263312D01*
Y262656D01*
X666904Y262000D01*
X665592D01*
X664936Y262656D01*
X668871Y265280D02*
X669527Y265936D01*
X670839D01*
X671495Y265280D01*
Y264624D01*
X670839Y263968D01*
X671495Y263312D01*
Y262656D01*
X670839Y262000D01*
X669527D01*
X668871Y262656D01*
Y263312D01*
X669527Y263968D01*
X668871Y264624D01*
Y265280D01*
X669527Y263968D02*
X670839D01*
X641500Y92500D02*
X637564D01*
Y94468D01*
X638220Y95124D01*
X639532D01*
X640188Y94468D01*
Y92500D01*
Y93812D02*
X641500Y95124D01*
X638220Y96436D02*
X637564Y97092D01*
Y98404D01*
X638220Y99060D01*
X638876D01*
X639532Y98404D01*
Y97748D01*
Y98404D01*
X640188Y99060D01*
X640844D01*
X641500Y98404D01*
Y97092D01*
X640844Y96436D01*
X637564Y100372D02*
Y102995D01*
X638220D01*
X640844Y100372D01*
X641500D01*
X200678Y361500D02*
Y365436D01*
X202645D01*
X203301Y364780D01*
Y363468D01*
X202645Y362812D01*
X200678D01*
X201990D02*
X203301Y361500D01*
X204613Y364780D02*
X205269Y365436D01*
X206581D01*
X207237Y364780D01*
Y364124D01*
X206581Y363468D01*
X205925D01*
X206581D01*
X207237Y362812D01*
Y362156D01*
X206581Y361500D01*
X205269D01*
X204613Y362156D01*
X211173Y365436D02*
X209861Y364780D01*
X208549Y363468D01*
Y362156D01*
X209205Y361500D01*
X210517D01*
X211173Y362156D01*
Y362812D01*
X210517Y363468D01*
X208549D01*
X375646Y91043D02*
X371710D01*
Y93011D01*
X372366Y93667D01*
X373678D01*
X374334Y93011D01*
Y91043D01*
Y92355D02*
X375646Y93667D01*
X372366Y94979D02*
X371710Y95635D01*
Y96947D01*
X372366Y97603D01*
X373022D01*
X373678Y96947D01*
Y96291D01*
Y96947D01*
X374334Y97603D01*
X374990D01*
X375646Y96947D01*
Y95635D01*
X374990Y94979D01*
X371710Y101539D02*
Y98915D01*
X373678D01*
X373022Y100227D01*
Y100883D01*
X373678Y101539D01*
X374990D01*
X375646Y100883D01*
Y99571D01*
X374990Y98915D01*
X651500Y92500D02*
X647564D01*
Y94468D01*
X648220Y95124D01*
X649532D01*
X650188Y94468D01*
Y92500D01*
Y93812D02*
X651500Y95124D01*
X648220Y96436D02*
X647564Y97092D01*
Y98404D01*
X648220Y99060D01*
X648876D01*
X649532Y98404D01*
Y97748D01*
Y98404D01*
X650188Y99060D01*
X650844D01*
X651500Y98404D01*
Y97092D01*
X650844Y96436D01*
X651500Y102339D02*
X647564D01*
X649532Y100372D01*
Y102995D01*
X196000Y175319D02*
Y179255D01*
X197968D01*
X198624Y178599D01*
Y177287D01*
X197968Y176631D01*
X196000D01*
X197312D02*
X198624Y175319D01*
X199936Y178599D02*
X200592Y179255D01*
X201904D01*
X202560Y178599D01*
Y177943D01*
X201904Y177287D01*
X201248D01*
X201904D01*
X202560Y176631D01*
Y175975D01*
X201904Y175319D01*
X200592D01*
X199936Y175975D01*
X203871Y178599D02*
X204527Y179255D01*
X205839D01*
X206495Y178599D01*
Y177943D01*
X205839Y177287D01*
X205183D01*
X205839D01*
X206495Y176631D01*
Y175975D01*
X205839Y175319D01*
X204527D01*
X203871Y175975D01*
X385953Y91000D02*
X382017D01*
Y92968D01*
X382673Y93624D01*
X383985D01*
X384641Y92968D01*
Y91000D01*
Y92312D02*
X385953Y93624D01*
X382673Y94936D02*
X382017Y95592D01*
Y96904D01*
X382673Y97560D01*
X383329D01*
X383985Y96904D01*
Y96248D01*
Y96904D01*
X384641Y97560D01*
X385297D01*
X385953Y96904D01*
Y95592D01*
X385297Y94936D01*
X385953Y101495D02*
Y98871D01*
X383329Y101495D01*
X382673D01*
X382017Y100839D01*
Y99527D01*
X382673Y98871D01*
X661500Y92500D02*
X657564D01*
Y94468D01*
X658220Y95124D01*
X659532D01*
X660188Y94468D01*
Y92500D01*
Y93812D02*
X661500Y95124D01*
X658220Y96436D02*
X657564Y97092D01*
Y98404D01*
X658220Y99060D01*
X658876D01*
X659532Y98404D01*
Y97748D01*
Y98404D01*
X660188Y99060D01*
X660844D01*
X661500Y98404D01*
Y97092D01*
X660844Y96436D01*
X661500Y100372D02*
Y101683D01*
Y101027D01*
X657564D01*
X658220Y100372D01*
X235000Y90793D02*
Y94729D01*
X236968D01*
X237624Y94073D01*
Y92761D01*
X236968Y92105D01*
X235000D01*
X236312D02*
X237624Y90793D01*
X238936Y94073D02*
X239592Y94729D01*
X240904D01*
X241560Y94073D01*
Y93417D01*
X240904Y92761D01*
X240248D01*
X240904D01*
X241560Y92105D01*
Y91449D01*
X240904Y90793D01*
X239592D01*
X238936Y91449D01*
X242871Y94073D02*
X243527Y94729D01*
X244839D01*
X245495Y94073D01*
Y91449D01*
X244839Y90793D01*
X243527D01*
X242871Y91449D01*
Y94073D01*
X396000Y91000D02*
X392064D01*
Y92968D01*
X392720Y93624D01*
X394032D01*
X394688Y92968D01*
Y91000D01*
Y92312D02*
X396000Y93624D01*
Y97560D02*
Y94936D01*
X393376Y97560D01*
X392720D01*
X392064Y96904D01*
Y95592D01*
X392720Y94936D01*
X395344Y98871D02*
X396000Y99527D01*
Y100839D01*
X395344Y101495D01*
X392720D01*
X392064Y100839D01*
Y99527D01*
X392720Y98871D01*
X393376D01*
X394032Y99527D01*
Y101495D01*
X671500Y92500D02*
X667564D01*
Y94468D01*
X668220Y95124D01*
X669532D01*
X670188Y94468D01*
Y92500D01*
Y93812D02*
X671500Y95124D01*
Y99060D02*
Y96436D01*
X668876Y99060D01*
X668220D01*
X667564Y98404D01*
Y97092D01*
X668220Y96436D01*
Y100372D02*
X667564Y101027D01*
Y102339D01*
X668220Y102995D01*
X668876D01*
X669532Y102339D01*
X670188Y102995D01*
X670844D01*
X671500Y102339D01*
Y101027D01*
X670844Y100372D01*
X670188D01*
X669532Y101027D01*
X668876Y100372D01*
X668220D01*
X669532Y101027D02*
Y102339D01*
X880000Y465206D02*
Y469142D01*
X881968D01*
X882624Y468486D01*
Y467174D01*
X881968Y466518D01*
X880000D01*
X881312D02*
X882624Y465206D01*
X886560D02*
X883936D01*
X886560Y467830D01*
Y468486D01*
X885904Y469142D01*
X884592D01*
X883936Y468486D01*
X887871Y469142D02*
X890495D01*
Y468486D01*
X887871Y465863D01*
Y465206D01*
X406000Y91000D02*
X402064D01*
Y92968D01*
X402720Y93624D01*
X404032D01*
X404688Y92968D01*
Y91000D01*
Y92312D02*
X406000Y93624D01*
Y97560D02*
Y94936D01*
X403376Y97560D01*
X402720D01*
X402064Y96904D01*
Y95592D01*
X402720Y94936D01*
X402064Y101495D02*
X402720Y100183D01*
X404032Y98871D01*
X405344D01*
X406000Y99527D01*
Y100839D01*
X405344Y101495D01*
X404688D01*
X404032Y100839D01*
Y98871D01*
X681354Y92500D02*
X677418D01*
Y94468D01*
X678074Y95124D01*
X679386D01*
X680042Y94468D01*
Y92500D01*
Y93812D02*
X681354Y95124D01*
Y99060D02*
Y96436D01*
X678730Y99060D01*
X678074D01*
X677418Y98404D01*
Y97092D01*
X678074Y96436D01*
X677418Y102995D02*
Y100372D01*
X679386D01*
X678730Y101683D01*
Y102339D01*
X679386Y102995D01*
X680698D01*
X681354Y102339D01*
Y101027D01*
X680698Y100372D01*
X751000Y362596D02*
Y366531D01*
X752968D01*
X753624Y365875D01*
Y364563D01*
X752968Y363907D01*
X751000D01*
X752312D02*
X753624Y362596D01*
X757560D02*
X754936D01*
X757560Y365219D01*
Y365875D01*
X756904Y366531D01*
X755592D01*
X754936Y365875D01*
X760839Y362596D02*
Y366531D01*
X758872Y364563D01*
X761495D01*
X416000Y91000D02*
X412064D01*
Y92968D01*
X412720Y93624D01*
X414032D01*
X414688Y92968D01*
Y91000D01*
Y92312D02*
X416000Y93624D01*
Y97560D02*
Y94936D01*
X413376Y97560D01*
X412720D01*
X412064Y96904D01*
Y95592D01*
X412720Y94936D01*
Y98871D02*
X412064Y99527D01*
Y100839D01*
X412720Y101495D01*
X413376D01*
X414032Y100839D01*
Y100183D01*
Y100839D01*
X414688Y101495D01*
X415344D01*
X416000Y100839D01*
Y99527D01*
X415344Y98871D01*
X757000Y175617D02*
Y179553D01*
X758968D01*
X759624Y178897D01*
Y177585D01*
X758968Y176929D01*
X757000D01*
X758312D02*
X759624Y175617D01*
X763560D02*
X760936D01*
X763560Y178241D01*
Y178897D01*
X762904Y179553D01*
X761592D01*
X760936Y178897D01*
X767495Y175617D02*
X764872D01*
X767495Y178241D01*
Y178897D01*
X766839Y179553D01*
X765527D01*
X764872Y178897D01*
X426000Y92043D02*
X422064D01*
Y94011D01*
X422720Y94667D01*
X424032D01*
X424688Y94011D01*
Y92043D01*
Y93355D02*
X426000Y94667D01*
Y98603D02*
Y95979D01*
X423376Y98603D01*
X422720D01*
X422064Y97947D01*
Y96635D01*
X422720Y95979D01*
X426000Y99915D02*
Y101227D01*
Y100571D01*
X422064D01*
X422720Y99915D01*
X718221Y86000D02*
Y89936D01*
X720189D01*
X720845Y89280D01*
Y87968D01*
X720189Y87312D01*
X718221D01*
X719532D02*
X720845Y86000D01*
X724780D02*
X722156D01*
X724780Y88624D01*
Y89280D01*
X724124Y89936D01*
X722812D01*
X722156Y89280D01*
X726092D02*
X726748Y89936D01*
X728060D01*
X728716Y89280D01*
Y86656D01*
X728060Y86000D01*
X726748D01*
X726092Y86656D01*
Y89280D01*
X312000Y262000D02*
Y265936D01*
X313968D01*
X314624Y265280D01*
Y263968D01*
X313968Y263312D01*
X312000D01*
X313312D02*
X314624Y262000D01*
X315936D02*
X317248D01*
X316592D01*
Y265936D01*
X315936Y265280D01*
X319215Y262656D02*
X319871Y262000D01*
X321183D01*
X321839Y262656D01*
Y265280D01*
X321183Y265936D01*
X319871D01*
X319215Y265280D01*
Y264624D01*
X319871Y263968D01*
X321839D01*
X393000Y159500D02*
Y163436D01*
X394968D01*
X395624Y162780D01*
Y161468D01*
X394968Y160812D01*
X393000D01*
X394312D02*
X395624Y159500D01*
X396936D02*
X398248D01*
X397592D01*
Y163436D01*
X396936Y162780D01*
X400215D02*
X400872Y163436D01*
X402183D01*
X402839Y162780D01*
Y162124D01*
X402183Y161468D01*
X402839Y160812D01*
Y160156D01*
X402183Y159500D01*
X400872D01*
X400215Y160156D01*
Y160812D01*
X400872Y161468D01*
X400215Y162124D01*
Y162780D01*
X400872Y161468D02*
X402183D01*
X392243Y266100D02*
Y270036D01*
X394211D01*
X394867Y269380D01*
Y268068D01*
X394211Y267412D01*
X392243D01*
X393555D02*
X394867Y266100D01*
X396179Y266756D02*
X396835Y266100D01*
X398147D01*
X398803Y266756D01*
Y269380D01*
X398147Y270036D01*
X396835D01*
X396179Y269380D01*
Y268724D01*
X396835Y268068D01*
X398803D01*
X720000Y99010D02*
Y102945D01*
X721968D01*
X722624Y102289D01*
Y100978D01*
X721968Y100322D01*
X720000D01*
X721312D02*
X722624Y99010D01*
X723936Y102289D02*
X724592Y102945D01*
X725904D01*
X726560Y102289D01*
Y101634D01*
X725904Y100978D01*
X726560Y100322D01*
Y99666D01*
X725904Y99010D01*
X724592D01*
X723936Y99666D01*
Y100322D01*
X724592Y100978D01*
X723936Y101634D01*
Y102289D01*
X724592Y100978D02*
X725904D01*
X237500Y104000D02*
Y107936D01*
X239468D01*
X240124Y107280D01*
Y105968D01*
X239468Y105312D01*
X237500D01*
X238812D02*
X240124Y104000D01*
X241436Y107936D02*
X244060D01*
Y107280D01*
X241436Y104656D01*
Y104000D01*
X759000Y189818D02*
Y193754D01*
X760968D01*
X761624Y193098D01*
Y191786D01*
X760968Y191130D01*
X759000D01*
X760312D02*
X761624Y189818D01*
X765560Y193754D02*
X764248Y193098D01*
X762936Y191786D01*
Y190474D01*
X763592Y189818D01*
X764904D01*
X765560Y190474D01*
Y191130D01*
X764904Y191786D01*
X762936D01*
X197546Y188334D02*
Y192269D01*
X199513D01*
X200169Y191613D01*
Y190301D01*
X199513Y189646D01*
X197546D01*
X198857D02*
X200169Y188334D01*
X204105Y192269D02*
X201481D01*
Y190301D01*
X202793Y190957D01*
X203449D01*
X204105Y190301D01*
Y188989D01*
X203449Y188334D01*
X202137D01*
X201481Y188989D01*
X752500Y376000D02*
Y379936D01*
X754468D01*
X755124Y379280D01*
Y377968D01*
X754468Y377312D01*
X752500D01*
X753812D02*
X755124Y376000D01*
X758404D02*
Y379936D01*
X756436Y377968D01*
X759060D01*
X202589Y375000D02*
Y378936D01*
X204557D01*
X205213Y378280D01*
Y376968D01*
X204557Y376312D01*
X202589D01*
X203901D02*
X205213Y375000D01*
X206524Y378280D02*
X207181Y378936D01*
X208492D01*
X209148Y378280D01*
Y377624D01*
X208492Y376968D01*
X207836D01*
X208492D01*
X209148Y376312D01*
Y375656D01*
X208492Y375000D01*
X207181D01*
X206524Y375656D01*
X881500Y478500D02*
Y482436D01*
X883468D01*
X884124Y481780D01*
Y480468D01*
X883468Y479812D01*
X881500D01*
X882812D02*
X884124Y478500D01*
X888060D02*
X885436D01*
X888060Y481124D01*
Y481780D01*
X887404Y482436D01*
X886092D01*
X885436Y481780D01*
X76500Y484000D02*
Y487936D01*
X78468D01*
X79124Y487280D01*
Y485968D01*
X78468Y485312D01*
X76500D01*
X77812D02*
X79124Y484000D01*
X80436D02*
X81748D01*
X81092D01*
Y487936D01*
X80436Y487280D01*
X525564Y227468D02*
Y226156D01*
X526220Y225500D01*
X528844D01*
X529500Y226156D01*
Y227468D01*
X528844Y228124D01*
X526220D01*
X525564Y227468D01*
X526876Y229436D02*
X528844D01*
X529500Y230092D01*
Y232060D01*
X526876D01*
X526220Y234027D02*
X526876D01*
Y233371D01*
Y234683D01*
Y234027D01*
X528844D01*
X529500Y234683D01*
X526220Y236651D02*
X525564Y237307D01*
Y238619D01*
X526220Y239275D01*
X526876D01*
X527532Y238619D01*
Y237963D01*
Y238619D01*
X528188Y239275D01*
X528844D01*
X529500Y238619D01*
Y237307D01*
X528844Y236651D01*
X434564Y227787D02*
Y226475D01*
X435220Y225819D01*
X437844D01*
X438500Y226475D01*
Y227787D01*
X437844Y228443D01*
X435220D01*
X434564Y227787D01*
X435876Y229755D02*
X437844D01*
X438500Y230411D01*
Y232379D01*
X435876D01*
X435220Y234346D02*
X435876D01*
Y233690D01*
Y235002D01*
Y234346D01*
X437844D01*
X438500Y235002D01*
Y239594D02*
Y236970D01*
X435876Y239594D01*
X435220D01*
X434564Y238938D01*
Y237626D01*
X435220Y236970D01*
X434564Y165468D02*
Y164156D01*
X435220Y163500D01*
X437844D01*
X438500Y164156D01*
Y165468D01*
X437844Y166124D01*
X435220D01*
X434564Y165468D01*
X435876Y167436D02*
X437844D01*
X438500Y168092D01*
Y170060D01*
X435876D01*
X435220Y172027D02*
X435876D01*
Y171371D01*
Y172683D01*
Y172027D01*
X437844D01*
X438500Y172683D01*
Y174651D02*
Y175963D01*
Y175307D01*
X434564D01*
X435220Y174651D01*
X529000Y164156D02*
Y165468D01*
X528344Y166124D01*
X527032D01*
X526376Y165468D01*
Y164156D01*
X527032Y163500D01*
X528344D01*
X529000Y164156D01*
X530312Y167436D02*
X526376D01*
Y169404D01*
X527032Y170060D01*
X528344D01*
X529000Y169404D01*
Y167436D01*
X525720Y172027D02*
X526376D01*
Y171371D01*
Y172683D01*
Y172027D01*
X528344D01*
X529000Y172683D01*
X525064Y176619D02*
Y175307D01*
X525720Y174651D01*
X528344D01*
X529000Y175307D01*
Y176619D01*
X528344Y177275D01*
X525720D01*
X525064Y176619D01*
X526376Y178587D02*
X528344D01*
X529000Y179243D01*
Y181211D01*
X526376D01*
X525720Y183179D02*
X526376D01*
Y182523D01*
Y183835D01*
Y183179D01*
X528344D01*
X529000Y183835D01*
X564500Y164156D02*
Y165468D01*
X563844Y166124D01*
X562532D01*
X561876Y165468D01*
Y164156D01*
X562532Y163500D01*
X563844D01*
X564500Y164156D01*
X565812Y167436D02*
X561876D01*
Y169404D01*
X562532Y170060D01*
X563844D01*
X564500Y169404D01*
Y167436D01*
X561220Y172027D02*
X561876D01*
Y171371D01*
Y172683D01*
Y172027D01*
X563844D01*
X564500Y172683D01*
X560564Y174651D02*
Y175963D01*
Y175307D01*
X564500D01*
Y174651D01*
Y175963D01*
Y177931D02*
X561876D01*
Y179899D01*
X562532Y180555D01*
X564500D01*
X552276Y103789D02*
Y102477D01*
X552932Y101821D01*
X555556D01*
X556212Y102477D01*
Y103789D01*
X555556Y104445D01*
X552932D01*
X552276Y103789D01*
X557523Y105757D02*
X553588D01*
Y107724D01*
X554244Y108380D01*
X555556D01*
X556212Y107724D01*
Y105757D01*
X552932Y110348D02*
X553588D01*
Y109692D01*
Y111004D01*
Y110348D01*
X555556D01*
X556212Y111004D01*
X552276Y115596D02*
Y112972D01*
X556212D01*
Y115596D01*
X554244Y112972D02*
Y114284D01*
X556212Y116908D02*
X553588D01*
Y118876D01*
X554244Y119532D01*
X556212D01*
X553588Y123467D02*
Y121500D01*
X554244Y120844D01*
X555556D01*
X556212Y121500D01*
Y123467D01*
X552932Y124779D02*
X552276Y125435D01*
Y126747D01*
X552932Y127403D01*
X553588D01*
X554244Y126747D01*
Y126091D01*
Y126747D01*
X554900Y127403D01*
X555556D01*
X556212Y126747D01*
Y125435D01*
X555556Y124779D01*
X540776Y103789D02*
Y102477D01*
X541432Y101821D01*
X544056D01*
X544712Y102477D01*
Y103789D01*
X544056Y104445D01*
X541432D01*
X540776Y103789D01*
X546024Y105757D02*
X542088D01*
Y107724D01*
X542744Y108380D01*
X544056D01*
X544712Y107724D01*
Y105757D01*
X541432Y110348D02*
X542088D01*
Y109692D01*
Y111004D01*
Y110348D01*
X544056D01*
X544712Y111004D01*
X540776Y115596D02*
Y112972D01*
X544712D01*
Y115596D01*
X542744Y112972D02*
Y114284D01*
X544712Y116908D02*
X542088D01*
Y118876D01*
X542744Y119532D01*
X544712D01*
X542088Y123467D02*
Y121500D01*
X542744Y120844D01*
X544056D01*
X544712Y121500D01*
Y123467D01*
Y127403D02*
Y124779D01*
X542088Y127403D01*
X541432D01*
X540776Y126747D01*
Y125435D01*
X541432Y124779D01*
X528776Y103789D02*
Y102477D01*
X529432Y101821D01*
X532056D01*
X532712Y102477D01*
Y103789D01*
X532056Y104445D01*
X529432D01*
X528776Y103789D01*
X534024Y105757D02*
X530088D01*
Y107724D01*
X530744Y108380D01*
X532056D01*
X532712Y107724D01*
Y105757D01*
X529432Y110348D02*
X530088D01*
Y109692D01*
Y111004D01*
Y110348D01*
X532056D01*
X532712Y111004D01*
X528776Y115596D02*
Y112972D01*
X532712D01*
Y115596D01*
X530744Y112972D02*
Y114284D01*
X532712Y116908D02*
X530088D01*
Y118876D01*
X530744Y119532D01*
X532712D01*
X530088Y123467D02*
Y121500D01*
X530744Y120844D01*
X532056D01*
X532712Y121500D01*
Y123467D01*
Y124779D02*
Y126091D01*
Y125435D01*
X528776D01*
X529432Y124779D01*
X381500Y364436D02*
Y360500D01*
X384124D01*
X388060Y364436D02*
X385436D01*
Y360500D01*
X388060D01*
X385436Y362468D02*
X386748D01*
X389371Y364436D02*
Y360500D01*
X391339D01*
X391995Y361156D01*
Y363780D01*
X391339Y364436D01*
X389371D01*
X395931Y363780D02*
X395275Y364436D01*
X393963D01*
X393307Y363780D01*
Y363124D01*
X393963Y362468D01*
X395275D01*
X395931Y361812D01*
Y361156D01*
X395275Y360500D01*
X393963D01*
X393307Y361156D01*
X397243Y363124D02*
Y361156D01*
X397899Y360500D01*
X398555Y361156D01*
X399211Y360500D01*
X399867Y361156D01*
Y363124D01*
X401179Y360500D02*
X402491D01*
X401835D01*
Y363124D01*
X401179D01*
X405114Y363780D02*
Y363124D01*
X404459D01*
X405770D01*
X405114D01*
Y361156D01*
X405770Y360500D01*
X410362Y363124D02*
X408394D01*
X407738Y362468D01*
Y361156D01*
X408394Y360500D01*
X410362D01*
X411674Y364436D02*
Y360500D01*
Y362468D01*
X412330Y363124D01*
X413642D01*
X414298Y362468D01*
Y360500D01*
X409624Y163436D02*
X408312D01*
X408968D01*
Y160156D01*
X408312Y159500D01*
X407656D01*
X407000Y160156D01*
X413560Y159500D02*
X410936D01*
X413560Y162124D01*
Y162780D01*
X412904Y163436D01*
X411592D01*
X410936Y162780D01*
X414872D02*
X415527Y163436D01*
X416839D01*
X417495Y162780D01*
Y160156D01*
X416839Y159500D01*
X415527D01*
X414872Y160156D01*
Y162780D01*
X437124Y245936D02*
X435812D01*
X436468D01*
Y242656D01*
X435812Y242000D01*
X435156D01*
X434500Y242656D01*
X438436Y242000D02*
X439748D01*
X439092D01*
Y245936D01*
X438436Y245280D01*
X441715D02*
X442372Y245936D01*
X443683D01*
X444339Y245280D01*
Y244624D01*
X443683Y243968D01*
X443027D01*
X443683D01*
X444339Y243312D01*
Y242656D01*
X443683Y242000D01*
X442372D01*
X441715Y242656D01*
X710124Y320936D02*
X708812D01*
X709468D01*
Y317656D01*
X708812Y317000D01*
X708156D01*
X707500Y317656D01*
X711436Y317000D02*
X712748D01*
X712092D01*
Y320936D01*
X711436Y320280D01*
X717339Y317000D02*
X714715D01*
X717339Y319624D01*
Y320280D01*
X716683Y320936D01*
X715372D01*
X714715Y320280D01*
X437624Y252436D02*
X436312D01*
X436968D01*
Y249156D01*
X436312Y248500D01*
X435656D01*
X435000Y249156D01*
X438936Y248500D02*
X440248D01*
X439592D01*
Y252436D01*
X438936Y251780D01*
X442215Y248500D02*
X443527D01*
X442872D01*
Y252436D01*
X442215Y251780D01*
X437124Y261936D02*
X435812D01*
X436468D01*
Y258656D01*
X435812Y258000D01*
X435156D01*
X434500Y258656D01*
X438436Y258000D02*
X439748D01*
X439092D01*
Y261936D01*
X438436Y261280D01*
X441715D02*
X442372Y261936D01*
X443683D01*
X444339Y261280D01*
Y258656D01*
X443683Y258000D01*
X442372D01*
X441715Y258656D01*
Y261280D01*
X256624Y313414D02*
X255312D01*
X255968D01*
Y310135D01*
X255312Y309478D01*
X254656D01*
X254000Y310135D01*
X257936D02*
X258592Y309478D01*
X259904D01*
X260560Y310135D01*
Y312758D01*
X259904Y313414D01*
X258592D01*
X257936Y312758D01*
Y312102D01*
X258592Y311446D01*
X260560D01*
X722580Y117936D02*
X721269D01*
X721925D01*
Y114656D01*
X721269Y114000D01*
X720613D01*
X719957Y114656D01*
X723892Y117280D02*
X724548Y117936D01*
X725860D01*
X726516Y117280D01*
Y116624D01*
X725860Y115968D01*
X726516Y115312D01*
Y114656D01*
X725860Y114000D01*
X724548D01*
X723892Y114656D01*
Y115312D01*
X724548Y115968D01*
X723892Y116624D01*
Y117280D01*
X724548Y115968D02*
X725860D01*
X240124Y121436D02*
X238812D01*
X239468D01*
Y118156D01*
X238812Y117500D01*
X238156D01*
X237500Y118156D01*
X241436Y121436D02*
X244060D01*
Y120780D01*
X241436Y118156D01*
Y117500D01*
X749124Y200031D02*
X747812D01*
X748468D01*
Y196752D01*
X747812Y196096D01*
X747156D01*
X746500Y196752D01*
X753060Y200031D02*
X751748Y199375D01*
X750436Y198064D01*
Y196752D01*
X751092Y196096D01*
X752404D01*
X753060Y196752D01*
Y197407D01*
X752404Y198064D01*
X750436D01*
X200124Y205436D02*
X198812D01*
X199468D01*
Y202156D01*
X198812Y201500D01*
X198156D01*
X197500Y202156D01*
X204060Y205436D02*
X201436D01*
Y203468D01*
X202748Y204124D01*
X203404D01*
X204060Y203468D01*
Y202156D01*
X203404Y201500D01*
X202092D01*
X201436Y202156D01*
X754624Y393436D02*
X753312D01*
X753968D01*
Y390156D01*
X753312Y389500D01*
X752656D01*
X752000Y390156D01*
X757904Y389500D02*
Y393436D01*
X755936Y391468D01*
X758560D01*
X204580Y393436D02*
X203269D01*
X203925D01*
Y390156D01*
X203269Y389500D01*
X202613D01*
X201957Y390156D01*
X205892Y392780D02*
X206548Y393436D01*
X207860D01*
X208516Y392780D01*
Y392124D01*
X207860Y391468D01*
X207204D01*
X207860D01*
X208516Y390812D01*
Y390156D01*
X207860Y389500D01*
X206548D01*
X205892Y390156D01*
X882624Y495936D02*
X881312D01*
X881968D01*
Y492656D01*
X881312Y492000D01*
X880656D01*
X880000Y492656D01*
X886560Y492000D02*
X883936D01*
X886560Y494624D01*
Y495280D01*
X885904Y495936D01*
X884592D01*
X883936Y495280D01*
X78124Y503436D02*
X76812D01*
X77468D01*
Y500156D01*
X76812Y499500D01*
X76156D01*
X75500Y500156D01*
X79436Y499500D02*
X80748D01*
X80092D01*
Y503436D01*
X79436Y502780D01*
X637900Y245236D02*
X639212D01*
X638556D01*
Y241300D01*
X637900D01*
X639212D01*
X643804Y244580D02*
X643148Y245236D01*
X641836D01*
X641180Y244580D01*
Y241956D01*
X641836Y241300D01*
X643148D01*
X643804Y241956D01*
X647739Y241300D02*
X645116D01*
X647739Y243924D01*
Y244580D01*
X647083Y245236D01*
X645772D01*
X645116Y244580D01*
X252850Y251605D02*
X254162D01*
X253506D01*
Y247669D01*
X252850D01*
X254162D01*
X258754Y250949D02*
X258098Y251605D01*
X256786D01*
X256130Y250949D01*
Y248325D01*
X256786Y247669D01*
X258098D01*
X258754Y248325D01*
X260066Y247669D02*
X261377D01*
X260721D01*
Y251605D01*
X260066Y250949D01*
X771064Y304500D02*
X775000D01*
X773032D01*
Y307124D01*
X771064D01*
X775000D01*
X772376Y309092D02*
Y310404D01*
X773032Y311060D01*
X775000D01*
Y309092D01*
X774344Y308436D01*
X773688Y309092D01*
Y311060D01*
X771720Y313027D02*
X772376D01*
Y312371D01*
Y313683D01*
Y313027D01*
X774344D01*
X775000Y313683D01*
Y318275D02*
Y315651D01*
X772376Y318275D01*
X771720D01*
X771064Y317619D01*
Y316307D01*
X771720Y315651D01*
X191436Y316423D02*
X187500D01*
X189468D01*
Y313799D01*
X191436D01*
X187500D01*
X190124Y311831D02*
Y310519D01*
X189468Y309863D01*
X187500D01*
Y311831D01*
X188156Y312487D01*
X188812Y311831D01*
Y309863D01*
X190780Y307895D02*
X190124D01*
Y308551D01*
Y307239D01*
Y307895D01*
X188156D01*
X187500Y307239D01*
Y305272D02*
Y303960D01*
Y304616D01*
X191436D01*
X190780Y305272D01*
X564432Y104445D02*
X563776Y103789D01*
Y102477D01*
X564432Y101821D01*
X567056D01*
X567712Y102477D01*
Y103789D01*
X567056Y104445D01*
X567712Y105757D02*
Y107069D01*
Y106413D01*
X563776D01*
Y105757D01*
X565088Y109036D02*
X567056D01*
X567712Y109692D01*
Y111660D01*
X565088D01*
X564432Y113628D02*
X565088D01*
Y112972D01*
Y114284D01*
Y113628D01*
X567056D01*
X567712Y114284D01*
X565088Y118876D02*
Y116908D01*
X565744Y116252D01*
X567056D01*
X567712Y116908D01*
Y118876D01*
X563776Y120188D02*
X567712D01*
X565744D01*
X565088Y120844D01*
Y122155D01*
X565744Y122811D01*
X567712D01*
Y126747D02*
Y124123D01*
X565088Y126747D01*
X564432D01*
X563776Y126091D01*
Y124779D01*
X564432Y124123D01*
X274124Y86220D02*
X273468Y86876D01*
X272156D01*
X271500Y86220D01*
Y83596D01*
X272156Y82940D01*
X273468D01*
X274124Y83596D01*
X275436Y82940D02*
X276748D01*
X276092D01*
Y86876D01*
X275436D01*
X278715Y85564D02*
Y83596D01*
X279372Y82940D01*
X281339D01*
Y85564D01*
X283307Y86220D02*
Y85564D01*
X282651D01*
X283963D01*
X283307D01*
Y83596D01*
X283963Y82940D01*
X288555Y85564D02*
X286587D01*
X285931Y84908D01*
Y83596D01*
X286587Y82940D01*
X288555D01*
X289867Y86876D02*
Y82940D01*
Y84908D01*
X290523Y85564D01*
X291835D01*
X292491Y84908D01*
Y82940D01*
X293802D02*
X295114D01*
X294459D01*
Y86876D01*
X293802Y86220D01*
X718000Y227500D02*
Y230124D01*
X719312Y231436D01*
X720624Y230124D01*
Y227500D01*
Y229468D01*
X718000D01*
X721936Y231436D02*
Y227500D01*
X723904D01*
X724560Y228156D01*
Y230780D01*
X723904Y231436D01*
X721936D01*
X725872Y227500D02*
Y231436D01*
X727839D01*
X728495Y230780D01*
Y229468D01*
X727839Y228812D01*
X725872D01*
X727183D02*
X728495Y227500D01*
X732431D02*
X729807D01*
X732431Y230124D01*
Y230780D01*
X731775Y231436D01*
X730463D01*
X729807Y230780D01*
X733743Y226844D02*
X736367D01*
X740303Y227500D02*
X737679D01*
X740303Y230124D01*
Y230780D01*
X739647Y231436D01*
X738335D01*
X737679Y230780D01*
X718221Y214500D02*
Y217124D01*
X719532Y218436D01*
X720844Y217124D01*
Y214500D01*
Y216468D01*
X718221D01*
X722156Y218436D02*
Y214500D01*
X724124D01*
X724780Y215156D01*
Y217780D01*
X724124Y218436D01*
X722156D01*
X726092Y214500D02*
Y218436D01*
X728060D01*
X728716Y217780D01*
Y216468D01*
X728060Y215812D01*
X726092D01*
X727404D02*
X728716Y214500D01*
X732652D02*
X730028D01*
X732652Y217124D01*
Y217780D01*
X731996Y218436D01*
X730684D01*
X730028Y217780D01*
X733964Y213844D02*
X736587D01*
X737899Y214500D02*
X739211D01*
X738555D01*
Y218436D01*
X737899Y217780D01*
X718669Y202500D02*
Y205124D01*
X719980Y206436D01*
X721292Y205124D01*
Y202500D01*
Y204468D01*
X718669D01*
X722604Y206436D02*
Y202500D01*
X724572D01*
X725228Y203156D01*
Y205780D01*
X724572Y206436D01*
X722604D01*
X726540Y202500D02*
Y206436D01*
X728508D01*
X729164Y205780D01*
Y204468D01*
X728508Y203812D01*
X726540D01*
X727852D02*
X729164Y202500D01*
X733100D02*
X730476D01*
X733100Y205124D01*
Y205780D01*
X732444Y206436D01*
X731132D01*
X730476Y205780D01*
X734412Y201844D02*
X737035D01*
X738347Y205780D02*
X739003Y206436D01*
X740315D01*
X740971Y205780D01*
Y203156D01*
X740315Y202500D01*
X739003D01*
X738347Y203156D01*
Y205780D01*
X305692Y239500D02*
Y242124D01*
X307004Y243436D01*
X308316Y242124D01*
Y239500D01*
Y241468D01*
X305692D01*
X309628Y243436D02*
Y239500D01*
X311596D01*
X312252Y240156D01*
Y242780D01*
X311596Y243436D01*
X309628D01*
X313564Y239500D02*
Y243436D01*
X315532D01*
X316188Y242780D01*
Y241468D01*
X315532Y240812D01*
X313564D01*
X314876D02*
X316188Y239500D01*
X317499D02*
X318811D01*
X318155D01*
Y243436D01*
X317499Y242780D01*
X320779Y238844D02*
X323403D01*
X327339Y239500D02*
X324715D01*
X327339Y242124D01*
Y242780D01*
X326683Y243436D01*
X325371D01*
X324715Y242780D01*
X305192Y197000D02*
Y199624D01*
X306504Y200936D01*
X307816Y199624D01*
Y197000D01*
Y198968D01*
X305192D01*
X309128Y200936D02*
Y197000D01*
X311096D01*
X311752Y197656D01*
Y200280D01*
X311096Y200936D01*
X309128D01*
X313064Y197000D02*
Y200936D01*
X315032D01*
X315687Y200280D01*
Y198968D01*
X315032Y198312D01*
X313064D01*
X314376D02*
X315687Y197000D01*
X316999D02*
X318311D01*
X317655D01*
Y200936D01*
X316999Y200280D01*
X320279Y196344D02*
X322903D01*
X324215Y200280D02*
X324871Y200936D01*
X326183D01*
X326839Y200280D01*
Y197656D01*
X326183Y197000D01*
X324871D01*
X324215Y197656D01*
Y200280D01*
D11*
X624500Y68500D02*
X684500D01*
X624500D02*
Y88500D01*
X684500D01*
Y68500D02*
Y88500D01*
X369000Y68500D02*
X429000D01*
X369000D02*
Y88500D01*
X429000D01*
Y68500D02*
Y88500D01*
X460000Y127000D02*
X500000D01*
Y117000D02*
Y127000D01*
X460000Y117000D02*
X500000D01*
X460000D02*
Y127000D01*
X469993Y187543D02*
X489993D01*
X469993Y167543D02*
Y187543D01*
Y167543D02*
X489993D01*
Y187543D01*
X520500Y340500D02*
Y360500D01*
Y340500D02*
X560500D01*
Y360500D01*
X520500D02*
X560500D01*
X549212Y68821D02*
X559212D01*
Y98822D01*
X549212D02*
X559212D01*
X549212Y68821D02*
Y98822D01*
X537712Y68821D02*
X547712D01*
Y98822D01*
X537712D02*
X547712D01*
X537712Y68821D02*
Y98822D01*
X526212Y68821D02*
X536212D01*
Y98822D01*
X526212D02*
X536212D01*
X526212Y68821D02*
Y98822D01*
X418500Y343500D02*
Y353500D01*
Y343500D02*
X438500D01*
Y353500D01*
X418500D02*
X438500D01*
X418500Y357000D02*
Y367000D01*
Y357000D02*
X438500D01*
Y367000D01*
X418500D02*
X438500D01*
X747912Y254421D02*
X767912D01*
X747912D02*
Y304421D01*
X767912D01*
Y254421D02*
Y304421D01*
X196089Y310329D02*
X216089D01*
Y260329D02*
Y310329D01*
X196089Y260329D02*
X216089D01*
X196089D02*
Y310329D01*
X312000Y68500D02*
Y88500D01*
Y68500D02*
X342000D01*
Y88500D01*
X312000D02*
X342000D01*
X548000Y163000D02*
Y223000D01*
X558000D01*
Y163000D02*
Y223000D01*
X548000Y163000D02*
X558000D01*
X532000Y225000D02*
Y305000D01*
X542000D01*
Y225000D02*
Y305000D01*
X532000Y225000D02*
X542000D01*
X422000D02*
Y305000D01*
X432000D01*
Y225000D02*
Y305000D01*
X422000Y225000D02*
X432000D01*
X422000Y163000D02*
Y223000D01*
X432000D01*
Y163000D02*
Y223000D01*
X422000Y163000D02*
X432000D01*
X532000D02*
Y223000D01*
X542000D01*
Y163000D02*
Y223000D01*
X532000Y163000D02*
X542000D01*
X560212Y98799D02*
X570212D01*
X560212Y68799D02*
Y98799D01*
Y68799D02*
X570212D01*
Y98799D01*
X270000Y68500D02*
Y78500D01*
Y68500D02*
X300001D01*
Y78500D01*
X270000D02*
X300001D01*
X301103Y270332D02*
X321103D01*
X301103D02*
Y280332D01*
X321103D01*
Y270332D02*
Y280332D01*
X642897Y270332D02*
X662897D01*
X642897D02*
Y280332D01*
X662897D01*
Y270332D02*
Y280332D01*
X646614Y237236D02*
X673386D01*
Y166764D02*
Y237236D01*
X646614Y166764D02*
X673386D01*
X646614D02*
Y237236D01*
X637953Y237157D02*
X645236D01*
X261614Y243555D02*
X288386D01*
Y173083D02*
Y243555D01*
X261614Y173083D02*
X288386D01*
X261614D02*
Y243555D01*
X252953Y243476D02*
X260236D01*
D12*
X227657Y313744D02*
Y314500D01*
Y313744D02*
X240256D01*
Y314500D01*
Y318500D02*
Y319256D01*
X227657D02*
X240256D01*
X227657Y318500D02*
Y319256D01*
X233957Y313744D02*
Y319256D01*
X240299Y310500D02*
Y311256D01*
X227701D02*
X240299D01*
X227701Y310500D02*
Y311256D01*
Y305744D02*
Y306500D01*
Y305744D02*
X240299D01*
Y306500D01*
X234000Y305744D02*
Y311256D01*
X721201Y301244D02*
Y302000D01*
Y301244D02*
X733799D01*
Y302000D01*
Y306000D02*
Y306756D01*
X721201D02*
X733799D01*
X721201Y306000D02*
Y306756D01*
X727500Y301244D02*
Y306756D01*
X733799Y315000D02*
Y315756D01*
X721201D02*
X733799D01*
X721201Y315000D02*
Y315756D01*
Y310244D02*
Y311000D01*
Y310244D02*
X733799D01*
Y311000D01*
X727500Y310244D02*
Y315756D01*
X404299Y242000D02*
Y242756D01*
X391701D02*
X404299D01*
X391701Y242000D02*
Y242756D01*
Y237244D02*
Y238000D01*
Y237244D02*
X404299D01*
Y238000D01*
X398000Y237244D02*
Y242756D01*
X404299Y180000D02*
Y180756D01*
X391701D02*
X404299D01*
X391701Y180000D02*
Y180756D01*
Y175244D02*
Y176000D01*
Y175244D02*
X404299D01*
Y176000D01*
X398000Y175244D02*
Y180756D01*
Y165244D02*
Y170756D01*
X404299Y165244D02*
Y166000D01*
X391701Y165244D02*
X404299D01*
X391701D02*
Y166000D01*
Y170000D02*
Y170756D01*
X404299D01*
Y170000D02*
Y170756D01*
X207388Y185500D02*
Y186256D01*
X194790D02*
X207388D01*
X194790Y185500D02*
Y186256D01*
Y180744D02*
Y181500D01*
Y180744D02*
X207388D01*
Y181500D01*
X201089Y180744D02*
Y186256D01*
X699000Y173744D02*
Y179256D01*
X705299Y173744D02*
Y174500D01*
X692701Y173744D02*
X705299D01*
X692701D02*
Y174500D01*
Y178500D02*
Y179256D01*
X705299D01*
Y178500D02*
Y179256D01*
X246299Y101000D02*
Y101756D01*
X233701D02*
X246299D01*
X233701Y101000D02*
Y101756D01*
Y96244D02*
Y97000D01*
Y96244D02*
X246299D01*
Y97000D01*
X240000Y96244D02*
Y101756D01*
X85799Y481000D02*
Y481756D01*
X73201D02*
X85799D01*
X73201Y481000D02*
Y481756D01*
Y476244D02*
Y477000D01*
Y476244D02*
X85799D01*
Y477000D01*
X79500Y476244D02*
Y481756D01*
X212388Y372500D02*
Y373256D01*
X199790D02*
X212388D01*
X199790Y372500D02*
Y373256D01*
Y367744D02*
Y368500D01*
Y367744D02*
X212388D01*
Y368500D01*
X206089Y367744D02*
Y373256D01*
X717201Y91744D02*
Y92500D01*
Y91744D02*
X729799D01*
Y92500D01*
Y96500D02*
Y97256D01*
X717201D02*
X729799D01*
X717201Y96500D02*
Y97256D01*
X723500Y91744D02*
Y97256D01*
X750201Y368244D02*
Y369000D01*
Y368244D02*
X762799D01*
Y369000D01*
Y373000D02*
Y373756D01*
X750201D02*
X762799D01*
X750201Y373000D02*
Y373756D01*
X756500Y368244D02*
Y373756D01*
X729799Y83293D02*
Y84049D01*
X717201D02*
X729799D01*
X717201Y83293D02*
Y84049D01*
Y78537D02*
Y79293D01*
Y78537D02*
X729799D01*
Y79293D01*
X723500Y78537D02*
Y84049D01*
X756201Y182244D02*
Y183000D01*
Y182244D02*
X768799D01*
Y183000D01*
Y187000D02*
Y187756D01*
X756201D02*
X768799D01*
X756201Y187000D02*
Y187756D01*
X762500Y182244D02*
Y187756D01*
X878701Y471244D02*
Y472000D01*
Y471244D02*
X891299D01*
Y472000D01*
Y476000D02*
Y476756D01*
X878701D02*
X891299D01*
X878701Y476000D02*
Y476756D01*
X885000Y471244D02*
Y476756D01*
Y457951D02*
Y463462D01*
X891299Y457951D02*
Y458707D01*
X878701Y457951D02*
X891299D01*
X878701D02*
Y458707D01*
Y462707D02*
Y463462D01*
X891299D01*
Y462707D02*
Y463462D01*
X626744Y112000D02*
X632256D01*
X631500Y118299D02*
X632256D01*
Y105701D02*
Y118299D01*
X631500Y105701D02*
X632256D01*
X626744D02*
X627500D01*
X626744D02*
Y118299D01*
X627500D01*
X646744Y112000D02*
X652256D01*
X651500Y118299D02*
X652256D01*
Y105701D02*
Y118299D01*
X651500Y105701D02*
X652256D01*
X646744D02*
X647500D01*
X646744D02*
Y118299D01*
X647500D01*
X651500Y261244D02*
Y266756D01*
X657799Y261244D02*
Y262000D01*
X645201Y261244D02*
X657799D01*
X645201D02*
Y262000D01*
Y266000D02*
Y266756D01*
X657799D01*
Y266000D02*
Y266756D01*
X666744Y112000D02*
X672256D01*
X671500Y118299D02*
X672256D01*
Y105701D02*
Y118299D01*
X671500Y105701D02*
X672256D01*
X666744D02*
X667500D01*
X666744D02*
Y118299D01*
X667500D01*
X79500Y461951D02*
Y467462D01*
X73201Y466707D02*
Y467462D01*
X85799D01*
Y466707D02*
Y467462D01*
Y461951D02*
Y462707D01*
X73201Y461951D02*
X85799D01*
X73201D02*
Y462707D01*
X194790Y167861D02*
Y168617D01*
Y167861D02*
X207388D01*
Y168617D01*
Y172617D02*
Y173373D01*
X194790D02*
X207388D01*
X194790Y172617D02*
Y173373D01*
X201089Y167861D02*
Y173373D01*
X762500Y168361D02*
Y173873D01*
X768799Y168361D02*
Y169117D01*
X756201Y168361D02*
X768799D01*
X756201D02*
Y169117D01*
Y173117D02*
Y173873D01*
X768799D01*
Y173117D02*
Y173873D01*
X314000Y179744D02*
Y185256D01*
X320299Y179744D02*
Y180500D01*
X307701Y179744D02*
X320299D01*
X307701D02*
Y180500D01*
Y184500D02*
Y185256D01*
X320299D01*
Y184500D02*
Y185256D01*
X381244Y116799D02*
X382000D01*
X381244Y104201D02*
Y116799D01*
Y104201D02*
X382000D01*
X386000D02*
X386756D01*
Y116799D01*
X386000D02*
X386756D01*
X381244Y110500D02*
X386756D01*
X401244D02*
X406756D01*
X406000Y116799D02*
X406756D01*
Y104201D02*
Y116799D01*
X406000Y104201D02*
X406756D01*
X401244D02*
X402000D01*
X401244D02*
Y116799D01*
X402000D01*
X421244Y110500D02*
X426756D01*
X426000Y116799D02*
X426756D01*
Y104201D02*
Y116799D01*
X426000Y104201D02*
X426756D01*
X421244D02*
X422000D01*
X421244D02*
Y116799D01*
X422000D01*
X705299Y171500D02*
Y172256D01*
X692701D02*
X705299D01*
X692701Y171500D02*
Y172256D01*
Y166744D02*
Y167500D01*
Y166744D02*
X705299D01*
Y167500D01*
X699000Y166744D02*
Y172256D01*
X705299Y185500D02*
Y186256D01*
X692701D02*
X705299D01*
X692701Y185500D02*
Y186256D01*
Y180744D02*
Y181500D01*
Y180744D02*
X705299D01*
Y181500D01*
X699000Y180744D02*
Y186256D01*
X636744Y118299D02*
X637500D01*
X636744Y105701D02*
Y118299D01*
Y105701D02*
X637500D01*
X641500D02*
X642256D01*
Y118299D01*
X641500D02*
X642256D01*
X636744Y112000D02*
X642256D01*
X676598Y118299D02*
X677354D01*
X676598Y105701D02*
Y118299D01*
Y105701D02*
X677354D01*
X681354D02*
X682110D01*
Y118299D01*
X681354D02*
X682110D01*
X676598Y112000D02*
X682110D01*
X656744Y118299D02*
X657500D01*
X656744Y105701D02*
Y118299D01*
Y105701D02*
X657500D01*
X661500D02*
X662256D01*
Y118299D01*
X661500D02*
X662256D01*
X656744Y112000D02*
X662256D01*
X320299Y191000D02*
Y191756D01*
X307701D02*
X320299D01*
X307701Y191000D02*
Y191756D01*
Y186244D02*
Y187000D01*
Y186244D02*
X320299D01*
Y187000D01*
X314000Y186244D02*
Y191756D01*
X320299Y178000D02*
Y178756D01*
X307701D02*
X320299D01*
X307701Y178000D02*
Y178756D01*
Y173244D02*
Y174000D01*
Y173244D02*
X320299D01*
Y174000D01*
X314000Y173244D02*
Y178756D01*
X296201Y261244D02*
Y262000D01*
Y261244D02*
X308799D01*
Y262000D01*
Y266000D02*
Y266756D01*
X296201D02*
X308799D01*
X296201Y266000D02*
Y266756D01*
X302500Y261244D02*
Y266756D01*
X762799Y360095D02*
Y360851D01*
X750201D02*
X762799D01*
X750201Y360095D02*
Y360851D01*
Y355340D02*
Y356095D01*
Y355340D02*
X762799D01*
Y356095D01*
X756500Y355340D02*
Y360851D01*
X411244Y116799D02*
X412000D01*
X411244Y104201D02*
Y116799D01*
Y104201D02*
X412000D01*
X416000D02*
X416756D01*
Y116799D01*
X416000D02*
X416756D01*
X411244Y110500D02*
X416756D01*
X233701Y83037D02*
Y83793D01*
Y83037D02*
X246299D01*
Y83793D01*
Y87793D02*
Y88549D01*
X233701D02*
X246299D01*
X233701Y87793D02*
Y88549D01*
X240000Y83037D02*
Y88549D01*
X391244Y116799D02*
X392000D01*
X391244Y104201D02*
Y116799D01*
Y104201D02*
X392000D01*
X396000D02*
X396756D01*
Y116799D01*
X396000D02*
X396756D01*
X391244Y110500D02*
X396756D01*
X199790Y354244D02*
Y355000D01*
Y354244D02*
X212388D01*
Y355000D01*
Y359000D02*
Y359756D01*
X199790D02*
X212388D01*
X199790Y359000D02*
Y359756D01*
X206089Y354244D02*
Y359756D01*
X370890Y116799D02*
X371646D01*
X370890Y104201D02*
Y116799D01*
Y104201D02*
X371646D01*
X375646D02*
X376402D01*
Y116799D01*
X375646D02*
X376402D01*
X370890Y110500D02*
X376402D01*
X398000Y205244D02*
Y210756D01*
X404299Y205244D02*
Y206000D01*
X391701Y205244D02*
X404299D01*
X391701D02*
Y206000D01*
Y210000D02*
Y210756D01*
X404299D01*
Y210000D02*
Y210756D01*
X398000Y215244D02*
Y220756D01*
X404299Y215244D02*
Y216000D01*
X391701Y215244D02*
X404299D01*
X391701D02*
Y216000D01*
Y220000D02*
Y220756D01*
X404299D01*
Y220000D02*
Y220756D01*
X398000Y185244D02*
Y190756D01*
X404299Y185244D02*
Y186000D01*
X391701Y185244D02*
X404299D01*
X391701D02*
Y186000D01*
Y190000D02*
Y190756D01*
X404299D01*
Y190000D02*
Y190756D01*
X398000Y195244D02*
Y200756D01*
X404299Y195244D02*
Y196000D01*
X391701Y195244D02*
X404299D01*
X391701D02*
Y196000D01*
Y200000D02*
Y200756D01*
X404299D01*
Y200000D02*
Y200756D01*
X398000Y247244D02*
Y252756D01*
X404299Y247244D02*
Y248000D01*
X391701Y247244D02*
X404299D01*
X391701D02*
Y248000D01*
Y252000D02*
Y252756D01*
X404299D01*
Y252000D02*
Y252756D01*
X398000Y257244D02*
Y262756D01*
X404299Y257244D02*
Y258000D01*
X391701Y257244D02*
X404299D01*
X391701D02*
Y258000D01*
Y262000D02*
Y262756D01*
X404299D01*
Y262000D02*
Y262756D01*
X398000Y227244D02*
Y232756D01*
X404299Y227244D02*
Y228000D01*
X391701Y227244D02*
X404299D01*
X391701D02*
Y228000D01*
Y232000D02*
Y232756D01*
X404299D01*
Y232000D02*
Y232756D01*
D13*
X496000Y254500D02*
Y258000D01*
X472500Y254500D02*
Y258000D01*
X484000Y242500D02*
X484500D01*
X486750Y244750D02*
X487500Y245500D01*
X484500Y242500D02*
X485250Y243250D01*
X486750Y244750D01*
X486500Y245500D02*
X487500D01*
X481000D02*
X486500D01*
X481000D02*
X484000Y242500D01*
X467500Y249000D02*
Y257000D01*
X472500Y262000D01*
X477500Y257000D01*
Y252500D02*
Y257000D01*
Y252500D02*
X479500Y250500D01*
X489000D01*
X491000Y252500D01*
Y257000D01*
X496000Y262000D01*
X501000Y257000D01*
Y249000D02*
Y257000D01*
Y239000D02*
Y249000D01*
X493000Y231000D02*
X501000Y239000D01*
X467500D02*
X475500Y231000D01*
X467500Y239000D02*
Y249000D01*
X469500Y256500D02*
X472500Y259500D01*
X469500Y253500D02*
Y256500D01*
Y253500D02*
X475500D01*
Y256500D01*
X472500Y259500D02*
X475500Y256500D01*
X493000D02*
X496000Y259500D01*
X493000Y253500D02*
Y256500D01*
Y253500D02*
X499000D01*
Y256500D01*
X496000Y259500D02*
X499000Y256500D01*
X472500Y239000D02*
X477500Y234000D01*
X490500D02*
X495500Y239000D01*
X472500D02*
X495500D01*
X482500Y236000D02*
X487500D01*
X481000Y229500D02*
X487500Y236000D01*
X481000Y229500D02*
X485000D01*
X478000Y222500D02*
X485000Y229500D01*
X478000Y222500D02*
X480000D01*
X474000Y216500D02*
X480000Y222500D01*
X474000Y216500D02*
Y221500D01*
Y222500D01*
X475500D01*
X480000Y227000D01*
X474000D02*
X479000D01*
X480000D01*
X476500Y230000D02*
X482500Y236000D01*
X474000Y227500D02*
X476500Y230000D01*
X474000Y227000D02*
Y227500D01*
X477500Y234000D02*
X480500D01*
X475500Y231000D02*
X477500D01*
X482500D02*
X493000D01*
X485500Y234000D02*
X490500D01*
D14*
X615152Y71000D02*
X616818D01*
X615985D01*
Y75998D01*
X615152Y75165D01*
X622649Y71000D02*
X619317D01*
X622649Y74332D01*
Y75165D01*
X621816Y75998D01*
X620150D01*
X619317Y75165D01*
X616000Y81000D02*
X617666D01*
X616833D01*
Y85998D01*
X616000Y85165D01*
X620165Y81000D02*
X621832D01*
X620998D01*
Y85998D01*
X620165Y85165D01*
X687112Y81000D02*
X688778D01*
X687945D01*
Y85998D01*
X687112Y85165D01*
X689832Y71000D02*
X686500D01*
X689832Y74332D01*
Y75165D01*
X688999Y75998D01*
X687333D01*
X686500Y75165D01*
X359000Y71500D02*
X360666D01*
X359833D01*
Y76498D01*
X359000Y75665D01*
X366498Y71500D02*
X363165D01*
X366498Y74832D01*
Y75665D01*
X365665Y76498D01*
X363998D01*
X363165Y75665D01*
X361047Y81000D02*
X362713D01*
X361880D01*
Y85998D01*
X361047Y85165D01*
X365212Y81000D02*
X366878D01*
X366045D01*
Y85998D01*
X365212Y85165D01*
X433000Y81000D02*
X434666D01*
X433833D01*
Y85998D01*
X433000Y85165D01*
X435832Y71000D02*
X432500D01*
X435832Y74332D01*
Y75165D01*
X434999Y75998D01*
X433333D01*
X432500Y75165D01*
X482355Y162839D02*
X487353D01*
X484854Y165339D01*
Y162006D01*
X476678Y165732D02*
X477511Y164899D01*
Y163233D01*
X476678Y162400D01*
X475845D01*
X475012Y163233D01*
Y164066D01*
Y163233D01*
X474179Y162400D01*
X473345D01*
X472512Y163233D01*
Y164899D01*
X473345Y165732D01*
X482355Y189565D02*
Y192897D01*
X485687Y189565D01*
X486520D01*
X487353Y190398D01*
Y192064D01*
X486520Y192897D01*
X472512Y190929D02*
Y189263D01*
Y190096D01*
X477511D01*
X476678Y190929D01*
X518478Y352862D02*
X515146D01*
X518478Y356194D01*
Y357028D01*
X517645Y357861D01*
X515979D01*
X515146Y357028D01*
X517114Y343020D02*
X518780D01*
X517947D01*
Y348018D01*
X517114Y347185D01*
X562705Y357028D02*
X563538Y357861D01*
X565204D01*
X566037Y357028D01*
Y356194D01*
X565204Y355361D01*
X566037Y354528D01*
Y353695D01*
X565204Y352862D01*
X563538D01*
X562705Y353695D01*
Y354528D01*
X563538Y355361D01*
X562705Y356194D01*
Y357028D01*
X563538Y355361D02*
X565204D01*
X562311Y348018D02*
X565643D01*
Y347185D01*
X562311Y343853D01*
Y343020D01*
X751500Y307925D02*
X752333Y307091D01*
X753999D01*
X754832Y307925D01*
Y311257D01*
X753999Y312090D01*
X752333D01*
X751500Y311257D01*
Y310424D01*
X752333Y309591D01*
X754832D01*
X759000Y307091D02*
X760666D01*
X759833D01*
Y312090D01*
X759000Y311257D01*
X763165D02*
X763998Y312090D01*
X765664D01*
X766498Y311257D01*
Y307925D01*
X765664Y307091D01*
X763998D01*
X763165Y307925D01*
Y311257D01*
X764832Y247410D02*
X761500D01*
X764832Y250742D01*
Y251575D01*
X763999Y252408D01*
X762333D01*
X761500Y251575D01*
X752000Y247410D02*
X753666D01*
X752833D01*
Y252408D01*
X752000Y251575D01*
X210000Y253833D02*
X210833Y253000D01*
X212499D01*
X213332Y253833D01*
Y257165D01*
X212499Y257998D01*
X210833D01*
X210000Y257165D01*
Y256332D01*
X210833Y255499D01*
X213332D01*
X197500Y253000D02*
X199166D01*
X198333D01*
Y257998D01*
X197500Y257165D01*
X201665D02*
X202498Y257998D01*
X204165D01*
X204998Y257165D01*
Y253833D01*
X204165Y253000D01*
X202498D01*
X201665Y253833D01*
Y257165D01*
X202332Y313000D02*
X199000D01*
X202332Y316332D01*
Y317165D01*
X201499Y317998D01*
X199833D01*
X199000Y317165D01*
X210500Y313000D02*
X212166D01*
X211333D01*
Y317998D01*
X210500Y317165D01*
X347143Y76018D02*
X343811D01*
Y73519D01*
X345477Y74352D01*
X346310D01*
X347143Y73519D01*
Y71853D01*
X346310Y71020D01*
X344644D01*
X343811Y71853D01*
X347537Y85861D02*
X345871Y85027D01*
X344205Y83361D01*
Y81695D01*
X345038Y80862D01*
X346704D01*
X347537Y81695D01*
Y82528D01*
X346704Y83361D01*
X344205D01*
X309978Y80862D02*
X306646D01*
X309978Y84194D01*
Y85027D01*
X309145Y85861D01*
X307479D01*
X306646Y85027D01*
X308614Y71020D02*
X310280D01*
X309447D01*
Y76018D01*
X308614Y75185D01*
M02*
