G04*
G04 #@! TF.GenerationSoftware,Altium Limited,Altium Designer,18.1.11 (251)*
G04*
G04 Layer_Color=16711935*
%FSLAX25Y25*%
%MOIN*%
G70*
G01*
G75*
%ADD10C,0.01000*%
D10*
X456326Y353554D02*
X456846Y350285D01*
X457781Y347110D01*
X459115Y344080D01*
X460826Y341247D01*
X462886Y338656D01*
X465261Y336350D01*
X467911Y334368D01*
X470794Y332741D01*
X473861Y331497D01*
X477063Y330656D01*
X480345Y330232D01*
X483655D01*
X486938Y330656D01*
X490139Y331497D01*
X493206Y332741D01*
X496089Y334368D01*
X498739Y336350D01*
X501114Y338656D01*
X503174Y341247D01*
X504885Y344080D01*
X506219Y347110D01*
X507154Y350285D01*
X507674Y353554D01*
X508168Y356594D01*
X509064Y359541D01*
X510346Y362342D01*
X511992Y364945D01*
X513971Y367305D01*
X516249Y369379D01*
X518784Y371129D01*
X521530Y372524D01*
X524438Y373539D01*
X527456Y374155D01*
X530530Y374362D01*
X584238D01*
X603176Y374384D01*
X622106Y374930D01*
X641013Y375998D01*
X659884Y377587D01*
X670406Y378856D01*
X680862Y380591D01*
X691230Y382787D01*
X701491Y385442D01*
X711624Y388549D01*
X721608Y392102D01*
X727613Y394618D01*
X733440Y397522D01*
X739065Y400801D01*
X744462Y404440D01*
X749611Y408426D01*
X754487Y412739D01*
X759070Y417362D01*
X763342Y422276D01*
X767282Y427458D01*
X770875Y432888D01*
X774105Y438540D01*
X786082Y460671D01*
X789763Y466815D01*
X793855Y472693D01*
X798338Y478278D01*
X803192Y483544D01*
X808393Y488467D01*
X813918Y493024D01*
X819741Y497194D01*
X825160Y500548D01*
X830789Y503537D01*
X836602Y506149D01*
X842575Y508371D01*
X848682Y510194D01*
X854896Y511610D01*
X861190Y512613D01*
X867536Y513198D01*
X877479Y513522D01*
X887425Y513322D01*
X897347Y512597D01*
X907216Y511351D01*
X917007Y509586D01*
X922476Y508233D01*
X927828Y506472D01*
X933033Y504314D01*
X938060Y501769D01*
X942881Y498853D01*
X947468Y495582D01*
X951797Y491975D01*
X954354Y489381D01*
X956582Y486498D01*
X958449Y483369D01*
X959926Y480039D01*
X960993Y476555D01*
X961635Y472969D01*
X961842Y469332D01*
X961611Y465696D02*
X961842Y469332D01*
X960946Y462113D02*
X961611Y465696D01*
X959856Y458637D02*
X960946Y462113D01*
X958356Y455316D02*
X959856Y458637D01*
X956470Y452200D02*
X958356Y455316D01*
X954223Y449332D02*
X956470Y452200D01*
X951648Y446754D02*
X954223Y449332D01*
X948783Y444504D02*
X951648Y446754D01*
X945668Y442614D02*
X948783Y444504D01*
X942349Y441110D02*
X945668Y442614D01*
X938874Y440016D02*
X942349Y441110D01*
X935293Y439347D02*
X938874Y440016D01*
X931657Y439112D02*
X935293Y439347D01*
X928019Y439315D02*
X931657Y439112D01*
X921236Y439795D02*
X928019Y439315D01*
X914437Y439664D02*
X921236Y439795D01*
X910640Y439669D02*
X914437Y439664D01*
X906877Y440175D02*
X910640Y439669D01*
X903212Y441171D02*
X906877Y440175D01*
X899711Y442641D02*
X903212Y441171D01*
X896434Y444558D02*
X899711Y442641D01*
X892014Y447236D02*
X896434Y444558D01*
X887346Y449453D02*
X892014Y447236D01*
X882477Y451187D02*
X887346Y449453D01*
X875830Y452886D02*
X882477Y451187D01*
X869066Y454031D02*
X875830Y452886D01*
X865694Y454232D02*
X869066Y454031D01*
X862325Y453982D02*
X865694Y454232D01*
X859020Y453284D02*
X862325Y453982D01*
X855837Y452152D02*
X859020Y453284D01*
X852834Y450605D02*
X855837Y452152D01*
X847281Y446834D02*
X852834Y450605D01*
X842168Y442485D02*
X847281Y446834D01*
X839129Y439216D02*
X842168Y442485D01*
X836523Y435592D02*
X839129Y439216D01*
X834393Y431669D02*
X836523Y435592D01*
X830184Y422024D02*
X834393Y431669D01*
X826427Y412194D02*
X830184Y422024D01*
X824645Y406090D02*
X826427Y412194D01*
X823580Y399821D02*
X824645Y406090D01*
X821036Y375309D02*
X823580Y399821D01*
X820750Y369273D02*
X821036Y375309D01*
X820750Y369273D02*
X821057Y363237D01*
X821955Y357261D01*
X823378Y351359D01*
X825247Y345584D01*
X827554Y339969D01*
X830283Y334547D01*
X833419Y329350D01*
X836944Y324408D01*
X840837Y319750D01*
X841560Y318755D01*
X842055Y317628D01*
X842301Y316423D01*
X842286Y315192D02*
X842301Y316423D01*
X842010Y313993D02*
X842286Y315192D01*
X841487Y312880D02*
X842010Y313993D01*
X840740Y311902D02*
X841487Y312880D01*
X839803Y311104D02*
X840740Y311902D01*
X838719Y310523D02*
X839803Y311104D01*
X837536Y310185D02*
X838719Y310523D01*
X836308Y310105D02*
X837536Y310185D01*
X835091Y310287D02*
X836308Y310105D01*
X833940Y310722D02*
X835091Y310287D01*
X832908Y311392D02*
X833940Y310722D01*
X829778Y313673D02*
X832908Y311392D01*
X826430Y315618D02*
X829778Y313673D01*
X822898Y317207D02*
X826430Y315618D01*
X819221Y318422D02*
X822898Y317207D01*
X815438Y319250D02*
X819221Y318422D01*
X811589Y319683D02*
X815438Y319250D01*
X807716Y319715D02*
X811589Y319683D01*
X803861Y319347D02*
X807716Y319715D01*
X800065Y318582D02*
X803861Y319347D01*
X796368Y317429D02*
X800065Y318582D01*
X792810Y315899D02*
X796368Y317429D01*
X789429Y314010D02*
X792810Y315899D01*
X786262Y311781D02*
X789429Y314010D01*
X783343Y309237D02*
X786262Y311781D01*
X780702Y306405D02*
X783343Y309237D01*
X778368Y303314D02*
X780702Y306405D01*
X776366Y299999D02*
X778368Y303314D01*
X774717Y296495D02*
X776366Y299999D01*
X773440Y292839D02*
X774717Y296495D01*
X772548Y289070D02*
X773440Y292839D01*
X772050Y285229D02*
X772548Y289070D01*
X771952Y281358D02*
X772050Y285229D01*
X771952Y281358D02*
X772255Y277497D01*
X772956Y273688D01*
X774046Y269972D01*
X775515Y266389D01*
X777347Y262977D01*
X779522Y259772D01*
X782016Y256810D01*
X784803Y254121D01*
X787854Y251735D01*
X791134Y249678D01*
X794610Y247970D01*
X798244Y246631D01*
X801997Y245675D01*
X805829Y245113D01*
X809698Y244949D01*
X813563Y245186D01*
X817384Y245822D01*
X821117Y246850D01*
X823780Y247341D01*
X826475Y247088D01*
X829223Y246223D01*
X831815Y244967D01*
X834196Y243347D01*
X836315Y241396D01*
X838127Y239156D01*
X839592Y236677D01*
X840680Y234010D01*
X841367Y231212D01*
X841638Y228345D01*
X841489Y225468D02*
X841638Y228345D01*
X840921Y222645D02*
X841489Y225468D01*
X839947Y219934D02*
X840921Y222645D01*
X837507Y213663D02*
X839947Y219934D01*
X835670Y207190D02*
X837507Y213663D01*
X834452Y200573D02*
X835670Y207190D01*
X831630Y183026D02*
X834452Y200573D01*
X827951Y165639D02*
X831630Y183026D01*
X826112Y157909D02*
X827951Y165639D01*
X823374Y147615D02*
X826112Y157909D01*
X820112Y137475D02*
X823374Y147615D01*
X816334Y127516D02*
X820112Y137475D01*
X812050Y117763D02*
X816334Y127516D01*
X789888Y74741D02*
X812050Y117763D01*
X787719Y70966D02*
X789888Y74741D01*
X785187Y67426D02*
X787719Y70966D01*
X782315Y64154D02*
X785187Y67426D01*
X779133Y61183D02*
X782315Y64154D01*
X775672Y58543D02*
X779133Y61183D01*
X771966Y56259D02*
X775672Y58543D01*
X768051Y54354D02*
X771966Y56259D01*
X763967Y52848D02*
X768051Y54354D01*
X759753Y51754D02*
X763967Y52848D01*
X755452Y51083D02*
X759753Y51754D01*
X751105Y50843D02*
X755452Y51083D01*
X746756Y51035D02*
X751105Y50843D01*
X742448Y51659D02*
X746756Y51035D01*
X738223Y52706D02*
X742448Y51659D01*
X734122Y54168D02*
X738223Y52706D01*
X730187Y56029D02*
X734122Y54168D01*
X725792Y58046D02*
X730187Y56029D01*
X721183Y59508D02*
X725792Y58046D01*
X716430Y60394D02*
X721183Y59508D01*
X711604Y60691D02*
X716430Y60394D01*
X530634Y60691D02*
X711604D01*
X527505Y60905D02*
X530634Y60691D01*
X524436Y61543D02*
X527505Y60905D01*
X521481Y62594D02*
X524436Y61543D01*
X518698Y64038D02*
X521481Y62594D01*
X516137Y65847D02*
X518698Y64038D01*
X513847Y67989D02*
X516137Y65847D01*
X511870Y70422D02*
X513847Y67989D01*
X510243Y73103D02*
X511870Y70422D01*
X508996Y75980D02*
X510243Y73103D01*
X508153Y79000D02*
X508996Y75980D01*
X507729Y82106D02*
X508153Y79000D01*
X507311Y85308D02*
X507729Y82106D01*
X506497Y88433D02*
X507311Y85308D01*
X505298Y91431D02*
X506497Y88433D01*
X503733Y94256D02*
X505298Y91431D01*
X501828Y96864D02*
X503733Y94256D01*
X499612Y99212D02*
X501828Y96864D01*
X497120Y101266D02*
X499612Y99212D01*
X494391Y102992D02*
X497120Y101266D01*
X491467Y104363D02*
X494391Y102992D01*
X488395Y105358D02*
X491467Y104363D01*
X485223Y105961D02*
X488395Y105358D01*
X482000Y106163D02*
X485223Y105961D01*
X478777D02*
X482000Y106163D01*
X475605Y105358D02*
X478777Y105961D01*
X472533Y104363D02*
X475605Y105358D01*
X469610Y102992D02*
X472533Y104363D01*
X466880Y101266D02*
X469610Y102992D01*
X464388Y99212D02*
X466880Y101266D01*
X462172Y96864D02*
X464388Y99212D01*
X460267Y94256D02*
X462172Y96864D01*
X458703Y91431D02*
X460267Y94256D01*
X457504Y88433D02*
X458703Y91431D01*
X456689Y85308D02*
X457504Y88433D01*
X456271Y82106D02*
X456689Y85308D01*
X455847Y79000D02*
X456271Y82106D01*
X455004Y75980D02*
X455847Y79000D01*
X453758Y73103D02*
X455004Y75980D01*
X452131Y70422D02*
X453758Y73103D01*
X450153Y67989D02*
X452131Y70422D01*
X447863Y65847D02*
X450153Y67989D01*
X445302Y64038D02*
X447863Y65847D01*
X442519Y62594D02*
X445302Y64038D01*
X439565Y61543D02*
X442519Y62594D01*
X436495Y60905D02*
X439565Y61543D01*
X433367Y60691D02*
X436495Y60905D01*
X252396Y60691D02*
X433367D01*
X247570Y60394D02*
X252396Y60691D01*
X242817Y59508D02*
X247570Y60394D01*
X238208Y58046D02*
X242817Y59508D01*
X233813Y56029D02*
X238208Y58046D01*
X229878Y54168D02*
X233813Y56029D01*
X225778Y52706D02*
X229878Y54168D01*
X221552Y51659D02*
X225778Y52706D01*
X217244Y51035D02*
X221552Y51659D01*
X212895Y50843D02*
X217244Y51035D01*
X208548Y51083D02*
X212895Y50843D01*
X204247Y51754D02*
X208548Y51083D01*
X200033Y52848D02*
X204247Y51754D01*
X195949Y54354D02*
X200033Y52848D01*
X192035Y56259D02*
X195949Y54354D01*
X188328Y58543D02*
X192035Y56259D01*
X184867Y61183D02*
X188328Y58543D01*
X181685Y64154D02*
X184867Y61183D01*
X178814Y67426D02*
X181685Y64154D01*
X176281Y70966D02*
X178814Y67426D01*
X174112Y74741D02*
X176281Y70966D01*
X151950Y117763D02*
X174112Y74741D01*
X147666Y127516D02*
X151950Y117763D01*
X143888Y137475D02*
X147666Y127516D01*
X140626Y147615D02*
X143888Y137475D01*
X137889Y157909D02*
X140626Y147615D01*
X136049Y165639D02*
X137889Y157909D01*
X132370Y183026D02*
X136049Y165639D01*
X129548Y200573D02*
X132370Y183026D01*
X128330Y207190D02*
X129548Y200573D01*
X126493Y213663D02*
X128330Y207190D01*
X124054Y219934D02*
X126493Y213663D01*
X123080Y222645D02*
X124054Y219934D01*
X122512Y225468D02*
X123080Y222645D01*
X122362Y228345D02*
X122512Y225468D01*
X122362Y228345D02*
X122633Y231212D01*
X123320Y234010D01*
X124408Y236677D01*
X125874Y239156D01*
X127685Y241396D01*
X129804Y243347D01*
X132185Y244967D01*
X134777Y246223D01*
X137525Y247088D01*
X140220Y247341D01*
X142883Y246850D01*
X146617Y245822D01*
X150437Y245186D01*
X154302Y244949D01*
X158171Y245113D01*
X162003Y245675D01*
X165756Y246631D01*
X169390Y247970D01*
X172866Y249678D01*
X176147Y251735D01*
X179197Y254121D01*
X181984Y256810D01*
X184479Y259772D01*
X186653Y262977D01*
X188485Y266389D01*
X189954Y269972D01*
X191045Y273688D01*
X191745Y277497D01*
X192048Y281358D01*
X191950Y285229D02*
X192048Y281358D01*
X191452Y289070D02*
X191950Y285229D01*
X190560Y292839D02*
X191452Y289070D01*
X189283Y296495D02*
X190560Y292839D01*
X187635Y299999D02*
X189283Y296495D01*
X185633Y303314D02*
X187635Y299999D01*
X183299Y306405D02*
X185633Y303314D01*
X180658Y309237D02*
X183299Y306405D01*
X177738Y311781D02*
X180658Y309237D01*
X174571Y314010D02*
X177738Y311781D01*
X171190Y315899D02*
X174571Y314010D01*
X167632Y317429D02*
X171190Y315899D01*
X163935Y318582D02*
X167632Y317429D01*
X160139Y319347D02*
X163935Y318582D01*
X156284Y319715D02*
X160139Y319347D01*
X152411Y319683D02*
X156284Y319715D01*
X148563Y319250D02*
X152411Y319683D01*
X144780Y318422D02*
X148563Y319250D01*
X141102Y317207D02*
X144780Y318422D01*
X137571Y315618D02*
X141102Y317207D01*
X134222Y313673D02*
X137571Y315618D01*
X131093Y311392D02*
X134222Y313673D01*
X130060Y310722D02*
X131093Y311392D01*
X128909Y310287D02*
X130060Y310722D01*
X127692Y310105D02*
X128909Y310287D01*
X126464Y310185D02*
X127692Y310105D01*
X125281Y310523D02*
X126464Y310185D01*
X124197Y311104D02*
X125281Y310523D01*
X123260Y311902D02*
X124197Y311104D01*
X122513Y312880D02*
X123260Y311902D01*
X121990Y313993D02*
X122513Y312880D01*
X121715Y315192D02*
X121990Y313993D01*
X121700Y316423D02*
X121715Y315192D01*
X121700Y316423D02*
X121945Y317628D01*
X122441Y318755D01*
X123163Y319750D01*
X127056Y324408D01*
X130581Y329350D01*
X133717Y334547D01*
X136446Y339969D01*
X138753Y345584D01*
X140623Y351359D01*
X142045Y357261D01*
X142943Y363237D01*
X143250Y369273D01*
X142965Y375309D02*
X143250Y369273D01*
X140420Y399821D02*
X142965Y375309D01*
X139355Y406090D02*
X140420Y399821D01*
X137573Y412194D02*
X139355Y406090D01*
X133816Y422024D02*
X137573Y412194D01*
X129607Y431669D02*
X133816Y422024D01*
X127477Y435592D02*
X129607Y431669D01*
X124871Y439216D02*
X127477Y435592D01*
X121832Y442485D02*
X124871Y439216D01*
X116719Y446834D02*
X121832Y442485D01*
X111166Y450605D02*
X116719Y446834D01*
X108163Y452152D02*
X111166Y450605D01*
X104980Y453284D02*
X108163Y452152D01*
X101675Y453982D02*
X104980Y453284D01*
X98306Y454232D02*
X101675Y453982D01*
X94934Y454031D02*
X98306Y454232D01*
X88170Y452886D02*
X94934Y454031D01*
X81523Y451187D02*
X88170Y452886D01*
X76655Y449453D02*
X81523Y451187D01*
X71986Y447236D02*
X76655Y449453D01*
X67566Y444558D02*
X71986Y447236D01*
X64289Y442641D02*
X67566Y444558D01*
X60788Y441171D02*
X64289Y442641D01*
X57124Y440175D02*
X60788Y441171D01*
X53360Y439669D02*
X57124Y440175D01*
X49563Y439664D02*
X53360Y439669D01*
X42764Y439795D02*
X49563Y439664D01*
X35981Y439315D02*
X42764Y439795D01*
X32343Y439112D02*
X35981Y439315D01*
X28707Y439347D02*
X32343Y439112D01*
X25126Y440016D02*
X28707Y439347D01*
X21651Y441110D02*
X25126Y440016D01*
X18332Y442614D02*
X21651Y441110D01*
X15218Y444504D02*
X18332Y442614D01*
X12352Y446754D02*
X15218Y444504D01*
X9777Y449332D02*
X12352Y446754D01*
X7531Y452200D02*
X9777Y449332D01*
X5644Y455316D02*
X7531Y452200D01*
X4144Y458637D02*
X5644Y455316D01*
X3054Y462113D02*
X4144Y458637D01*
X2389Y465696D02*
X3054Y462113D01*
X2158Y469332D02*
X2389Y465696D01*
X2158Y469332D02*
X2365Y472969D01*
X3007Y476555D01*
X4074Y480039D01*
X5552Y483369D01*
X7418Y486498D01*
X9646Y489381D01*
X12204Y491975D01*
X16532Y495582D01*
X21120Y498853D01*
X25941Y501769D01*
X30968Y504314D01*
X36172Y506472D01*
X41524Y508233D01*
X46993Y509586D01*
X56784Y511351D01*
X66653Y512597D01*
X76575Y513322D01*
X86521Y513522D01*
X96464Y513198D01*
X102810Y512613D01*
X109104Y511610D01*
X115318Y510194D01*
X121425Y508371D01*
X127398Y506149D01*
X133212Y503537D01*
X138840Y500548D01*
X144259Y497194D01*
X150082Y493024D01*
X155607Y488467D01*
X160809Y483544D01*
X165662Y478278D01*
X170145Y472693D01*
X174237Y466815D01*
X177918Y460671D01*
X189895Y438540D01*
X193125Y432888D01*
X196718Y427458D01*
X200659Y422276D01*
X204930Y417362D01*
X209513Y412739D01*
X214390Y408426D01*
X219538Y404440D01*
X224936Y400801D01*
X230560Y397522D01*
X236387Y394618D01*
X242392Y392102D01*
X252377Y388549D01*
X262510Y385442D01*
X272770Y382787D01*
X283139Y380591D01*
X293594Y378856D01*
X304116Y377587D01*
X322987Y375998D01*
X341895Y374930D01*
X360824Y374384D01*
X379762Y374362D01*
X433471D01*
X436544Y374155D01*
X439562Y373539D01*
X442470Y372524D01*
X445216Y371129D01*
X447751Y369379D01*
X450029Y367305D01*
X452008Y364945D01*
X453654Y362342D01*
X454937Y359541D01*
X455833Y356594D01*
X456326Y353554D01*
X627122Y149274D02*
Y287069D01*
X626918Y290301D02*
X627122Y287069D01*
X626312Y293482D02*
X626918Y290301D01*
X625311Y296562D02*
X626312Y293482D01*
X623932Y299492D02*
X625311Y296562D01*
X622197Y302226D02*
X623932Y299492D01*
X620133Y304722D02*
X622197Y302226D01*
X617772Y306938D02*
X620133Y304722D01*
X615152Y308842D02*
X617772Y306938D01*
X612314Y310402D02*
X615152Y308842D01*
X609303Y311594D02*
X612314Y310402D01*
X606166Y312399D02*
X609303Y311594D01*
X602954Y312805D02*
X606166Y312399D01*
X599715Y312805D02*
X602954D01*
X596502Y312399D02*
X599715Y312805D01*
X593366Y311594D02*
X596502Y312399D01*
X590355Y310402D02*
X593366Y311594D01*
X587517Y308842D02*
X590355Y310402D01*
X584897Y306938D02*
X587517Y308842D01*
X582536Y304722D02*
X584897Y306938D01*
X580472Y302226D02*
X582536Y304722D01*
X578737Y299492D02*
X580472Y302226D01*
X577358Y296562D02*
X578737Y299492D01*
X576357Y293482D02*
X577358Y296562D01*
X575750Y290301D02*
X576357Y293482D01*
X575547Y287069D02*
X575750Y290301D01*
X575547Y149274D02*
Y287069D01*
Y149274D02*
X575750Y146042D01*
X576357Y142861D01*
X577358Y139781D01*
X578737Y136850D01*
X580472Y134116D01*
X582536Y131621D01*
X584897Y129404D01*
X587517Y127501D01*
X590355Y125940D01*
X593366Y124748D01*
X596502Y123943D01*
X599715Y123537D01*
X602954D01*
X606166Y123943D01*
X609303Y124748D01*
X612314Y125940D01*
X615152Y127501D01*
X617772Y129404D01*
X620133Y131621D01*
X622197Y134116D01*
X623932Y136850D01*
X625311Y139781D01*
X626312Y142861D01*
X626918Y146042D01*
X627122Y149274D01*
X336879D02*
Y287069D01*
Y149274D02*
X337082Y146042D01*
X337689Y142861D01*
X338689Y139781D01*
X340068Y136850D01*
X341803Y134116D01*
X343868Y131621D01*
X346228Y129404D01*
X348848Y127501D01*
X351686Y125940D01*
X354697Y124748D01*
X357834Y123943D01*
X361047Y123537D01*
X364285D01*
X367498Y123943D01*
X370635Y124748D01*
X373646Y125940D01*
X376483Y127501D01*
X379103Y129404D01*
X381464Y131621D01*
X383528Y134116D01*
X385264Y136850D01*
X386642Y139781D01*
X387643Y142861D01*
X388250Y146042D01*
X388453Y149274D01*
Y287069D01*
X388250Y290301D02*
X388453Y287069D01*
X387643Y293482D02*
X388250Y290301D01*
X386642Y296562D02*
X387643Y293482D01*
X385264Y299492D02*
X386642Y296562D01*
X383528Y302226D02*
X385264Y299492D01*
X381464Y304722D02*
X383528Y302226D01*
X379103Y306938D02*
X381464Y304722D01*
X376483Y308842D02*
X379103Y306938D01*
X373646Y310402D02*
X376483Y308842D01*
X370635Y311594D02*
X373646Y310402D01*
X367498Y312399D02*
X370635Y311594D01*
X364285Y312805D02*
X367498Y312399D01*
X361047Y312805D02*
X364285D01*
X357834Y312399D02*
X361047Y312805D01*
X354697Y311594D02*
X357834Y312399D01*
X351686Y310402D02*
X354697Y311594D01*
X348848Y308842D02*
X351686Y310402D01*
X346228Y306938D02*
X348848Y308842D01*
X343868Y304722D02*
X346228Y306938D01*
X341803Y302226D02*
X343868Y304722D01*
X340068Y299492D02*
X341803Y302226D01*
X338689Y296562D02*
X340068Y299492D01*
X337689Y293482D02*
X338689Y296562D01*
X337082Y290301D02*
X337689Y293482D01*
X336879Y287069D02*
X337082Y290301D01*
M02*
