G04*
G04 #@! TF.GenerationSoftware,Altium Limited,Altium Designer,18.1.11 (251)*
G04*
G04 Layer_Color=16711935*
%FSLAX25Y25*%
%MOIN*%
G70*
G01*
G75*
%ADD11C,0.00787*%
%ADD37C,0.00394*%
D11*
X624500Y68500D02*
X684500D01*
X624500D02*
Y88500D01*
X684500D01*
Y68500D02*
Y88500D01*
X369000Y68500D02*
X429000D01*
X369000D02*
Y88500D01*
X429000D01*
Y68500D02*
Y88500D01*
X469993Y187543D02*
X489993D01*
X469993Y167543D02*
Y187543D01*
Y167543D02*
X489993D01*
Y187543D01*
X520500Y340500D02*
Y360500D01*
Y340500D02*
X560500D01*
Y360500D01*
X520500D02*
X560500D01*
X747912Y254421D02*
X767912D01*
X747912D02*
Y304421D01*
X767912D01*
Y254421D02*
Y304421D01*
X196089Y310329D02*
X216089D01*
Y260329D02*
Y310329D01*
X196089Y260329D02*
X216089D01*
X196089D02*
Y310329D01*
X312000Y68500D02*
Y88500D01*
Y68500D02*
X342000D01*
Y88500D01*
X312000D02*
X342000D01*
D37*
X230512Y314630D02*
X237402D01*
X230512Y318370D02*
X237402D01*
Y314630D02*
Y318370D01*
X230512Y314630D02*
Y318370D01*
X230555Y310370D02*
X237445D01*
X230555Y306630D02*
X237445D01*
X230555D02*
Y310370D01*
X237445Y306630D02*
Y310370D01*
X724055Y302130D02*
X730945D01*
X724055Y305870D02*
X730945D01*
Y302130D02*
Y305870D01*
X724055Y302130D02*
Y305870D01*
Y314870D02*
X730945D01*
X724055Y311130D02*
X730945D01*
X724055D02*
Y314870D01*
X730945Y311130D02*
Y314870D01*
X394555Y241870D02*
X401445D01*
X394555Y238130D02*
X401445D01*
X394555D02*
Y241870D01*
X401445Y238130D02*
Y241870D01*
X394555Y179870D02*
X401445D01*
X394555Y176130D02*
X401445D01*
X394555D02*
Y179870D01*
X401445Y176130D02*
Y179870D01*
Y166130D02*
Y169870D01*
X394555Y166130D02*
Y169870D01*
Y166130D02*
X401445D01*
X394555Y169870D02*
X401445D01*
X197644Y185370D02*
X204534D01*
X197644Y181630D02*
X204534D01*
X197644D02*
Y185370D01*
X204534Y181630D02*
Y185370D01*
X702445Y174630D02*
Y178370D01*
X695555Y174630D02*
Y178370D01*
Y174630D02*
X702445D01*
X695555Y178370D02*
X702445D01*
X236555Y100870D02*
X243445D01*
X236555Y97130D02*
X243445D01*
X236555D02*
Y100870D01*
X243445Y97130D02*
Y100870D01*
X76055Y480870D02*
X82945D01*
X76055Y477130D02*
X82945D01*
X76055D02*
Y480870D01*
X82945Y477130D02*
Y480870D01*
X202644Y372370D02*
X209534D01*
X202644Y368630D02*
X209534D01*
X202644D02*
Y372370D01*
X209534Y368630D02*
Y372370D01*
X720055Y92630D02*
X726945D01*
X720055Y96370D02*
X726945D01*
Y92630D02*
Y96370D01*
X720055Y92630D02*
Y96370D01*
X753055Y369130D02*
X759945D01*
X753055Y372870D02*
X759945D01*
Y369130D02*
Y372870D01*
X753055Y369130D02*
Y372870D01*
X720055Y83163D02*
X726945D01*
X720055Y79423D02*
X726945D01*
X720055D02*
Y83163D01*
X726945Y79423D02*
Y83163D01*
X759055Y183130D02*
X765945D01*
X759055Y186870D02*
X765945D01*
Y183130D02*
Y186870D01*
X759055Y183130D02*
Y186870D01*
X881555Y472130D02*
X888445D01*
X881555Y475870D02*
X888445D01*
Y472130D02*
Y475870D01*
X881555Y472130D02*
Y475870D01*
X888445Y458836D02*
Y462577D01*
X881555Y458836D02*
Y462577D01*
Y458836D02*
X888445D01*
X881555Y462577D02*
X888445D01*
X627630Y115445D02*
X631370D01*
X627630Y108555D02*
X631370D01*
Y115445D01*
X627630Y108555D02*
Y115445D01*
X647630D02*
X651370D01*
X647630Y108555D02*
X651370D01*
Y115445D01*
X647630Y108555D02*
Y115445D01*
X654945Y262130D02*
Y265870D01*
X648055Y262130D02*
Y265870D01*
Y262130D02*
X654945D01*
X648055Y265870D02*
X654945D01*
X667630Y115445D02*
X671370D01*
X667630Y108555D02*
X671370D01*
Y115445D01*
X667630Y108555D02*
Y115445D01*
X76055Y462836D02*
Y466577D01*
X82945Y462836D02*
Y466577D01*
X76055D02*
X82945D01*
X76055Y462836D02*
X82945D01*
X197644Y168747D02*
X204534D01*
X197644Y172487D02*
X204534D01*
Y168747D02*
Y172487D01*
X197644Y168747D02*
Y172487D01*
X765945Y169247D02*
Y172987D01*
X759055Y169247D02*
Y172987D01*
Y169247D02*
X765945D01*
X759055Y172987D02*
X765945D01*
X317445Y180630D02*
Y184370D01*
X310555Y180630D02*
Y184370D01*
Y180630D02*
X317445D01*
X310555Y184370D02*
X317445D01*
X382130Y107055D02*
Y113945D01*
X385870Y107055D02*
Y113945D01*
X382130Y107055D02*
X385870D01*
X382130Y113945D02*
X385870D01*
X402130D02*
X405870D01*
X402130Y107055D02*
X405870D01*
Y113945D01*
X402130Y107055D02*
Y113945D01*
X422130D02*
X425870D01*
X422130Y107055D02*
X425870D01*
Y113945D01*
X422130Y107055D02*
Y113945D01*
X695555Y171370D02*
X702445D01*
X695555Y167630D02*
X702445D01*
X695555D02*
Y171370D01*
X702445Y167630D02*
Y171370D01*
X695555Y185370D02*
X702445D01*
X695555Y181630D02*
X702445D01*
X695555D02*
Y185370D01*
X702445Y181630D02*
Y185370D01*
X637630Y108555D02*
Y115445D01*
X641370Y108555D02*
Y115445D01*
X637630Y108555D02*
X641370D01*
X637630Y115445D02*
X641370D01*
X677484Y108555D02*
Y115445D01*
X681224Y108555D02*
Y115445D01*
X677484Y108555D02*
X681224D01*
X677484Y115445D02*
X681224D01*
X657630Y108555D02*
Y115445D01*
X661370Y108555D02*
Y115445D01*
X657630Y108555D02*
X661370D01*
X657630Y115445D02*
X661370D01*
X310555Y190870D02*
X317445D01*
X310555Y187130D02*
X317445D01*
X310555D02*
Y190870D01*
X317445Y187130D02*
Y190870D01*
X310555Y177870D02*
X317445D01*
X310555Y174130D02*
X317445D01*
X310555D02*
Y177870D01*
X317445Y174130D02*
Y177870D01*
X299055Y262130D02*
X305945D01*
X299055Y265870D02*
X305945D01*
Y262130D02*
Y265870D01*
X299055Y262130D02*
Y265870D01*
X753055Y359966D02*
X759945D01*
X753055Y356225D02*
X759945D01*
X753055D02*
Y359966D01*
X759945Y356225D02*
Y359966D01*
X412130Y107055D02*
Y113945D01*
X415870Y107055D02*
Y113945D01*
X412130Y107055D02*
X415870D01*
X412130Y113945D02*
X415870D01*
X236555Y83923D02*
X243445D01*
X236555Y87663D02*
X243445D01*
Y83923D02*
Y87663D01*
X236555Y83923D02*
Y87663D01*
X392130Y107055D02*
Y113945D01*
X395870Y107055D02*
Y113945D01*
X392130Y107055D02*
X395870D01*
X392130Y113945D02*
X395870D01*
X202644Y355130D02*
X209534D01*
X202644Y358870D02*
X209534D01*
Y355130D02*
Y358870D01*
X202644Y355130D02*
Y358870D01*
X371776Y107055D02*
Y113945D01*
X375516Y107055D02*
Y113945D01*
X371776Y107055D02*
X375516D01*
X371776Y113945D02*
X375516D01*
X401445Y206130D02*
Y209870D01*
X394555Y206130D02*
Y209870D01*
Y206130D02*
X401445D01*
X394555Y209870D02*
X401445D01*
Y216130D02*
Y219870D01*
X394555Y216130D02*
Y219870D01*
Y216130D02*
X401445D01*
X394555Y219870D02*
X401445D01*
Y186130D02*
Y189870D01*
X394555Y186130D02*
Y189870D01*
Y186130D02*
X401445D01*
X394555Y189870D02*
X401445D01*
Y196130D02*
Y199870D01*
X394555Y196130D02*
Y199870D01*
Y196130D02*
X401445D01*
X394555Y199870D02*
X401445D01*
Y248130D02*
Y251870D01*
X394555Y248130D02*
Y251870D01*
Y248130D02*
X401445D01*
X394555Y251870D02*
X401445D01*
Y258130D02*
Y261870D01*
X394555Y258130D02*
Y261870D01*
Y258130D02*
X401445D01*
X394555Y261870D02*
X401445D01*
Y228130D02*
Y231870D01*
X394555Y228130D02*
Y231870D01*
Y228130D02*
X401445D01*
X394555Y231870D02*
X401445D01*
X645236Y237236D02*
X674764D01*
Y166764D02*
Y237236D01*
X645236Y166764D02*
X674764D01*
X645236D02*
Y237236D01*
Y232236D02*
X650236Y237236D01*
X260236Y243555D02*
X289764D01*
Y173083D02*
Y243555D01*
X260236Y173083D02*
X289764D01*
X260236D02*
Y243555D01*
Y238555D02*
X265236Y243555D01*
M02*
